<?xml version="1.0" encoding="UTF-8" standalone="no"?>
<!-- Created with Inkscape (http://www.inkscape.org/) -->

<svg
   width="210mm"
   height="297mm"
   viewBox="0 0 210 297"
   version="1.1"
   id="svg912"
   inkscape:version="1.1.2 (0a00cf5339, 2022-02-04)"
   sodipodi:docname="MirrorCell2.svg"
   xmlns:inkscape="http://www.inkscape.org/namespaces/inkscape"
   xmlns:sodipodi="http://sodipodi.sourceforge.net/DTD/sodipodi-0.dtd"
   xmlns="http://www.w3.org/2000/svg"
   xmlns:svg="http://www.w3.org/2000/svg">
  <sodipodi:namedview
     id="namedview914"
     pagecolor="#ffffff"
     bordercolor="#cccccc"
     borderopacity="1"
     inkscape:pageshadow="0"
     inkscape:pageopacity="1"
     inkscape:pagecheckerboard="0"
     inkscape:document-units="mm"
     showgrid="false"
     inkscape:zoom="0.51150168"
     inkscape:cx="418.37595"
     inkscape:cy="703.81001"
     inkscape:window-width="1920"
     inkscape:window-height="1022"
     inkscape:window-x="0"
     inkscape:window-y="0"
     inkscape:window-maximized="1"
     inkscape:current-layer="layer1" />
  <defs
     id="defs909" />
  <g
     inkscape:label="Layer 1"
     inkscape:groupmode="layer"
     id="layer1">
    <path
       id="rect1847"
       style="fill:#7ce0fc;fill-opacity:0.548195;stroke:#474747;stroke-width:3.99999;stroke-opacity:0.718039"
       d="M 77.591797 13.228516 L 77.591797 88.443359 C 77.591797 88.651158 66.419093 88.818359 52.541016 88.818359 L 2 88.818359 L 2 1033.6992 L 52.541016 1033.6992 C 66.419093 1033.6992 77.591797 1033.8667 77.591797 1034.0742 L 77.591797 1109.291 L 1022.4746 1109.291 L 1022.4746 1034.0742 C 1022.4746 1033.8663 1033.6473 1033.6992 1047.5254 1033.6992 L 1098.0645 1033.6992 L 1098.0645 88.818359 L 1047.5254 88.818359 C 1033.6473 88.818359 1022.4746 88.651158 1022.4746 88.443359 L 1022.4746 13.228516 L 77.591797 13.228516 z M 151.77734 146.86133 L 398.85156 146.86133 L 398.85156 218.62109 A 374.64855 374.64858 0 0 0 207.50391 410.07812 L 135.63477 410.07812 L 135.63477 147.12695 C 135.63477 146.97993 142.83441 146.86133 151.77734 146.86133 z M 701.21289 146.86133 L 948.28711 146.86133 C 957.23004 146.86133 964.42969 146.97993 964.42969 147.12695 L 964.42969 410.07812 L 892.55859 410.07812 A 374.64855 374.64858 0 0 0 701.21289 218.62305 L 701.21289 146.86133 z M 715.74609 259.74414 A 15.11811 15.11811 0 0 1 722.94531 261.76562 A 15.11811 15.11811 0 0 1 728.47852 282.41602 A 15.11811 15.11811 0 0 1 707.82812 287.95117 A 15.11811 15.11811 0 0 1 702.29297 267.29883 A 15.11811 15.11811 0 0 1 711.47266 260.25391 A 15.11811 15.11811 0 0 1 715.74609 259.74414 z M 680.42578 313.06445 A 22.677165 22.677165 0 0 1 691.76367 316.10156 A 22.677165 22.677165 0 0 1 700.06445 347.08008 A 22.677165 22.677165 0 0 1 669.08789 355.38086 A 22.677165 22.677165 0 0 1 660.78711 324.40234 A 22.677165 22.677165 0 0 1 680.42578 313.06445 z M 550.03125 373.60742 A 187.6524 187.6524 0 0 1 737.68555 561.25977 A 187.6524 187.6524 0 0 1 550.03125 748.91211 A 187.6524 187.6524 0 0 1 362.37891 561.25977 A 187.6524 187.6524 0 0 1 550.03125 373.60742 z M 289.24414 538.91211 A 22.677165 22.677165 0 0 1 311.92188 561.58984 A 22.677165 22.677165 0 0 1 289.24414 584.26758 A 22.677165 22.677165 0 0 1 266.56836 561.58984 A 22.677165 22.677165 0 0 1 289.24414 538.91211 z M 219.32422 546.14258 A 15.11811 15.11811 0 0 1 234.44141 561.25977 A 15.11811 15.11811 0 0 1 219.32422 576.37891 A 15.11811 15.11811 0 0 1 204.20508 561.25977 A 15.11811 15.11811 0 0 1 219.32422 546.14258 z M 135.63477 712.44141 L 207.50391 712.44141 A 374.64855 374.64858 0 0 0 398.85156 903.89844 L 398.85156 975.6582 L 151.77734 975.6582 C 142.83441 975.6582 135.63477 975.5396 135.63477 975.39258 L 135.63477 712.44141 z M 892.55859 712.44141 L 964.42969 712.44141 L 964.42969 975.39258 C 964.42969 975.5396 957.23004 975.6582 948.28711 975.6582 L 701.21289 975.6582 L 701.21289 903.89648 A 374.64855 374.64858 0 0 0 892.55859 712.44141 z M 680.42578 764.76172 A 22.677165 22.677165 0 0 1 700.06445 776.09961 A 22.677165 22.677165 0 0 1 691.76367 807.07617 A 22.677165 22.677165 0 0 1 660.78711 798.77734 A 22.677165 22.677165 0 0 1 669.08789 767.79883 A 22.677165 22.677165 0 0 1 680.42578 764.76172 z M 715.02734 832.54688 A 15.11811 15.11811 0 0 1 719.29883 833.05859 A 15.11811 15.11811 0 0 1 728.47852 840.10352 A 15.11811 15.11811 0 0 1 722.94531 860.75391 A 15.11811 15.11811 0 0 1 702.29297 855.2207 A 15.11811 15.11811 0 0 1 707.82812 834.56836 A 15.11811 15.11811 0 0 1 715.02734 832.54688 z "
       transform="scale(0.26458333)" />
  </g>
</svg>
