<?xml version="1.0" encoding="UTF-8" standalone="no"?>
<svg
   version="1.2"
   width="594mm"
   height="841mm"
   viewBox="0 0 59400 84100"
   preserveAspectRatio="xMidYMid"
   fill-rule="evenodd"
   stroke-width="28.222"
   stroke-linejoin="round"
   xml:space="preserve"
   id="svg76"
   sodipodi:docname="ROckerBox.svg"
   inkscape:version="1.1.2 (0a00cf5339, 2022-02-04)"
   xmlns:inkscape="http://www.inkscape.org/namespaces/inkscape"
   xmlns:sodipodi="http://sodipodi.sourceforge.net/DTD/sodipodi-0.dtd"
   xmlns="http://www.w3.org/2000/svg"
   xmlns:svg="http://www.w3.org/2000/svg"
   xmlns:ooo="http://xml.openoffice.org/svg/export"><sodipodi:namedview
   id="namedview78"
   pagecolor="#ffffff"
   bordercolor="#cccccc"
   borderopacity="1"
   inkscape:pageshadow="0"
   inkscape:pageopacity="1"
   inkscape:pagecheckerboard="0"
   inkscape:document-units="mm"
   showgrid="false"
   inkscape:zoom="0.18775684"
   inkscape:cx="-226.3566"
   inkscape:cy="1949.3297"
   inkscape:window-width="1920"
   inkscape:window-height="1022"
   inkscape:window-x="0"
   inkscape:window-y="0"
   inkscape:window-maximized="1"
   inkscape:current-layer="svg76" />
 <defs
   class="ClipPathGroup"
   id="defs8">
  <clipPath
   id="presentation_clip_path"
   clipPathUnits="userSpaceOnUse">
   <rect
   x="0"
   y="0"
   width="29700"
   height="42000"
   id="rect2" />
  </clipPath>
  <clipPath
   id="presentation_clip_path_shrink"
   clipPathUnits="userSpaceOnUse">
   <rect
   x="29"
   y="42"
   width="29641"
   height="41916"
   id="rect5" />
  </clipPath>
 </defs>
 <defs
   class="TextShapeIndex"
   id="defs12">
  <g
   ooo:slide="id1"
   ooo:id-list="id3"
   id="g10" />
 </defs>
 <defs
   class="EmbeddedBulletChars"
   id="defs44">
  <g
   id="bullet-char-template-57356"
   transform="matrix(4.8828125e-4,0,0,-4.8828125e-4,0,0)">
   <path
   d="M 580,1141 1163,571 580,0 -4,571 Z"
   id="path14" />
  </g>
  <g
   id="bullet-char-template-57354"
   transform="matrix(4.8828125e-4,0,0,-4.8828125e-4,0,0)">
   <path
   d="M 8,1128 H 1137 V 0 H 8 Z"
   id="path17" />
  </g>
  <g
   id="bullet-char-template-10146"
   transform="matrix(4.8828125e-4,0,0,-4.8828125e-4,0,0)">
   <path
   d="M 174,0 602,739 174,1481 1456,739 Z M 1358,739 309,1346 659,739 Z"
   id="path20" />
  </g>
  <g
   id="bullet-char-template-10132"
   transform="matrix(4.8828125e-4,0,0,-4.8828125e-4,0,0)">
   <path
   d="M 2015,739 1276,0 H 717 l 543,543 H 174 v 393 h 1086 l -543,545 h 557 z"
   id="path23" />
  </g>
  <g
   id="bullet-char-template-10007"
   transform="matrix(4.8828125e-4,0,0,-4.8828125e-4,0,0)">
   <path
   d="m 0,-2 c -7,16 -16,29 -25,39 l 381,530 c -94,256 -141,385 -141,387 0,25 13,38 40,38 9,0 21,-2 34,-5 21,4 42,12 65,25 l 27,-13 111,-251 280,301 64,-25 24,25 c 21,-10 41,-24 62,-43 C 886,937 835,863 770,784 769,783 710,716 594,584 L 774,223 c 0,-27 -21,-55 -63,-84 l 16,-20 C 717,90 699,76 672,76 641,76 570,178 457,381 L 164,-76 c -22,-34 -53,-51 -92,-51 -42,0 -63,17 -64,51 -7,9 -10,24 -10,44 0,9 1,19 2,30 z"
   id="path26" />
  </g>
  <g
   id="bullet-char-template-10004"
   transform="matrix(4.8828125e-4,0,0,-4.8828125e-4,0,0)">
   <path
   d="M 285,-33 C 182,-33 111,30 74,156 52,228 41,333 41,471 c 0,78 14,145 41,201 34,71 87,106 158,106 53,0 88,-31 106,-94 l 23,-176 c 8,-64 28,-97 59,-98 l 735,706 c 11,11 33,17 66,17 42,0 63,-15 63,-46 V 965 c 0,-36 -10,-64 -30,-84 L 442,47 C 390,-6 338,-33 285,-33 Z"
   id="path29" />
  </g>
  <g
   id="bullet-char-template-9679"
   transform="matrix(4.8828125e-4,0,0,-4.8828125e-4,0,0)">
   <path
   d="M 813,0 C 632,0 489,54 383,161 276,268 223,411 223,592 c 0,181 53,324 160,431 106,107 249,161 430,161 179,0 323,-54 432,-161 108,-107 162,-251 162,-431 0,-180 -54,-324 -162,-431 C 1136,54 992,0 813,0 Z"
   id="path32" />
  </g>
  <g
   id="bullet-char-template-8226"
   transform="matrix(4.8828125e-4,0,0,-4.8828125e-4,0,0)">
   <path
   d="m 346,457 c -73,0 -137,26 -191,78 -54,51 -81,114 -81,188 0,73 27,136 81,188 54,52 118,78 191,78 73,0 134,-26 185,-79 51,-51 77,-114 77,-187 0,-75 -25,-137 -76,-188 -50,-52 -112,-78 -186,-78 z"
   id="path35" />
  </g>
  <g
   id="bullet-char-template-8211"
   transform="matrix(4.8828125e-4,0,0,-4.8828125e-4,0,0)">
   <path
   d="M -4,459 H 1135 V 606 H -4 Z"
   id="path38" />
  </g>
  <g
   id="bullet-char-template-61548"
   transform="matrix(4.8828125e-4,0,0,-4.8828125e-4,0,0)">
   <path
   d="m 173,740 c 0,163 58,303 173,419 116,115 255,173 419,173 163,0 302,-58 418,-173 116,-116 174,-256 174,-419 0,-163 -58,-303 -174,-418 C 1067,206 928,148 765,148 601,148 462,206 346,322 231,437 173,577 173,740 Z"
   id="path41" />
  </g>
 </defs>
 
 
<g
   id="g49"
   transform="translate(3.0517578e-6,-2.0177733e-4)">
  <g
   id="id2"
   class="Master_Slide">
   <g
   id="bg-id2"
   class="Background" />
   <g
   id="bo-id2"
   class="BackgroundObjects" />
  </g>
 </g><rect
   style="fill:#7ce0fc;fill-opacity:0.548195;stroke:#474747;stroke-width:105.833;stroke-opacity:0.718039"
   id="rect2339"
   width="0"
   height="14098.555"
   x="22397.273"
   y="164781.28"
   rx="0"
   ry="0" /><g
   id="g1474"
   transform="translate(3.0517578e-6,17111.278)"><path
     id="rect966"
     style="fill:#7ce0fc;fill-opacity:0.548195;stroke:#474747;stroke-width:242.475;stroke-opacity:0.718039"
     d="M 121.2375,121.2208 V 66815.185 c 0,28.97 294.4976,52.3 660.2695,52.3 h 33542.871 c 365.77,0 660.269,-23.33 660.269,-52.3 V 121.2208 A 25299.999,25299.999 0 0 1 17552.938,7341.6578 25299.999,25299.999 0 0 1 121.2375,121.2208 Z M 30093.267,10617.427 v 17980.038 l -8990.098,-8990.15 z m -25050.6245,0.725 8989.4255,8989.163 -8989.4255,8989.43 z m 12524.9205,12524.713 8999.355,8999.35 v 4925.85 h -28.525 l -9000.028,9000.01 -9000.0197,-9000.01 v -4925.85 h 29.9207 z m 12496.403,17470.61 v 17980.25 l -8990.046,-8990.15 z m -25050.5724,0.72 8989.4254,8989.38 -8989.4254,8989.42 z m 12524.9714,12524.93 9029.794,9029.78 H 8508.5797 Z" /><rect
     style="fill:#7ce0fc;fill-opacity:0.548195;stroke:#474747;stroke-width:105.833;stroke-opacity:0.718039"
     id="rect875"
     width="1839.7102"
     height="1755.2875"
     x="4288.9102"
     y="18022.646" /><rect
     style="fill:#7ce0fc;fill-opacity:0.548195;stroke:#474747;stroke-width:105.833;stroke-opacity:0.718039"
     id="rect875-1"
     width="1839.7102"
     height="1755.2875"
     x="8716.3037"
     y="14442.951" /><rect
     style="fill:#7ce0fc;fill-opacity:0.548195;stroke:#474747;stroke-width:105.833;stroke-opacity:0.718039"
     id="rect875-5"
     width="1839.7102"
     height="1755.2875"
     x="8570.2168"
     y="23142.826" /><rect
     style="fill:#7ce0fc;fill-opacity:0.548195;stroke:#474747;stroke-width:105.833;stroke-opacity:0.718039"
     id="rect875-44"
     width="1839.7102"
     height="1755.2875"
     x="4164.9917"
     y="48172.539" /><rect
     style="fill:#7ce0fc;fill-opacity:0.548195;stroke:#474747;stroke-width:105.833;stroke-opacity:0.718039"
     id="rect875-1-4"
     width="1839.7102"
     height="1755.2875"
     x="8592.3857"
     y="44592.836" /><rect
     style="fill:#7ce0fc;fill-opacity:0.548195;stroke:#474747;stroke-width:105.833;stroke-opacity:0.718039"
     id="rect875-5-7"
     width="1839.7102"
     height="1755.2875"
     x="8446.2979"
     y="53292.719" /><rect
     style="fill:#7ce0fc;fill-opacity:0.548195;stroke:#474747;stroke-width:105.833;stroke-opacity:0.718039"
     id="rect875-9"
     width="1839.7102"
     height="1755.2875"
     x="11596.562"
     y="39877.781" /><rect
     style="fill:#7ce0fc;fill-opacity:0.548195;stroke:#474747;stroke-width:105.833;stroke-opacity:0.718039"
     id="rect875-8"
     width="1839.7102"
     height="1755.2875"
     x="22171.398"
     y="27652.086" /><rect
     style="fill:#7ce0fc;fill-opacity:0.548195;stroke:#474747;stroke-width:105.833;stroke-opacity:0.718039"
     id="rect875-4"
     width="1839.7102"
     height="1755.2875"
     x="29077.592"
     y="18664.877" /><rect
     style="fill:#7ce0fc;fill-opacity:0.548195;stroke:#474747;stroke-width:105.833;stroke-opacity:0.718039"
     id="rect875-81"
     width="1839.7102"
     height="1755.2875"
     x="24374.457"
     y="14307.512" /><rect
     style="fill:#7ce0fc;fill-opacity:0.548195;stroke:#474747;stroke-width:105.833;stroke-opacity:0.718039"
     id="rect875-0"
     width="1839.7102"
     height="1755.2875"
     x="24812.701"
     y="22846.68" /><rect
     style="fill:#7ce0fc;fill-opacity:0.548195;stroke:#474747;stroke-width:105.833;stroke-opacity:0.718039"
     id="rect875-4-3"
     width="1839.7102"
     height="1755.2875"
     x="28961.957"
     y="48982.766" /><rect
     style="fill:#7ce0fc;fill-opacity:0.548195;stroke:#474747;stroke-width:105.833;stroke-opacity:0.718039"
     id="rect875-81-0"
     width="1839.7102"
     height="1755.2875"
     x="24258.822"
     y="44625.398" /><rect
     style="fill:#7ce0fc;fill-opacity:0.548195;stroke:#474747;stroke-width:105.833;stroke-opacity:0.718039"
     id="rect875-0-4"
     width="1839.7102"
     height="1755.2875"
     x="24697.066"
     y="53164.531" /><rect
     style="fill:#7ce0fc;fill-opacity:0.548195;stroke:#474747;stroke-width:105.833;stroke-opacity:0.718039"
     id="rect875-9-6"
     width="1839.7102"
     height="1755.2875"
     x="16955.105"
     y="61345.953" /><rect
     style="fill:#7ce0fc;fill-opacity:0.548195;stroke:#474747;stroke-width:105.833;stroke-opacity:0.718039"
     id="rect875-9-3"
     width="1839.7102"
     height="1755.2875"
     x="20993.311"
     y="57089.168" /><rect
     style="fill:#7ce0fc;fill-opacity:0.548195;stroke:#474747;stroke-width:105.833;stroke-opacity:0.718039"
     id="rect875-9-1"
     width="1839.7102"
     height="1755.2875"
     x="12170.432"
     y="57155.68" /></g></svg>
