G04 #@! TF.GenerationSoftware,KiCad,Pcbnew,7.0.5-unknown-202306101748~6fbdf8f0e2~ubuntu22.04.1*
G04 #@! TF.CreationDate,2023-09-30T13:34:23+01:00*
G04 #@! TF.ProjectId,things,7468696e-6773-42e6-9b69-6361645f7063,rev?*
G04 #@! TF.SameCoordinates,Original*
G04 #@! TF.FileFunction,Copper,L2,Bot*
G04 #@! TF.FilePolarity,Positive*
%FSLAX46Y46*%
G04 Gerber Fmt 4.6, Leading zero omitted, Abs format (unit mm)*
G04 Created by KiCad (PCBNEW 7.0.5-unknown-202306101748~6fbdf8f0e2~ubuntu22.04.1) date 2023-09-30 13:34:23*
%MOMM*%
%LPD*%
G01*
G04 APERTURE LIST*
G04 #@! TA.AperFunction,ComponentPad*
%ADD10O,1.700000X1.700000*%
G04 #@! TD*
G04 #@! TA.AperFunction,ComponentPad*
%ADD11R,1.700000X1.700000*%
G04 #@! TD*
G04 #@! TA.AperFunction,ComponentPad*
%ADD12C,2.000000*%
G04 #@! TD*
G04 #@! TA.AperFunction,ComponentPad*
%ADD13C,6.400000*%
G04 #@! TD*
G04 #@! TA.AperFunction,ComponentPad*
%ADD14C,1.397000*%
G04 #@! TD*
G04 #@! TA.AperFunction,ComponentPad*
%ADD15O,3.500000X2.200000*%
G04 #@! TD*
G04 #@! TA.AperFunction,ComponentPad*
%ADD16R,2.500000X1.500000*%
G04 #@! TD*
G04 #@! TA.AperFunction,ComponentPad*
%ADD17O,2.500000X1.500000*%
G04 #@! TD*
G04 #@! TA.AperFunction,ViaPad*
%ADD18C,0.800000*%
G04 #@! TD*
G04 #@! TA.AperFunction,Conductor*
%ADD19C,0.250000*%
G04 #@! TD*
G04 #@! TA.AperFunction,Conductor*
%ADD20C,0.500000*%
G04 #@! TD*
G04 APERTURE END LIST*
D10*
X151535000Y-166370000D03*
D11*
X151535000Y-168910000D03*
D10*
X151535000Y-171450000D03*
X103505000Y-160020000D03*
X106045000Y-160020000D03*
D11*
X108585000Y-160020000D03*
D10*
X111125000Y-160020000D03*
X113665000Y-160020000D03*
X116205000Y-160020000D03*
X118745000Y-160020000D03*
D11*
X121285000Y-160020000D03*
D10*
X123825000Y-160020000D03*
X126365000Y-160020000D03*
X128905000Y-160020000D03*
X131445000Y-160020000D03*
D11*
X133985000Y-160020000D03*
D10*
X136525000Y-160020000D03*
X139065000Y-160020000D03*
X141605000Y-160020000D03*
X144145000Y-160020000D03*
D11*
X146685000Y-160020000D03*
D10*
X149225000Y-160020000D03*
X151765000Y-160020000D03*
X151765000Y-177800000D03*
X149225000Y-177800000D03*
D11*
X146685000Y-177800000D03*
D10*
X144145000Y-177800000D03*
X141605000Y-177800000D03*
X139065000Y-177800000D03*
X136525000Y-177800000D03*
D11*
X133985000Y-177800000D03*
D10*
X131445000Y-177800000D03*
X128905000Y-177800000D03*
X126365000Y-177800000D03*
X123825000Y-177800000D03*
D11*
X121285000Y-177800000D03*
D10*
X118745000Y-177800000D03*
X116205000Y-177800000D03*
X113665000Y-177800000D03*
X111125000Y-177800000D03*
D11*
X108585000Y-177800000D03*
D10*
X106045000Y-177800000D03*
X103505000Y-177800000D03*
D11*
X123825000Y-114935000D03*
D10*
X126365000Y-114935000D03*
X128905000Y-114935000D03*
X131445000Y-114935000D03*
D11*
X103505000Y-121285000D03*
D10*
X106045000Y-121285000D03*
X108585000Y-121285000D03*
X111125000Y-121285000D03*
X113665000Y-121285000D03*
X116205000Y-121285000D03*
X118745000Y-121285000D03*
D12*
X139145000Y-104780000D03*
X144145000Y-109780000D03*
X141145000Y-109780000D03*
X134145000Y-109780000D03*
X137145000Y-109780000D03*
X116031000Y-104780000D03*
X121031000Y-109780000D03*
X118031000Y-109780000D03*
X111031000Y-109780000D03*
X114031000Y-109780000D03*
D13*
X105410000Y-105410000D03*
D14*
X105410000Y-145415000D03*
X113030000Y-145415000D03*
X105410000Y-150495000D03*
X113030000Y-150495000D03*
D13*
X149860000Y-184785000D03*
X105410000Y-184785000D03*
D14*
X116205000Y-145415000D03*
X123825000Y-145415000D03*
X116205000Y-150495000D03*
X123825000Y-150495000D03*
D11*
X151765000Y-134620000D03*
D10*
X151765000Y-137160000D03*
D14*
X142240000Y-145415000D03*
X149860000Y-145415000D03*
X142240000Y-150495000D03*
X149860000Y-150495000D03*
D11*
X139700000Y-126370000D03*
D10*
X139700000Y-123830000D03*
D13*
X149860000Y-105410000D03*
D14*
X131445000Y-145415000D03*
X139065000Y-145415000D03*
X131445000Y-150495000D03*
X139065000Y-150495000D03*
D15*
X151765000Y-122805000D03*
X151765000Y-131005000D03*
D16*
X151765000Y-124905000D03*
D17*
X151765000Y-126905000D03*
X151765000Y-128905000D03*
D11*
X139700000Y-139065000D03*
D10*
X139700000Y-141605000D03*
D11*
X126365000Y-104140000D03*
D10*
X128905000Y-104140000D03*
D18*
X144960000Y-127890000D03*
X134620000Y-134620000D03*
X145415000Y-137160000D03*
X147955000Y-128270000D03*
X148680193Y-137075632D03*
X114300000Y-134620000D03*
X146050000Y-154305000D03*
X131520000Y-107680000D03*
X152290000Y-173780000D03*
X111760000Y-183515000D03*
X138480000Y-132480000D03*
X121285000Y-175260000D03*
X133350000Y-156210000D03*
X145820000Y-136090000D03*
X110490000Y-155575000D03*
X116840000Y-156210000D03*
X125730000Y-117475000D03*
X140000000Y-132700000D03*
X109220000Y-147955000D03*
X132900000Y-185400000D03*
X145800000Y-128900000D03*
X150495000Y-111125000D03*
X120015000Y-147955000D03*
X135255000Y-147955000D03*
X127635000Y-175260000D03*
X113665000Y-165100000D03*
X146050000Y-146685000D03*
X146685000Y-163830000D03*
X139550000Y-128850000D03*
X147955000Y-169545000D03*
X137450000Y-136800000D03*
X119380000Y-182245000D03*
X109220000Y-152400000D03*
X139700000Y-175260000D03*
X137795000Y-181610000D03*
X104775000Y-168910000D03*
X109220000Y-174625000D03*
D19*
X148595825Y-137160000D02*
X148680193Y-137075632D01*
X147575000Y-127890000D02*
X147955000Y-128270000D01*
D20*
X134620000Y-134620000D02*
X114300000Y-134620000D01*
D19*
X145415000Y-137160000D02*
X148595825Y-137160000D01*
X144960000Y-127890000D02*
X147575000Y-127890000D01*
G04 #@! TA.AperFunction,Conductor*
G36*
X146965074Y-100332890D02*
G01*
X146968741Y-100333032D01*
X147113339Y-100342922D01*
X147527287Y-100371238D01*
X147531474Y-100371668D01*
X148085875Y-100447869D01*
X148089991Y-100448578D01*
X148637891Y-100562434D01*
X148641974Y-100563430D01*
X149180801Y-100714402D01*
X149184821Y-100715678D01*
X149599598Y-100863090D01*
X149712082Y-100903067D01*
X149716016Y-100904617D01*
X150229266Y-101127553D01*
X150233083Y-101129369D01*
X150481502Y-101258089D01*
X150729931Y-101386815D01*
X150733601Y-101388879D01*
X151211727Y-101679633D01*
X151215257Y-101681949D01*
X151288150Y-101733403D01*
X151331568Y-101788145D01*
X151338497Y-101857670D01*
X151306738Y-101919905D01*
X151246375Y-101955090D01*
X151176571Y-101952054D01*
X151172204Y-101950471D01*
X151004936Y-101886262D01*
X150630330Y-101785887D01*
X150630323Y-101785886D01*
X150247287Y-101725219D01*
X149860001Y-101704922D01*
X149859999Y-101704922D01*
X149472712Y-101725219D01*
X149089676Y-101785886D01*
X149089669Y-101785887D01*
X148715063Y-101886262D01*
X148353005Y-102025244D01*
X148007456Y-102201310D01*
X147682206Y-102412531D01*
X147424648Y-102621095D01*
X147424648Y-102621096D01*
X148915819Y-104112266D01*
X148725130Y-104275130D01*
X148562267Y-104465818D01*
X147071096Y-102974648D01*
X147071095Y-102974648D01*
X146862531Y-103232206D01*
X146651310Y-103557456D01*
X146475244Y-103903005D01*
X146336262Y-104265063D01*
X146235887Y-104639669D01*
X146235886Y-104639676D01*
X146175219Y-105022712D01*
X146154922Y-105409999D01*
X146154922Y-105410000D01*
X146175219Y-105797287D01*
X146235886Y-106180323D01*
X146235887Y-106180330D01*
X146336262Y-106554936D01*
X146475244Y-106916994D01*
X146651310Y-107262543D01*
X146862531Y-107587793D01*
X147071095Y-107845350D01*
X147071096Y-107845350D01*
X148562266Y-106354180D01*
X148725130Y-106544870D01*
X148915818Y-106707732D01*
X147424648Y-108198903D01*
X147424649Y-108198904D01*
X147682206Y-108407468D01*
X148007456Y-108618689D01*
X148353005Y-108794755D01*
X148715063Y-108933737D01*
X149089669Y-109034112D01*
X149089676Y-109034113D01*
X149472712Y-109094780D01*
X149859999Y-109115078D01*
X149860001Y-109115078D01*
X150247287Y-109094780D01*
X150630323Y-109034113D01*
X150630330Y-109034112D01*
X151004936Y-108933737D01*
X151366994Y-108794755D01*
X151712543Y-108618689D01*
X152037783Y-108407476D01*
X152037785Y-108407475D01*
X152295350Y-108198902D01*
X150804181Y-106707732D01*
X150994870Y-106544870D01*
X151157733Y-106354180D01*
X152648902Y-107845349D01*
X152857475Y-107587785D01*
X152857476Y-107587783D01*
X153068689Y-107262543D01*
X153244755Y-106916994D01*
X153383737Y-106554936D01*
X153484112Y-106180330D01*
X153484113Y-106180323D01*
X153544780Y-105797287D01*
X153565078Y-105410000D01*
X153565078Y-105409999D01*
X153544780Y-105022712D01*
X153484113Y-104639676D01*
X153484112Y-104639669D01*
X153383737Y-104265063D01*
X153319528Y-104097796D01*
X153313880Y-104028155D01*
X153346779Y-103966516D01*
X153407781Y-103932448D01*
X153477517Y-103936769D01*
X153533847Y-103978105D01*
X153536596Y-103981849D01*
X153588049Y-104054741D01*
X153590370Y-104058279D01*
X153878610Y-104532270D01*
X153881119Y-104536395D01*
X153883195Y-104540086D01*
X154140629Y-105036915D01*
X154142448Y-105040739D01*
X154365380Y-105553980D01*
X154366933Y-105557920D01*
X154554314Y-106085156D01*
X154555596Y-106089192D01*
X154706568Y-106628024D01*
X154707568Y-106632128D01*
X154750769Y-106840019D01*
X154821414Y-107179977D01*
X154822134Y-107184151D01*
X154898327Y-107738510D01*
X154898760Y-107742722D01*
X154936966Y-108301256D01*
X154937108Y-108304955D01*
X154937984Y-108407468D01*
X154939500Y-108584985D01*
X154939500Y-181610014D01*
X154937109Y-181890039D01*
X154936966Y-181893742D01*
X154898760Y-182452276D01*
X154898327Y-182456488D01*
X154822134Y-183010847D01*
X154821414Y-183015021D01*
X154707571Y-183562860D01*
X154706568Y-183566974D01*
X154555596Y-184105806D01*
X154554314Y-184109842D01*
X154366933Y-184637078D01*
X154365380Y-184641018D01*
X154142448Y-185154259D01*
X154140629Y-185158083D01*
X153883195Y-185654912D01*
X153881119Y-185658603D01*
X153590372Y-186136716D01*
X153588049Y-186140257D01*
X153536597Y-186213147D01*
X153481855Y-186256565D01*
X153412330Y-186263494D01*
X153350095Y-186231735D01*
X153314910Y-186171372D01*
X153317946Y-186101568D01*
X153319529Y-186097200D01*
X153383738Y-185929933D01*
X153484112Y-185555330D01*
X153484113Y-185555323D01*
X153544780Y-185172287D01*
X153565078Y-184785000D01*
X153565078Y-184784999D01*
X153544780Y-184397712D01*
X153484113Y-184014676D01*
X153484112Y-184014669D01*
X153383737Y-183640063D01*
X153244755Y-183278005D01*
X153068689Y-182932456D01*
X152857468Y-182607206D01*
X152648904Y-182349649D01*
X152648903Y-182349648D01*
X151157733Y-183840818D01*
X150994870Y-183650130D01*
X150804179Y-183487265D01*
X152295350Y-181996096D01*
X152295350Y-181996095D01*
X152037793Y-181787531D01*
X151712543Y-181576310D01*
X151366994Y-181400244D01*
X151004936Y-181261262D01*
X150630330Y-181160887D01*
X150630323Y-181160886D01*
X150247287Y-181100219D01*
X149860001Y-181079922D01*
X149859999Y-181079922D01*
X149472712Y-181100219D01*
X149089676Y-181160886D01*
X149089669Y-181160887D01*
X148715063Y-181261262D01*
X148353005Y-181400244D01*
X148007456Y-181576310D01*
X147682206Y-181787531D01*
X147424648Y-181996095D01*
X147424648Y-181996096D01*
X148915819Y-183487266D01*
X148725130Y-183650130D01*
X148562267Y-183840818D01*
X147071096Y-182349648D01*
X147071095Y-182349648D01*
X146862531Y-182607206D01*
X146651310Y-182932456D01*
X146475244Y-183278005D01*
X146336262Y-183640063D01*
X146235887Y-184014669D01*
X146235886Y-184014676D01*
X146175219Y-184397712D01*
X146154922Y-184784999D01*
X146154922Y-184785000D01*
X146175219Y-185172287D01*
X146235886Y-185555323D01*
X146235887Y-185555330D01*
X146336262Y-185929936D01*
X146475244Y-186291994D01*
X146651310Y-186637543D01*
X146862531Y-186962793D01*
X147071095Y-187220350D01*
X147071096Y-187220350D01*
X148562266Y-185729179D01*
X148725130Y-185919870D01*
X148915819Y-186082733D01*
X147424648Y-187573903D01*
X147424649Y-187573904D01*
X147682206Y-187782468D01*
X148007456Y-187993689D01*
X148353005Y-188169755D01*
X148715063Y-188308737D01*
X149089669Y-188409112D01*
X149089676Y-188409113D01*
X149472712Y-188469780D01*
X149859999Y-188490078D01*
X149860001Y-188490078D01*
X150247287Y-188469780D01*
X150630323Y-188409113D01*
X150630330Y-188409112D01*
X151004933Y-188308738D01*
X151172200Y-188244529D01*
X151241841Y-188238881D01*
X151303481Y-188271780D01*
X151337549Y-188332782D01*
X151333228Y-188402518D01*
X151291892Y-188458848D01*
X151288147Y-188461597D01*
X151215257Y-188513049D01*
X151211716Y-188515372D01*
X150733613Y-188806112D01*
X150729922Y-188808188D01*
X150233083Y-189065629D01*
X150229259Y-189067448D01*
X149716022Y-189290378D01*
X149712082Y-189291931D01*
X149184837Y-189479315D01*
X149180801Y-189480596D01*
X148641974Y-189631568D01*
X148637864Y-189632570D01*
X148090020Y-189746414D01*
X148085847Y-189747133D01*
X148080833Y-189747823D01*
X147531489Y-189823328D01*
X147527276Y-189823761D01*
X146968741Y-189861966D01*
X146965041Y-189862108D01*
X146685014Y-189864500D01*
X108584986Y-189864500D01*
X108304955Y-189862108D01*
X108301256Y-189861966D01*
X107742722Y-189823760D01*
X107738510Y-189823327D01*
X107184151Y-189747134D01*
X107179977Y-189746414D01*
X106992903Y-189707539D01*
X106632128Y-189632568D01*
X106628024Y-189631568D01*
X106225030Y-189518655D01*
X106089186Y-189480594D01*
X106085156Y-189479314D01*
X105557920Y-189291933D01*
X105553980Y-189290380D01*
X105040739Y-189067448D01*
X105036915Y-189065629D01*
X104706958Y-188894660D01*
X104540075Y-188808189D01*
X104536402Y-188806123D01*
X104058279Y-188515370D01*
X104054741Y-188513049D01*
X103981849Y-188461596D01*
X103938432Y-188406854D01*
X103931503Y-188337329D01*
X103963262Y-188275094D01*
X104023626Y-188239909D01*
X104093429Y-188242945D01*
X104097796Y-188244528D01*
X104265063Y-188308737D01*
X104639669Y-188409112D01*
X104639676Y-188409113D01*
X105022712Y-188469780D01*
X105409999Y-188490078D01*
X105410001Y-188490078D01*
X105797287Y-188469780D01*
X106180323Y-188409113D01*
X106180330Y-188409112D01*
X106554936Y-188308737D01*
X106916994Y-188169755D01*
X107262543Y-187993689D01*
X107587783Y-187782476D01*
X107587785Y-187782475D01*
X107845349Y-187573902D01*
X106354180Y-186082733D01*
X106544870Y-185919870D01*
X106707733Y-185729180D01*
X108198902Y-187220349D01*
X108407475Y-186962785D01*
X108407476Y-186962783D01*
X108618689Y-186637543D01*
X108794755Y-186291994D01*
X108933737Y-185929936D01*
X109034112Y-185555330D01*
X109034113Y-185555323D01*
X109094780Y-185172287D01*
X109115078Y-184785000D01*
X109115078Y-184784999D01*
X109094780Y-184397712D01*
X109034113Y-184014676D01*
X109034112Y-184014669D01*
X108933737Y-183640063D01*
X108794755Y-183278005D01*
X108618689Y-182932456D01*
X108407468Y-182607206D01*
X108198904Y-182349649D01*
X108198903Y-182349648D01*
X106707732Y-183840818D01*
X106544870Y-183650130D01*
X106354179Y-183487266D01*
X107845350Y-181996096D01*
X107845350Y-181996095D01*
X107587793Y-181787531D01*
X107262543Y-181576310D01*
X106916994Y-181400244D01*
X106554936Y-181261262D01*
X106180330Y-181160887D01*
X106180323Y-181160886D01*
X105797287Y-181100219D01*
X105410001Y-181079922D01*
X105409999Y-181079922D01*
X105022712Y-181100219D01*
X104639676Y-181160886D01*
X104639669Y-181160887D01*
X104265063Y-181261262D01*
X103903005Y-181400244D01*
X103557456Y-181576310D01*
X103232206Y-181787531D01*
X102974648Y-181996095D01*
X102974648Y-181996096D01*
X104465818Y-183487267D01*
X104275130Y-183650130D01*
X104112266Y-183840819D01*
X102621096Y-182349648D01*
X102621095Y-182349648D01*
X102412531Y-182607206D01*
X102201310Y-182932456D01*
X102025244Y-183278005D01*
X101886262Y-183640063D01*
X101785887Y-184014669D01*
X101785886Y-184014676D01*
X101725219Y-184397712D01*
X101704922Y-184784999D01*
X101704922Y-184785000D01*
X101725219Y-185172287D01*
X101785886Y-185555323D01*
X101785887Y-185555330D01*
X101886262Y-185929936D01*
X101950471Y-186097204D01*
X101956119Y-186166845D01*
X101923219Y-186228484D01*
X101862218Y-186262552D01*
X101792482Y-186258231D01*
X101736152Y-186216894D01*
X101733403Y-186213150D01*
X101681949Y-186140257D01*
X101679633Y-186136727D01*
X101388880Y-185658603D01*
X101386810Y-185654922D01*
X101129369Y-185158083D01*
X101127550Y-185154259D01*
X100967158Y-184785000D01*
X100904617Y-184641016D01*
X100903067Y-184637082D01*
X100829984Y-184431446D01*
X100715678Y-184109821D01*
X100714402Y-184105801D01*
X100563430Y-183566974D01*
X100562434Y-183562891D01*
X100448578Y-183014991D01*
X100447869Y-183010875D01*
X100371668Y-182456474D01*
X100371237Y-182452276D01*
X100333032Y-181893741D01*
X100332890Y-181890074D01*
X100330500Y-181610014D01*
X100330500Y-177800000D01*
X102149341Y-177800000D01*
X102169936Y-178035403D01*
X102169938Y-178035413D01*
X102231094Y-178263655D01*
X102231096Y-178263659D01*
X102231097Y-178263663D01*
X102311004Y-178435023D01*
X102330965Y-178477830D01*
X102330967Y-178477834D01*
X102439281Y-178632521D01*
X102466505Y-178671401D01*
X102633599Y-178838495D01*
X102710135Y-178892086D01*
X102827165Y-178974032D01*
X102827167Y-178974033D01*
X102827170Y-178974035D01*
X103041337Y-179073903D01*
X103269592Y-179135063D01*
X103440319Y-179150000D01*
X103504999Y-179155659D01*
X103505000Y-179155659D01*
X103505001Y-179155659D01*
X103569681Y-179150000D01*
X103740408Y-179135063D01*
X103968663Y-179073903D01*
X104182830Y-178974035D01*
X104376401Y-178838495D01*
X104543495Y-178671401D01*
X104673424Y-178485842D01*
X104728002Y-178442217D01*
X104797500Y-178435023D01*
X104859855Y-178466546D01*
X104876575Y-178485842D01*
X105006500Y-178671395D01*
X105006505Y-178671401D01*
X105173599Y-178838495D01*
X105250135Y-178892086D01*
X105367165Y-178974032D01*
X105367167Y-178974033D01*
X105367170Y-178974035D01*
X105581337Y-179073903D01*
X105809592Y-179135063D01*
X105980319Y-179150000D01*
X106044999Y-179155659D01*
X106045000Y-179155659D01*
X106045001Y-179155659D01*
X106109681Y-179150000D01*
X106280408Y-179135063D01*
X106508663Y-179073903D01*
X106722830Y-178974035D01*
X106916401Y-178838495D01*
X107038717Y-178716178D01*
X107100036Y-178682696D01*
X107169728Y-178687680D01*
X107225662Y-178729551D01*
X107242577Y-178760528D01*
X107291646Y-178892088D01*
X107291649Y-178892093D01*
X107377809Y-179007187D01*
X107377812Y-179007190D01*
X107492906Y-179093350D01*
X107492913Y-179093354D01*
X107627620Y-179143596D01*
X107627627Y-179143598D01*
X107687155Y-179149999D01*
X107687172Y-179150000D01*
X108335000Y-179150000D01*
X108334999Y-178246494D01*
X108439839Y-178294373D01*
X108548527Y-178310000D01*
X108621473Y-178310000D01*
X108730161Y-178294373D01*
X108835000Y-178246494D01*
X108835000Y-179150000D01*
X109482828Y-179150000D01*
X109482844Y-179149999D01*
X109542372Y-179143598D01*
X109542379Y-179143596D01*
X109677086Y-179093354D01*
X109677093Y-179093350D01*
X109792187Y-179007190D01*
X109792190Y-179007187D01*
X109878350Y-178892093D01*
X109878354Y-178892086D01*
X109927422Y-178760529D01*
X109969293Y-178704595D01*
X110034757Y-178680178D01*
X110103030Y-178695030D01*
X110131285Y-178716181D01*
X110253599Y-178838495D01*
X110330135Y-178892086D01*
X110447165Y-178974032D01*
X110447167Y-178974033D01*
X110447170Y-178974035D01*
X110661337Y-179073903D01*
X110889592Y-179135063D01*
X111060319Y-179150000D01*
X111124999Y-179155659D01*
X111125000Y-179155659D01*
X111125001Y-179155659D01*
X111189681Y-179150000D01*
X111360408Y-179135063D01*
X111588663Y-179073903D01*
X111802830Y-178974035D01*
X111996401Y-178838495D01*
X112163495Y-178671401D01*
X112293424Y-178485842D01*
X112348002Y-178442217D01*
X112417500Y-178435023D01*
X112479855Y-178466546D01*
X112496575Y-178485842D01*
X112626500Y-178671395D01*
X112626505Y-178671401D01*
X112793599Y-178838495D01*
X112870135Y-178892086D01*
X112987165Y-178974032D01*
X112987167Y-178974033D01*
X112987170Y-178974035D01*
X113201337Y-179073903D01*
X113429592Y-179135063D01*
X113600319Y-179150000D01*
X113664999Y-179155659D01*
X113665000Y-179155659D01*
X113665001Y-179155659D01*
X113729681Y-179150000D01*
X113900408Y-179135063D01*
X114128663Y-179073903D01*
X114342830Y-178974035D01*
X114536401Y-178838495D01*
X114703495Y-178671401D01*
X114833424Y-178485842D01*
X114888002Y-178442217D01*
X114957500Y-178435023D01*
X115019855Y-178466546D01*
X115036575Y-178485842D01*
X115166500Y-178671395D01*
X115166505Y-178671401D01*
X115333599Y-178838495D01*
X115410135Y-178892086D01*
X115527165Y-178974032D01*
X115527167Y-178974033D01*
X115527170Y-178974035D01*
X115741337Y-179073903D01*
X115969592Y-179135063D01*
X116140319Y-179150000D01*
X116204999Y-179155659D01*
X116205000Y-179155659D01*
X116205001Y-179155659D01*
X116269681Y-179150000D01*
X116440408Y-179135063D01*
X116668663Y-179073903D01*
X116882830Y-178974035D01*
X117076401Y-178838495D01*
X117243495Y-178671401D01*
X117373424Y-178485842D01*
X117428002Y-178442217D01*
X117497500Y-178435023D01*
X117559855Y-178466546D01*
X117576575Y-178485842D01*
X117706500Y-178671395D01*
X117706505Y-178671401D01*
X117873599Y-178838495D01*
X117950135Y-178892086D01*
X118067165Y-178974032D01*
X118067167Y-178974033D01*
X118067170Y-178974035D01*
X118281337Y-179073903D01*
X118509592Y-179135063D01*
X118680319Y-179150000D01*
X118744999Y-179155659D01*
X118745000Y-179155659D01*
X118745001Y-179155659D01*
X118809681Y-179150000D01*
X118980408Y-179135063D01*
X119208663Y-179073903D01*
X119422830Y-178974035D01*
X119616401Y-178838495D01*
X119738717Y-178716178D01*
X119800036Y-178682696D01*
X119869728Y-178687680D01*
X119925662Y-178729551D01*
X119942577Y-178760528D01*
X119991646Y-178892088D01*
X119991649Y-178892093D01*
X120077809Y-179007187D01*
X120077812Y-179007190D01*
X120192906Y-179093350D01*
X120192913Y-179093354D01*
X120327620Y-179143596D01*
X120327627Y-179143598D01*
X120387155Y-179149999D01*
X120387172Y-179150000D01*
X121035000Y-179150000D01*
X121035000Y-178246494D01*
X121139839Y-178294373D01*
X121248527Y-178310000D01*
X121321473Y-178310000D01*
X121430161Y-178294373D01*
X121535000Y-178246494D01*
X121535000Y-179150000D01*
X122182828Y-179150000D01*
X122182844Y-179149999D01*
X122242372Y-179143598D01*
X122242379Y-179143596D01*
X122377086Y-179093354D01*
X122377093Y-179093350D01*
X122492187Y-179007190D01*
X122492190Y-179007187D01*
X122578350Y-178892093D01*
X122578354Y-178892086D01*
X122627422Y-178760529D01*
X122669293Y-178704595D01*
X122734757Y-178680178D01*
X122803030Y-178695030D01*
X122831285Y-178716181D01*
X122953599Y-178838495D01*
X123030135Y-178892086D01*
X123147165Y-178974032D01*
X123147167Y-178974033D01*
X123147170Y-178974035D01*
X123361337Y-179073903D01*
X123589592Y-179135063D01*
X123760319Y-179150000D01*
X123824999Y-179155659D01*
X123825000Y-179155659D01*
X123825001Y-179155659D01*
X123889681Y-179150000D01*
X124060408Y-179135063D01*
X124288663Y-179073903D01*
X124502830Y-178974035D01*
X124696401Y-178838495D01*
X124863495Y-178671401D01*
X124993424Y-178485842D01*
X125048002Y-178442217D01*
X125117500Y-178435023D01*
X125179855Y-178466546D01*
X125196575Y-178485842D01*
X125326500Y-178671395D01*
X125326505Y-178671401D01*
X125493599Y-178838495D01*
X125570135Y-178892086D01*
X125687165Y-178974032D01*
X125687167Y-178974033D01*
X125687170Y-178974035D01*
X125901337Y-179073903D01*
X126129592Y-179135063D01*
X126300319Y-179150000D01*
X126364999Y-179155659D01*
X126365000Y-179155659D01*
X126365001Y-179155659D01*
X126429681Y-179150000D01*
X126600408Y-179135063D01*
X126828663Y-179073903D01*
X127042830Y-178974035D01*
X127236401Y-178838495D01*
X127403495Y-178671401D01*
X127533424Y-178485842D01*
X127588002Y-178442217D01*
X127657500Y-178435023D01*
X127719855Y-178466546D01*
X127736575Y-178485842D01*
X127866500Y-178671395D01*
X127866505Y-178671401D01*
X128033599Y-178838495D01*
X128110135Y-178892086D01*
X128227165Y-178974032D01*
X128227167Y-178974033D01*
X128227170Y-178974035D01*
X128441337Y-179073903D01*
X128669592Y-179135063D01*
X128840319Y-179150000D01*
X128904999Y-179155659D01*
X128905000Y-179155659D01*
X128905001Y-179155659D01*
X128969681Y-179150000D01*
X129140408Y-179135063D01*
X129368663Y-179073903D01*
X129582830Y-178974035D01*
X129776401Y-178838495D01*
X129943495Y-178671401D01*
X130073424Y-178485842D01*
X130128002Y-178442217D01*
X130197500Y-178435023D01*
X130259855Y-178466546D01*
X130276575Y-178485842D01*
X130406500Y-178671395D01*
X130406505Y-178671401D01*
X130573599Y-178838495D01*
X130650135Y-178892086D01*
X130767165Y-178974032D01*
X130767167Y-178974033D01*
X130767170Y-178974035D01*
X130981337Y-179073903D01*
X131209592Y-179135063D01*
X131380319Y-179150000D01*
X131444999Y-179155659D01*
X131445000Y-179155659D01*
X131445001Y-179155659D01*
X131509681Y-179150000D01*
X131680408Y-179135063D01*
X131908663Y-179073903D01*
X132122830Y-178974035D01*
X132316401Y-178838495D01*
X132438717Y-178716178D01*
X132500036Y-178682696D01*
X132569728Y-178687680D01*
X132625662Y-178729551D01*
X132642577Y-178760528D01*
X132691646Y-178892088D01*
X132691649Y-178892093D01*
X132777809Y-179007187D01*
X132777812Y-179007190D01*
X132892906Y-179093350D01*
X132892913Y-179093354D01*
X133027620Y-179143596D01*
X133027627Y-179143598D01*
X133087155Y-179149999D01*
X133087172Y-179150000D01*
X133735000Y-179150000D01*
X133735000Y-178246494D01*
X133839839Y-178294373D01*
X133948527Y-178310000D01*
X134021473Y-178310000D01*
X134130161Y-178294373D01*
X134235000Y-178246494D01*
X134235000Y-179150000D01*
X134882828Y-179150000D01*
X134882844Y-179149999D01*
X134942372Y-179143598D01*
X134942379Y-179143596D01*
X135077086Y-179093354D01*
X135077093Y-179093350D01*
X135192187Y-179007190D01*
X135192190Y-179007187D01*
X135278350Y-178892093D01*
X135278354Y-178892086D01*
X135327422Y-178760529D01*
X135369293Y-178704595D01*
X135434757Y-178680178D01*
X135503030Y-178695030D01*
X135531285Y-178716181D01*
X135653599Y-178838495D01*
X135730135Y-178892086D01*
X135847165Y-178974032D01*
X135847167Y-178974033D01*
X135847170Y-178974035D01*
X136061337Y-179073903D01*
X136289592Y-179135063D01*
X136460319Y-179150000D01*
X136524999Y-179155659D01*
X136525000Y-179155659D01*
X136525001Y-179155659D01*
X136589681Y-179150000D01*
X136760408Y-179135063D01*
X136988663Y-179073903D01*
X137202830Y-178974035D01*
X137396401Y-178838495D01*
X137563495Y-178671401D01*
X137693424Y-178485842D01*
X137748002Y-178442217D01*
X137817500Y-178435023D01*
X137879855Y-178466546D01*
X137896575Y-178485842D01*
X138026500Y-178671395D01*
X138026505Y-178671401D01*
X138193599Y-178838495D01*
X138270135Y-178892086D01*
X138387165Y-178974032D01*
X138387167Y-178974033D01*
X138387170Y-178974035D01*
X138601337Y-179073903D01*
X138829592Y-179135063D01*
X139000319Y-179150000D01*
X139064999Y-179155659D01*
X139065000Y-179155659D01*
X139065001Y-179155659D01*
X139129681Y-179150000D01*
X139300408Y-179135063D01*
X139528663Y-179073903D01*
X139742830Y-178974035D01*
X139936401Y-178838495D01*
X140103495Y-178671401D01*
X140233424Y-178485842D01*
X140288002Y-178442217D01*
X140357500Y-178435023D01*
X140419855Y-178466546D01*
X140436575Y-178485842D01*
X140566500Y-178671395D01*
X140566505Y-178671401D01*
X140733599Y-178838495D01*
X140810135Y-178892086D01*
X140927165Y-178974032D01*
X140927167Y-178974033D01*
X140927170Y-178974035D01*
X141141337Y-179073903D01*
X141369592Y-179135063D01*
X141540319Y-179150000D01*
X141604999Y-179155659D01*
X141605000Y-179155659D01*
X141605001Y-179155659D01*
X141669681Y-179150000D01*
X141840408Y-179135063D01*
X142068663Y-179073903D01*
X142282830Y-178974035D01*
X142476401Y-178838495D01*
X142643495Y-178671401D01*
X142773424Y-178485842D01*
X142828002Y-178442217D01*
X142897500Y-178435023D01*
X142959855Y-178466546D01*
X142976575Y-178485842D01*
X143106500Y-178671395D01*
X143106505Y-178671401D01*
X143273599Y-178838495D01*
X143350135Y-178892086D01*
X143467165Y-178974032D01*
X143467167Y-178974033D01*
X143467170Y-178974035D01*
X143681337Y-179073903D01*
X143909592Y-179135063D01*
X144080319Y-179150000D01*
X144144999Y-179155659D01*
X144145000Y-179155659D01*
X144145001Y-179155659D01*
X144209681Y-179150000D01*
X144380408Y-179135063D01*
X144608663Y-179073903D01*
X144822830Y-178974035D01*
X145016401Y-178838495D01*
X145138717Y-178716178D01*
X145200036Y-178682696D01*
X145269728Y-178687680D01*
X145325662Y-178729551D01*
X145342577Y-178760528D01*
X145391646Y-178892088D01*
X145391649Y-178892093D01*
X145477809Y-179007187D01*
X145477812Y-179007190D01*
X145592906Y-179093350D01*
X145592913Y-179093354D01*
X145727620Y-179143596D01*
X145727627Y-179143598D01*
X145787155Y-179149999D01*
X145787172Y-179150000D01*
X146435000Y-179150000D01*
X146435000Y-178246494D01*
X146539839Y-178294373D01*
X146648527Y-178310000D01*
X146721473Y-178310000D01*
X146830161Y-178294373D01*
X146935000Y-178246494D01*
X146935000Y-179150000D01*
X147582828Y-179150000D01*
X147582844Y-179149999D01*
X147642372Y-179143598D01*
X147642379Y-179143596D01*
X147777086Y-179093354D01*
X147777093Y-179093350D01*
X147892187Y-179007190D01*
X147892190Y-179007187D01*
X147978350Y-178892093D01*
X147978354Y-178892086D01*
X148027422Y-178760529D01*
X148069293Y-178704595D01*
X148134757Y-178680178D01*
X148203030Y-178695030D01*
X148231285Y-178716181D01*
X148353599Y-178838495D01*
X148430135Y-178892086D01*
X148547165Y-178974032D01*
X148547167Y-178974033D01*
X148547170Y-178974035D01*
X148761337Y-179073903D01*
X148989592Y-179135063D01*
X149160319Y-179150000D01*
X149224999Y-179155659D01*
X149225000Y-179155659D01*
X149225001Y-179155659D01*
X149289681Y-179150000D01*
X149460408Y-179135063D01*
X149688663Y-179073903D01*
X149902830Y-178974035D01*
X150096401Y-178838495D01*
X150263495Y-178671401D01*
X150393424Y-178485842D01*
X150448002Y-178442217D01*
X150517500Y-178435023D01*
X150579855Y-178466546D01*
X150596575Y-178485842D01*
X150726500Y-178671395D01*
X150726505Y-178671401D01*
X150893599Y-178838495D01*
X150970135Y-178892086D01*
X151087165Y-178974032D01*
X151087167Y-178974033D01*
X151087170Y-178974035D01*
X151301337Y-179073903D01*
X151529592Y-179135063D01*
X151700319Y-179150000D01*
X151764999Y-179155659D01*
X151765000Y-179155659D01*
X151765001Y-179155659D01*
X151829681Y-179150000D01*
X152000408Y-179135063D01*
X152228663Y-179073903D01*
X152442830Y-178974035D01*
X152636401Y-178838495D01*
X152803495Y-178671401D01*
X152939035Y-178477830D01*
X153038903Y-178263663D01*
X153100063Y-178035408D01*
X153120659Y-177800000D01*
X153100063Y-177564592D01*
X153038903Y-177336337D01*
X152939035Y-177122171D01*
X152933425Y-177114158D01*
X152803494Y-176928597D01*
X152636402Y-176761506D01*
X152636395Y-176761501D01*
X152442834Y-176625967D01*
X152442830Y-176625965D01*
X152371727Y-176592809D01*
X152228663Y-176526097D01*
X152228659Y-176526096D01*
X152228655Y-176526094D01*
X152000413Y-176464938D01*
X152000403Y-176464936D01*
X151765001Y-176444341D01*
X151764999Y-176444341D01*
X151529596Y-176464936D01*
X151529586Y-176464938D01*
X151301344Y-176526094D01*
X151301335Y-176526098D01*
X151087171Y-176625964D01*
X151087169Y-176625965D01*
X150893597Y-176761505D01*
X150726505Y-176928597D01*
X150596575Y-177114158D01*
X150541998Y-177157783D01*
X150472500Y-177164977D01*
X150410145Y-177133454D01*
X150393425Y-177114158D01*
X150263494Y-176928597D01*
X150096402Y-176761506D01*
X150096395Y-176761501D01*
X149902834Y-176625967D01*
X149902830Y-176625965D01*
X149831727Y-176592809D01*
X149688663Y-176526097D01*
X149688659Y-176526096D01*
X149688655Y-176526094D01*
X149460413Y-176464938D01*
X149460403Y-176464936D01*
X149225001Y-176444341D01*
X149224999Y-176444341D01*
X148989596Y-176464936D01*
X148989586Y-176464938D01*
X148761344Y-176526094D01*
X148761335Y-176526098D01*
X148547171Y-176625964D01*
X148547169Y-176625965D01*
X148353600Y-176761503D01*
X148231284Y-176883819D01*
X148169961Y-176917303D01*
X148100269Y-176912319D01*
X148044336Y-176870447D01*
X148027421Y-176839470D01*
X147978354Y-176707913D01*
X147978350Y-176707906D01*
X147892190Y-176592812D01*
X147892187Y-176592809D01*
X147777093Y-176506649D01*
X147777086Y-176506645D01*
X147642379Y-176456403D01*
X147642372Y-176456401D01*
X147582844Y-176450000D01*
X146935000Y-176450000D01*
X146935000Y-177353505D01*
X146830161Y-177305627D01*
X146721473Y-177290000D01*
X146648527Y-177290000D01*
X146539839Y-177305627D01*
X146435000Y-177353505D01*
X146435000Y-176450000D01*
X145787155Y-176450000D01*
X145727627Y-176456401D01*
X145727620Y-176456403D01*
X145592913Y-176506645D01*
X145592906Y-176506649D01*
X145477812Y-176592809D01*
X145477809Y-176592812D01*
X145391649Y-176707906D01*
X145391645Y-176707913D01*
X145342578Y-176839470D01*
X145300707Y-176895404D01*
X145235242Y-176919821D01*
X145166969Y-176904969D01*
X145138715Y-176883819D01*
X145094366Y-176839470D01*
X145016401Y-176761505D01*
X145016397Y-176761502D01*
X145016396Y-176761501D01*
X144822834Y-176625967D01*
X144822830Y-176625965D01*
X144751727Y-176592809D01*
X144608663Y-176526097D01*
X144608659Y-176526096D01*
X144608655Y-176526094D01*
X144380413Y-176464938D01*
X144380403Y-176464936D01*
X144145001Y-176444341D01*
X144144999Y-176444341D01*
X143909596Y-176464936D01*
X143909586Y-176464938D01*
X143681344Y-176526094D01*
X143681335Y-176526098D01*
X143467171Y-176625964D01*
X143467169Y-176625965D01*
X143273597Y-176761505D01*
X143106505Y-176928597D01*
X142976575Y-177114158D01*
X142921998Y-177157783D01*
X142852500Y-177164977D01*
X142790145Y-177133454D01*
X142773425Y-177114158D01*
X142643494Y-176928597D01*
X142476402Y-176761506D01*
X142476395Y-176761501D01*
X142282834Y-176625967D01*
X142282830Y-176625965D01*
X142211727Y-176592809D01*
X142068663Y-176526097D01*
X142068659Y-176526096D01*
X142068655Y-176526094D01*
X141840413Y-176464938D01*
X141840403Y-176464936D01*
X141605001Y-176444341D01*
X141604999Y-176444341D01*
X141369596Y-176464936D01*
X141369586Y-176464938D01*
X141141344Y-176526094D01*
X141141335Y-176526098D01*
X140927171Y-176625964D01*
X140927169Y-176625965D01*
X140733597Y-176761505D01*
X140566505Y-176928597D01*
X140436575Y-177114158D01*
X140381998Y-177157783D01*
X140312500Y-177164977D01*
X140250145Y-177133454D01*
X140233425Y-177114158D01*
X140103494Y-176928597D01*
X139936402Y-176761506D01*
X139936395Y-176761501D01*
X139742834Y-176625967D01*
X139742830Y-176625965D01*
X139671727Y-176592809D01*
X139528663Y-176526097D01*
X139528659Y-176526096D01*
X139528655Y-176526094D01*
X139300413Y-176464938D01*
X139300403Y-176464936D01*
X139065001Y-176444341D01*
X139064999Y-176444341D01*
X138829596Y-176464936D01*
X138829586Y-176464938D01*
X138601344Y-176526094D01*
X138601335Y-176526098D01*
X138387171Y-176625964D01*
X138387169Y-176625965D01*
X138193597Y-176761505D01*
X138026505Y-176928597D01*
X137896575Y-177114158D01*
X137841998Y-177157783D01*
X137772500Y-177164977D01*
X137710145Y-177133454D01*
X137693425Y-177114158D01*
X137563494Y-176928597D01*
X137396402Y-176761506D01*
X137396395Y-176761501D01*
X137202834Y-176625967D01*
X137202830Y-176625965D01*
X137131727Y-176592809D01*
X136988663Y-176526097D01*
X136988659Y-176526096D01*
X136988655Y-176526094D01*
X136760413Y-176464938D01*
X136760403Y-176464936D01*
X136525001Y-176444341D01*
X136524999Y-176444341D01*
X136289596Y-176464936D01*
X136289586Y-176464938D01*
X136061344Y-176526094D01*
X136061335Y-176526098D01*
X135847171Y-176625964D01*
X135847169Y-176625965D01*
X135653600Y-176761503D01*
X135531284Y-176883819D01*
X135469961Y-176917303D01*
X135400269Y-176912319D01*
X135344336Y-176870447D01*
X135327421Y-176839470D01*
X135278354Y-176707913D01*
X135278350Y-176707906D01*
X135192190Y-176592812D01*
X135192187Y-176592809D01*
X135077093Y-176506649D01*
X135077086Y-176506645D01*
X134942379Y-176456403D01*
X134942372Y-176456401D01*
X134882844Y-176450000D01*
X134235000Y-176450000D01*
X134235000Y-177353505D01*
X134130161Y-177305627D01*
X134021473Y-177290000D01*
X133948527Y-177290000D01*
X133839839Y-177305627D01*
X133735000Y-177353505D01*
X133735000Y-176450000D01*
X133087155Y-176450000D01*
X133027627Y-176456401D01*
X133027620Y-176456403D01*
X132892913Y-176506645D01*
X132892906Y-176506649D01*
X132777812Y-176592809D01*
X132777809Y-176592812D01*
X132691649Y-176707906D01*
X132691645Y-176707913D01*
X132642578Y-176839470D01*
X132600707Y-176895404D01*
X132535242Y-176919821D01*
X132466969Y-176904969D01*
X132438715Y-176883819D01*
X132394366Y-176839470D01*
X132316401Y-176761505D01*
X132316397Y-176761502D01*
X132316396Y-176761501D01*
X132122834Y-176625967D01*
X132122830Y-176625965D01*
X132051727Y-176592809D01*
X131908663Y-176526097D01*
X131908659Y-176526096D01*
X131908655Y-176526094D01*
X131680413Y-176464938D01*
X131680403Y-176464936D01*
X131445001Y-176444341D01*
X131444999Y-176444341D01*
X131209596Y-176464936D01*
X131209586Y-176464938D01*
X130981344Y-176526094D01*
X130981335Y-176526098D01*
X130767171Y-176625964D01*
X130767169Y-176625965D01*
X130573597Y-176761505D01*
X130406505Y-176928597D01*
X130276575Y-177114158D01*
X130221998Y-177157783D01*
X130152500Y-177164977D01*
X130090145Y-177133454D01*
X130073425Y-177114158D01*
X129943494Y-176928597D01*
X129776402Y-176761506D01*
X129776395Y-176761501D01*
X129582834Y-176625967D01*
X129582830Y-176625965D01*
X129511727Y-176592809D01*
X129368663Y-176526097D01*
X129368659Y-176526096D01*
X129368655Y-176526094D01*
X129140413Y-176464938D01*
X129140403Y-176464936D01*
X128905001Y-176444341D01*
X128904999Y-176444341D01*
X128669596Y-176464936D01*
X128669586Y-176464938D01*
X128441344Y-176526094D01*
X128441335Y-176526098D01*
X128227171Y-176625964D01*
X128227169Y-176625965D01*
X128033597Y-176761505D01*
X127866505Y-176928597D01*
X127736575Y-177114158D01*
X127681998Y-177157783D01*
X127612500Y-177164977D01*
X127550145Y-177133454D01*
X127533425Y-177114158D01*
X127403494Y-176928597D01*
X127236402Y-176761506D01*
X127236395Y-176761501D01*
X127042834Y-176625967D01*
X127042830Y-176625965D01*
X126971727Y-176592809D01*
X126828663Y-176526097D01*
X126828659Y-176526096D01*
X126828655Y-176526094D01*
X126600413Y-176464938D01*
X126600403Y-176464936D01*
X126365001Y-176444341D01*
X126364999Y-176444341D01*
X126129596Y-176464936D01*
X126129586Y-176464938D01*
X125901344Y-176526094D01*
X125901335Y-176526098D01*
X125687171Y-176625964D01*
X125687169Y-176625965D01*
X125493597Y-176761505D01*
X125326505Y-176928597D01*
X125196575Y-177114158D01*
X125141998Y-177157783D01*
X125072500Y-177164977D01*
X125010145Y-177133454D01*
X124993425Y-177114158D01*
X124863494Y-176928597D01*
X124696402Y-176761506D01*
X124696395Y-176761501D01*
X124502834Y-176625967D01*
X124502830Y-176625965D01*
X124431727Y-176592809D01*
X124288663Y-176526097D01*
X124288659Y-176526096D01*
X124288655Y-176526094D01*
X124060413Y-176464938D01*
X124060403Y-176464936D01*
X123825001Y-176444341D01*
X123824999Y-176444341D01*
X123589596Y-176464936D01*
X123589586Y-176464938D01*
X123361344Y-176526094D01*
X123361335Y-176526098D01*
X123147171Y-176625964D01*
X123147169Y-176625965D01*
X122953600Y-176761503D01*
X122831284Y-176883819D01*
X122769961Y-176917303D01*
X122700269Y-176912319D01*
X122644336Y-176870447D01*
X122627421Y-176839470D01*
X122578354Y-176707913D01*
X122578350Y-176707906D01*
X122492190Y-176592812D01*
X122492187Y-176592809D01*
X122377093Y-176506649D01*
X122377086Y-176506645D01*
X122242379Y-176456403D01*
X122242372Y-176456401D01*
X122182844Y-176450000D01*
X121535000Y-176450000D01*
X121535000Y-177353505D01*
X121430161Y-177305627D01*
X121321473Y-177290000D01*
X121248527Y-177290000D01*
X121139839Y-177305627D01*
X121035000Y-177353505D01*
X121035000Y-176450000D01*
X120387155Y-176450000D01*
X120327627Y-176456401D01*
X120327620Y-176456403D01*
X120192913Y-176506645D01*
X120192906Y-176506649D01*
X120077812Y-176592809D01*
X120077809Y-176592812D01*
X119991649Y-176707906D01*
X119991645Y-176707913D01*
X119942578Y-176839470D01*
X119900707Y-176895404D01*
X119835242Y-176919821D01*
X119766969Y-176904969D01*
X119738715Y-176883819D01*
X119694366Y-176839470D01*
X119616401Y-176761505D01*
X119616397Y-176761502D01*
X119616396Y-176761501D01*
X119422834Y-176625967D01*
X119422830Y-176625965D01*
X119351727Y-176592809D01*
X119208663Y-176526097D01*
X119208659Y-176526096D01*
X119208655Y-176526094D01*
X118980413Y-176464938D01*
X118980403Y-176464936D01*
X118745001Y-176444341D01*
X118744999Y-176444341D01*
X118509596Y-176464936D01*
X118509586Y-176464938D01*
X118281344Y-176526094D01*
X118281335Y-176526098D01*
X118067171Y-176625964D01*
X118067169Y-176625965D01*
X117873597Y-176761505D01*
X117706505Y-176928597D01*
X117576575Y-177114158D01*
X117521998Y-177157783D01*
X117452500Y-177164977D01*
X117390145Y-177133454D01*
X117373425Y-177114158D01*
X117243494Y-176928597D01*
X117076402Y-176761506D01*
X117076395Y-176761501D01*
X116882834Y-176625967D01*
X116882830Y-176625965D01*
X116811727Y-176592809D01*
X116668663Y-176526097D01*
X116668659Y-176526096D01*
X116668655Y-176526094D01*
X116440413Y-176464938D01*
X116440403Y-176464936D01*
X116205001Y-176444341D01*
X116204999Y-176444341D01*
X115969596Y-176464936D01*
X115969586Y-176464938D01*
X115741344Y-176526094D01*
X115741335Y-176526098D01*
X115527171Y-176625964D01*
X115527169Y-176625965D01*
X115333597Y-176761505D01*
X115166505Y-176928597D01*
X115036575Y-177114158D01*
X114981998Y-177157783D01*
X114912500Y-177164977D01*
X114850145Y-177133454D01*
X114833425Y-177114158D01*
X114703494Y-176928597D01*
X114536402Y-176761506D01*
X114536395Y-176761501D01*
X114342834Y-176625967D01*
X114342830Y-176625965D01*
X114271727Y-176592809D01*
X114128663Y-176526097D01*
X114128659Y-176526096D01*
X114128655Y-176526094D01*
X113900413Y-176464938D01*
X113900403Y-176464936D01*
X113665001Y-176444341D01*
X113664999Y-176444341D01*
X113429596Y-176464936D01*
X113429586Y-176464938D01*
X113201344Y-176526094D01*
X113201335Y-176526098D01*
X112987171Y-176625964D01*
X112987169Y-176625965D01*
X112793597Y-176761505D01*
X112626505Y-176928597D01*
X112496575Y-177114158D01*
X112441998Y-177157783D01*
X112372500Y-177164977D01*
X112310145Y-177133454D01*
X112293425Y-177114158D01*
X112163494Y-176928597D01*
X111996402Y-176761506D01*
X111996395Y-176761501D01*
X111802834Y-176625967D01*
X111802830Y-176625965D01*
X111731727Y-176592809D01*
X111588663Y-176526097D01*
X111588659Y-176526096D01*
X111588655Y-176526094D01*
X111360413Y-176464938D01*
X111360403Y-176464936D01*
X111125001Y-176444341D01*
X111124999Y-176444341D01*
X110889596Y-176464936D01*
X110889586Y-176464938D01*
X110661344Y-176526094D01*
X110661335Y-176526098D01*
X110447171Y-176625964D01*
X110447169Y-176625965D01*
X110253600Y-176761503D01*
X110131284Y-176883819D01*
X110069961Y-176917303D01*
X110000269Y-176912319D01*
X109944336Y-176870447D01*
X109927421Y-176839470D01*
X109878354Y-176707913D01*
X109878350Y-176707906D01*
X109792190Y-176592812D01*
X109792187Y-176592809D01*
X109677093Y-176506649D01*
X109677086Y-176506645D01*
X109542379Y-176456403D01*
X109542372Y-176456401D01*
X109482844Y-176450000D01*
X108835000Y-176450000D01*
X108835000Y-177353505D01*
X108730161Y-177305627D01*
X108621473Y-177290000D01*
X108548527Y-177290000D01*
X108439839Y-177305627D01*
X108334999Y-177353505D01*
X108335000Y-176450000D01*
X107687155Y-176450000D01*
X107627627Y-176456401D01*
X107627620Y-176456403D01*
X107492913Y-176506645D01*
X107492906Y-176506649D01*
X107377812Y-176592809D01*
X107377809Y-176592812D01*
X107291649Y-176707906D01*
X107291645Y-176707913D01*
X107242578Y-176839470D01*
X107200707Y-176895404D01*
X107135242Y-176919821D01*
X107066969Y-176904969D01*
X107038715Y-176883819D01*
X106994366Y-176839470D01*
X106916401Y-176761505D01*
X106916397Y-176761502D01*
X106916396Y-176761501D01*
X106722834Y-176625967D01*
X106722830Y-176625965D01*
X106651727Y-176592809D01*
X106508663Y-176526097D01*
X106508659Y-176526096D01*
X106508655Y-176526094D01*
X106280413Y-176464938D01*
X106280403Y-176464936D01*
X106045001Y-176444341D01*
X106044999Y-176444341D01*
X105809596Y-176464936D01*
X105809586Y-176464938D01*
X105581344Y-176526094D01*
X105581335Y-176526098D01*
X105367171Y-176625964D01*
X105367169Y-176625965D01*
X105173597Y-176761505D01*
X105006508Y-176928594D01*
X104876574Y-177114159D01*
X104821997Y-177157784D01*
X104752498Y-177164976D01*
X104690144Y-177133454D01*
X104673424Y-177114158D01*
X104543494Y-176928597D01*
X104376402Y-176761506D01*
X104376395Y-176761501D01*
X104182834Y-176625967D01*
X104182830Y-176625965D01*
X104111727Y-176592809D01*
X103968663Y-176526097D01*
X103968659Y-176526096D01*
X103968655Y-176526094D01*
X103740413Y-176464938D01*
X103740403Y-176464936D01*
X103505001Y-176444341D01*
X103504999Y-176444341D01*
X103269596Y-176464936D01*
X103269586Y-176464938D01*
X103041344Y-176526094D01*
X103041335Y-176526098D01*
X102827171Y-176625964D01*
X102827169Y-176625965D01*
X102633597Y-176761505D01*
X102466505Y-176928597D01*
X102330965Y-177122169D01*
X102330964Y-177122171D01*
X102231098Y-177336335D01*
X102231094Y-177336344D01*
X102169938Y-177564586D01*
X102169936Y-177564596D01*
X102149341Y-177799999D01*
X102149341Y-177800000D01*
X100330500Y-177800000D01*
X100330500Y-171635000D01*
X102229700Y-171635000D01*
X102232359Y-171667097D01*
X102236955Y-171722567D01*
X102240819Y-171813523D01*
X102240820Y-171813534D01*
X102245939Y-171837284D01*
X102247120Y-171845233D01*
X102248865Y-171866301D01*
X102248865Y-171866304D01*
X102248866Y-171866305D01*
X102271205Y-171954520D01*
X102278677Y-171989191D01*
X102291046Y-172046582D01*
X102298883Y-172066084D01*
X102301458Y-172073987D01*
X102305844Y-172091303D01*
X102343655Y-172177504D01*
X102379934Y-172267787D01*
X102379935Y-172267788D01*
X102389232Y-172282888D01*
X102393218Y-172290495D01*
X102399076Y-172303850D01*
X102452275Y-172385277D01*
X102504930Y-172470794D01*
X102511543Y-172478308D01*
X102522263Y-172492402D01*
X102524738Y-172496189D01*
X102526021Y-172498153D01*
X102594027Y-172572028D01*
X102662436Y-172649755D01*
X102667564Y-172653895D01*
X102680882Y-172666377D01*
X102683216Y-172668913D01*
X102764933Y-172732515D01*
X102847920Y-172799523D01*
X102847922Y-172799524D01*
X102850678Y-172801064D01*
X102866360Y-172811460D01*
X102866367Y-172811465D01*
X102866371Y-172811467D01*
X102866374Y-172811470D01*
X102959885Y-172862075D01*
X102960162Y-172862225D01*
X103056046Y-172915790D01*
X103058849Y-172917058D01*
X103065695Y-172920097D01*
X103065794Y-172919873D01*
X103070490Y-172921932D01*
X103070497Y-172921936D01*
X103174276Y-172957563D01*
X103280829Y-172995211D01*
X103281398Y-172995308D01*
X103286129Y-172996312D01*
X103290007Y-172997294D01*
X103290019Y-172997298D01*
X103401324Y-173015870D01*
X103401324Y-173015871D01*
X103515791Y-173035499D01*
X103515800Y-173035500D01*
X103751044Y-173035500D01*
X103751049Y-173035500D01*
X103784073Y-173029988D01*
X103807469Y-173026085D01*
X103812407Y-173025463D01*
X103872541Y-173020346D01*
X103924615Y-173006786D01*
X103930017Y-173005634D01*
X103979981Y-172997298D01*
X104037186Y-172977658D01*
X104041663Y-172976309D01*
X104103249Y-172960275D01*
X104109249Y-172957563D01*
X104114262Y-172955296D01*
X104149297Y-172939459D01*
X104154681Y-172937322D01*
X104199503Y-172921936D01*
X104255554Y-172891601D01*
X104259527Y-172889632D01*
X104268156Y-172885730D01*
X104320486Y-172862077D01*
X104359647Y-172835608D01*
X104364820Y-172832469D01*
X104403626Y-172811470D01*
X104456532Y-172770290D01*
X104459850Y-172767881D01*
X104518003Y-172728579D01*
X104549770Y-172698131D01*
X104554548Y-172694002D01*
X104586784Y-172668913D01*
X104589109Y-172666388D01*
X104604420Y-172649755D01*
X104634389Y-172617198D01*
X104637101Y-172614432D01*
X104690118Y-172563621D01*
X104714329Y-172530883D01*
X104718540Y-172525785D01*
X104743979Y-172498153D01*
X104784206Y-172436578D01*
X104786241Y-172433652D01*
X104831879Y-172371947D01*
X104848733Y-172338517D01*
X104852170Y-172332552D01*
X104870924Y-172303849D01*
X104901805Y-172233445D01*
X104903174Y-172230538D01*
X104939207Y-172159074D01*
X104949208Y-172126413D01*
X104951701Y-172119694D01*
X104964157Y-172091300D01*
X104983827Y-172013621D01*
X104984635Y-172010732D01*
X105009016Y-171931123D01*
X105012936Y-171900508D01*
X105014330Y-171893170D01*
X105021134Y-171866305D01*
X105028132Y-171781845D01*
X105039298Y-171694654D01*
X105038126Y-171667079D01*
X105038281Y-171659355D01*
X105040300Y-171635000D01*
X105038592Y-171614392D01*
X105033044Y-171547432D01*
X105029180Y-171456474D01*
X105029180Y-171456468D01*
X105024059Y-171432709D01*
X105022879Y-171424762D01*
X105022286Y-171417602D01*
X105021134Y-171403695D01*
X105021133Y-171403692D01*
X105021133Y-171403688D01*
X105003739Y-171335003D01*
X105409723Y-171335003D01*
X105411688Y-171357470D01*
X105411862Y-171365660D01*
X105410709Y-171391324D01*
X105410710Y-171391328D01*
X105421641Y-171472031D01*
X105421966Y-171474949D01*
X105428792Y-171552972D01*
X105428795Y-171552987D01*
X105435482Y-171577941D01*
X105437034Y-171585670D01*
X105440924Y-171614381D01*
X105440926Y-171614392D01*
X105465075Y-171688713D01*
X105465997Y-171691825D01*
X105485423Y-171764324D01*
X105485427Y-171764336D01*
X105497736Y-171790732D01*
X105500512Y-171797779D01*
X105510483Y-171828464D01*
X105545970Y-171894411D01*
X105547558Y-171897576D01*
X105577898Y-171962639D01*
X105596490Y-171989191D01*
X105600303Y-171995378D01*
X105617146Y-172026678D01*
X105617152Y-172026687D01*
X105661792Y-172082663D01*
X105664106Y-172085758D01*
X105687854Y-172119672D01*
X105703402Y-172141877D01*
X105703405Y-172141880D01*
X105728646Y-172167121D01*
X105733283Y-172172309D01*
X105757492Y-172202666D01*
X105808959Y-172247632D01*
X105812008Y-172250483D01*
X105858116Y-172296592D01*
X105858122Y-172296597D01*
X105858123Y-172296598D01*
X105868479Y-172303849D01*
X105890055Y-172318957D01*
X105895290Y-172323057D01*
X105927004Y-172350765D01*
X105927013Y-172350771D01*
X105982849Y-172384131D01*
X105986613Y-172386568D01*
X106037359Y-172422101D01*
X106037364Y-172422104D01*
X106059917Y-172432620D01*
X106075677Y-172439969D01*
X106081271Y-172442935D01*
X106118349Y-172465088D01*
X106120236Y-172466215D01*
X106132437Y-172470794D01*
X106178083Y-172487925D01*
X106182503Y-172489782D01*
X106235670Y-172514575D01*
X106235674Y-172514577D01*
X106266069Y-172522720D01*
X106279677Y-172526366D01*
X106285413Y-172528207D01*
X106292581Y-172530897D01*
X106330976Y-172545307D01*
X106388545Y-172555754D01*
X106393511Y-172556868D01*
X106447023Y-172571207D01*
X106495689Y-172575464D01*
X106501306Y-172576218D01*
X106552453Y-172585500D01*
X106607691Y-172585500D01*
X106613092Y-172585735D01*
X106641548Y-172588225D01*
X106664998Y-172590277D01*
X106665000Y-172590277D01*
X106717992Y-172585640D01*
X106721121Y-172585500D01*
X106721155Y-172585500D01*
X106775172Y-172580638D01*
X106882977Y-172571207D01*
X106883000Y-172571200D01*
X106883475Y-172571117D01*
X106888713Y-172570419D01*
X106889188Y-172570377D01*
X106992997Y-172541726D01*
X107094330Y-172514575D01*
X107094337Y-172514571D01*
X107101254Y-172512053D01*
X107105948Y-172510554D01*
X107106170Y-172510493D01*
X107106181Y-172510487D01*
X107106183Y-172510487D01*
X107200454Y-172465088D01*
X107200454Y-172465087D01*
X107292639Y-172422102D01*
X107292644Y-172422097D01*
X107297327Y-172419395D01*
X107297400Y-172419522D01*
X107308164Y-172413218D01*
X107308973Y-172412829D01*
X107391156Y-172353118D01*
X107471877Y-172296598D01*
X107472747Y-172295727D01*
X107487550Y-172283084D01*
X107491078Y-172280522D01*
X107559131Y-172209343D01*
X107626598Y-172141877D01*
X107629285Y-172138039D01*
X107641239Y-172123465D01*
X107646629Y-172117828D01*
X107646628Y-172117828D01*
X107646632Y-172117825D01*
X107699164Y-172038241D01*
X107752102Y-171962639D01*
X107755543Y-171955259D01*
X107764432Y-171939364D01*
X107770635Y-171929968D01*
X107806889Y-171845146D01*
X107844575Y-171764330D01*
X107847570Y-171753148D01*
X107853325Y-171736505D01*
X107859103Y-171722988D01*
X107878936Y-171636092D01*
X107901207Y-171552977D01*
X107902887Y-171533766D01*
X107904206Y-171525377D01*
X107904445Y-171524325D01*
X107909191Y-171503537D01*
X107911595Y-171450000D01*
X150179341Y-171450000D01*
X150199936Y-171685403D01*
X150199938Y-171685413D01*
X150261094Y-171913655D01*
X150261096Y-171913659D01*
X150261097Y-171913663D01*
X150343930Y-172091299D01*
X150360965Y-172127830D01*
X150360967Y-172127834D01*
X150458964Y-172267787D01*
X150496505Y-172321401D01*
X150663599Y-172488495D01*
X150744735Y-172545307D01*
X150857165Y-172624032D01*
X150857167Y-172624033D01*
X150857170Y-172624035D01*
X151071337Y-172723903D01*
X151071343Y-172723904D01*
X151071344Y-172723905D01*
X151088788Y-172728579D01*
X151299592Y-172785063D01*
X151482480Y-172801064D01*
X151534999Y-172805659D01*
X151535000Y-172805659D01*
X151535001Y-172805659D01*
X151587520Y-172801064D01*
X151770408Y-172785063D01*
X151998663Y-172723903D01*
X152212830Y-172624035D01*
X152406401Y-172488495D01*
X152573495Y-172321401D01*
X152709035Y-172127830D01*
X152808903Y-171913663D01*
X152870063Y-171685408D01*
X152890659Y-171450000D01*
X152887824Y-171417602D01*
X152884257Y-171376830D01*
X152870063Y-171214592D01*
X152808903Y-170986337D01*
X152709035Y-170772171D01*
X152708808Y-170771847D01*
X152573496Y-170578600D01*
X152523016Y-170528120D01*
X152451567Y-170456671D01*
X152418084Y-170395351D01*
X152423068Y-170325659D01*
X152464939Y-170269725D01*
X152495915Y-170252810D01*
X152627331Y-170203796D01*
X152742546Y-170117546D01*
X152828796Y-170002331D01*
X152879091Y-169867483D01*
X152885500Y-169807873D01*
X152885499Y-168012128D01*
X152879091Y-167952517D01*
X152828796Y-167817669D01*
X152828795Y-167817668D01*
X152828793Y-167817664D01*
X152742547Y-167702455D01*
X152742544Y-167702452D01*
X152627335Y-167616206D01*
X152627328Y-167616202D01*
X152495917Y-167567189D01*
X152439983Y-167525318D01*
X152415566Y-167459853D01*
X152430418Y-167391580D01*
X152451563Y-167363332D01*
X152573495Y-167241401D01*
X152709035Y-167047830D01*
X152808903Y-166833663D01*
X152870063Y-166605408D01*
X152890659Y-166370000D01*
X152870063Y-166134592D01*
X152808903Y-165906337D01*
X152709035Y-165692171D01*
X152707304Y-165689698D01*
X152573494Y-165498597D01*
X152406402Y-165331506D01*
X152406395Y-165331501D01*
X152212834Y-165195967D01*
X152212830Y-165195965D01*
X152212828Y-165195964D01*
X151998663Y-165096097D01*
X151998659Y-165096096D01*
X151998655Y-165096094D01*
X151770413Y-165034938D01*
X151770403Y-165034936D01*
X151535001Y-165014341D01*
X151534999Y-165014341D01*
X151299596Y-165034936D01*
X151299586Y-165034938D01*
X151071344Y-165096094D01*
X151071335Y-165096098D01*
X150857171Y-165195964D01*
X150857169Y-165195965D01*
X150663597Y-165331505D01*
X150496505Y-165498597D01*
X150360965Y-165692169D01*
X150360964Y-165692171D01*
X150261098Y-165906335D01*
X150261094Y-165906344D01*
X150199938Y-166134586D01*
X150199936Y-166134596D01*
X150179341Y-166369999D01*
X150179341Y-166370000D01*
X150199936Y-166605403D01*
X150199938Y-166605413D01*
X150261094Y-166833655D01*
X150261096Y-166833659D01*
X150261097Y-166833663D01*
X150328619Y-166978464D01*
X150360965Y-167047830D01*
X150360967Y-167047834D01*
X150451192Y-167176687D01*
X150496501Y-167241396D01*
X150496506Y-167241402D01*
X150618430Y-167363326D01*
X150651915Y-167424649D01*
X150646931Y-167494341D01*
X150605059Y-167550274D01*
X150574083Y-167567189D01*
X150442669Y-167616203D01*
X150442664Y-167616206D01*
X150327455Y-167702452D01*
X150327452Y-167702455D01*
X150241206Y-167817664D01*
X150241202Y-167817671D01*
X150190908Y-167952517D01*
X150184501Y-168012116D01*
X150184501Y-168012123D01*
X150184500Y-168012135D01*
X150184500Y-169807870D01*
X150184501Y-169807876D01*
X150190908Y-169867483D01*
X150241202Y-170002328D01*
X150241206Y-170002335D01*
X150327452Y-170117544D01*
X150327455Y-170117547D01*
X150442664Y-170203793D01*
X150442671Y-170203797D01*
X150574081Y-170252810D01*
X150630015Y-170294681D01*
X150654432Y-170360145D01*
X150639580Y-170428418D01*
X150618430Y-170456673D01*
X150496503Y-170578600D01*
X150360965Y-170772169D01*
X150360964Y-170772171D01*
X150261098Y-170986335D01*
X150261094Y-170986344D01*
X150199938Y-171214586D01*
X150199936Y-171214596D01*
X150179341Y-171449999D01*
X150179341Y-171450000D01*
X107911595Y-171450000D01*
X107913050Y-171417602D01*
X107920277Y-171335000D01*
X107918310Y-171312528D01*
X107918137Y-171304334D01*
X107919290Y-171278670D01*
X107908353Y-171197939D01*
X107908034Y-171195067D01*
X107901207Y-171117023D01*
X107894515Y-171092053D01*
X107892963Y-171084322D01*
X107889076Y-171055618D01*
X107889075Y-171055616D01*
X107889075Y-171055613D01*
X107866817Y-170987112D01*
X107864921Y-170981276D01*
X107863998Y-170978161D01*
X107844576Y-170905673D01*
X107844574Y-170905669D01*
X107832266Y-170879274D01*
X107829488Y-170872222D01*
X107819519Y-170841541D01*
X107819517Y-170841537D01*
X107819517Y-170841536D01*
X107806988Y-170818253D01*
X107784027Y-170775583D01*
X107782432Y-170772405D01*
X107781315Y-170770010D01*
X107752102Y-170707362D01*
X107733512Y-170680813D01*
X107729698Y-170674625D01*
X107718718Y-170654221D01*
X107712852Y-170643319D01*
X107668192Y-170587318D01*
X107665896Y-170584247D01*
X107626598Y-170528123D01*
X107601353Y-170502878D01*
X107596715Y-170497689D01*
X107572506Y-170467332D01*
X107521039Y-170422366D01*
X107517990Y-170419515D01*
X107471878Y-170373402D01*
X107439940Y-170351039D01*
X107434705Y-170346939D01*
X107402996Y-170319235D01*
X107402994Y-170319233D01*
X107402992Y-170319232D01*
X107347149Y-170285868D01*
X107343386Y-170283431D01*
X107292641Y-170247899D01*
X107254333Y-170230035D01*
X107248735Y-170227067D01*
X107209769Y-170203787D01*
X107209767Y-170203786D01*
X107151928Y-170182079D01*
X107147515Y-170180226D01*
X107094330Y-170155425D01*
X107094329Y-170155425D01*
X107050321Y-170143632D01*
X107044581Y-170141790D01*
X106999025Y-170124692D01*
X106941456Y-170114245D01*
X106936480Y-170113128D01*
X106882977Y-170098793D01*
X106834327Y-170094536D01*
X106828659Y-170093775D01*
X106777551Y-170084500D01*
X106777547Y-170084500D01*
X106722309Y-170084500D01*
X106716907Y-170084264D01*
X106688451Y-170081774D01*
X106665002Y-170079723D01*
X106664997Y-170079723D01*
X106612050Y-170084355D01*
X106608862Y-170084499D01*
X106608851Y-170084500D01*
X106608845Y-170084500D01*
X106562671Y-170088655D01*
X106554826Y-170089361D01*
X106447020Y-170098793D01*
X106446468Y-170098891D01*
X106441275Y-170099581D01*
X106440812Y-170099622D01*
X106440809Y-170099623D01*
X106337002Y-170128273D01*
X106235659Y-170155428D01*
X106228739Y-170157946D01*
X106224050Y-170159444D01*
X106223849Y-170159499D01*
X106223832Y-170159505D01*
X106129528Y-170204919D01*
X106037358Y-170247899D01*
X106032670Y-170250606D01*
X106032598Y-170250481D01*
X106021871Y-170256764D01*
X106021030Y-170257168D01*
X105938831Y-170316889D01*
X105858123Y-170373401D01*
X105857241Y-170374284D01*
X105842461Y-170386906D01*
X105838928Y-170389472D01*
X105838916Y-170389483D01*
X105807477Y-170422366D01*
X105770868Y-170460656D01*
X105748379Y-170483144D01*
X105703403Y-170528120D01*
X105703402Y-170528121D01*
X105700711Y-170531965D01*
X105688773Y-170546521D01*
X105683368Y-170552174D01*
X105665925Y-170578599D01*
X105630828Y-170631768D01*
X105578587Y-170706378D01*
X105577898Y-170707362D01*
X105577891Y-170707374D01*
X105574457Y-170714738D01*
X105565572Y-170730628D01*
X105559362Y-170740035D01*
X105559362Y-170740036D01*
X105532129Y-170803752D01*
X105523108Y-170824858D01*
X105515331Y-170841536D01*
X105485425Y-170905669D01*
X105485424Y-170905671D01*
X105482425Y-170916860D01*
X105476681Y-170933475D01*
X105470899Y-170947005D01*
X105470896Y-170947016D01*
X105451063Y-171033907D01*
X105428793Y-171117022D01*
X105428793Y-171117023D01*
X105427112Y-171136226D01*
X105425793Y-171144619D01*
X105424492Y-171150323D01*
X105420809Y-171166459D01*
X105420809Y-171166464D01*
X105416949Y-171252397D01*
X105409723Y-171334996D01*
X105409723Y-171335003D01*
X105003739Y-171335003D01*
X105003738Y-171335000D01*
X104998794Y-171315479D01*
X104978954Y-171223419D01*
X104971115Y-171203912D01*
X104968541Y-171196015D01*
X104964157Y-171178700D01*
X104926344Y-171092495D01*
X104890064Y-171002210D01*
X104880768Y-170987112D01*
X104876779Y-170979500D01*
X104870924Y-170966151D01*
X104817724Y-170884721D01*
X104765071Y-170799208D01*
X104765070Y-170799207D01*
X104765069Y-170799205D01*
X104758451Y-170791686D01*
X104747727Y-170777584D01*
X104743978Y-170771845D01*
X104675972Y-170697971D01*
X104607565Y-170620246D01*
X104602439Y-170616107D01*
X104589117Y-170603621D01*
X104586785Y-170601088D01*
X104586783Y-170601086D01*
X104505066Y-170537484D01*
X104422080Y-170470477D01*
X104422073Y-170470472D01*
X104419311Y-170468929D01*
X104403643Y-170458542D01*
X104403634Y-170458535D01*
X104403628Y-170458532D01*
X104403626Y-170458530D01*
X104309837Y-170407774D01*
X104213954Y-170354210D01*
X104213953Y-170354209D01*
X104213952Y-170354209D01*
X104211381Y-170353047D01*
X104204284Y-170349898D01*
X104204188Y-170350119D01*
X104199506Y-170348065D01*
X104095723Y-170312436D01*
X103989168Y-170274788D01*
X103989160Y-170274786D01*
X103988612Y-170274692D01*
X103983889Y-170273691D01*
X103979989Y-170272703D01*
X103868675Y-170254128D01*
X103754209Y-170234500D01*
X103754200Y-170234500D01*
X103751049Y-170234500D01*
X103518951Y-170234500D01*
X103518950Y-170234500D01*
X103462533Y-170243913D01*
X103457587Y-170244535D01*
X103455099Y-170244747D01*
X103397469Y-170249652D01*
X103397461Y-170249653D01*
X103345397Y-170263208D01*
X103339981Y-170264363D01*
X103290013Y-170272703D01*
X103232840Y-170292331D01*
X103228330Y-170293690D01*
X103166749Y-170309725D01*
X103166744Y-170309727D01*
X103120711Y-170330535D01*
X103115304Y-170332680D01*
X103070503Y-170348060D01*
X103070498Y-170348063D01*
X103014448Y-170378395D01*
X103010478Y-170380363D01*
X102949514Y-170407922D01*
X102910359Y-170434385D01*
X102905149Y-170437544D01*
X102866379Y-170458526D01*
X102866367Y-170458533D01*
X102813487Y-170499692D01*
X102810124Y-170502133D01*
X102752001Y-170541417D01*
X102751994Y-170541422D01*
X102720248Y-170571847D01*
X102715430Y-170576011D01*
X102683218Y-170601085D01*
X102683209Y-170601093D01*
X102635613Y-170652795D01*
X102632900Y-170655564D01*
X102579882Y-170706378D01*
X102579880Y-170706380D01*
X102555681Y-170739098D01*
X102551448Y-170744223D01*
X102526022Y-170771845D01*
X102485797Y-170833412D01*
X102483741Y-170836367D01*
X102438124Y-170898047D01*
X102438120Y-170898054D01*
X102421268Y-170931475D01*
X102417811Y-170937472D01*
X102399076Y-170966149D01*
X102368219Y-171036496D01*
X102366803Y-171039503D01*
X102330790Y-171110931D01*
X102320792Y-171143573D01*
X102318288Y-171150323D01*
X102305845Y-171178691D01*
X102305845Y-171178692D01*
X102286178Y-171256347D01*
X102285358Y-171259279D01*
X102260984Y-171338876D01*
X102260983Y-171338879D01*
X102257063Y-171369485D01*
X102255668Y-171376830D01*
X102248867Y-171403688D01*
X102248864Y-171403705D01*
X102241867Y-171488154D01*
X102230702Y-171575344D01*
X102230701Y-171575344D01*
X102231872Y-171602900D01*
X102231716Y-171610655D01*
X102229700Y-171634995D01*
X102229700Y-171635000D01*
X100330500Y-171635000D01*
X100330500Y-166185000D01*
X102229700Y-166185000D01*
X102234642Y-166244653D01*
X102236955Y-166272567D01*
X102240819Y-166363523D01*
X102240820Y-166363534D01*
X102245939Y-166387284D01*
X102247120Y-166395233D01*
X102248865Y-166416301D01*
X102271205Y-166504519D01*
X102291046Y-166596582D01*
X102298883Y-166616084D01*
X102301458Y-166623987D01*
X102305844Y-166641303D01*
X102343655Y-166727504D01*
X102379934Y-166817787D01*
X102379935Y-166817788D01*
X102389232Y-166832888D01*
X102393218Y-166840495D01*
X102399076Y-166853850D01*
X102452275Y-166935277D01*
X102504930Y-167020794D01*
X102511543Y-167028308D01*
X102522263Y-167042402D01*
X102523576Y-167044411D01*
X102526021Y-167048153D01*
X102594027Y-167122028D01*
X102662436Y-167199755D01*
X102667564Y-167203895D01*
X102680882Y-167216377D01*
X102683216Y-167218913D01*
X102764933Y-167282515D01*
X102847920Y-167349523D01*
X102847922Y-167349524D01*
X102850678Y-167351064D01*
X102866360Y-167361460D01*
X102866367Y-167361465D01*
X102866371Y-167361467D01*
X102866374Y-167361470D01*
X102959885Y-167412075D01*
X102960162Y-167412225D01*
X103056046Y-167465790D01*
X103058849Y-167467058D01*
X103065695Y-167470097D01*
X103065794Y-167469873D01*
X103070490Y-167471932D01*
X103070497Y-167471936D01*
X103174276Y-167507563D01*
X103280829Y-167545211D01*
X103281398Y-167545308D01*
X103286129Y-167546312D01*
X103290007Y-167547294D01*
X103290019Y-167547298D01*
X103401324Y-167565870D01*
X103401324Y-167565871D01*
X103515791Y-167585499D01*
X103515800Y-167585500D01*
X103751044Y-167585500D01*
X103751049Y-167585500D01*
X103784073Y-167579988D01*
X103807469Y-167576085D01*
X103812407Y-167575463D01*
X103872541Y-167570346D01*
X103924615Y-167556786D01*
X103930017Y-167555634D01*
X103979981Y-167547298D01*
X104037186Y-167527658D01*
X104041663Y-167526309D01*
X104103249Y-167510275D01*
X104109249Y-167507563D01*
X104119082Y-167503118D01*
X104149297Y-167489459D01*
X104154681Y-167487322D01*
X104199503Y-167471936D01*
X104255554Y-167441601D01*
X104259527Y-167439632D01*
X104268156Y-167435730D01*
X104320486Y-167412077D01*
X104359647Y-167385608D01*
X104364820Y-167382469D01*
X104403626Y-167361470D01*
X104456532Y-167320290D01*
X104459850Y-167317881D01*
X104518003Y-167278579D01*
X104549770Y-167248131D01*
X104554548Y-167244002D01*
X104586784Y-167218913D01*
X104589109Y-167216388D01*
X104604420Y-167199755D01*
X104634389Y-167167198D01*
X104637101Y-167164432D01*
X104690118Y-167113621D01*
X104714329Y-167080883D01*
X104718540Y-167075785D01*
X104743979Y-167048153D01*
X104744348Y-167047589D01*
X104784205Y-166986581D01*
X104786241Y-166983652D01*
X104831879Y-166921947D01*
X104848733Y-166888517D01*
X104852170Y-166882552D01*
X104870924Y-166853849D01*
X104901805Y-166783445D01*
X104903174Y-166780538D01*
X104939207Y-166709074D01*
X104949208Y-166676413D01*
X104951701Y-166669694D01*
X104964157Y-166641300D01*
X104983827Y-166563621D01*
X104984635Y-166560732D01*
X105007828Y-166485003D01*
X105409723Y-166485003D01*
X105411688Y-166507470D01*
X105411862Y-166515660D01*
X105410709Y-166541324D01*
X105410710Y-166541328D01*
X105421641Y-166622031D01*
X105421966Y-166624949D01*
X105428792Y-166702972D01*
X105428795Y-166702987D01*
X105435482Y-166727941D01*
X105437034Y-166735670D01*
X105440924Y-166764381D01*
X105440926Y-166764392D01*
X105465075Y-166838713D01*
X105465997Y-166841825D01*
X105485423Y-166914324D01*
X105485427Y-166914336D01*
X105497736Y-166940732D01*
X105500512Y-166947779D01*
X105510483Y-166978464D01*
X105545970Y-167044411D01*
X105547558Y-167047576D01*
X105577898Y-167112639D01*
X105596490Y-167139191D01*
X105600303Y-167145378D01*
X105617146Y-167176678D01*
X105617152Y-167176687D01*
X105661792Y-167232663D01*
X105664106Y-167235758D01*
X105695296Y-167280301D01*
X105703402Y-167291877D01*
X105703405Y-167291880D01*
X105728646Y-167317121D01*
X105733283Y-167322309D01*
X105757492Y-167352666D01*
X105808959Y-167397632D01*
X105812008Y-167400483D01*
X105858116Y-167446592D01*
X105858122Y-167446597D01*
X105858123Y-167446598D01*
X105869802Y-167454775D01*
X105890055Y-167468957D01*
X105895290Y-167473057D01*
X105927004Y-167500765D01*
X105927013Y-167500771D01*
X105982849Y-167534131D01*
X105986613Y-167536568D01*
X106037359Y-167572101D01*
X106037364Y-167572104D01*
X106045902Y-167576085D01*
X106075677Y-167589969D01*
X106081271Y-167592935D01*
X106120217Y-167616204D01*
X106120236Y-167616215D01*
X106138828Y-167623192D01*
X106178083Y-167637925D01*
X106182503Y-167639782D01*
X106235670Y-167664575D01*
X106235674Y-167664577D01*
X106266069Y-167672720D01*
X106279677Y-167676366D01*
X106285413Y-167678207D01*
X106302264Y-167684531D01*
X106330976Y-167695307D01*
X106388545Y-167705754D01*
X106393511Y-167706868D01*
X106447023Y-167721207D01*
X106495689Y-167725464D01*
X106501306Y-167726218D01*
X106552453Y-167735500D01*
X106607691Y-167735500D01*
X106613092Y-167735735D01*
X106641548Y-167738225D01*
X106664998Y-167740277D01*
X106665000Y-167740277D01*
X106717992Y-167735640D01*
X106721121Y-167735500D01*
X106721155Y-167735500D01*
X106775172Y-167730638D01*
X106882977Y-167721207D01*
X106883000Y-167721200D01*
X106883475Y-167721117D01*
X106888713Y-167720419D01*
X106889188Y-167720377D01*
X106992997Y-167691726D01*
X107094330Y-167664575D01*
X107094337Y-167664571D01*
X107101254Y-167662053D01*
X107105948Y-167660554D01*
X107106170Y-167660493D01*
X107106181Y-167660487D01*
X107106183Y-167660487D01*
X107200454Y-167615088D01*
X107292639Y-167572102D01*
X107292644Y-167572097D01*
X107297327Y-167569395D01*
X107297400Y-167569522D01*
X107308164Y-167563218D01*
X107308973Y-167562829D01*
X107391156Y-167503118D01*
X107471877Y-167446598D01*
X107472747Y-167445727D01*
X107487550Y-167433084D01*
X107491078Y-167430522D01*
X107508572Y-167412225D01*
X107559131Y-167359343D01*
X107626592Y-167291883D01*
X107626592Y-167291882D01*
X107626598Y-167291877D01*
X107629285Y-167288039D01*
X107641239Y-167273465D01*
X107646629Y-167267828D01*
X107646628Y-167267828D01*
X107646632Y-167267825D01*
X107699164Y-167188241D01*
X107752102Y-167112639D01*
X107755543Y-167105259D01*
X107764432Y-167089364D01*
X107770635Y-167079968D01*
X107806889Y-166995146D01*
X107844575Y-166914330D01*
X107847570Y-166903148D01*
X107853325Y-166886505D01*
X107855024Y-166882531D01*
X107859103Y-166872988D01*
X107878936Y-166786092D01*
X107901207Y-166702977D01*
X107902887Y-166683766D01*
X107904206Y-166675377D01*
X107905508Y-166669672D01*
X107909191Y-166653537D01*
X107913050Y-166567602D01*
X107920277Y-166485000D01*
X107918310Y-166462528D01*
X107918137Y-166454334D01*
X107919290Y-166428670D01*
X107908353Y-166347939D01*
X107908034Y-166345067D01*
X107901207Y-166267023D01*
X107894515Y-166242053D01*
X107892963Y-166234322D01*
X107889076Y-166205618D01*
X107889075Y-166205616D01*
X107889075Y-166205613D01*
X107871947Y-166152900D01*
X107864921Y-166131276D01*
X107863998Y-166128161D01*
X107844576Y-166055673D01*
X107844574Y-166055669D01*
X107832266Y-166029274D01*
X107829488Y-166022222D01*
X107819519Y-165991541D01*
X107819517Y-165991537D01*
X107819517Y-165991536D01*
X107806988Y-165968253D01*
X107784027Y-165925583D01*
X107782432Y-165922405D01*
X107767338Y-165890036D01*
X107752102Y-165857362D01*
X107733512Y-165830813D01*
X107729698Y-165824625D01*
X107719862Y-165806347D01*
X107712852Y-165793319D01*
X107668192Y-165737318D01*
X107665896Y-165734247D01*
X107626598Y-165678123D01*
X107601353Y-165652878D01*
X107596715Y-165647689D01*
X107572506Y-165617332D01*
X107521039Y-165572366D01*
X107517990Y-165569515D01*
X107471878Y-165523402D01*
X107439940Y-165501039D01*
X107434705Y-165496939D01*
X107420542Y-165484565D01*
X107402996Y-165469235D01*
X107402994Y-165469233D01*
X107402992Y-165469232D01*
X107347149Y-165435868D01*
X107343386Y-165433431D01*
X107292641Y-165397899D01*
X107267911Y-165386367D01*
X107254332Y-165380034D01*
X107248735Y-165377067D01*
X107209769Y-165353787D01*
X107209767Y-165353786D01*
X107151928Y-165332079D01*
X107147515Y-165330226D01*
X107094330Y-165305425D01*
X107094329Y-165305425D01*
X107050321Y-165293632D01*
X107044581Y-165291790D01*
X106999025Y-165274692D01*
X106941456Y-165264245D01*
X106936480Y-165263128D01*
X106882977Y-165248793D01*
X106834327Y-165244536D01*
X106828659Y-165243775D01*
X106777551Y-165234500D01*
X106777547Y-165234500D01*
X106722309Y-165234500D01*
X106716907Y-165234264D01*
X106688451Y-165231774D01*
X106665002Y-165229723D01*
X106664997Y-165229723D01*
X106612050Y-165234355D01*
X106608862Y-165234499D01*
X106608851Y-165234500D01*
X106608845Y-165234500D01*
X106562671Y-165238655D01*
X106554826Y-165239361D01*
X106447020Y-165248793D01*
X106446468Y-165248891D01*
X106441275Y-165249581D01*
X106440812Y-165249622D01*
X106440809Y-165249623D01*
X106337002Y-165278273D01*
X106235659Y-165305428D01*
X106228739Y-165307946D01*
X106224050Y-165309444D01*
X106223849Y-165309499D01*
X106223832Y-165309505D01*
X106129528Y-165354919D01*
X106037358Y-165397899D01*
X106032670Y-165400606D01*
X106032598Y-165400481D01*
X106021871Y-165406764D01*
X106021030Y-165407168D01*
X105938831Y-165466889D01*
X105858123Y-165523401D01*
X105857241Y-165524284D01*
X105842461Y-165536906D01*
X105838928Y-165539472D01*
X105838916Y-165539483D01*
X105807477Y-165572366D01*
X105770868Y-165610656D01*
X105748379Y-165633144D01*
X105703403Y-165678120D01*
X105703402Y-165678121D01*
X105700711Y-165681965D01*
X105688773Y-165696521D01*
X105683368Y-165702174D01*
X105665864Y-165728692D01*
X105630828Y-165781768D01*
X105577898Y-165857362D01*
X105577891Y-165857374D01*
X105574457Y-165864738D01*
X105565572Y-165880628D01*
X105559362Y-165890035D01*
X105559362Y-165890036D01*
X105532157Y-165953688D01*
X105523108Y-165974858D01*
X105519445Y-165982714D01*
X105485425Y-166055669D01*
X105485424Y-166055671D01*
X105482425Y-166066860D01*
X105476681Y-166083475D01*
X105470899Y-166097005D01*
X105470896Y-166097016D01*
X105451063Y-166183907D01*
X105428793Y-166267022D01*
X105428793Y-166267023D01*
X105427112Y-166286226D01*
X105425793Y-166294625D01*
X105420809Y-166316459D01*
X105420809Y-166316464D01*
X105416949Y-166402397D01*
X105409723Y-166484996D01*
X105409723Y-166485003D01*
X105007828Y-166485003D01*
X105009016Y-166481123D01*
X105012936Y-166450508D01*
X105014330Y-166443170D01*
X105021134Y-166416305D01*
X105028132Y-166331845D01*
X105039298Y-166244654D01*
X105038126Y-166217079D01*
X105038281Y-166209355D01*
X105040300Y-166185000D01*
X105040209Y-166183907D01*
X105033044Y-166097432D01*
X105029180Y-166006474D01*
X105029180Y-166006468D01*
X105024059Y-165982709D01*
X105022879Y-165974762D01*
X105021134Y-165953695D01*
X105021133Y-165953692D01*
X105021133Y-165953688D01*
X104998794Y-165865480D01*
X104997045Y-165857363D01*
X104978954Y-165773419D01*
X104971115Y-165753912D01*
X104968541Y-165746015D01*
X104964157Y-165728700D01*
X104926344Y-165642495D01*
X104890064Y-165552210D01*
X104880768Y-165537112D01*
X104876779Y-165529500D01*
X104870924Y-165516151D01*
X104817724Y-165434721D01*
X104765071Y-165349208D01*
X104765070Y-165349207D01*
X104765069Y-165349205D01*
X104758451Y-165341686D01*
X104747727Y-165327584D01*
X104743978Y-165321845D01*
X104675972Y-165247971D01*
X104607565Y-165170246D01*
X104602439Y-165166107D01*
X104589117Y-165153621D01*
X104586785Y-165151088D01*
X104586783Y-165151086D01*
X104505066Y-165087484D01*
X104422080Y-165020477D01*
X104422073Y-165020472D01*
X104419311Y-165018929D01*
X104403643Y-165008542D01*
X104403634Y-165008535D01*
X104403628Y-165008532D01*
X104403626Y-165008530D01*
X104309837Y-164957774D01*
X104213954Y-164904210D01*
X104213953Y-164904209D01*
X104213952Y-164904209D01*
X104211381Y-164903047D01*
X104204284Y-164899898D01*
X104204188Y-164900119D01*
X104199506Y-164898065D01*
X104095723Y-164862436D01*
X103989168Y-164824788D01*
X103989160Y-164824786D01*
X103988612Y-164824692D01*
X103983889Y-164823691D01*
X103979989Y-164822703D01*
X103868675Y-164804128D01*
X103754209Y-164784500D01*
X103754200Y-164784500D01*
X103751049Y-164784500D01*
X103518951Y-164784500D01*
X103518950Y-164784500D01*
X103462533Y-164793913D01*
X103457587Y-164794535D01*
X103455099Y-164794747D01*
X103397469Y-164799652D01*
X103397461Y-164799653D01*
X103345397Y-164813208D01*
X103339981Y-164814363D01*
X103290013Y-164822703D01*
X103232840Y-164842331D01*
X103228330Y-164843690D01*
X103166749Y-164859725D01*
X103166744Y-164859727D01*
X103120711Y-164880535D01*
X103115304Y-164882680D01*
X103070503Y-164898060D01*
X103070498Y-164898063D01*
X103014448Y-164928395D01*
X103010478Y-164930363D01*
X102949514Y-164957922D01*
X102910359Y-164984385D01*
X102905149Y-164987544D01*
X102866379Y-165008526D01*
X102866367Y-165008533D01*
X102813487Y-165049692D01*
X102810124Y-165052133D01*
X102752001Y-165091417D01*
X102751994Y-165091422D01*
X102720248Y-165121847D01*
X102715430Y-165126011D01*
X102683218Y-165151085D01*
X102683209Y-165151093D01*
X102635613Y-165202795D01*
X102632900Y-165205564D01*
X102579882Y-165256378D01*
X102579880Y-165256380D01*
X102555681Y-165289098D01*
X102551448Y-165294223D01*
X102526022Y-165321845D01*
X102485797Y-165383412D01*
X102483741Y-165386367D01*
X102438124Y-165448047D01*
X102438120Y-165448054D01*
X102421268Y-165481475D01*
X102417811Y-165487472D01*
X102399076Y-165516149D01*
X102368219Y-165586496D01*
X102366803Y-165589503D01*
X102330790Y-165660931D01*
X102320792Y-165693573D01*
X102318288Y-165700323D01*
X102305845Y-165728691D01*
X102305845Y-165728692D01*
X102286178Y-165806347D01*
X102285358Y-165809279D01*
X102260984Y-165888876D01*
X102260983Y-165888879D01*
X102257063Y-165919485D01*
X102255668Y-165926830D01*
X102248867Y-165953688D01*
X102248864Y-165953705D01*
X102241867Y-166038154D01*
X102230702Y-166125344D01*
X102230701Y-166125344D01*
X102231872Y-166152900D01*
X102231716Y-166160655D01*
X102229700Y-166184995D01*
X102229700Y-166185000D01*
X100330500Y-166185000D01*
X100330500Y-160020000D01*
X102149341Y-160020000D01*
X102169936Y-160255403D01*
X102169938Y-160255413D01*
X102231094Y-160483655D01*
X102231096Y-160483659D01*
X102231097Y-160483663D01*
X102311004Y-160655023D01*
X102330965Y-160697830D01*
X102330967Y-160697834D01*
X102439281Y-160852521D01*
X102466505Y-160891401D01*
X102633599Y-161058495D01*
X102730384Y-161126265D01*
X102827165Y-161194032D01*
X102827167Y-161194033D01*
X102827170Y-161194035D01*
X103041337Y-161293903D01*
X103269592Y-161355063D01*
X103446034Y-161370500D01*
X103504999Y-161375659D01*
X103505000Y-161375659D01*
X103505001Y-161375659D01*
X103563966Y-161370500D01*
X103740408Y-161355063D01*
X103968663Y-161293903D01*
X104182830Y-161194035D01*
X104376401Y-161058495D01*
X104543495Y-160891401D01*
X104673424Y-160705842D01*
X104728002Y-160662217D01*
X104797500Y-160655023D01*
X104859855Y-160686546D01*
X104876575Y-160705842D01*
X105006500Y-160891395D01*
X105006505Y-160891401D01*
X105173599Y-161058495D01*
X105270384Y-161126264D01*
X105367165Y-161194032D01*
X105367167Y-161194033D01*
X105367170Y-161194035D01*
X105581337Y-161293903D01*
X105809592Y-161355063D01*
X105986034Y-161370500D01*
X106044999Y-161375659D01*
X106045000Y-161375659D01*
X106045001Y-161375659D01*
X106103966Y-161370500D01*
X106280408Y-161355063D01*
X106508663Y-161293903D01*
X106722830Y-161194035D01*
X106916401Y-161058495D01*
X107038717Y-160936178D01*
X107100036Y-160902696D01*
X107169728Y-160907680D01*
X107225662Y-160949551D01*
X107242577Y-160980528D01*
X107291646Y-161112088D01*
X107291649Y-161112093D01*
X107377809Y-161227187D01*
X107377812Y-161227190D01*
X107492906Y-161313350D01*
X107492913Y-161313354D01*
X107627620Y-161363596D01*
X107627627Y-161363598D01*
X107687155Y-161369999D01*
X107687172Y-161370000D01*
X108335000Y-161370000D01*
X108334999Y-160466494D01*
X108439839Y-160514373D01*
X108548527Y-160530000D01*
X108621473Y-160530000D01*
X108730161Y-160514373D01*
X108835000Y-160466494D01*
X108835000Y-161370000D01*
X109482828Y-161370000D01*
X109482844Y-161369999D01*
X109542372Y-161363598D01*
X109542379Y-161363596D01*
X109677086Y-161313354D01*
X109677093Y-161313350D01*
X109792187Y-161227190D01*
X109792190Y-161227187D01*
X109878350Y-161112093D01*
X109878354Y-161112086D01*
X109927422Y-160980529D01*
X109969293Y-160924595D01*
X110034757Y-160900178D01*
X110103030Y-160915030D01*
X110131285Y-160936181D01*
X110253599Y-161058495D01*
X110350384Y-161126264D01*
X110447165Y-161194032D01*
X110447167Y-161194033D01*
X110447170Y-161194035D01*
X110661337Y-161293903D01*
X110889592Y-161355063D01*
X111066034Y-161370500D01*
X111124999Y-161375659D01*
X111125000Y-161375659D01*
X111125001Y-161375659D01*
X111183966Y-161370500D01*
X111360408Y-161355063D01*
X111588663Y-161293903D01*
X111802830Y-161194035D01*
X111996401Y-161058495D01*
X112163495Y-160891401D01*
X112293424Y-160705842D01*
X112348002Y-160662217D01*
X112417500Y-160655023D01*
X112479855Y-160686546D01*
X112496575Y-160705842D01*
X112626500Y-160891395D01*
X112626505Y-160891401D01*
X112793599Y-161058495D01*
X112890384Y-161126264D01*
X112987165Y-161194032D01*
X112987167Y-161194033D01*
X112987170Y-161194035D01*
X113201337Y-161293903D01*
X113429592Y-161355063D01*
X113606034Y-161370500D01*
X113664999Y-161375659D01*
X113665000Y-161375659D01*
X113665001Y-161375659D01*
X113723966Y-161370500D01*
X113900408Y-161355063D01*
X114128663Y-161293903D01*
X114342830Y-161194035D01*
X114536401Y-161058495D01*
X114703495Y-160891401D01*
X114833424Y-160705842D01*
X114888002Y-160662217D01*
X114957500Y-160655023D01*
X115019855Y-160686546D01*
X115036575Y-160705842D01*
X115166500Y-160891395D01*
X115166505Y-160891401D01*
X115333599Y-161058495D01*
X115430384Y-161126264D01*
X115527165Y-161194032D01*
X115527167Y-161194033D01*
X115527170Y-161194035D01*
X115741337Y-161293903D01*
X115969592Y-161355063D01*
X116146034Y-161370500D01*
X116204999Y-161375659D01*
X116205000Y-161375659D01*
X116205001Y-161375659D01*
X116263966Y-161370500D01*
X116440408Y-161355063D01*
X116668663Y-161293903D01*
X116882830Y-161194035D01*
X117076401Y-161058495D01*
X117243495Y-160891401D01*
X117373424Y-160705842D01*
X117428002Y-160662217D01*
X117497500Y-160655023D01*
X117559855Y-160686546D01*
X117576575Y-160705842D01*
X117706500Y-160891395D01*
X117706505Y-160891401D01*
X117873599Y-161058495D01*
X117970384Y-161126264D01*
X118067165Y-161194032D01*
X118067167Y-161194033D01*
X118067170Y-161194035D01*
X118281337Y-161293903D01*
X118509592Y-161355063D01*
X118686034Y-161370500D01*
X118744999Y-161375659D01*
X118745000Y-161375659D01*
X118745001Y-161375659D01*
X118803966Y-161370500D01*
X118980408Y-161355063D01*
X119208663Y-161293903D01*
X119422830Y-161194035D01*
X119616401Y-161058495D01*
X119738329Y-160936566D01*
X119799648Y-160903084D01*
X119869340Y-160908068D01*
X119925274Y-160949939D01*
X119942189Y-160980917D01*
X119991202Y-161112328D01*
X119991206Y-161112335D01*
X120077452Y-161227544D01*
X120077455Y-161227547D01*
X120192664Y-161313793D01*
X120192671Y-161313797D01*
X120327517Y-161364091D01*
X120327516Y-161364091D01*
X120334444Y-161364835D01*
X120387127Y-161370500D01*
X122182872Y-161370499D01*
X122242483Y-161364091D01*
X122377331Y-161313796D01*
X122492546Y-161227546D01*
X122578796Y-161112331D01*
X122627810Y-160980916D01*
X122669681Y-160924984D01*
X122735145Y-160900566D01*
X122803418Y-160915417D01*
X122831673Y-160936569D01*
X122953599Y-161058495D01*
X123050384Y-161126264D01*
X123147165Y-161194032D01*
X123147167Y-161194033D01*
X123147170Y-161194035D01*
X123361337Y-161293903D01*
X123589592Y-161355063D01*
X123766034Y-161370500D01*
X123824999Y-161375659D01*
X123825000Y-161375659D01*
X123825001Y-161375659D01*
X123883966Y-161370500D01*
X124060408Y-161355063D01*
X124288663Y-161293903D01*
X124502830Y-161194035D01*
X124696401Y-161058495D01*
X124863495Y-160891401D01*
X124993424Y-160705842D01*
X125048002Y-160662217D01*
X125117500Y-160655023D01*
X125179855Y-160686546D01*
X125196575Y-160705842D01*
X125326500Y-160891395D01*
X125326505Y-160891401D01*
X125493599Y-161058495D01*
X125590384Y-161126264D01*
X125687165Y-161194032D01*
X125687167Y-161194033D01*
X125687170Y-161194035D01*
X125901337Y-161293903D01*
X126129592Y-161355063D01*
X126306034Y-161370500D01*
X126364999Y-161375659D01*
X126365000Y-161375659D01*
X126365001Y-161375659D01*
X126423966Y-161370500D01*
X126600408Y-161355063D01*
X126828663Y-161293903D01*
X127042830Y-161194035D01*
X127236401Y-161058495D01*
X127403495Y-160891401D01*
X127533424Y-160705842D01*
X127588002Y-160662217D01*
X127657500Y-160655023D01*
X127719855Y-160686546D01*
X127736575Y-160705842D01*
X127866500Y-160891395D01*
X127866505Y-160891401D01*
X128033599Y-161058495D01*
X128130384Y-161126264D01*
X128227165Y-161194032D01*
X128227167Y-161194033D01*
X128227170Y-161194035D01*
X128441337Y-161293903D01*
X128669592Y-161355063D01*
X128846034Y-161370500D01*
X128904999Y-161375659D01*
X128905000Y-161375659D01*
X128905001Y-161375659D01*
X128963966Y-161370500D01*
X129140408Y-161355063D01*
X129368663Y-161293903D01*
X129582830Y-161194035D01*
X129776401Y-161058495D01*
X129943495Y-160891401D01*
X130073424Y-160705842D01*
X130128002Y-160662217D01*
X130197500Y-160655023D01*
X130259855Y-160686546D01*
X130276575Y-160705842D01*
X130406500Y-160891395D01*
X130406505Y-160891401D01*
X130573599Y-161058495D01*
X130670384Y-161126264D01*
X130767165Y-161194032D01*
X130767167Y-161194033D01*
X130767170Y-161194035D01*
X130981337Y-161293903D01*
X131209592Y-161355063D01*
X131386034Y-161370500D01*
X131444999Y-161375659D01*
X131445000Y-161375659D01*
X131445001Y-161375659D01*
X131503966Y-161370500D01*
X131680408Y-161355063D01*
X131908663Y-161293903D01*
X132122830Y-161194035D01*
X132316401Y-161058495D01*
X132438717Y-160936178D01*
X132500036Y-160902696D01*
X132569728Y-160907680D01*
X132625662Y-160949551D01*
X132642577Y-160980528D01*
X132691646Y-161112088D01*
X132691649Y-161112093D01*
X132777809Y-161227187D01*
X132777812Y-161227190D01*
X132892906Y-161313350D01*
X132892913Y-161313354D01*
X133027620Y-161363596D01*
X133027627Y-161363598D01*
X133087155Y-161369999D01*
X133087172Y-161370000D01*
X133735000Y-161370000D01*
X133735000Y-160466494D01*
X133839839Y-160514373D01*
X133948527Y-160530000D01*
X134021473Y-160530000D01*
X134130161Y-160514373D01*
X134235000Y-160466494D01*
X134235000Y-161370000D01*
X134882828Y-161370000D01*
X134882844Y-161369999D01*
X134942372Y-161363598D01*
X134942379Y-161363596D01*
X135077086Y-161313354D01*
X135077093Y-161313350D01*
X135192187Y-161227190D01*
X135192190Y-161227187D01*
X135278350Y-161112093D01*
X135278354Y-161112086D01*
X135327422Y-160980529D01*
X135369293Y-160924595D01*
X135434757Y-160900178D01*
X135503030Y-160915030D01*
X135531285Y-160936181D01*
X135653599Y-161058495D01*
X135750384Y-161126264D01*
X135847165Y-161194032D01*
X135847167Y-161194033D01*
X135847170Y-161194035D01*
X136061337Y-161293903D01*
X136289592Y-161355063D01*
X136466034Y-161370500D01*
X136524999Y-161375659D01*
X136525000Y-161375659D01*
X136525001Y-161375659D01*
X136583966Y-161370500D01*
X136760408Y-161355063D01*
X136988663Y-161293903D01*
X137202830Y-161194035D01*
X137396401Y-161058495D01*
X137563495Y-160891401D01*
X137693424Y-160705842D01*
X137748002Y-160662217D01*
X137817500Y-160655023D01*
X137879855Y-160686546D01*
X137896575Y-160705842D01*
X138026500Y-160891395D01*
X138026505Y-160891401D01*
X138193599Y-161058495D01*
X138290384Y-161126264D01*
X138387165Y-161194032D01*
X138387167Y-161194033D01*
X138387170Y-161194035D01*
X138601337Y-161293903D01*
X138829592Y-161355063D01*
X139006034Y-161370500D01*
X139064999Y-161375659D01*
X139065000Y-161375659D01*
X139065001Y-161375659D01*
X139123966Y-161370500D01*
X139300408Y-161355063D01*
X139528663Y-161293903D01*
X139742830Y-161194035D01*
X139936401Y-161058495D01*
X140103495Y-160891401D01*
X140233424Y-160705842D01*
X140288002Y-160662217D01*
X140357500Y-160655023D01*
X140419855Y-160686546D01*
X140436575Y-160705842D01*
X140566500Y-160891395D01*
X140566505Y-160891401D01*
X140733599Y-161058495D01*
X140830384Y-161126264D01*
X140927165Y-161194032D01*
X140927167Y-161194033D01*
X140927170Y-161194035D01*
X141141337Y-161293903D01*
X141369592Y-161355063D01*
X141546034Y-161370500D01*
X141604999Y-161375659D01*
X141605000Y-161375659D01*
X141605001Y-161375659D01*
X141663966Y-161370500D01*
X141840408Y-161355063D01*
X142068663Y-161293903D01*
X142282830Y-161194035D01*
X142476401Y-161058495D01*
X142643495Y-160891401D01*
X142773424Y-160705842D01*
X142828002Y-160662217D01*
X142897500Y-160655023D01*
X142959855Y-160686546D01*
X142976575Y-160705842D01*
X143106500Y-160891395D01*
X143106505Y-160891401D01*
X143273599Y-161058495D01*
X143370384Y-161126264D01*
X143467165Y-161194032D01*
X143467167Y-161194033D01*
X143467170Y-161194035D01*
X143681337Y-161293903D01*
X143909592Y-161355063D01*
X144086034Y-161370500D01*
X144144999Y-161375659D01*
X144145000Y-161375659D01*
X144145001Y-161375659D01*
X144203966Y-161370500D01*
X144380408Y-161355063D01*
X144608663Y-161293903D01*
X144822830Y-161194035D01*
X145016401Y-161058495D01*
X145138717Y-160936178D01*
X145200036Y-160902696D01*
X145269728Y-160907680D01*
X145325662Y-160949551D01*
X145342577Y-160980528D01*
X145391646Y-161112088D01*
X145391649Y-161112093D01*
X145477809Y-161227187D01*
X145477812Y-161227190D01*
X145592906Y-161313350D01*
X145592913Y-161313354D01*
X145727620Y-161363596D01*
X145727627Y-161363598D01*
X145787155Y-161369999D01*
X145787172Y-161370000D01*
X146435000Y-161370000D01*
X146435000Y-160466494D01*
X146539839Y-160514373D01*
X146648527Y-160530000D01*
X146721473Y-160530000D01*
X146830161Y-160514373D01*
X146935000Y-160466494D01*
X146935000Y-161370000D01*
X147582828Y-161370000D01*
X147582844Y-161369999D01*
X147642372Y-161363598D01*
X147642379Y-161363596D01*
X147777086Y-161313354D01*
X147777093Y-161313350D01*
X147892187Y-161227190D01*
X147892190Y-161227187D01*
X147978350Y-161112093D01*
X147978354Y-161112086D01*
X148027422Y-160980529D01*
X148069293Y-160924595D01*
X148134757Y-160900178D01*
X148203030Y-160915030D01*
X148231285Y-160936181D01*
X148353599Y-161058495D01*
X148450384Y-161126264D01*
X148547165Y-161194032D01*
X148547167Y-161194033D01*
X148547170Y-161194035D01*
X148761337Y-161293903D01*
X148989592Y-161355063D01*
X149166034Y-161370500D01*
X149224999Y-161375659D01*
X149225000Y-161375659D01*
X149225001Y-161375659D01*
X149283966Y-161370500D01*
X149460408Y-161355063D01*
X149688663Y-161293903D01*
X149902830Y-161194035D01*
X150096401Y-161058495D01*
X150263495Y-160891401D01*
X150393424Y-160705842D01*
X150448002Y-160662217D01*
X150517500Y-160655023D01*
X150579855Y-160686546D01*
X150596575Y-160705842D01*
X150726500Y-160891395D01*
X150726505Y-160891401D01*
X150893599Y-161058495D01*
X150990384Y-161126264D01*
X151087165Y-161194032D01*
X151087167Y-161194033D01*
X151087170Y-161194035D01*
X151301337Y-161293903D01*
X151529592Y-161355063D01*
X151706034Y-161370500D01*
X151764999Y-161375659D01*
X151765000Y-161375659D01*
X151765001Y-161375659D01*
X151823966Y-161370500D01*
X152000408Y-161355063D01*
X152228663Y-161293903D01*
X152442830Y-161194035D01*
X152636401Y-161058495D01*
X152803495Y-160891401D01*
X152939035Y-160697830D01*
X153038903Y-160483663D01*
X153100063Y-160255408D01*
X153120659Y-160020000D01*
X153100063Y-159784592D01*
X153038903Y-159556337D01*
X152939035Y-159342171D01*
X152933425Y-159334158D01*
X152803494Y-159148597D01*
X152636402Y-158981506D01*
X152636395Y-158981501D01*
X152442834Y-158845967D01*
X152442830Y-158845965D01*
X152371727Y-158812809D01*
X152228663Y-158746097D01*
X152228659Y-158746096D01*
X152228655Y-158746094D01*
X152000413Y-158684938D01*
X152000403Y-158684936D01*
X151765001Y-158664341D01*
X151764999Y-158664341D01*
X151529596Y-158684936D01*
X151529586Y-158684938D01*
X151301344Y-158746094D01*
X151301335Y-158746098D01*
X151087171Y-158845964D01*
X151087169Y-158845965D01*
X150893597Y-158981505D01*
X150726505Y-159148597D01*
X150596575Y-159334158D01*
X150541998Y-159377783D01*
X150472500Y-159384977D01*
X150410145Y-159353454D01*
X150393425Y-159334158D01*
X150263494Y-159148597D01*
X150096402Y-158981506D01*
X150096395Y-158981501D01*
X149902834Y-158845967D01*
X149902830Y-158845965D01*
X149831727Y-158812809D01*
X149688663Y-158746097D01*
X149688659Y-158746096D01*
X149688655Y-158746094D01*
X149460413Y-158684938D01*
X149460403Y-158684936D01*
X149225001Y-158664341D01*
X149224999Y-158664341D01*
X148989596Y-158684936D01*
X148989586Y-158684938D01*
X148761344Y-158746094D01*
X148761335Y-158746098D01*
X148547171Y-158845964D01*
X148547169Y-158845965D01*
X148353600Y-158981503D01*
X148231284Y-159103819D01*
X148169961Y-159137303D01*
X148100269Y-159132319D01*
X148044336Y-159090447D01*
X148027421Y-159059470D01*
X147978354Y-158927913D01*
X147978350Y-158927906D01*
X147892190Y-158812812D01*
X147892187Y-158812809D01*
X147777093Y-158726649D01*
X147777086Y-158726645D01*
X147642379Y-158676403D01*
X147642372Y-158676401D01*
X147582844Y-158670000D01*
X146935000Y-158670000D01*
X146935000Y-159573505D01*
X146830161Y-159525627D01*
X146721473Y-159510000D01*
X146648527Y-159510000D01*
X146539839Y-159525627D01*
X146435000Y-159573505D01*
X146435000Y-158670000D01*
X145787155Y-158670000D01*
X145727627Y-158676401D01*
X145727620Y-158676403D01*
X145592913Y-158726645D01*
X145592906Y-158726649D01*
X145477812Y-158812809D01*
X145477809Y-158812812D01*
X145391649Y-158927906D01*
X145391645Y-158927913D01*
X145342578Y-159059470D01*
X145300707Y-159115404D01*
X145235242Y-159139821D01*
X145166969Y-159124969D01*
X145138715Y-159103819D01*
X145093977Y-159059081D01*
X145016401Y-158981505D01*
X145016397Y-158981502D01*
X145016396Y-158981501D01*
X144822834Y-158845967D01*
X144822830Y-158845965D01*
X144751727Y-158812809D01*
X144608663Y-158746097D01*
X144608659Y-158746096D01*
X144608655Y-158746094D01*
X144380413Y-158684938D01*
X144380403Y-158684936D01*
X144145001Y-158664341D01*
X144144999Y-158664341D01*
X143909596Y-158684936D01*
X143909586Y-158684938D01*
X143681344Y-158746094D01*
X143681335Y-158746098D01*
X143467171Y-158845964D01*
X143467169Y-158845965D01*
X143273597Y-158981505D01*
X143106505Y-159148597D01*
X142976575Y-159334158D01*
X142921998Y-159377783D01*
X142852500Y-159384977D01*
X142790145Y-159353454D01*
X142773425Y-159334158D01*
X142643494Y-159148597D01*
X142476402Y-158981506D01*
X142476395Y-158981501D01*
X142282834Y-158845967D01*
X142282830Y-158845965D01*
X142211727Y-158812809D01*
X142068663Y-158746097D01*
X142068659Y-158746096D01*
X142068655Y-158746094D01*
X141840413Y-158684938D01*
X141840403Y-158684936D01*
X141605001Y-158664341D01*
X141604999Y-158664341D01*
X141369596Y-158684936D01*
X141369586Y-158684938D01*
X141141344Y-158746094D01*
X141141335Y-158746098D01*
X140927171Y-158845964D01*
X140927169Y-158845965D01*
X140733597Y-158981505D01*
X140566505Y-159148597D01*
X140436575Y-159334158D01*
X140381998Y-159377783D01*
X140312500Y-159384977D01*
X140250145Y-159353454D01*
X140233425Y-159334158D01*
X140103494Y-159148597D01*
X139936402Y-158981506D01*
X139936395Y-158981501D01*
X139742834Y-158845967D01*
X139742830Y-158845965D01*
X139671727Y-158812809D01*
X139528663Y-158746097D01*
X139528659Y-158746096D01*
X139528655Y-158746094D01*
X139300413Y-158684938D01*
X139300403Y-158684936D01*
X139065001Y-158664341D01*
X139064999Y-158664341D01*
X138829596Y-158684936D01*
X138829586Y-158684938D01*
X138601344Y-158746094D01*
X138601335Y-158746098D01*
X138387171Y-158845964D01*
X138387169Y-158845965D01*
X138193597Y-158981505D01*
X138026505Y-159148597D01*
X137896575Y-159334158D01*
X137841998Y-159377783D01*
X137772500Y-159384977D01*
X137710145Y-159353454D01*
X137693425Y-159334158D01*
X137563494Y-159148597D01*
X137396402Y-158981506D01*
X137396395Y-158981501D01*
X137202834Y-158845967D01*
X137202830Y-158845965D01*
X137131727Y-158812809D01*
X136988663Y-158746097D01*
X136988659Y-158746096D01*
X136988655Y-158746094D01*
X136760413Y-158684938D01*
X136760403Y-158684936D01*
X136525001Y-158664341D01*
X136524999Y-158664341D01*
X136289596Y-158684936D01*
X136289586Y-158684938D01*
X136061344Y-158746094D01*
X136061335Y-158746098D01*
X135847171Y-158845964D01*
X135847169Y-158845965D01*
X135653600Y-158981503D01*
X135531284Y-159103819D01*
X135469961Y-159137303D01*
X135400269Y-159132319D01*
X135344336Y-159090447D01*
X135327421Y-159059470D01*
X135278354Y-158927913D01*
X135278350Y-158927906D01*
X135192190Y-158812812D01*
X135192187Y-158812809D01*
X135077093Y-158726649D01*
X135077086Y-158726645D01*
X134942379Y-158676403D01*
X134942372Y-158676401D01*
X134882844Y-158670000D01*
X134235000Y-158670000D01*
X134235000Y-159573505D01*
X134130161Y-159525627D01*
X134021473Y-159510000D01*
X133948527Y-159510000D01*
X133839839Y-159525627D01*
X133735000Y-159573505D01*
X133735000Y-158670000D01*
X133087155Y-158670000D01*
X133027627Y-158676401D01*
X133027620Y-158676403D01*
X132892913Y-158726645D01*
X132892906Y-158726649D01*
X132777812Y-158812809D01*
X132777809Y-158812812D01*
X132691649Y-158927906D01*
X132691645Y-158927913D01*
X132642578Y-159059470D01*
X132600707Y-159115404D01*
X132535242Y-159139821D01*
X132466969Y-159124969D01*
X132438715Y-159103819D01*
X132393977Y-159059081D01*
X132316401Y-158981505D01*
X132316397Y-158981502D01*
X132316396Y-158981501D01*
X132122834Y-158845967D01*
X132122830Y-158845965D01*
X132051727Y-158812809D01*
X131908663Y-158746097D01*
X131908659Y-158746096D01*
X131908655Y-158746094D01*
X131680413Y-158684938D01*
X131680403Y-158684936D01*
X131445001Y-158664341D01*
X131444999Y-158664341D01*
X131209596Y-158684936D01*
X131209586Y-158684938D01*
X130981344Y-158746094D01*
X130981335Y-158746098D01*
X130767171Y-158845964D01*
X130767169Y-158845965D01*
X130573597Y-158981505D01*
X130406508Y-159148594D01*
X130276574Y-159334159D01*
X130221997Y-159377784D01*
X130152498Y-159384976D01*
X130090144Y-159353454D01*
X130073424Y-159334158D01*
X129943494Y-159148597D01*
X129776402Y-158981506D01*
X129776395Y-158981501D01*
X129582834Y-158845967D01*
X129582830Y-158845965D01*
X129511727Y-158812809D01*
X129368663Y-158746097D01*
X129368659Y-158746096D01*
X129368655Y-158746094D01*
X129140413Y-158684938D01*
X129140403Y-158684936D01*
X128905001Y-158664341D01*
X128904999Y-158664341D01*
X128669596Y-158684936D01*
X128669586Y-158684938D01*
X128441344Y-158746094D01*
X128441335Y-158746098D01*
X128227171Y-158845964D01*
X128227169Y-158845965D01*
X128033597Y-158981505D01*
X127866505Y-159148597D01*
X127736575Y-159334158D01*
X127681998Y-159377783D01*
X127612500Y-159384977D01*
X127550145Y-159353454D01*
X127533425Y-159334158D01*
X127403494Y-159148597D01*
X127236402Y-158981506D01*
X127236395Y-158981501D01*
X127042834Y-158845967D01*
X127042830Y-158845965D01*
X126971727Y-158812809D01*
X126828663Y-158746097D01*
X126828659Y-158746096D01*
X126828655Y-158746094D01*
X126600413Y-158684938D01*
X126600403Y-158684936D01*
X126365001Y-158664341D01*
X126364999Y-158664341D01*
X126129596Y-158684936D01*
X126129586Y-158684938D01*
X125901344Y-158746094D01*
X125901335Y-158746098D01*
X125687171Y-158845964D01*
X125687169Y-158845965D01*
X125493597Y-158981505D01*
X125326505Y-159148597D01*
X125196575Y-159334158D01*
X125141998Y-159377783D01*
X125072500Y-159384977D01*
X125010145Y-159353454D01*
X124993425Y-159334158D01*
X124863494Y-159148597D01*
X124696402Y-158981506D01*
X124696395Y-158981501D01*
X124502834Y-158845967D01*
X124502830Y-158845965D01*
X124431727Y-158812809D01*
X124288663Y-158746097D01*
X124288659Y-158746096D01*
X124288655Y-158746094D01*
X124060413Y-158684938D01*
X124060403Y-158684936D01*
X123825001Y-158664341D01*
X123824999Y-158664341D01*
X123589596Y-158684936D01*
X123589586Y-158684938D01*
X123361344Y-158746094D01*
X123361335Y-158746098D01*
X123147171Y-158845964D01*
X123147169Y-158845965D01*
X122953600Y-158981503D01*
X122831673Y-159103430D01*
X122770350Y-159136914D01*
X122700658Y-159131930D01*
X122644725Y-159090058D01*
X122627810Y-159059081D01*
X122578797Y-158927671D01*
X122578793Y-158927664D01*
X122492547Y-158812455D01*
X122492544Y-158812452D01*
X122377335Y-158726206D01*
X122377328Y-158726202D01*
X122242482Y-158675908D01*
X122242483Y-158675908D01*
X122182883Y-158669501D01*
X122182881Y-158669500D01*
X122182873Y-158669500D01*
X122182864Y-158669500D01*
X120387129Y-158669500D01*
X120387123Y-158669501D01*
X120327516Y-158675908D01*
X120192671Y-158726202D01*
X120192664Y-158726206D01*
X120077455Y-158812452D01*
X120077452Y-158812455D01*
X119991206Y-158927664D01*
X119991203Y-158927669D01*
X119942189Y-159059083D01*
X119900317Y-159115016D01*
X119834853Y-159139433D01*
X119766580Y-159124581D01*
X119738326Y-159103430D01*
X119616402Y-158981506D01*
X119616395Y-158981501D01*
X119422834Y-158845967D01*
X119422830Y-158845965D01*
X119351727Y-158812809D01*
X119208663Y-158746097D01*
X119208659Y-158746096D01*
X119208655Y-158746094D01*
X118980413Y-158684938D01*
X118980403Y-158684936D01*
X118745001Y-158664341D01*
X118744999Y-158664341D01*
X118509596Y-158684936D01*
X118509586Y-158684938D01*
X118281344Y-158746094D01*
X118281335Y-158746098D01*
X118067171Y-158845964D01*
X118067169Y-158845965D01*
X117873597Y-158981505D01*
X117706508Y-159148594D01*
X117576574Y-159334159D01*
X117521997Y-159377784D01*
X117452498Y-159384976D01*
X117390144Y-159353454D01*
X117373424Y-159334158D01*
X117243494Y-159148597D01*
X117076402Y-158981506D01*
X117076395Y-158981501D01*
X116882834Y-158845967D01*
X116882830Y-158845965D01*
X116811727Y-158812809D01*
X116668663Y-158746097D01*
X116668659Y-158746096D01*
X116668655Y-158746094D01*
X116440413Y-158684938D01*
X116440403Y-158684936D01*
X116205001Y-158664341D01*
X116204999Y-158664341D01*
X115969596Y-158684936D01*
X115969586Y-158684938D01*
X115741344Y-158746094D01*
X115741335Y-158746098D01*
X115527171Y-158845964D01*
X115527169Y-158845965D01*
X115333597Y-158981505D01*
X115166505Y-159148597D01*
X115036575Y-159334158D01*
X114981998Y-159377783D01*
X114912500Y-159384977D01*
X114850145Y-159353454D01*
X114833425Y-159334158D01*
X114703494Y-159148597D01*
X114536402Y-158981506D01*
X114536395Y-158981501D01*
X114342834Y-158845967D01*
X114342830Y-158845965D01*
X114271727Y-158812809D01*
X114128663Y-158746097D01*
X114128659Y-158746096D01*
X114128655Y-158746094D01*
X113900413Y-158684938D01*
X113900403Y-158684936D01*
X113665001Y-158664341D01*
X113664999Y-158664341D01*
X113429596Y-158684936D01*
X113429586Y-158684938D01*
X113201344Y-158746094D01*
X113201335Y-158746098D01*
X112987171Y-158845964D01*
X112987169Y-158845965D01*
X112793597Y-158981505D01*
X112626505Y-159148597D01*
X112496575Y-159334158D01*
X112441998Y-159377783D01*
X112372500Y-159384977D01*
X112310145Y-159353454D01*
X112293425Y-159334158D01*
X112163494Y-159148597D01*
X111996402Y-158981506D01*
X111996395Y-158981501D01*
X111802834Y-158845967D01*
X111802830Y-158845965D01*
X111731727Y-158812809D01*
X111588663Y-158746097D01*
X111588659Y-158746096D01*
X111588655Y-158746094D01*
X111360413Y-158684938D01*
X111360403Y-158684936D01*
X111125001Y-158664341D01*
X111124999Y-158664341D01*
X110889596Y-158684936D01*
X110889586Y-158684938D01*
X110661344Y-158746094D01*
X110661335Y-158746098D01*
X110447171Y-158845964D01*
X110447169Y-158845965D01*
X110253600Y-158981503D01*
X110131284Y-159103819D01*
X110069961Y-159137303D01*
X110000269Y-159132319D01*
X109944336Y-159090447D01*
X109927421Y-159059470D01*
X109878354Y-158927913D01*
X109878350Y-158927906D01*
X109792190Y-158812812D01*
X109792187Y-158812809D01*
X109677093Y-158726649D01*
X109677086Y-158726645D01*
X109542379Y-158676403D01*
X109542372Y-158676401D01*
X109482844Y-158670000D01*
X108835000Y-158670000D01*
X108835000Y-159573505D01*
X108730161Y-159525627D01*
X108621473Y-159510000D01*
X108548527Y-159510000D01*
X108439839Y-159525627D01*
X108334999Y-159573505D01*
X108335000Y-158670000D01*
X107687155Y-158670000D01*
X107627627Y-158676401D01*
X107627620Y-158676403D01*
X107492913Y-158726645D01*
X107492906Y-158726649D01*
X107377812Y-158812809D01*
X107377809Y-158812812D01*
X107291649Y-158927906D01*
X107291645Y-158927913D01*
X107242578Y-159059470D01*
X107200707Y-159115404D01*
X107135242Y-159139821D01*
X107066969Y-159124969D01*
X107038715Y-159103819D01*
X106993977Y-159059081D01*
X106916401Y-158981505D01*
X106916397Y-158981502D01*
X106916396Y-158981501D01*
X106722834Y-158845967D01*
X106722830Y-158845965D01*
X106651727Y-158812809D01*
X106508663Y-158746097D01*
X106508659Y-158746096D01*
X106508655Y-158746094D01*
X106280413Y-158684938D01*
X106280403Y-158684936D01*
X106045001Y-158664341D01*
X106044999Y-158664341D01*
X105809596Y-158684936D01*
X105809586Y-158684938D01*
X105581344Y-158746094D01*
X105581335Y-158746098D01*
X105367171Y-158845964D01*
X105367169Y-158845965D01*
X105173597Y-158981505D01*
X105006508Y-159148594D01*
X104876574Y-159334159D01*
X104821997Y-159377784D01*
X104752498Y-159384976D01*
X104690144Y-159353454D01*
X104673424Y-159334158D01*
X104543494Y-159148597D01*
X104376402Y-158981506D01*
X104376395Y-158981501D01*
X104182834Y-158845967D01*
X104182830Y-158845965D01*
X104111727Y-158812809D01*
X103968663Y-158746097D01*
X103968659Y-158746096D01*
X103968655Y-158746094D01*
X103740413Y-158684938D01*
X103740403Y-158684936D01*
X103505001Y-158664341D01*
X103504999Y-158664341D01*
X103269596Y-158684936D01*
X103269586Y-158684938D01*
X103041344Y-158746094D01*
X103041335Y-158746098D01*
X102827171Y-158845964D01*
X102827169Y-158845965D01*
X102633597Y-158981505D01*
X102466505Y-159148597D01*
X102330965Y-159342169D01*
X102330964Y-159342171D01*
X102231098Y-159556335D01*
X102231094Y-159556344D01*
X102169938Y-159784586D01*
X102169936Y-159784596D01*
X102149341Y-160019999D01*
X102149341Y-160020000D01*
X100330500Y-160020000D01*
X100330500Y-150495000D01*
X104205863Y-150495000D01*
X104226365Y-150716259D01*
X104226366Y-150716261D01*
X104287174Y-150929979D01*
X104287180Y-150929994D01*
X104386222Y-151128896D01*
X104520133Y-151306224D01*
X104684344Y-151455921D01*
X104684346Y-151455923D01*
X104873266Y-151572897D01*
X104873272Y-151572900D01*
X104902206Y-151584109D01*
X105080472Y-151653170D01*
X105298896Y-151694000D01*
X105298899Y-151694000D01*
X105521101Y-151694000D01*
X105521104Y-151694000D01*
X105739528Y-151653170D01*
X105946730Y-151572899D01*
X106135655Y-151455922D01*
X106299868Y-151306222D01*
X106433778Y-151128896D01*
X106532824Y-150929984D01*
X106593634Y-150716260D01*
X106614137Y-150495000D01*
X111825863Y-150495000D01*
X111846365Y-150716259D01*
X111846366Y-150716261D01*
X111907174Y-150929979D01*
X111907180Y-150929994D01*
X112006222Y-151128896D01*
X112140133Y-151306224D01*
X112304344Y-151455921D01*
X112304346Y-151455923D01*
X112493266Y-151572897D01*
X112493272Y-151572900D01*
X112522206Y-151584109D01*
X112700472Y-151653170D01*
X112918896Y-151694000D01*
X112918899Y-151694000D01*
X113141101Y-151694000D01*
X113141104Y-151694000D01*
X113359528Y-151653170D01*
X113566730Y-151572899D01*
X113755655Y-151455922D01*
X113919868Y-151306222D01*
X114053778Y-151128896D01*
X114152824Y-150929984D01*
X114213634Y-150716260D01*
X114234137Y-150495000D01*
X115000863Y-150495000D01*
X115021365Y-150716259D01*
X115021366Y-150716261D01*
X115082174Y-150929979D01*
X115082180Y-150929994D01*
X115181222Y-151128896D01*
X115315133Y-151306224D01*
X115479344Y-151455921D01*
X115479346Y-151455923D01*
X115668266Y-151572897D01*
X115668272Y-151572900D01*
X115697206Y-151584109D01*
X115875472Y-151653170D01*
X116093896Y-151694000D01*
X116093899Y-151694000D01*
X116316101Y-151694000D01*
X116316104Y-151694000D01*
X116534528Y-151653170D01*
X116741730Y-151572899D01*
X116930655Y-151455922D01*
X117094868Y-151306222D01*
X117228778Y-151128896D01*
X117327824Y-150929984D01*
X117388634Y-150716260D01*
X117409137Y-150495000D01*
X122620863Y-150495000D01*
X122641365Y-150716259D01*
X122641366Y-150716261D01*
X122702174Y-150929979D01*
X122702180Y-150929994D01*
X122801222Y-151128896D01*
X122935133Y-151306224D01*
X123099344Y-151455921D01*
X123099346Y-151455923D01*
X123288266Y-151572897D01*
X123288272Y-151572900D01*
X123317206Y-151584109D01*
X123495472Y-151653170D01*
X123713896Y-151694000D01*
X123713899Y-151694000D01*
X123936101Y-151694000D01*
X123936104Y-151694000D01*
X124154528Y-151653170D01*
X124361730Y-151572899D01*
X124550655Y-151455922D01*
X124714868Y-151306222D01*
X124848778Y-151128896D01*
X124947824Y-150929984D01*
X125008634Y-150716260D01*
X125029137Y-150495000D01*
X130240863Y-150495000D01*
X130261365Y-150716259D01*
X130261366Y-150716261D01*
X130322174Y-150929979D01*
X130322180Y-150929994D01*
X130421222Y-151128896D01*
X130555133Y-151306224D01*
X130719344Y-151455921D01*
X130719346Y-151455923D01*
X130908266Y-151572897D01*
X130908272Y-151572900D01*
X130937206Y-151584109D01*
X131115472Y-151653170D01*
X131333896Y-151694000D01*
X131333899Y-151694000D01*
X131556101Y-151694000D01*
X131556104Y-151694000D01*
X131774528Y-151653170D01*
X131981730Y-151572899D01*
X132170655Y-151455922D01*
X132334868Y-151306222D01*
X132468778Y-151128896D01*
X132567824Y-150929984D01*
X132628634Y-150716260D01*
X132649137Y-150495000D01*
X137860863Y-150495000D01*
X137881365Y-150716259D01*
X137881366Y-150716261D01*
X137942174Y-150929979D01*
X137942180Y-150929994D01*
X138041222Y-151128896D01*
X138175133Y-151306224D01*
X138339344Y-151455921D01*
X138339346Y-151455923D01*
X138528266Y-151572897D01*
X138528272Y-151572900D01*
X138557206Y-151584109D01*
X138735472Y-151653170D01*
X138953896Y-151694000D01*
X138953899Y-151694000D01*
X139176101Y-151694000D01*
X139176104Y-151694000D01*
X139394528Y-151653170D01*
X139601730Y-151572899D01*
X139790655Y-151455922D01*
X139954868Y-151306222D01*
X140088778Y-151128896D01*
X140187824Y-150929984D01*
X140248634Y-150716260D01*
X140269137Y-150495000D01*
X141035863Y-150495000D01*
X141056365Y-150716259D01*
X141056366Y-150716261D01*
X141117174Y-150929979D01*
X141117180Y-150929994D01*
X141216222Y-151128896D01*
X141350133Y-151306224D01*
X141514344Y-151455921D01*
X141514346Y-151455923D01*
X141703266Y-151572897D01*
X141703272Y-151572900D01*
X141732206Y-151584109D01*
X141910472Y-151653170D01*
X142128896Y-151694000D01*
X142128899Y-151694000D01*
X142351101Y-151694000D01*
X142351104Y-151694000D01*
X142569528Y-151653170D01*
X142776730Y-151572899D01*
X142965655Y-151455922D01*
X143129868Y-151306222D01*
X143263778Y-151128896D01*
X143362824Y-150929984D01*
X143423634Y-150716260D01*
X143444137Y-150495000D01*
X148655863Y-150495000D01*
X148676365Y-150716259D01*
X148676366Y-150716261D01*
X148737174Y-150929979D01*
X148737180Y-150929994D01*
X148836222Y-151128896D01*
X148970133Y-151306224D01*
X149134344Y-151455921D01*
X149134346Y-151455923D01*
X149323266Y-151572897D01*
X149323272Y-151572900D01*
X149352206Y-151584109D01*
X149530472Y-151653170D01*
X149748896Y-151694000D01*
X149748899Y-151694000D01*
X149971101Y-151694000D01*
X149971104Y-151694000D01*
X150189528Y-151653170D01*
X150396730Y-151572899D01*
X150585655Y-151455922D01*
X150749868Y-151306222D01*
X150883778Y-151128896D01*
X150982824Y-150929984D01*
X151043634Y-150716260D01*
X151064137Y-150495000D01*
X151043634Y-150273740D01*
X150982824Y-150060016D01*
X150883778Y-149861104D01*
X150749868Y-149683778D01*
X150749866Y-149683775D01*
X150585655Y-149534078D01*
X150585653Y-149534076D01*
X150396733Y-149417102D01*
X150396727Y-149417099D01*
X150289080Y-149375397D01*
X150189528Y-149336830D01*
X149971104Y-149296000D01*
X149748896Y-149296000D01*
X149530472Y-149336830D01*
X149480695Y-149356113D01*
X149323272Y-149417099D01*
X149323266Y-149417102D01*
X149134346Y-149534076D01*
X149134344Y-149534078D01*
X148970133Y-149683775D01*
X148836222Y-149861103D01*
X148737180Y-150060005D01*
X148737174Y-150060020D01*
X148676366Y-150273738D01*
X148676365Y-150273740D01*
X148655863Y-150494999D01*
X148655863Y-150495000D01*
X143444137Y-150495000D01*
X143423634Y-150273740D01*
X143362824Y-150060016D01*
X143263778Y-149861104D01*
X143129868Y-149683778D01*
X143129866Y-149683775D01*
X142965655Y-149534078D01*
X142965653Y-149534076D01*
X142776733Y-149417102D01*
X142776727Y-149417099D01*
X142669080Y-149375397D01*
X142569528Y-149336830D01*
X142351104Y-149296000D01*
X142128896Y-149296000D01*
X141910472Y-149336830D01*
X141860695Y-149356113D01*
X141703272Y-149417099D01*
X141703266Y-149417102D01*
X141514346Y-149534076D01*
X141514344Y-149534078D01*
X141350133Y-149683775D01*
X141216222Y-149861103D01*
X141117180Y-150060005D01*
X141117174Y-150060020D01*
X141056366Y-150273738D01*
X141056365Y-150273740D01*
X141035863Y-150494999D01*
X141035863Y-150495000D01*
X140269137Y-150495000D01*
X140248634Y-150273740D01*
X140187824Y-150060016D01*
X140088778Y-149861104D01*
X139954868Y-149683778D01*
X139954866Y-149683775D01*
X139790655Y-149534078D01*
X139790653Y-149534076D01*
X139601733Y-149417102D01*
X139601727Y-149417099D01*
X139494080Y-149375397D01*
X139394528Y-149336830D01*
X139176104Y-149296000D01*
X138953896Y-149296000D01*
X138735472Y-149336830D01*
X138685695Y-149356113D01*
X138528272Y-149417099D01*
X138528266Y-149417102D01*
X138339346Y-149534076D01*
X138339344Y-149534078D01*
X138175133Y-149683775D01*
X138041222Y-149861103D01*
X137942180Y-150060005D01*
X137942174Y-150060020D01*
X137881366Y-150273738D01*
X137881365Y-150273740D01*
X137860863Y-150494999D01*
X137860863Y-150495000D01*
X132649137Y-150495000D01*
X132628634Y-150273740D01*
X132567824Y-150060016D01*
X132468778Y-149861104D01*
X132334868Y-149683778D01*
X132334866Y-149683775D01*
X132170655Y-149534078D01*
X132170653Y-149534076D01*
X131981733Y-149417102D01*
X131981727Y-149417099D01*
X131874080Y-149375397D01*
X131774528Y-149336830D01*
X131556104Y-149296000D01*
X131333896Y-149296000D01*
X131115472Y-149336830D01*
X131065695Y-149356113D01*
X130908272Y-149417099D01*
X130908266Y-149417102D01*
X130719346Y-149534076D01*
X130719344Y-149534078D01*
X130555133Y-149683775D01*
X130421222Y-149861103D01*
X130322180Y-150060005D01*
X130322174Y-150060020D01*
X130261366Y-150273738D01*
X130261365Y-150273740D01*
X130240863Y-150494999D01*
X130240863Y-150495000D01*
X125029137Y-150495000D01*
X125008634Y-150273740D01*
X124947824Y-150060016D01*
X124848778Y-149861104D01*
X124714868Y-149683778D01*
X124714866Y-149683775D01*
X124550655Y-149534078D01*
X124550653Y-149534076D01*
X124361733Y-149417102D01*
X124361727Y-149417099D01*
X124254080Y-149375397D01*
X124154528Y-149336830D01*
X123936104Y-149296000D01*
X123713896Y-149296000D01*
X123495472Y-149336830D01*
X123445695Y-149356113D01*
X123288272Y-149417099D01*
X123288266Y-149417102D01*
X123099346Y-149534076D01*
X123099344Y-149534078D01*
X122935133Y-149683775D01*
X122801222Y-149861103D01*
X122702180Y-150060005D01*
X122702174Y-150060020D01*
X122641366Y-150273738D01*
X122641365Y-150273740D01*
X122620863Y-150494999D01*
X122620863Y-150495000D01*
X117409137Y-150495000D01*
X117388634Y-150273740D01*
X117327824Y-150060016D01*
X117228778Y-149861104D01*
X117094868Y-149683778D01*
X117094866Y-149683775D01*
X116930655Y-149534078D01*
X116930653Y-149534076D01*
X116741733Y-149417102D01*
X116741727Y-149417099D01*
X116634080Y-149375397D01*
X116534528Y-149336830D01*
X116316104Y-149296000D01*
X116093896Y-149296000D01*
X115875472Y-149336830D01*
X115825695Y-149356113D01*
X115668272Y-149417099D01*
X115668266Y-149417102D01*
X115479346Y-149534076D01*
X115479344Y-149534078D01*
X115315133Y-149683775D01*
X115181222Y-149861103D01*
X115082180Y-150060005D01*
X115082174Y-150060020D01*
X115021366Y-150273738D01*
X115021365Y-150273740D01*
X115000863Y-150494999D01*
X115000863Y-150495000D01*
X114234137Y-150495000D01*
X114213634Y-150273740D01*
X114152824Y-150060016D01*
X114053778Y-149861104D01*
X113919868Y-149683778D01*
X113919866Y-149683775D01*
X113755655Y-149534078D01*
X113755653Y-149534076D01*
X113566733Y-149417102D01*
X113566727Y-149417099D01*
X113459080Y-149375397D01*
X113359528Y-149336830D01*
X113141104Y-149296000D01*
X112918896Y-149296000D01*
X112700472Y-149336830D01*
X112650695Y-149356113D01*
X112493272Y-149417099D01*
X112493266Y-149417102D01*
X112304346Y-149534076D01*
X112304344Y-149534078D01*
X112140133Y-149683775D01*
X112006222Y-149861103D01*
X111907180Y-150060005D01*
X111907174Y-150060020D01*
X111846366Y-150273738D01*
X111846365Y-150273740D01*
X111825863Y-150494999D01*
X111825863Y-150495000D01*
X106614137Y-150495000D01*
X106593634Y-150273740D01*
X106532824Y-150060016D01*
X106433778Y-149861104D01*
X106299868Y-149683778D01*
X106299866Y-149683775D01*
X106135655Y-149534078D01*
X106135653Y-149534076D01*
X105946733Y-149417102D01*
X105946727Y-149417099D01*
X105839080Y-149375397D01*
X105739528Y-149336830D01*
X105521104Y-149296000D01*
X105298896Y-149296000D01*
X105080472Y-149336830D01*
X105030695Y-149356113D01*
X104873272Y-149417099D01*
X104873266Y-149417102D01*
X104684346Y-149534076D01*
X104684344Y-149534078D01*
X104520133Y-149683775D01*
X104386222Y-149861103D01*
X104287180Y-150060005D01*
X104287174Y-150060020D01*
X104226366Y-150273738D01*
X104226365Y-150273740D01*
X104205863Y-150494999D01*
X104205863Y-150495000D01*
X100330500Y-150495000D01*
X100330500Y-145415000D01*
X104206366Y-145415000D01*
X104226859Y-145636166D01*
X104226860Y-145636168D01*
X104287643Y-145849798D01*
X104287649Y-145849813D01*
X104386646Y-146048626D01*
X104386651Y-146048634D01*
X104402209Y-146069235D01*
X105006452Y-145464994D01*
X105018673Y-145542150D01*
X105077117Y-145656854D01*
X105168146Y-145747883D01*
X105282850Y-145806327D01*
X105360005Y-145818547D01*
X104757760Y-146420790D01*
X104757761Y-146420791D01*
X104873488Y-146492445D01*
X104873495Y-146492449D01*
X105080607Y-146572684D01*
X105298945Y-146613500D01*
X105521055Y-146613500D01*
X105739392Y-146572684D01*
X105946503Y-146492450D01*
X105946509Y-146492447D01*
X106062237Y-146420791D01*
X106062238Y-146420790D01*
X105459995Y-145818547D01*
X105537150Y-145806327D01*
X105651854Y-145747883D01*
X105742883Y-145656854D01*
X105801327Y-145542150D01*
X105813547Y-145464994D01*
X106417788Y-146069235D01*
X106417789Y-146069235D01*
X106433349Y-146048632D01*
X106433350Y-146048629D01*
X106532350Y-145849813D01*
X106532356Y-145849798D01*
X106593139Y-145636168D01*
X106593140Y-145636166D01*
X106613634Y-145415000D01*
X111826366Y-145415000D01*
X111846859Y-145636166D01*
X111846860Y-145636168D01*
X111907643Y-145849798D01*
X111907649Y-145849813D01*
X112006646Y-146048626D01*
X112006651Y-146048634D01*
X112022209Y-146069235D01*
X112626452Y-145464994D01*
X112638673Y-145542150D01*
X112697117Y-145656854D01*
X112788146Y-145747883D01*
X112902850Y-145806327D01*
X112980005Y-145818547D01*
X112377760Y-146420790D01*
X112377761Y-146420791D01*
X112493488Y-146492445D01*
X112493495Y-146492449D01*
X112700607Y-146572684D01*
X112918945Y-146613500D01*
X113141055Y-146613500D01*
X113359392Y-146572684D01*
X113566503Y-146492450D01*
X113566509Y-146492447D01*
X113682237Y-146420791D01*
X113682238Y-146420790D01*
X113079995Y-145818547D01*
X113157150Y-145806327D01*
X113271854Y-145747883D01*
X113362883Y-145656854D01*
X113421327Y-145542150D01*
X113433547Y-145464994D01*
X114037788Y-146069235D01*
X114037789Y-146069235D01*
X114053349Y-146048632D01*
X114053350Y-146048629D01*
X114152350Y-145849813D01*
X114152356Y-145849798D01*
X114213139Y-145636168D01*
X114213140Y-145636166D01*
X114233634Y-145415000D01*
X115001366Y-145415000D01*
X115021859Y-145636166D01*
X115021860Y-145636168D01*
X115082643Y-145849798D01*
X115082649Y-145849813D01*
X115181646Y-146048626D01*
X115181651Y-146048634D01*
X115197209Y-146069235D01*
X115801452Y-145464992D01*
X115813673Y-145542150D01*
X115872117Y-145656854D01*
X115963146Y-145747883D01*
X116077850Y-145806327D01*
X116155005Y-145818547D01*
X115552760Y-146420790D01*
X115552761Y-146420791D01*
X115668488Y-146492445D01*
X115668495Y-146492449D01*
X115875607Y-146572684D01*
X116093945Y-146613500D01*
X116316055Y-146613500D01*
X116534392Y-146572684D01*
X116741503Y-146492450D01*
X116741509Y-146492447D01*
X116857237Y-146420791D01*
X116857238Y-146420790D01*
X116254995Y-145818547D01*
X116332150Y-145806327D01*
X116446854Y-145747883D01*
X116537883Y-145656854D01*
X116596327Y-145542150D01*
X116608547Y-145464994D01*
X117212788Y-146069235D01*
X117212789Y-146069235D01*
X117228349Y-146048632D01*
X117228350Y-146048629D01*
X117327350Y-145849813D01*
X117327356Y-145849798D01*
X117388139Y-145636168D01*
X117388140Y-145636166D01*
X117408634Y-145415000D01*
X122621366Y-145415000D01*
X122641859Y-145636166D01*
X122641860Y-145636168D01*
X122702643Y-145849798D01*
X122702649Y-145849813D01*
X122801646Y-146048626D01*
X122801651Y-146048634D01*
X122817209Y-146069235D01*
X123421452Y-145464991D01*
X123433673Y-145542150D01*
X123492117Y-145656854D01*
X123583146Y-145747883D01*
X123697850Y-145806327D01*
X123775005Y-145818547D01*
X123172760Y-146420790D01*
X123172761Y-146420791D01*
X123288488Y-146492445D01*
X123288495Y-146492449D01*
X123495607Y-146572684D01*
X123713945Y-146613500D01*
X123936055Y-146613500D01*
X124154392Y-146572684D01*
X124361503Y-146492450D01*
X124361509Y-146492447D01*
X124477237Y-146420791D01*
X124477238Y-146420790D01*
X123874995Y-145818547D01*
X123952150Y-145806327D01*
X124066854Y-145747883D01*
X124157883Y-145656854D01*
X124216327Y-145542150D01*
X124228547Y-145464994D01*
X124832788Y-146069235D01*
X124832789Y-146069235D01*
X124848349Y-146048632D01*
X124848350Y-146048629D01*
X124947350Y-145849813D01*
X124947356Y-145849798D01*
X125008139Y-145636168D01*
X125008140Y-145636166D01*
X125028634Y-145415000D01*
X130241366Y-145415000D01*
X130261859Y-145636166D01*
X130261860Y-145636168D01*
X130322643Y-145849798D01*
X130322649Y-145849813D01*
X130421646Y-146048626D01*
X130421651Y-146048634D01*
X130437209Y-146069235D01*
X131041452Y-145464993D01*
X131053673Y-145542150D01*
X131112117Y-145656854D01*
X131203146Y-145747883D01*
X131317850Y-145806327D01*
X131395005Y-145818547D01*
X130792760Y-146420790D01*
X130792761Y-146420791D01*
X130908488Y-146492445D01*
X130908495Y-146492449D01*
X131115607Y-146572684D01*
X131333945Y-146613500D01*
X131556055Y-146613500D01*
X131774392Y-146572684D01*
X131981503Y-146492450D01*
X131981509Y-146492447D01*
X132097237Y-146420791D01*
X132097238Y-146420790D01*
X131494995Y-145818547D01*
X131572150Y-145806327D01*
X131686854Y-145747883D01*
X131777883Y-145656854D01*
X131836327Y-145542150D01*
X131848547Y-145464994D01*
X132452788Y-146069235D01*
X132452789Y-146069235D01*
X132468349Y-146048632D01*
X132468350Y-146048629D01*
X132567350Y-145849813D01*
X132567356Y-145849798D01*
X132628139Y-145636168D01*
X132628140Y-145636166D01*
X132648634Y-145415000D01*
X137861366Y-145415000D01*
X137881859Y-145636166D01*
X137881860Y-145636168D01*
X137942643Y-145849798D01*
X137942649Y-145849813D01*
X138041646Y-146048626D01*
X138041651Y-146048634D01*
X138057209Y-146069235D01*
X138661452Y-145464994D01*
X138673673Y-145542150D01*
X138732117Y-145656854D01*
X138823146Y-145747883D01*
X138937850Y-145806327D01*
X139015005Y-145818547D01*
X138412760Y-146420790D01*
X138412761Y-146420791D01*
X138528488Y-146492445D01*
X138528495Y-146492449D01*
X138735607Y-146572684D01*
X138953945Y-146613500D01*
X139176055Y-146613500D01*
X139394392Y-146572684D01*
X139601503Y-146492450D01*
X139601509Y-146492447D01*
X139717237Y-146420791D01*
X139717238Y-146420790D01*
X139114995Y-145818547D01*
X139192150Y-145806327D01*
X139306854Y-145747883D01*
X139397883Y-145656854D01*
X139456327Y-145542150D01*
X139468547Y-145464994D01*
X140072788Y-146069235D01*
X140072789Y-146069235D01*
X140088349Y-146048632D01*
X140088350Y-146048629D01*
X140187350Y-145849813D01*
X140187356Y-145849798D01*
X140248139Y-145636168D01*
X140248140Y-145636166D01*
X140268634Y-145415000D01*
X141036366Y-145415000D01*
X141056859Y-145636166D01*
X141056860Y-145636168D01*
X141117643Y-145849798D01*
X141117649Y-145849813D01*
X141216646Y-146048626D01*
X141216651Y-146048634D01*
X141232209Y-146069235D01*
X141836452Y-145464993D01*
X141848673Y-145542150D01*
X141907117Y-145656854D01*
X141998146Y-145747883D01*
X142112850Y-145806327D01*
X142190005Y-145818547D01*
X141587760Y-146420790D01*
X141587761Y-146420791D01*
X141703488Y-146492445D01*
X141703495Y-146492449D01*
X141910607Y-146572684D01*
X142128945Y-146613500D01*
X142351055Y-146613500D01*
X142569392Y-146572684D01*
X142776503Y-146492450D01*
X142776509Y-146492447D01*
X142892237Y-146420791D01*
X142892238Y-146420790D01*
X142289995Y-145818547D01*
X142367150Y-145806327D01*
X142481854Y-145747883D01*
X142572883Y-145656854D01*
X142631327Y-145542150D01*
X142643547Y-145464993D01*
X143247789Y-146069235D01*
X143263349Y-146048632D01*
X143263350Y-146048629D01*
X143362350Y-145849813D01*
X143362356Y-145849798D01*
X143423139Y-145636168D01*
X143423140Y-145636166D01*
X143443634Y-145415000D01*
X148656366Y-145415000D01*
X148676859Y-145636166D01*
X148676860Y-145636168D01*
X148737643Y-145849798D01*
X148737649Y-145849813D01*
X148836646Y-146048626D01*
X148836651Y-146048634D01*
X148852209Y-146069235D01*
X149456452Y-145464994D01*
X149468673Y-145542150D01*
X149527117Y-145656854D01*
X149618146Y-145747883D01*
X149732850Y-145806327D01*
X149810005Y-145818547D01*
X149207760Y-146420790D01*
X149207761Y-146420791D01*
X149323488Y-146492445D01*
X149323495Y-146492449D01*
X149530607Y-146572684D01*
X149748945Y-146613500D01*
X149971055Y-146613500D01*
X150189392Y-146572684D01*
X150396503Y-146492450D01*
X150396509Y-146492447D01*
X150512237Y-146420791D01*
X150512238Y-146420790D01*
X149909995Y-145818547D01*
X149987150Y-145806327D01*
X150101854Y-145747883D01*
X150192883Y-145656854D01*
X150251327Y-145542150D01*
X150263547Y-145464994D01*
X150867788Y-146069235D01*
X150867789Y-146069235D01*
X150883349Y-146048632D01*
X150883350Y-146048629D01*
X150982350Y-145849813D01*
X150982356Y-145849798D01*
X151043139Y-145636168D01*
X151043140Y-145636166D01*
X151063634Y-145415000D01*
X151063634Y-145414999D01*
X151043140Y-145193833D01*
X151043139Y-145193831D01*
X150982356Y-144980201D01*
X150982350Y-144980186D01*
X150883351Y-144781370D01*
X150883349Y-144781367D01*
X150867788Y-144760762D01*
X150263547Y-145365004D01*
X150251327Y-145287850D01*
X150192883Y-145173146D01*
X150101854Y-145082117D01*
X149987150Y-145023673D01*
X149909995Y-145011452D01*
X150512238Y-144409208D01*
X150396503Y-144337550D01*
X150396504Y-144337550D01*
X150189392Y-144257315D01*
X149971055Y-144216500D01*
X149748945Y-144216500D01*
X149530607Y-144257315D01*
X149323497Y-144337549D01*
X149323494Y-144337551D01*
X149207760Y-144409208D01*
X149810005Y-145011452D01*
X149732850Y-145023673D01*
X149618146Y-145082117D01*
X149527117Y-145173146D01*
X149468673Y-145287850D01*
X149456452Y-145365004D01*
X148852210Y-144760762D01*
X148836651Y-144781367D01*
X148836646Y-144781374D01*
X148737649Y-144980186D01*
X148737643Y-144980201D01*
X148676860Y-145193831D01*
X148676859Y-145193833D01*
X148656366Y-145414999D01*
X148656366Y-145415000D01*
X143443634Y-145415000D01*
X143443634Y-145414999D01*
X143423140Y-145193833D01*
X143423139Y-145193831D01*
X143362356Y-144980201D01*
X143362350Y-144980186D01*
X143263351Y-144781370D01*
X143263349Y-144781367D01*
X143247788Y-144760762D01*
X142643547Y-145365003D01*
X142631327Y-145287850D01*
X142572883Y-145173146D01*
X142481854Y-145082117D01*
X142367150Y-145023673D01*
X142289994Y-145011452D01*
X142892238Y-144409208D01*
X142776503Y-144337550D01*
X142776504Y-144337550D01*
X142569392Y-144257315D01*
X142351055Y-144216500D01*
X142128945Y-144216500D01*
X141910607Y-144257315D01*
X141703497Y-144337549D01*
X141703494Y-144337551D01*
X141587760Y-144409208D01*
X142190006Y-145011452D01*
X142112850Y-145023673D01*
X141998146Y-145082117D01*
X141907117Y-145173146D01*
X141848673Y-145287850D01*
X141836452Y-145365003D01*
X141232210Y-144760762D01*
X141216651Y-144781367D01*
X141216646Y-144781374D01*
X141117649Y-144980186D01*
X141117643Y-144980201D01*
X141056860Y-145193831D01*
X141056859Y-145193833D01*
X141036366Y-145414999D01*
X141036366Y-145415000D01*
X140268634Y-145415000D01*
X140268634Y-145414999D01*
X140248140Y-145193833D01*
X140248139Y-145193831D01*
X140187356Y-144980201D01*
X140187350Y-144980186D01*
X140088351Y-144781370D01*
X140088349Y-144781367D01*
X140072788Y-144760762D01*
X139468547Y-145365003D01*
X139456327Y-145287850D01*
X139397883Y-145173146D01*
X139306854Y-145082117D01*
X139192150Y-145023673D01*
X139114995Y-145011452D01*
X139717238Y-144409208D01*
X139601503Y-144337550D01*
X139601504Y-144337550D01*
X139394392Y-144257315D01*
X139176055Y-144216500D01*
X138953945Y-144216500D01*
X138735607Y-144257315D01*
X138528497Y-144337549D01*
X138528494Y-144337551D01*
X138412760Y-144409208D01*
X139015005Y-145011452D01*
X138937850Y-145023673D01*
X138823146Y-145082117D01*
X138732117Y-145173146D01*
X138673673Y-145287850D01*
X138661452Y-145365004D01*
X138057210Y-144760762D01*
X138041651Y-144781367D01*
X138041646Y-144781374D01*
X137942649Y-144980186D01*
X137942643Y-144980201D01*
X137881860Y-145193831D01*
X137881859Y-145193833D01*
X137861366Y-145414999D01*
X137861366Y-145415000D01*
X132648634Y-145415000D01*
X132648634Y-145414999D01*
X132628140Y-145193833D01*
X132628139Y-145193831D01*
X132567356Y-144980201D01*
X132567350Y-144980186D01*
X132468351Y-144781370D01*
X132468349Y-144781367D01*
X132452788Y-144760762D01*
X131848547Y-145365004D01*
X131836327Y-145287850D01*
X131777883Y-145173146D01*
X131686854Y-145082117D01*
X131572150Y-145023673D01*
X131494995Y-145011452D01*
X132097238Y-144409208D01*
X131981503Y-144337550D01*
X131981504Y-144337550D01*
X131774392Y-144257315D01*
X131556055Y-144216500D01*
X131333945Y-144216500D01*
X131115607Y-144257315D01*
X130908497Y-144337549D01*
X130908494Y-144337551D01*
X130792760Y-144409208D01*
X131395005Y-145011452D01*
X131317850Y-145023673D01*
X131203146Y-145082117D01*
X131112117Y-145173146D01*
X131053673Y-145287850D01*
X131041452Y-145365005D01*
X130437210Y-144760762D01*
X130421651Y-144781367D01*
X130421646Y-144781374D01*
X130322649Y-144980186D01*
X130322643Y-144980201D01*
X130261860Y-145193831D01*
X130261859Y-145193833D01*
X130241366Y-145414999D01*
X130241366Y-145415000D01*
X125028634Y-145415000D01*
X125028634Y-145414999D01*
X125008140Y-145193833D01*
X125008139Y-145193831D01*
X124947356Y-144980201D01*
X124947350Y-144980186D01*
X124848351Y-144781370D01*
X124848349Y-144781367D01*
X124832788Y-144760762D01*
X124228547Y-145365004D01*
X124216327Y-145287850D01*
X124157883Y-145173146D01*
X124066854Y-145082117D01*
X123952150Y-145023673D01*
X123874993Y-145011452D01*
X124477238Y-144409208D01*
X124361503Y-144337550D01*
X124361504Y-144337550D01*
X124154392Y-144257315D01*
X123936055Y-144216500D01*
X123713945Y-144216500D01*
X123495607Y-144257315D01*
X123288497Y-144337549D01*
X123288494Y-144337551D01*
X123172761Y-144409208D01*
X123775003Y-145011452D01*
X123697850Y-145023673D01*
X123583146Y-145082117D01*
X123492117Y-145173146D01*
X123433673Y-145287850D01*
X123421452Y-145365005D01*
X122817210Y-144760762D01*
X122801651Y-144781367D01*
X122801646Y-144781374D01*
X122702649Y-144980186D01*
X122702643Y-144980201D01*
X122641860Y-145193831D01*
X122641859Y-145193833D01*
X122621366Y-145414999D01*
X122621366Y-145415000D01*
X117408634Y-145415000D01*
X117408634Y-145414999D01*
X117388140Y-145193833D01*
X117388139Y-145193831D01*
X117327356Y-144980201D01*
X117327350Y-144980186D01*
X117228351Y-144781370D01*
X117228349Y-144781367D01*
X117212788Y-144760762D01*
X116608547Y-145365004D01*
X116596327Y-145287850D01*
X116537883Y-145173146D01*
X116446854Y-145082117D01*
X116332150Y-145023673D01*
X116254995Y-145011452D01*
X116857238Y-144409208D01*
X116741503Y-144337550D01*
X116741504Y-144337550D01*
X116534392Y-144257315D01*
X116316055Y-144216500D01*
X116093945Y-144216500D01*
X115875607Y-144257315D01*
X115668497Y-144337549D01*
X115668494Y-144337551D01*
X115552760Y-144409208D01*
X116155005Y-145011452D01*
X116077850Y-145023673D01*
X115963146Y-145082117D01*
X115872117Y-145173146D01*
X115813673Y-145287850D01*
X115801452Y-145365004D01*
X115197210Y-144760762D01*
X115181651Y-144781367D01*
X115181646Y-144781374D01*
X115082649Y-144980186D01*
X115082643Y-144980201D01*
X115021860Y-145193831D01*
X115021859Y-145193833D01*
X115001366Y-145414999D01*
X115001366Y-145415000D01*
X114233634Y-145415000D01*
X114233634Y-145414999D01*
X114213140Y-145193833D01*
X114213139Y-145193831D01*
X114152356Y-144980201D01*
X114152350Y-144980186D01*
X114053351Y-144781370D01*
X114053349Y-144781367D01*
X114037788Y-144760762D01*
X113433547Y-145365004D01*
X113421327Y-145287850D01*
X113362883Y-145173146D01*
X113271854Y-145082117D01*
X113157150Y-145023673D01*
X113079995Y-145011452D01*
X113682238Y-144409208D01*
X113566503Y-144337550D01*
X113566504Y-144337550D01*
X113359392Y-144257315D01*
X113141055Y-144216500D01*
X112918945Y-144216500D01*
X112700607Y-144257315D01*
X112493497Y-144337549D01*
X112493494Y-144337551D01*
X112377760Y-144409208D01*
X112980005Y-145011452D01*
X112902850Y-145023673D01*
X112788146Y-145082117D01*
X112697117Y-145173146D01*
X112638673Y-145287850D01*
X112626452Y-145365004D01*
X112022210Y-144760762D01*
X112006651Y-144781367D01*
X112006646Y-144781374D01*
X111907649Y-144980186D01*
X111907643Y-144980201D01*
X111846860Y-145193831D01*
X111846859Y-145193833D01*
X111826366Y-145414999D01*
X111826366Y-145415000D01*
X106613634Y-145415000D01*
X106613634Y-145414999D01*
X106593140Y-145193833D01*
X106593139Y-145193831D01*
X106532356Y-144980201D01*
X106532350Y-144980186D01*
X106433351Y-144781370D01*
X106433349Y-144781367D01*
X106417788Y-144760762D01*
X105813547Y-145365004D01*
X105801327Y-145287850D01*
X105742883Y-145173146D01*
X105651854Y-145082117D01*
X105537150Y-145023673D01*
X105459995Y-145011452D01*
X106062238Y-144409208D01*
X105946503Y-144337550D01*
X105946504Y-144337550D01*
X105739392Y-144257315D01*
X105521055Y-144216500D01*
X105298945Y-144216500D01*
X105080607Y-144257315D01*
X104873497Y-144337549D01*
X104873494Y-144337551D01*
X104757760Y-144409208D01*
X105360005Y-145011452D01*
X105282850Y-145023673D01*
X105168146Y-145082117D01*
X105077117Y-145173146D01*
X105018673Y-145287850D01*
X105006452Y-145365004D01*
X104402210Y-144760762D01*
X104386651Y-144781367D01*
X104386646Y-144781374D01*
X104287649Y-144980186D01*
X104287643Y-144980201D01*
X104226860Y-145193831D01*
X104226859Y-145193833D01*
X104206366Y-145414999D01*
X104206366Y-145415000D01*
X100330500Y-145415000D01*
X100330500Y-141605000D01*
X138344341Y-141605000D01*
X138364936Y-141840403D01*
X138364938Y-141840413D01*
X138426094Y-142068655D01*
X138426096Y-142068659D01*
X138426097Y-142068663D01*
X138525964Y-142282830D01*
X138525965Y-142282830D01*
X138525967Y-142282834D01*
X138634281Y-142437521D01*
X138661505Y-142476401D01*
X138828599Y-142643495D01*
X138925384Y-142711265D01*
X139022165Y-142779032D01*
X139022167Y-142779033D01*
X139022170Y-142779035D01*
X139236337Y-142878903D01*
X139464592Y-142940063D01*
X139652918Y-142956539D01*
X139699999Y-142960659D01*
X139700000Y-142960659D01*
X139700001Y-142960659D01*
X139739234Y-142957226D01*
X139935408Y-142940063D01*
X140163663Y-142878903D01*
X140377830Y-142779035D01*
X140571401Y-142643495D01*
X140738495Y-142476401D01*
X140874035Y-142282830D01*
X140973903Y-142068663D01*
X141035063Y-141840408D01*
X141055659Y-141605000D01*
X141035063Y-141369592D01*
X140973903Y-141141337D01*
X140874035Y-140927171D01*
X140738495Y-140733599D01*
X140616567Y-140611671D01*
X140583084Y-140550351D01*
X140588068Y-140480659D01*
X140629939Y-140424725D01*
X140660915Y-140407810D01*
X140792331Y-140358796D01*
X140907546Y-140272546D01*
X140993796Y-140157331D01*
X141044091Y-140022483D01*
X141050500Y-139962873D01*
X141050499Y-138167128D01*
X141044091Y-138107517D01*
X141011875Y-138021142D01*
X140993797Y-137972671D01*
X140993793Y-137972664D01*
X140907547Y-137857455D01*
X140907544Y-137857452D01*
X140792335Y-137771206D01*
X140792328Y-137771202D01*
X140657482Y-137720908D01*
X140657483Y-137720908D01*
X140597883Y-137714501D01*
X140597881Y-137714500D01*
X140597873Y-137714500D01*
X140597864Y-137714500D01*
X138802129Y-137714500D01*
X138802123Y-137714501D01*
X138742516Y-137720908D01*
X138607671Y-137771202D01*
X138607664Y-137771206D01*
X138492455Y-137857452D01*
X138492452Y-137857455D01*
X138406206Y-137972664D01*
X138406202Y-137972671D01*
X138355908Y-138107517D01*
X138349501Y-138167116D01*
X138349501Y-138167123D01*
X138349500Y-138167135D01*
X138349500Y-139962870D01*
X138349501Y-139962876D01*
X138355908Y-140022483D01*
X138406202Y-140157328D01*
X138406206Y-140157335D01*
X138492452Y-140272544D01*
X138492455Y-140272547D01*
X138607664Y-140358793D01*
X138607671Y-140358797D01*
X138739081Y-140407810D01*
X138795015Y-140449681D01*
X138819432Y-140515145D01*
X138804580Y-140583418D01*
X138783430Y-140611673D01*
X138661503Y-140733600D01*
X138525965Y-140927169D01*
X138525964Y-140927171D01*
X138426098Y-141141335D01*
X138426094Y-141141344D01*
X138364938Y-141369586D01*
X138364936Y-141369596D01*
X138344341Y-141604999D01*
X138344341Y-141605000D01*
X100330500Y-141605000D01*
X100330500Y-137160000D01*
X144509540Y-137160000D01*
X144529326Y-137348256D01*
X144529327Y-137348259D01*
X144587818Y-137528277D01*
X144587821Y-137528284D01*
X144682467Y-137692216D01*
X144784185Y-137805185D01*
X144809129Y-137832888D01*
X144962265Y-137944148D01*
X144962270Y-137944151D01*
X145135192Y-138021142D01*
X145135197Y-138021144D01*
X145320354Y-138060500D01*
X145320355Y-138060500D01*
X145509644Y-138060500D01*
X145509646Y-138060500D01*
X145694803Y-138021144D01*
X145867730Y-137944151D01*
X146020871Y-137832888D01*
X146023788Y-137829647D01*
X146026600Y-137826526D01*
X146086087Y-137789879D01*
X146118748Y-137785500D01*
X148084931Y-137785500D01*
X148151970Y-137805185D01*
X148157816Y-137809182D01*
X148227458Y-137859780D01*
X148227463Y-137859783D01*
X148400385Y-137936774D01*
X148400390Y-137936776D01*
X148585547Y-137976132D01*
X148585548Y-137976132D01*
X148774837Y-137976132D01*
X148774839Y-137976132D01*
X148959996Y-137936776D01*
X149132923Y-137859783D01*
X149286064Y-137748520D01*
X149412726Y-137607848D01*
X149507372Y-137443916D01*
X149565867Y-137263888D01*
X149585653Y-137075632D01*
X149565867Y-136887376D01*
X149507372Y-136707348D01*
X149412726Y-136543416D01*
X149286064Y-136402744D01*
X149249049Y-136375851D01*
X149132927Y-136291483D01*
X149132922Y-136291480D01*
X148960000Y-136214489D01*
X148959995Y-136214487D01*
X148814194Y-136183497D01*
X148774839Y-136175132D01*
X148585547Y-136175132D01*
X148553090Y-136182030D01*
X148400390Y-136214487D01*
X148400385Y-136214489D01*
X148227463Y-136291480D01*
X148227458Y-136291483D01*
X148074322Y-136402743D01*
X148002581Y-136482420D01*
X147998357Y-136487112D01*
X147992630Y-136493472D01*
X147933143Y-136530121D01*
X147900480Y-136534500D01*
X146118748Y-136534500D01*
X146051709Y-136514815D01*
X146026600Y-136493474D01*
X146020871Y-136487112D01*
X146020869Y-136487110D01*
X145867734Y-136375851D01*
X145867729Y-136375848D01*
X145694807Y-136298857D01*
X145694802Y-136298855D01*
X145549001Y-136267865D01*
X145509646Y-136259500D01*
X145320354Y-136259500D01*
X145287897Y-136266398D01*
X145135197Y-136298855D01*
X145135192Y-136298857D01*
X144962270Y-136375848D01*
X144962265Y-136375851D01*
X144809129Y-136487111D01*
X144682466Y-136627785D01*
X144587821Y-136791715D01*
X144587818Y-136791722D01*
X144536340Y-136950156D01*
X144529326Y-136971744D01*
X144509540Y-137160000D01*
X100330500Y-137160000D01*
X100330500Y-134620000D01*
X113394540Y-134620000D01*
X113414326Y-134808256D01*
X113414327Y-134808259D01*
X113472818Y-134988277D01*
X113472821Y-134988284D01*
X113567467Y-135152216D01*
X113694129Y-135292888D01*
X113847265Y-135404148D01*
X113847270Y-135404151D01*
X114020192Y-135481142D01*
X114020197Y-135481144D01*
X114205354Y-135520500D01*
X114205355Y-135520500D01*
X114394644Y-135520500D01*
X114394646Y-135520500D01*
X114579803Y-135481144D01*
X114752730Y-135404151D01*
X114754776Y-135402664D01*
X114766452Y-135394182D01*
X114832258Y-135370702D01*
X114839337Y-135370500D01*
X134080663Y-135370500D01*
X134147702Y-135390185D01*
X134153548Y-135394182D01*
X134167265Y-135404148D01*
X134167270Y-135404151D01*
X134340192Y-135481142D01*
X134340197Y-135481144D01*
X134525354Y-135520500D01*
X134525355Y-135520500D01*
X134714644Y-135520500D01*
X134714646Y-135520500D01*
X134727019Y-135517870D01*
X150414500Y-135517870D01*
X150414501Y-135517876D01*
X150420908Y-135577483D01*
X150471202Y-135712328D01*
X150471206Y-135712335D01*
X150557452Y-135827544D01*
X150557455Y-135827547D01*
X150672664Y-135913793D01*
X150672671Y-135913797D01*
X150672674Y-135913798D01*
X150804598Y-135963002D01*
X150860531Y-136004873D01*
X150884949Y-136070337D01*
X150870098Y-136138610D01*
X150848947Y-136166865D01*
X150726886Y-136288926D01*
X150591400Y-136482420D01*
X150591399Y-136482422D01*
X150491570Y-136696507D01*
X150491567Y-136696513D01*
X150434364Y-136909999D01*
X150434364Y-136910000D01*
X151331314Y-136910000D01*
X151305507Y-136950156D01*
X151265000Y-137088111D01*
X151265000Y-137231889D01*
X151305507Y-137369844D01*
X151331314Y-137410000D01*
X150434364Y-137410000D01*
X150491567Y-137623486D01*
X150491570Y-137623492D01*
X150591399Y-137837578D01*
X150726894Y-138031082D01*
X150893917Y-138198105D01*
X151087421Y-138333600D01*
X151301507Y-138433429D01*
X151301516Y-138433433D01*
X151515000Y-138490634D01*
X151515000Y-137595501D01*
X151622685Y-137644680D01*
X151729237Y-137660000D01*
X151800763Y-137660000D01*
X151907315Y-137644680D01*
X152015000Y-137595501D01*
X152015000Y-138490633D01*
X152228483Y-138433433D01*
X152228492Y-138433429D01*
X152442578Y-138333600D01*
X152636082Y-138198105D01*
X152803105Y-138031082D01*
X152938600Y-137837578D01*
X153038429Y-137623492D01*
X153038432Y-137623486D01*
X153095636Y-137410000D01*
X152198686Y-137410000D01*
X152224493Y-137369844D01*
X152265000Y-137231889D01*
X152265000Y-137088111D01*
X152224493Y-136950156D01*
X152198686Y-136910000D01*
X153095636Y-136910000D01*
X153095635Y-136909999D01*
X153038432Y-136696513D01*
X153038429Y-136696507D01*
X152938600Y-136482422D01*
X152938599Y-136482420D01*
X152803113Y-136288926D01*
X152803108Y-136288920D01*
X152681053Y-136166865D01*
X152647568Y-136105542D01*
X152652552Y-136035850D01*
X152694424Y-135979917D01*
X152725400Y-135963002D01*
X152857331Y-135913796D01*
X152972546Y-135827546D01*
X153058796Y-135712331D01*
X153109091Y-135577483D01*
X153115500Y-135517873D01*
X153115499Y-133722128D01*
X153109091Y-133662517D01*
X153058796Y-133527669D01*
X153058795Y-133527668D01*
X153058793Y-133527664D01*
X152972547Y-133412455D01*
X152972544Y-133412452D01*
X152857335Y-133326206D01*
X152857328Y-133326202D01*
X152722482Y-133275908D01*
X152722483Y-133275908D01*
X152662883Y-133269501D01*
X152662881Y-133269500D01*
X152662873Y-133269500D01*
X152662864Y-133269500D01*
X150867129Y-133269500D01*
X150867123Y-133269501D01*
X150807516Y-133275908D01*
X150672671Y-133326202D01*
X150672664Y-133326206D01*
X150557455Y-133412452D01*
X150557452Y-133412455D01*
X150471206Y-133527664D01*
X150471202Y-133527671D01*
X150420908Y-133662517D01*
X150414782Y-133719500D01*
X150414501Y-133722123D01*
X150414500Y-133722135D01*
X150414500Y-135517870D01*
X134727019Y-135517870D01*
X134899803Y-135481144D01*
X135072730Y-135404151D01*
X135225871Y-135292888D01*
X135352533Y-135152216D01*
X135447179Y-134988284D01*
X135505674Y-134808256D01*
X135525460Y-134620000D01*
X135505674Y-134431744D01*
X135447179Y-134251716D01*
X135352533Y-134087784D01*
X135225871Y-133947112D01*
X135225870Y-133947111D01*
X135072734Y-133835851D01*
X135072729Y-133835848D01*
X134899807Y-133758857D01*
X134899802Y-133758855D01*
X134754001Y-133727865D01*
X134714646Y-133719500D01*
X134525354Y-133719500D01*
X134492897Y-133726398D01*
X134340197Y-133758855D01*
X134340192Y-133758857D01*
X134167270Y-133835848D01*
X134167265Y-133835851D01*
X134153548Y-133845818D01*
X134087742Y-133869298D01*
X134080663Y-133869500D01*
X114839337Y-133869500D01*
X114772298Y-133849815D01*
X114766452Y-133845818D01*
X114752734Y-133835851D01*
X114752729Y-133835848D01*
X114579807Y-133758857D01*
X114579802Y-133758855D01*
X114434000Y-133727865D01*
X114394646Y-133719500D01*
X114205354Y-133719500D01*
X114172897Y-133726398D01*
X114020197Y-133758855D01*
X114020192Y-133758857D01*
X113847270Y-133835848D01*
X113847265Y-133835851D01*
X113694129Y-133947111D01*
X113567466Y-134087785D01*
X113472821Y-134251715D01*
X113472818Y-134251722D01*
X113414327Y-134431740D01*
X113414326Y-134431744D01*
X113394540Y-134620000D01*
X100330500Y-134620000D01*
X100330500Y-131005000D01*
X149509551Y-131005000D01*
X149529317Y-131256151D01*
X149588126Y-131501110D01*
X149684533Y-131733859D01*
X149816160Y-131948653D01*
X149816161Y-131948656D01*
X149816164Y-131948659D01*
X149979776Y-132140224D01*
X150128066Y-132266875D01*
X150171343Y-132303838D01*
X150171346Y-132303839D01*
X150386140Y-132435466D01*
X150618888Y-132531873D01*
X150618889Y-132531873D01*
X150863852Y-132590683D01*
X151019950Y-132602968D01*
X151052116Y-132605500D01*
X151052118Y-132605500D01*
X152477884Y-132605500D01*
X152507518Y-132603167D01*
X152666148Y-132590683D01*
X152911111Y-132531873D01*
X153143859Y-132435466D01*
X153358659Y-132303836D01*
X153550224Y-132140224D01*
X153713836Y-131948659D01*
X153845466Y-131733859D01*
X153941873Y-131501111D01*
X154000683Y-131256148D01*
X154020449Y-131005000D01*
X154000683Y-130753852D01*
X153941873Y-130508889D01*
X153845466Y-130276141D01*
X153845466Y-130276140D01*
X153713839Y-130061346D01*
X153713838Y-130061343D01*
X153676875Y-130018066D01*
X153550224Y-129869776D01*
X153362593Y-129709524D01*
X153324401Y-129651018D01*
X153323903Y-129581150D01*
X153339638Y-129546925D01*
X153370635Y-129499968D01*
X153459103Y-129292988D01*
X153509191Y-129073537D01*
X153519290Y-128848670D01*
X153489075Y-128625613D01*
X153419517Y-128411536D01*
X153312852Y-128213319D01*
X153172508Y-128037334D01*
X153172507Y-128037333D01*
X153128489Y-127998875D01*
X153090955Y-127939943D01*
X153091241Y-127870074D01*
X153120448Y-127819803D01*
X153128747Y-127811123D01*
X153246632Y-127687825D01*
X153370635Y-127499968D01*
X153459103Y-127292988D01*
X153509191Y-127073537D01*
X153519290Y-126848670D01*
X153489075Y-126625613D01*
X153419517Y-126411536D01*
X153312852Y-126213319D01*
X153312850Y-126213316D01*
X153309786Y-126208675D01*
X153311388Y-126207616D01*
X153288214Y-126150853D01*
X153300971Y-126082157D01*
X153337257Y-126038962D01*
X153372546Y-126012546D01*
X153458796Y-125897331D01*
X153509091Y-125762483D01*
X153515500Y-125702873D01*
X153515499Y-124107128D01*
X153509091Y-124047517D01*
X153508979Y-124046474D01*
X153521386Y-123977715D01*
X153547486Y-123944365D01*
X153546784Y-123943663D01*
X153550220Y-123940227D01*
X153550224Y-123940224D01*
X153713836Y-123748659D01*
X153845466Y-123533859D01*
X153941873Y-123301111D01*
X154000683Y-123056148D01*
X154020449Y-122805000D01*
X154000683Y-122553852D01*
X153941873Y-122308889D01*
X153889675Y-122182872D01*
X153845466Y-122076140D01*
X153713839Y-121861346D01*
X153713838Y-121861343D01*
X153676875Y-121818066D01*
X153550224Y-121669776D01*
X153423571Y-121561604D01*
X153358656Y-121506161D01*
X153358653Y-121506160D01*
X153143859Y-121374533D01*
X152911110Y-121278126D01*
X152666150Y-121219317D01*
X152477884Y-121204500D01*
X152477882Y-121204500D01*
X151052118Y-121204500D01*
X151052116Y-121204500D01*
X150863849Y-121219317D01*
X150618889Y-121278126D01*
X150386140Y-121374533D01*
X150171346Y-121506160D01*
X150171343Y-121506161D01*
X149979776Y-121669776D01*
X149816161Y-121861343D01*
X149816160Y-121861346D01*
X149684533Y-122076140D01*
X149588126Y-122308889D01*
X149529317Y-122553848D01*
X149509551Y-122805000D01*
X149529317Y-123056151D01*
X149588126Y-123301110D01*
X149684533Y-123533859D01*
X149816160Y-123748653D01*
X149816161Y-123748656D01*
X149979779Y-123940227D01*
X149983221Y-123943669D01*
X149982090Y-123944799D01*
X150016453Y-123997428D01*
X150021021Y-124046475D01*
X150020908Y-124047517D01*
X150020909Y-124047517D01*
X150014500Y-124107127D01*
X150014500Y-124107128D01*
X150014500Y-124107132D01*
X150014500Y-125702870D01*
X150014501Y-125702876D01*
X150020908Y-125762483D01*
X150071202Y-125897328D01*
X150071206Y-125897335D01*
X150157452Y-126012544D01*
X150157455Y-126012547D01*
X150196597Y-126041849D01*
X150238468Y-126097783D01*
X150243452Y-126167474D01*
X150225773Y-126209426D01*
X150159363Y-126310033D01*
X150070899Y-126517004D01*
X150070895Y-126517017D01*
X150020810Y-126736457D01*
X150020808Y-126736468D01*
X150015769Y-126848674D01*
X150010710Y-126961330D01*
X150040925Y-127184387D01*
X150040926Y-127184390D01*
X150110483Y-127398465D01*
X150217146Y-127596678D01*
X150217148Y-127596681D01*
X150357489Y-127772663D01*
X150357491Y-127772664D01*
X150357492Y-127772666D01*
X150401510Y-127811124D01*
X150439044Y-127870055D01*
X150438758Y-127939924D01*
X150409552Y-127990195D01*
X150283369Y-128122173D01*
X150159363Y-128310033D01*
X150070899Y-128517004D01*
X150070895Y-128517017D01*
X150020810Y-128736457D01*
X150020808Y-128736468D01*
X150015769Y-128848674D01*
X150010710Y-128961330D01*
X150040925Y-129184387D01*
X150040926Y-129184390D01*
X150110483Y-129398465D01*
X150195687Y-129556800D01*
X150210121Y-129625163D01*
X150185303Y-129690477D01*
X150167025Y-129709850D01*
X149979776Y-129869776D01*
X149816161Y-130061343D01*
X149816160Y-130061346D01*
X149684533Y-130276140D01*
X149588126Y-130508889D01*
X149529317Y-130753848D01*
X149509551Y-131005000D01*
X100330500Y-131005000D01*
X100330500Y-127890000D01*
X144054540Y-127890000D01*
X144074326Y-128078256D01*
X144074327Y-128078259D01*
X144132818Y-128258277D01*
X144132821Y-128258284D01*
X144227467Y-128422216D01*
X144329185Y-128535185D01*
X144354129Y-128562888D01*
X144507265Y-128674148D01*
X144507270Y-128674151D01*
X144680192Y-128751142D01*
X144680197Y-128751144D01*
X144865354Y-128790500D01*
X144865355Y-128790500D01*
X145054644Y-128790500D01*
X145054646Y-128790500D01*
X145239803Y-128751144D01*
X145412730Y-128674151D01*
X145565871Y-128562888D01*
X145568788Y-128559647D01*
X145571600Y-128556526D01*
X145631087Y-128519879D01*
X145663748Y-128515500D01*
X146997835Y-128515500D01*
X147064874Y-128535185D01*
X147110629Y-128587989D01*
X147115766Y-128601183D01*
X147127817Y-128638275D01*
X147127821Y-128638284D01*
X147222467Y-128802216D01*
X147349128Y-128942888D01*
X147349129Y-128942888D01*
X147502265Y-129054148D01*
X147502270Y-129054151D01*
X147675192Y-129131142D01*
X147675197Y-129131144D01*
X147860354Y-129170500D01*
X147860355Y-129170500D01*
X148049644Y-129170500D01*
X148049646Y-129170500D01*
X148234803Y-129131144D01*
X148407730Y-129054151D01*
X148560871Y-128942888D01*
X148687533Y-128802216D01*
X148782179Y-128638284D01*
X148840674Y-128458256D01*
X148860460Y-128270000D01*
X148840674Y-128081744D01*
X148782179Y-127901716D01*
X148687533Y-127737784D01*
X148560871Y-127597112D01*
X148560274Y-127596678D01*
X148407734Y-127485851D01*
X148407729Y-127485848D01*
X148234807Y-127408857D01*
X148234802Y-127408855D01*
X148089000Y-127377865D01*
X148049646Y-127369500D01*
X148049645Y-127369500D01*
X147966976Y-127369500D01*
X147902994Y-127350712D01*
X147902649Y-127351297D01*
X147900346Y-127349935D01*
X147899937Y-127349815D01*
X147898881Y-127349068D01*
X147895933Y-127347325D01*
X147853168Y-127328818D01*
X147847922Y-127326248D01*
X147807093Y-127303803D01*
X147807092Y-127303802D01*
X147787693Y-127298822D01*
X147769281Y-127292518D01*
X147750898Y-127284562D01*
X147750892Y-127284560D01*
X147704874Y-127277272D01*
X147699152Y-127276087D01*
X147654021Y-127264500D01*
X147654019Y-127264500D01*
X147633984Y-127264500D01*
X147614586Y-127262973D01*
X147607162Y-127261797D01*
X147594805Y-127259840D01*
X147594804Y-127259840D01*
X147548416Y-127264225D01*
X147542578Y-127264500D01*
X145663748Y-127264500D01*
X145596709Y-127244815D01*
X145571600Y-127223474D01*
X145565873Y-127217114D01*
X145565869Y-127217110D01*
X145412734Y-127105851D01*
X145412729Y-127105848D01*
X145239807Y-127028857D01*
X145239802Y-127028855D01*
X145094000Y-126997865D01*
X145054646Y-126989500D01*
X144865354Y-126989500D01*
X144832897Y-126996398D01*
X144680197Y-127028855D01*
X144680192Y-127028857D01*
X144507270Y-127105848D01*
X144507265Y-127105851D01*
X144354129Y-127217111D01*
X144227466Y-127357785D01*
X144132821Y-127521715D01*
X144132818Y-127521722D01*
X144078848Y-127687826D01*
X144074326Y-127701744D01*
X144054540Y-127890000D01*
X100330500Y-127890000D01*
X100330500Y-123830000D01*
X138344341Y-123830000D01*
X138364936Y-124065403D01*
X138364938Y-124065413D01*
X138426094Y-124293655D01*
X138426096Y-124293659D01*
X138426097Y-124293663D01*
X138525964Y-124507830D01*
X138525965Y-124507830D01*
X138525967Y-124507834D01*
X138634281Y-124662521D01*
X138661501Y-124701396D01*
X138661506Y-124701402D01*
X138783430Y-124823326D01*
X138816915Y-124884649D01*
X138811931Y-124954341D01*
X138770059Y-125010274D01*
X138739083Y-125027189D01*
X138607669Y-125076203D01*
X138607664Y-125076206D01*
X138492455Y-125162452D01*
X138492452Y-125162455D01*
X138406206Y-125277664D01*
X138406202Y-125277671D01*
X138355908Y-125412517D01*
X138349501Y-125472116D01*
X138349501Y-125472123D01*
X138349500Y-125472135D01*
X138349500Y-127267870D01*
X138349501Y-127267876D01*
X138355908Y-127327483D01*
X138406202Y-127462328D01*
X138406206Y-127462335D01*
X138492452Y-127577544D01*
X138492455Y-127577547D01*
X138607664Y-127663793D01*
X138607671Y-127663797D01*
X138742517Y-127714091D01*
X138742516Y-127714091D01*
X138749444Y-127714835D01*
X138802127Y-127720500D01*
X140597872Y-127720499D01*
X140657483Y-127714091D01*
X140792331Y-127663796D01*
X140907546Y-127577546D01*
X140993796Y-127462331D01*
X141044091Y-127327483D01*
X141050500Y-127267873D01*
X141050499Y-125472128D01*
X141044091Y-125412517D01*
X140993796Y-125277669D01*
X140993795Y-125277668D01*
X140993793Y-125277664D01*
X140907547Y-125162455D01*
X140907544Y-125162452D01*
X140792335Y-125076206D01*
X140792328Y-125076202D01*
X140660917Y-125027189D01*
X140604983Y-124985318D01*
X140580566Y-124919853D01*
X140595418Y-124851580D01*
X140616563Y-124823332D01*
X140738495Y-124701401D01*
X140874035Y-124507830D01*
X140973903Y-124293663D01*
X141035063Y-124065408D01*
X141055659Y-123830000D01*
X141035063Y-123594592D01*
X140973903Y-123366337D01*
X140874035Y-123152171D01*
X140806802Y-123056151D01*
X140738494Y-122958597D01*
X140571402Y-122791506D01*
X140571395Y-122791501D01*
X140377834Y-122655967D01*
X140377830Y-122655965D01*
X140333943Y-122635500D01*
X140163663Y-122556097D01*
X140163659Y-122556096D01*
X140163655Y-122556094D01*
X139935413Y-122494938D01*
X139935403Y-122494936D01*
X139700001Y-122474341D01*
X139699999Y-122474341D01*
X139464596Y-122494936D01*
X139464586Y-122494938D01*
X139236344Y-122556094D01*
X139236337Y-122556096D01*
X139236337Y-122556097D01*
X139230324Y-122558901D01*
X139022171Y-122655964D01*
X139022169Y-122655965D01*
X138828597Y-122791505D01*
X138661505Y-122958597D01*
X138525965Y-123152169D01*
X138525964Y-123152171D01*
X138426098Y-123366335D01*
X138426094Y-123366344D01*
X138364938Y-123594586D01*
X138364936Y-123594596D01*
X138344341Y-123829999D01*
X138344341Y-123830000D01*
X100330500Y-123830000D01*
X100330500Y-122182870D01*
X102154500Y-122182870D01*
X102154501Y-122182876D01*
X102160908Y-122242483D01*
X102211202Y-122377328D01*
X102211206Y-122377335D01*
X102297452Y-122492544D01*
X102297455Y-122492547D01*
X102412664Y-122578793D01*
X102412671Y-122578797D01*
X102547517Y-122629091D01*
X102547516Y-122629091D01*
X102554444Y-122629835D01*
X102607127Y-122635500D01*
X104402872Y-122635499D01*
X104462483Y-122629091D01*
X104597331Y-122578796D01*
X104712546Y-122492546D01*
X104798796Y-122377331D01*
X104847810Y-122245916D01*
X104889681Y-122189984D01*
X104955145Y-122165566D01*
X105023418Y-122180417D01*
X105051672Y-122201568D01*
X105173599Y-122323495D01*
X105270384Y-122391265D01*
X105367165Y-122459032D01*
X105367167Y-122459033D01*
X105367170Y-122459035D01*
X105581337Y-122558903D01*
X105809592Y-122620063D01*
X105986034Y-122635500D01*
X106044999Y-122640659D01*
X106045000Y-122640659D01*
X106045001Y-122640659D01*
X106103966Y-122635500D01*
X106280408Y-122620063D01*
X106508663Y-122558903D01*
X106722830Y-122459035D01*
X106916401Y-122323495D01*
X107083495Y-122156401D01*
X107213730Y-121970405D01*
X107268307Y-121926781D01*
X107337805Y-121919587D01*
X107400160Y-121951110D01*
X107416879Y-121970405D01*
X107546890Y-122156078D01*
X107713917Y-122323105D01*
X107907421Y-122458600D01*
X108121507Y-122558429D01*
X108121516Y-122558433D01*
X108335000Y-122615634D01*
X108335000Y-121720501D01*
X108442685Y-121769680D01*
X108549237Y-121785000D01*
X108620763Y-121785000D01*
X108727315Y-121769680D01*
X108834999Y-121720501D01*
X108834999Y-122615633D01*
X109048483Y-122558433D01*
X109048492Y-122558429D01*
X109262578Y-122458600D01*
X109456082Y-122323105D01*
X109623105Y-122156082D01*
X109753119Y-121970405D01*
X109807696Y-121926781D01*
X109877195Y-121919588D01*
X109939549Y-121951110D01*
X109956269Y-121970405D01*
X110086505Y-122156401D01*
X110253599Y-122323495D01*
X110350384Y-122391265D01*
X110447165Y-122459032D01*
X110447167Y-122459033D01*
X110447170Y-122459035D01*
X110661337Y-122558903D01*
X110889592Y-122620063D01*
X111066034Y-122635500D01*
X111124999Y-122640659D01*
X111125000Y-122640659D01*
X111125001Y-122640659D01*
X111183966Y-122635500D01*
X111360408Y-122620063D01*
X111588663Y-122558903D01*
X111802830Y-122459035D01*
X111996401Y-122323495D01*
X112163495Y-122156401D01*
X112293424Y-121970842D01*
X112348002Y-121927217D01*
X112417500Y-121920023D01*
X112479855Y-121951546D01*
X112496575Y-121970842D01*
X112626500Y-122156395D01*
X112626505Y-122156401D01*
X112793599Y-122323495D01*
X112890384Y-122391265D01*
X112987165Y-122459032D01*
X112987167Y-122459033D01*
X112987170Y-122459035D01*
X113201337Y-122558903D01*
X113429592Y-122620063D01*
X113606034Y-122635500D01*
X113664999Y-122640659D01*
X113665000Y-122640659D01*
X113665001Y-122640659D01*
X113723966Y-122635500D01*
X113900408Y-122620063D01*
X114128663Y-122558903D01*
X114342830Y-122459035D01*
X114536401Y-122323495D01*
X114703495Y-122156401D01*
X114833424Y-121970842D01*
X114888002Y-121927217D01*
X114957500Y-121920023D01*
X115019855Y-121951546D01*
X115036575Y-121970842D01*
X115166500Y-122156395D01*
X115166505Y-122156401D01*
X115333599Y-122323495D01*
X115430384Y-122391265D01*
X115527165Y-122459032D01*
X115527167Y-122459033D01*
X115527170Y-122459035D01*
X115741337Y-122558903D01*
X115969592Y-122620063D01*
X116146034Y-122635500D01*
X116204999Y-122640659D01*
X116205000Y-122640659D01*
X116205001Y-122640659D01*
X116263966Y-122635500D01*
X116440408Y-122620063D01*
X116668663Y-122558903D01*
X116882830Y-122459035D01*
X117076401Y-122323495D01*
X117243495Y-122156401D01*
X117373424Y-121970842D01*
X117428002Y-121927217D01*
X117497500Y-121920023D01*
X117559855Y-121951546D01*
X117576575Y-121970842D01*
X117706500Y-122156395D01*
X117706505Y-122156401D01*
X117873599Y-122323495D01*
X117970384Y-122391265D01*
X118067165Y-122459032D01*
X118067167Y-122459033D01*
X118067170Y-122459035D01*
X118281337Y-122558903D01*
X118509592Y-122620063D01*
X118686034Y-122635500D01*
X118744999Y-122640659D01*
X118745000Y-122640659D01*
X118745001Y-122640659D01*
X118803966Y-122635500D01*
X118980408Y-122620063D01*
X119208663Y-122558903D01*
X119422830Y-122459035D01*
X119616401Y-122323495D01*
X119783495Y-122156401D01*
X119919035Y-121962830D01*
X120018903Y-121748663D01*
X120080063Y-121520408D01*
X120100659Y-121285000D01*
X120080063Y-121049592D01*
X120018903Y-120821337D01*
X119919035Y-120607171D01*
X119913731Y-120599595D01*
X119783494Y-120413597D01*
X119616402Y-120246506D01*
X119616395Y-120246501D01*
X119422834Y-120110967D01*
X119422830Y-120110965D01*
X119422828Y-120110964D01*
X119208663Y-120011097D01*
X119208659Y-120011096D01*
X119208655Y-120011094D01*
X118980413Y-119949938D01*
X118980403Y-119949936D01*
X118745001Y-119929341D01*
X118744999Y-119929341D01*
X118509596Y-119949936D01*
X118509586Y-119949938D01*
X118281344Y-120011094D01*
X118281335Y-120011098D01*
X118067171Y-120110964D01*
X118067169Y-120110965D01*
X117873597Y-120246505D01*
X117706505Y-120413597D01*
X117576575Y-120599158D01*
X117521998Y-120642783D01*
X117452500Y-120649977D01*
X117390145Y-120618454D01*
X117373425Y-120599158D01*
X117243494Y-120413597D01*
X117076402Y-120246506D01*
X117076395Y-120246501D01*
X116882834Y-120110967D01*
X116882830Y-120110965D01*
X116882830Y-120110964D01*
X116668663Y-120011097D01*
X116668659Y-120011096D01*
X116668655Y-120011094D01*
X116440413Y-119949938D01*
X116440403Y-119949936D01*
X116205001Y-119929341D01*
X116204999Y-119929341D01*
X115969596Y-119949936D01*
X115969586Y-119949938D01*
X115741344Y-120011094D01*
X115741335Y-120011098D01*
X115527171Y-120110964D01*
X115527169Y-120110965D01*
X115333597Y-120246505D01*
X115166505Y-120413597D01*
X115036575Y-120599158D01*
X114981998Y-120642783D01*
X114912500Y-120649977D01*
X114850145Y-120618454D01*
X114833425Y-120599158D01*
X114703494Y-120413597D01*
X114536402Y-120246506D01*
X114536395Y-120246501D01*
X114342834Y-120110967D01*
X114342830Y-120110965D01*
X114342828Y-120110964D01*
X114128663Y-120011097D01*
X114128659Y-120011096D01*
X114128655Y-120011094D01*
X113900413Y-119949938D01*
X113900403Y-119949936D01*
X113665001Y-119929341D01*
X113664999Y-119929341D01*
X113429596Y-119949936D01*
X113429586Y-119949938D01*
X113201344Y-120011094D01*
X113201335Y-120011098D01*
X112987171Y-120110964D01*
X112987169Y-120110965D01*
X112793597Y-120246505D01*
X112626508Y-120413594D01*
X112496574Y-120599160D01*
X112441997Y-120642784D01*
X112372498Y-120649977D01*
X112310144Y-120618455D01*
X112293429Y-120599164D01*
X112163495Y-120413599D01*
X112163493Y-120413596D01*
X111996402Y-120246506D01*
X111996395Y-120246501D01*
X111802834Y-120110967D01*
X111802830Y-120110965D01*
X111802830Y-120110964D01*
X111588663Y-120011097D01*
X111588659Y-120011096D01*
X111588655Y-120011094D01*
X111360413Y-119949938D01*
X111360403Y-119949936D01*
X111125001Y-119929341D01*
X111124999Y-119929341D01*
X110889596Y-119949936D01*
X110889586Y-119949938D01*
X110661344Y-120011094D01*
X110661335Y-120011098D01*
X110447171Y-120110964D01*
X110447169Y-120110965D01*
X110253597Y-120246505D01*
X110086508Y-120413594D01*
X109956269Y-120599595D01*
X109901692Y-120643219D01*
X109832193Y-120650412D01*
X109769839Y-120618890D01*
X109753119Y-120599594D01*
X109623113Y-120413926D01*
X109623108Y-120413920D01*
X109456082Y-120246894D01*
X109262578Y-120111399D01*
X109048492Y-120011570D01*
X109048486Y-120011567D01*
X108834999Y-119954364D01*
X108834999Y-120849498D01*
X108727315Y-120800320D01*
X108620763Y-120785000D01*
X108549237Y-120785000D01*
X108442685Y-120800320D01*
X108335000Y-120849498D01*
X108335000Y-119954364D01*
X108334999Y-119954364D01*
X108121513Y-120011567D01*
X108121507Y-120011570D01*
X107907422Y-120111399D01*
X107907420Y-120111400D01*
X107713926Y-120246886D01*
X107713920Y-120246891D01*
X107546891Y-120413920D01*
X107546890Y-120413922D01*
X107416880Y-120599595D01*
X107362303Y-120643219D01*
X107292804Y-120650412D01*
X107230450Y-120618890D01*
X107213730Y-120599594D01*
X107083494Y-120413597D01*
X106916402Y-120246506D01*
X106916395Y-120246501D01*
X106722834Y-120110967D01*
X106722830Y-120110965D01*
X106722829Y-120110964D01*
X106508663Y-120011097D01*
X106508659Y-120011096D01*
X106508655Y-120011094D01*
X106280413Y-119949938D01*
X106280403Y-119949936D01*
X106045001Y-119929341D01*
X106044999Y-119929341D01*
X105809596Y-119949936D01*
X105809586Y-119949938D01*
X105581344Y-120011094D01*
X105581335Y-120011098D01*
X105367171Y-120110964D01*
X105367169Y-120110965D01*
X105173600Y-120246503D01*
X105051673Y-120368430D01*
X104990350Y-120401914D01*
X104920658Y-120396930D01*
X104864725Y-120355058D01*
X104847810Y-120324081D01*
X104798797Y-120192671D01*
X104798793Y-120192664D01*
X104712547Y-120077455D01*
X104712544Y-120077452D01*
X104597335Y-119991206D01*
X104597328Y-119991202D01*
X104462482Y-119940908D01*
X104462483Y-119940908D01*
X104402883Y-119934501D01*
X104402881Y-119934500D01*
X104402873Y-119934500D01*
X104402864Y-119934500D01*
X102607129Y-119934500D01*
X102607123Y-119934501D01*
X102547516Y-119940908D01*
X102412671Y-119991202D01*
X102412664Y-119991206D01*
X102297455Y-120077452D01*
X102297452Y-120077455D01*
X102211206Y-120192664D01*
X102211202Y-120192671D01*
X102160908Y-120327517D01*
X102154501Y-120387116D01*
X102154500Y-120387135D01*
X102154500Y-122182870D01*
X100330500Y-122182870D01*
X100330500Y-115832870D01*
X122474500Y-115832870D01*
X122474501Y-115832876D01*
X122480908Y-115892483D01*
X122531202Y-116027328D01*
X122531206Y-116027335D01*
X122617452Y-116142544D01*
X122617455Y-116142547D01*
X122732664Y-116228793D01*
X122732671Y-116228797D01*
X122867517Y-116279091D01*
X122867516Y-116279091D01*
X122874444Y-116279835D01*
X122927127Y-116285500D01*
X124722872Y-116285499D01*
X124782483Y-116279091D01*
X124917331Y-116228796D01*
X125032546Y-116142546D01*
X125118796Y-116027331D01*
X125168002Y-115895401D01*
X125209872Y-115839468D01*
X125275337Y-115815050D01*
X125343610Y-115829901D01*
X125371865Y-115851053D01*
X125493917Y-115973105D01*
X125687421Y-116108600D01*
X125901507Y-116208429D01*
X125901516Y-116208433D01*
X126114998Y-116265635D01*
X126114999Y-116265634D01*
X126114999Y-115370501D01*
X126222685Y-115419680D01*
X126329237Y-115435000D01*
X126400763Y-115435000D01*
X126507315Y-115419680D01*
X126615000Y-115370501D01*
X126615000Y-116265633D01*
X126828483Y-116208433D01*
X126828492Y-116208429D01*
X127042578Y-116108600D01*
X127236082Y-115973105D01*
X127403105Y-115806082D01*
X127533119Y-115620405D01*
X127587696Y-115576781D01*
X127657195Y-115569588D01*
X127719549Y-115601110D01*
X127736269Y-115620405D01*
X127866505Y-115806401D01*
X128033599Y-115973495D01*
X128130384Y-116041265D01*
X128227165Y-116109032D01*
X128227167Y-116109033D01*
X128227170Y-116109035D01*
X128441337Y-116208903D01*
X128669592Y-116270063D01*
X128846034Y-116285500D01*
X128904999Y-116290659D01*
X128905000Y-116290659D01*
X128905001Y-116290659D01*
X128963966Y-116285500D01*
X129140408Y-116270063D01*
X129368663Y-116208903D01*
X129582830Y-116109035D01*
X129776401Y-115973495D01*
X129943495Y-115806401D01*
X130073424Y-115620842D01*
X130128002Y-115577217D01*
X130197500Y-115570023D01*
X130259855Y-115601546D01*
X130276575Y-115620842D01*
X130406500Y-115806395D01*
X130406505Y-115806401D01*
X130573599Y-115973495D01*
X130670384Y-116041265D01*
X130767165Y-116109032D01*
X130767167Y-116109033D01*
X130767170Y-116109035D01*
X130981337Y-116208903D01*
X131209592Y-116270063D01*
X131386034Y-116285500D01*
X131444999Y-116290659D01*
X131445000Y-116290659D01*
X131445001Y-116290659D01*
X131503966Y-116285500D01*
X131680408Y-116270063D01*
X131908663Y-116208903D01*
X132122830Y-116109035D01*
X132316401Y-115973495D01*
X132483495Y-115806401D01*
X132619035Y-115612830D01*
X132718903Y-115398663D01*
X132780063Y-115170408D01*
X132800659Y-114935000D01*
X132780063Y-114699592D01*
X132718903Y-114471337D01*
X132619035Y-114257171D01*
X132613731Y-114249595D01*
X132483494Y-114063597D01*
X132316402Y-113896506D01*
X132316395Y-113896501D01*
X132122834Y-113760967D01*
X132122830Y-113760965D01*
X132122830Y-113760964D01*
X131908663Y-113661097D01*
X131908659Y-113661096D01*
X131908655Y-113661094D01*
X131680413Y-113599938D01*
X131680403Y-113599936D01*
X131445001Y-113579341D01*
X131444999Y-113579341D01*
X131209596Y-113599936D01*
X131209586Y-113599938D01*
X130981344Y-113661094D01*
X130981335Y-113661098D01*
X130767171Y-113760964D01*
X130767169Y-113760965D01*
X130573597Y-113896505D01*
X130406508Y-114063594D01*
X130276574Y-114249159D01*
X130221997Y-114292784D01*
X130152498Y-114299976D01*
X130090144Y-114268454D01*
X130073424Y-114249158D01*
X129943494Y-114063597D01*
X129776402Y-113896506D01*
X129776395Y-113896501D01*
X129582834Y-113760967D01*
X129582830Y-113760965D01*
X129582829Y-113760964D01*
X129368663Y-113661097D01*
X129368659Y-113661096D01*
X129368655Y-113661094D01*
X129140413Y-113599938D01*
X129140403Y-113599936D01*
X128905001Y-113579341D01*
X128904999Y-113579341D01*
X128669596Y-113599936D01*
X128669586Y-113599938D01*
X128441344Y-113661094D01*
X128441335Y-113661098D01*
X128227171Y-113760964D01*
X128227169Y-113760965D01*
X128033597Y-113896505D01*
X127866508Y-114063594D01*
X127736269Y-114249595D01*
X127681692Y-114293219D01*
X127612193Y-114300412D01*
X127549839Y-114268890D01*
X127533119Y-114249594D01*
X127403113Y-114063926D01*
X127403108Y-114063920D01*
X127236082Y-113896894D01*
X127042578Y-113761399D01*
X126828492Y-113661570D01*
X126828486Y-113661567D01*
X126615000Y-113604364D01*
X126615000Y-114499498D01*
X126507315Y-114450320D01*
X126400763Y-114435000D01*
X126329237Y-114435000D01*
X126222685Y-114450320D01*
X126114999Y-114499498D01*
X126114999Y-113604364D01*
X126114998Y-113604364D01*
X125901505Y-113661570D01*
X125687422Y-113761399D01*
X125687420Y-113761400D01*
X125493926Y-113896886D01*
X125371865Y-114018947D01*
X125310542Y-114052431D01*
X125240850Y-114047447D01*
X125184917Y-114005575D01*
X125168002Y-113974598D01*
X125118797Y-113842671D01*
X125118793Y-113842664D01*
X125032547Y-113727455D01*
X125032544Y-113727452D01*
X124917335Y-113641206D01*
X124917328Y-113641202D01*
X124782482Y-113590908D01*
X124782483Y-113590908D01*
X124722883Y-113584501D01*
X124722881Y-113584500D01*
X124722873Y-113584500D01*
X124722864Y-113584500D01*
X122927129Y-113584500D01*
X122927123Y-113584501D01*
X122867516Y-113590908D01*
X122732671Y-113641202D01*
X122732664Y-113641206D01*
X122617455Y-113727452D01*
X122617452Y-113727455D01*
X122531206Y-113842664D01*
X122531202Y-113842671D01*
X122480908Y-113977517D01*
X122474501Y-114037116D01*
X122474500Y-114037135D01*
X122474500Y-115832870D01*
X100330500Y-115832870D01*
X100330500Y-109780005D01*
X109525357Y-109780005D01*
X109545890Y-110027812D01*
X109545892Y-110027824D01*
X109606936Y-110268881D01*
X109706826Y-110496606D01*
X109842833Y-110704782D01*
X109842836Y-110704785D01*
X110011256Y-110887738D01*
X110207491Y-111040474D01*
X110426190Y-111158828D01*
X110661386Y-111239571D01*
X110906665Y-111280500D01*
X111155335Y-111280500D01*
X111400614Y-111239571D01*
X111635810Y-111158828D01*
X111854509Y-111040474D01*
X112050744Y-110887738D01*
X112219164Y-110704785D01*
X112355173Y-110496607D01*
X112417443Y-110354644D01*
X112462400Y-110301158D01*
X112529136Y-110280468D01*
X112596464Y-110299143D01*
X112643007Y-110351253D01*
X112644556Y-110354644D01*
X112706826Y-110496606D01*
X112842833Y-110704782D01*
X112842836Y-110704785D01*
X113011256Y-110887738D01*
X113207491Y-111040474D01*
X113426190Y-111158828D01*
X113661386Y-111239571D01*
X113906665Y-111280500D01*
X114155335Y-111280500D01*
X114400614Y-111239571D01*
X114635810Y-111158828D01*
X114854509Y-111040474D01*
X115050744Y-110887738D01*
X115219164Y-110704785D01*
X115355173Y-110496607D01*
X115455063Y-110268881D01*
X115516108Y-110027821D01*
X115536643Y-109780005D01*
X116525357Y-109780005D01*
X116545890Y-110027812D01*
X116545892Y-110027824D01*
X116606936Y-110268881D01*
X116706826Y-110496606D01*
X116842833Y-110704782D01*
X116842836Y-110704785D01*
X117011256Y-110887738D01*
X117207491Y-111040474D01*
X117426190Y-111158828D01*
X117661386Y-111239571D01*
X117906665Y-111280500D01*
X118155335Y-111280500D01*
X118400614Y-111239571D01*
X118635810Y-111158828D01*
X118854509Y-111040474D01*
X119050744Y-110887738D01*
X119219164Y-110704785D01*
X119355173Y-110496607D01*
X119417443Y-110354644D01*
X119462400Y-110301158D01*
X119529136Y-110280468D01*
X119596464Y-110299143D01*
X119643007Y-110351253D01*
X119644556Y-110354644D01*
X119706826Y-110496606D01*
X119842833Y-110704782D01*
X119842836Y-110704785D01*
X120011256Y-110887738D01*
X120207491Y-111040474D01*
X120426190Y-111158828D01*
X120661386Y-111239571D01*
X120906665Y-111280500D01*
X121155335Y-111280500D01*
X121400614Y-111239571D01*
X121635810Y-111158828D01*
X121854509Y-111040474D01*
X122050744Y-110887738D01*
X122219164Y-110704785D01*
X122355173Y-110496607D01*
X122455063Y-110268881D01*
X122516108Y-110027821D01*
X122536643Y-109780005D01*
X132639357Y-109780005D01*
X132659890Y-110027812D01*
X132659892Y-110027824D01*
X132720936Y-110268881D01*
X132820826Y-110496606D01*
X132956833Y-110704782D01*
X132956836Y-110704785D01*
X133125256Y-110887738D01*
X133321491Y-111040474D01*
X133540190Y-111158828D01*
X133775386Y-111239571D01*
X134020665Y-111280500D01*
X134269335Y-111280500D01*
X134514614Y-111239571D01*
X134749810Y-111158828D01*
X134968509Y-111040474D01*
X135164744Y-110887738D01*
X135333164Y-110704785D01*
X135469173Y-110496607D01*
X135531443Y-110354644D01*
X135576400Y-110301158D01*
X135643136Y-110280468D01*
X135710464Y-110299143D01*
X135757007Y-110351253D01*
X135758556Y-110354644D01*
X135820826Y-110496606D01*
X135956833Y-110704782D01*
X135956836Y-110704785D01*
X136125256Y-110887738D01*
X136321491Y-111040474D01*
X136540190Y-111158828D01*
X136775386Y-111239571D01*
X137020665Y-111280500D01*
X137269335Y-111280500D01*
X137514614Y-111239571D01*
X137749810Y-111158828D01*
X137968509Y-111040474D01*
X138164744Y-110887738D01*
X138333164Y-110704785D01*
X138469173Y-110496607D01*
X138569063Y-110268881D01*
X138630108Y-110027821D01*
X138650643Y-109780005D01*
X139639357Y-109780005D01*
X139659890Y-110027812D01*
X139659892Y-110027824D01*
X139720936Y-110268881D01*
X139820826Y-110496606D01*
X139956833Y-110704782D01*
X139956836Y-110704785D01*
X140125256Y-110887738D01*
X140321491Y-111040474D01*
X140540190Y-111158828D01*
X140775386Y-111239571D01*
X141020665Y-111280500D01*
X141269335Y-111280500D01*
X141514614Y-111239571D01*
X141749810Y-111158828D01*
X141968509Y-111040474D01*
X142164744Y-110887738D01*
X142333164Y-110704785D01*
X142469173Y-110496607D01*
X142531443Y-110354644D01*
X142576400Y-110301158D01*
X142643136Y-110280468D01*
X142710464Y-110299143D01*
X142757007Y-110351253D01*
X142758556Y-110354644D01*
X142820826Y-110496606D01*
X142956833Y-110704782D01*
X142956836Y-110704785D01*
X143125256Y-110887738D01*
X143321491Y-111040474D01*
X143540190Y-111158828D01*
X143775386Y-111239571D01*
X144020665Y-111280500D01*
X144269335Y-111280500D01*
X144514614Y-111239571D01*
X144749810Y-111158828D01*
X144968509Y-111040474D01*
X145164744Y-110887738D01*
X145333164Y-110704785D01*
X145469173Y-110496607D01*
X145569063Y-110268881D01*
X145630108Y-110027821D01*
X145650643Y-109780000D01*
X145630108Y-109532179D01*
X145569063Y-109291119D01*
X145555788Y-109260856D01*
X145469173Y-109063393D01*
X145333166Y-108855217D01*
X145311557Y-108831744D01*
X145164744Y-108672262D01*
X144968509Y-108519526D01*
X144968507Y-108519525D01*
X144968506Y-108519524D01*
X144749811Y-108401172D01*
X144749802Y-108401169D01*
X144514616Y-108320429D01*
X144269335Y-108279500D01*
X144020665Y-108279500D01*
X143775383Y-108320429D01*
X143540197Y-108401169D01*
X143540188Y-108401172D01*
X143321493Y-108519524D01*
X143125257Y-108672261D01*
X142956833Y-108855217D01*
X142820826Y-109063393D01*
X142758556Y-109205355D01*
X142713600Y-109258841D01*
X142646864Y-109279531D01*
X142579536Y-109260856D01*
X142532993Y-109208746D01*
X142531444Y-109205355D01*
X142469173Y-109063393D01*
X142333166Y-108855217D01*
X142311557Y-108831744D01*
X142164744Y-108672262D01*
X141968509Y-108519526D01*
X141968507Y-108519525D01*
X141968506Y-108519524D01*
X141749811Y-108401172D01*
X141749802Y-108401169D01*
X141514616Y-108320429D01*
X141269335Y-108279500D01*
X141020665Y-108279500D01*
X140775383Y-108320429D01*
X140540197Y-108401169D01*
X140540188Y-108401172D01*
X140321493Y-108519524D01*
X140125257Y-108672261D01*
X139956833Y-108855217D01*
X139820826Y-109063393D01*
X139720936Y-109291118D01*
X139659892Y-109532175D01*
X139659890Y-109532187D01*
X139639357Y-109779994D01*
X139639357Y-109780005D01*
X138650643Y-109780005D01*
X138650643Y-109780000D01*
X138630108Y-109532179D01*
X138569063Y-109291119D01*
X138555788Y-109260856D01*
X138469173Y-109063393D01*
X138333166Y-108855217D01*
X138311557Y-108831744D01*
X138164744Y-108672262D01*
X137968509Y-108519526D01*
X137968507Y-108519525D01*
X137968506Y-108519524D01*
X137749811Y-108401172D01*
X137749802Y-108401169D01*
X137514616Y-108320429D01*
X137269335Y-108279500D01*
X137020665Y-108279500D01*
X136775383Y-108320429D01*
X136540197Y-108401169D01*
X136540188Y-108401172D01*
X136321493Y-108519524D01*
X136125257Y-108672261D01*
X135956833Y-108855217D01*
X135820826Y-109063393D01*
X135758556Y-109205355D01*
X135713600Y-109258841D01*
X135646864Y-109279531D01*
X135579536Y-109260856D01*
X135532993Y-109208746D01*
X135531444Y-109205355D01*
X135469173Y-109063393D01*
X135333166Y-108855217D01*
X135311557Y-108831744D01*
X135164744Y-108672262D01*
X134968509Y-108519526D01*
X134968507Y-108519525D01*
X134968506Y-108519524D01*
X134749811Y-108401172D01*
X134749802Y-108401169D01*
X134514616Y-108320429D01*
X134269335Y-108279500D01*
X134020665Y-108279500D01*
X133775383Y-108320429D01*
X133540197Y-108401169D01*
X133540188Y-108401172D01*
X133321493Y-108519524D01*
X133125257Y-108672261D01*
X132956833Y-108855217D01*
X132820826Y-109063393D01*
X132720936Y-109291118D01*
X132659892Y-109532175D01*
X132659890Y-109532187D01*
X132639357Y-109779994D01*
X132639357Y-109780005D01*
X122536643Y-109780005D01*
X122536643Y-109780000D01*
X122516108Y-109532179D01*
X122455063Y-109291119D01*
X122441788Y-109260856D01*
X122355173Y-109063393D01*
X122219166Y-108855217D01*
X122197557Y-108831744D01*
X122050744Y-108672262D01*
X121854509Y-108519526D01*
X121854507Y-108519525D01*
X121854506Y-108519524D01*
X121635811Y-108401172D01*
X121635802Y-108401169D01*
X121400616Y-108320429D01*
X121155335Y-108279500D01*
X120906665Y-108279500D01*
X120661383Y-108320429D01*
X120426197Y-108401169D01*
X120426188Y-108401172D01*
X120207493Y-108519524D01*
X120011257Y-108672261D01*
X119842833Y-108855217D01*
X119706826Y-109063393D01*
X119644556Y-109205355D01*
X119599600Y-109258841D01*
X119532864Y-109279531D01*
X119465536Y-109260856D01*
X119418993Y-109208746D01*
X119417444Y-109205355D01*
X119355173Y-109063393D01*
X119219166Y-108855217D01*
X119197557Y-108831744D01*
X119050744Y-108672262D01*
X118854509Y-108519526D01*
X118854507Y-108519525D01*
X118854506Y-108519524D01*
X118635811Y-108401172D01*
X118635802Y-108401169D01*
X118400616Y-108320429D01*
X118155335Y-108279500D01*
X117906665Y-108279500D01*
X117661383Y-108320429D01*
X117426197Y-108401169D01*
X117426188Y-108401172D01*
X117207493Y-108519524D01*
X117011257Y-108672261D01*
X116842833Y-108855217D01*
X116706826Y-109063393D01*
X116606936Y-109291118D01*
X116545892Y-109532175D01*
X116545890Y-109532187D01*
X116525357Y-109779994D01*
X116525357Y-109780005D01*
X115536643Y-109780005D01*
X115536643Y-109780000D01*
X115516108Y-109532179D01*
X115455063Y-109291119D01*
X115441788Y-109260856D01*
X115355173Y-109063393D01*
X115219166Y-108855217D01*
X115197557Y-108831744D01*
X115050744Y-108672262D01*
X114854509Y-108519526D01*
X114854507Y-108519525D01*
X114854506Y-108519524D01*
X114635811Y-108401172D01*
X114635802Y-108401169D01*
X114400616Y-108320429D01*
X114155335Y-108279500D01*
X113906665Y-108279500D01*
X113661383Y-108320429D01*
X113426197Y-108401169D01*
X113426188Y-108401172D01*
X113207493Y-108519524D01*
X113011257Y-108672261D01*
X112842833Y-108855217D01*
X112706826Y-109063393D01*
X112644556Y-109205355D01*
X112599600Y-109258841D01*
X112532864Y-109279531D01*
X112465536Y-109260856D01*
X112418993Y-109208746D01*
X112417444Y-109205355D01*
X112355173Y-109063393D01*
X112219166Y-108855217D01*
X112197557Y-108831744D01*
X112050744Y-108672262D01*
X111854509Y-108519526D01*
X111854507Y-108519525D01*
X111854506Y-108519524D01*
X111635811Y-108401172D01*
X111635802Y-108401169D01*
X111400616Y-108320429D01*
X111155335Y-108279500D01*
X110906665Y-108279500D01*
X110661383Y-108320429D01*
X110426197Y-108401169D01*
X110426188Y-108401172D01*
X110207493Y-108519524D01*
X110011257Y-108672261D01*
X109842833Y-108855217D01*
X109706826Y-109063393D01*
X109606936Y-109291118D01*
X109545892Y-109532175D01*
X109545890Y-109532187D01*
X109525357Y-109779994D01*
X109525357Y-109780005D01*
X100330500Y-109780005D01*
X100330500Y-108584985D01*
X100332890Y-108304923D01*
X100333032Y-108301257D01*
X100371237Y-107742722D01*
X100371668Y-107738527D01*
X100447869Y-107184118D01*
X100448577Y-107180012D01*
X100562436Y-106632100D01*
X100563430Y-106628024D01*
X100583909Y-106554936D01*
X100714403Y-106089191D01*
X100715675Y-106085185D01*
X100903069Y-105557910D01*
X100904613Y-105553992D01*
X101127558Y-105040721D01*
X101129369Y-105036915D01*
X101134129Y-105027729D01*
X101386821Y-104540054D01*
X101388877Y-104536400D01*
X101679641Y-104058258D01*
X101681935Y-104054760D01*
X101733406Y-103981844D01*
X101788146Y-103938429D01*
X101857671Y-103931500D01*
X101919906Y-103963259D01*
X101955091Y-104023623D01*
X101952055Y-104093426D01*
X101950472Y-104097793D01*
X101886262Y-104265063D01*
X101785887Y-104639669D01*
X101785886Y-104639676D01*
X101725219Y-105022712D01*
X101704922Y-105409999D01*
X101704922Y-105410000D01*
X101725219Y-105797287D01*
X101785886Y-106180323D01*
X101785887Y-106180330D01*
X101886262Y-106554936D01*
X102025244Y-106916994D01*
X102201310Y-107262543D01*
X102412531Y-107587793D01*
X102621095Y-107845350D01*
X102621096Y-107845350D01*
X104112266Y-106354179D01*
X104275130Y-106544870D01*
X104465819Y-106707733D01*
X102974648Y-108198903D01*
X102974649Y-108198904D01*
X103232206Y-108407468D01*
X103557456Y-108618689D01*
X103903005Y-108794755D01*
X104265063Y-108933737D01*
X104639669Y-109034112D01*
X104639676Y-109034113D01*
X105022712Y-109094780D01*
X105409999Y-109115078D01*
X105410001Y-109115078D01*
X105797287Y-109094780D01*
X106180323Y-109034113D01*
X106180330Y-109034112D01*
X106554936Y-108933737D01*
X106916994Y-108794755D01*
X107262543Y-108618689D01*
X107587783Y-108407476D01*
X107587785Y-108407475D01*
X107845349Y-108198902D01*
X106354180Y-106707733D01*
X106544870Y-106544870D01*
X106707733Y-106354180D01*
X108198902Y-107845349D01*
X108407475Y-107587785D01*
X108407476Y-107587783D01*
X108618689Y-107262543D01*
X108794755Y-106916994D01*
X108933737Y-106554936D01*
X109034112Y-106180330D01*
X109034113Y-106180323D01*
X109094780Y-105797287D01*
X109115078Y-105410000D01*
X109115078Y-105409999D01*
X109094780Y-105022712D01*
X109056339Y-104780005D01*
X114525858Y-104780005D01*
X114546385Y-105027729D01*
X114546387Y-105027738D01*
X114607412Y-105268717D01*
X114707266Y-105496364D01*
X114807564Y-105649882D01*
X115468226Y-104989219D01*
X115506901Y-105082588D01*
X115603075Y-105207925D01*
X115728412Y-105304099D01*
X115821779Y-105342772D01*
X115160942Y-106003609D01*
X115207768Y-106040055D01*
X115207770Y-106040056D01*
X115426385Y-106158364D01*
X115426396Y-106158369D01*
X115661506Y-106239083D01*
X115906707Y-106280000D01*
X116155293Y-106280000D01*
X116400493Y-106239083D01*
X116635603Y-106158369D01*
X116635614Y-106158364D01*
X116854228Y-106040057D01*
X116854231Y-106040055D01*
X116901056Y-106003609D01*
X116240220Y-105342773D01*
X116333588Y-105304099D01*
X116458925Y-105207925D01*
X116555099Y-105082589D01*
X116593772Y-104989220D01*
X117254434Y-105649882D01*
X117354731Y-105496369D01*
X117454587Y-105268717D01*
X117513046Y-105037870D01*
X125014500Y-105037870D01*
X125014501Y-105037876D01*
X125020908Y-105097483D01*
X125071202Y-105232328D01*
X125071206Y-105232335D01*
X125157452Y-105347544D01*
X125157455Y-105347547D01*
X125272664Y-105433793D01*
X125272671Y-105433797D01*
X125407517Y-105484091D01*
X125407516Y-105484091D01*
X125414444Y-105484835D01*
X125467127Y-105490500D01*
X127262872Y-105490499D01*
X127322483Y-105484091D01*
X127457331Y-105433796D01*
X127572546Y-105347546D01*
X127658796Y-105232331D01*
X127708002Y-105100401D01*
X127749872Y-105044468D01*
X127815337Y-105020050D01*
X127883610Y-105034901D01*
X127911865Y-105056053D01*
X128033917Y-105178105D01*
X128227421Y-105313600D01*
X128441507Y-105413429D01*
X128441516Y-105413433D01*
X128655000Y-105470634D01*
X128655000Y-104575501D01*
X128762685Y-104624680D01*
X128869237Y-104640000D01*
X128940763Y-104640000D01*
X129047315Y-104624680D01*
X129154999Y-104575501D01*
X129154999Y-105470633D01*
X129368483Y-105413433D01*
X129368492Y-105413429D01*
X129582578Y-105313600D01*
X129776082Y-105178105D01*
X129943105Y-105011082D01*
X130078600Y-104817578D01*
X130096120Y-104780005D01*
X137639859Y-104780005D01*
X137660385Y-105027729D01*
X137660387Y-105027738D01*
X137721412Y-105268717D01*
X137821266Y-105496364D01*
X137921564Y-105649882D01*
X138582226Y-104989219D01*
X138620901Y-105082588D01*
X138717075Y-105207925D01*
X138842412Y-105304099D01*
X138935779Y-105342772D01*
X138274942Y-106003609D01*
X138321768Y-106040055D01*
X138321770Y-106040056D01*
X138540385Y-106158364D01*
X138540396Y-106158369D01*
X138775506Y-106239083D01*
X139020707Y-106280000D01*
X139269293Y-106280000D01*
X139514493Y-106239083D01*
X139749603Y-106158369D01*
X139749614Y-106158364D01*
X139968228Y-106040057D01*
X139968231Y-106040055D01*
X140015056Y-106003609D01*
X139354220Y-105342773D01*
X139447588Y-105304099D01*
X139572925Y-105207925D01*
X139669099Y-105082589D01*
X139707772Y-104989220D01*
X140368434Y-105649882D01*
X140468731Y-105496369D01*
X140568587Y-105268717D01*
X140629612Y-105027738D01*
X140629614Y-105027729D01*
X140650141Y-104780005D01*
X140650141Y-104779994D01*
X140629614Y-104532270D01*
X140629612Y-104532261D01*
X140568587Y-104291282D01*
X140468731Y-104063630D01*
X140368434Y-103910116D01*
X139707772Y-104570778D01*
X139669099Y-104477412D01*
X139572925Y-104352075D01*
X139447588Y-104255901D01*
X139354220Y-104217227D01*
X140015057Y-103556390D01*
X140015056Y-103556389D01*
X139968229Y-103519943D01*
X139749614Y-103401635D01*
X139749603Y-103401630D01*
X139514493Y-103320916D01*
X139269293Y-103280000D01*
X139020707Y-103280000D01*
X138775506Y-103320916D01*
X138540396Y-103401630D01*
X138540390Y-103401632D01*
X138321761Y-103519949D01*
X138274942Y-103556388D01*
X138274942Y-103556390D01*
X138935779Y-104217227D01*
X138842412Y-104255901D01*
X138717075Y-104352075D01*
X138620901Y-104477411D01*
X138582227Y-104570779D01*
X137921564Y-103910116D01*
X137821267Y-104063632D01*
X137721412Y-104291282D01*
X137660387Y-104532261D01*
X137660385Y-104532270D01*
X137639859Y-104779994D01*
X137639859Y-104780005D01*
X130096120Y-104780005D01*
X130178429Y-104603492D01*
X130178432Y-104603486D01*
X130235636Y-104390000D01*
X129338686Y-104390000D01*
X129364493Y-104349844D01*
X129405000Y-104211889D01*
X129405000Y-104068111D01*
X129364493Y-103930156D01*
X129338686Y-103890000D01*
X130235636Y-103890000D01*
X130235635Y-103889999D01*
X130178432Y-103676513D01*
X130178429Y-103676507D01*
X130078600Y-103462422D01*
X130078599Y-103462420D01*
X129943113Y-103268926D01*
X129943108Y-103268920D01*
X129776082Y-103101894D01*
X129582578Y-102966399D01*
X129368492Y-102866570D01*
X129368486Y-102866567D01*
X129154999Y-102809364D01*
X129154999Y-103704498D01*
X129047315Y-103655320D01*
X128940763Y-103640000D01*
X128869237Y-103640000D01*
X128762685Y-103655320D01*
X128655000Y-103704498D01*
X128655000Y-102809364D01*
X128654999Y-102809364D01*
X128441513Y-102866567D01*
X128441507Y-102866570D01*
X128227422Y-102966399D01*
X128227420Y-102966400D01*
X128033926Y-103101886D01*
X127911865Y-103223947D01*
X127850542Y-103257431D01*
X127780850Y-103252447D01*
X127724917Y-103210575D01*
X127708002Y-103179598D01*
X127700145Y-103158533D01*
X127658796Y-103047669D01*
X127658795Y-103047668D01*
X127658793Y-103047664D01*
X127572547Y-102932455D01*
X127572544Y-102932452D01*
X127457335Y-102846206D01*
X127457328Y-102846202D01*
X127322482Y-102795908D01*
X127322483Y-102795908D01*
X127262883Y-102789501D01*
X127262881Y-102789500D01*
X127262873Y-102789500D01*
X127262864Y-102789500D01*
X125467129Y-102789500D01*
X125467123Y-102789501D01*
X125407516Y-102795908D01*
X125272671Y-102846202D01*
X125272664Y-102846206D01*
X125157455Y-102932452D01*
X125157452Y-102932455D01*
X125071206Y-103047664D01*
X125071202Y-103047671D01*
X125020908Y-103182517D01*
X125014501Y-103242116D01*
X125014500Y-103242135D01*
X125014500Y-105037870D01*
X117513046Y-105037870D01*
X117515612Y-105027738D01*
X117515614Y-105027729D01*
X117536141Y-104780005D01*
X117536141Y-104779994D01*
X117515614Y-104532270D01*
X117515612Y-104532261D01*
X117454587Y-104291282D01*
X117354731Y-104063630D01*
X117254434Y-103910116D01*
X116593772Y-104570778D01*
X116555099Y-104477412D01*
X116458925Y-104352075D01*
X116333588Y-104255901D01*
X116240220Y-104217227D01*
X116901057Y-103556390D01*
X116901056Y-103556389D01*
X116854229Y-103519943D01*
X116635614Y-103401635D01*
X116635603Y-103401630D01*
X116400493Y-103320916D01*
X116155293Y-103280000D01*
X115906707Y-103280000D01*
X115661506Y-103320916D01*
X115426396Y-103401630D01*
X115426390Y-103401632D01*
X115207761Y-103519949D01*
X115160942Y-103556388D01*
X115160942Y-103556390D01*
X115821779Y-104217227D01*
X115728412Y-104255901D01*
X115603075Y-104352075D01*
X115506901Y-104477411D01*
X115468227Y-104570779D01*
X114807564Y-103910116D01*
X114707267Y-104063632D01*
X114607412Y-104291282D01*
X114546387Y-104532261D01*
X114546385Y-104532270D01*
X114525858Y-104779994D01*
X114525858Y-104780005D01*
X109056339Y-104780005D01*
X109034113Y-104639676D01*
X109034112Y-104639669D01*
X108933737Y-104265063D01*
X108794755Y-103903005D01*
X108618689Y-103557456D01*
X108407468Y-103232206D01*
X108198904Y-102974649D01*
X108198903Y-102974648D01*
X106707732Y-104465818D01*
X106544870Y-104275130D01*
X106354179Y-104112266D01*
X107845350Y-102621096D01*
X107845350Y-102621095D01*
X107587793Y-102412531D01*
X107262543Y-102201310D01*
X106916994Y-102025244D01*
X106554936Y-101886262D01*
X106180330Y-101785887D01*
X106180323Y-101785886D01*
X105797287Y-101725219D01*
X105410001Y-101704922D01*
X105409999Y-101704922D01*
X105022712Y-101725219D01*
X104639676Y-101785886D01*
X104639669Y-101785887D01*
X104265063Y-101886262D01*
X104097793Y-101950472D01*
X104028152Y-101956120D01*
X103966513Y-101923220D01*
X103932445Y-101862219D01*
X103936766Y-101792483D01*
X103978103Y-101736153D01*
X103981810Y-101733430D01*
X104054760Y-101681935D01*
X104058258Y-101679641D01*
X104536424Y-101388862D01*
X104540053Y-101386821D01*
X105036917Y-101129367D01*
X105040721Y-101127558D01*
X105553996Y-100904611D01*
X105557914Y-100903067D01*
X106085180Y-100715676D01*
X106089159Y-100714412D01*
X106628033Y-100563427D01*
X106632100Y-100562436D01*
X107180000Y-100448580D01*
X107184124Y-100447868D01*
X107688800Y-100378503D01*
X107738510Y-100371671D01*
X107742722Y-100371238D01*
X108301256Y-100333032D01*
X108304922Y-100332890D01*
X108584986Y-100330500D01*
X146685014Y-100330500D01*
X146965074Y-100332890D01*
G37*
G04 #@! TD.AperFunction*
M02*
