G04 #@! TF.GenerationSoftware,KiCad,Pcbnew,7.0.5-unknown-202306101748~6fbdf8f0e2~ubuntu22.04.1*
G04 #@! TF.CreationDate,2024-03-26T20:54:11+00:00*
G04 #@! TF.ProjectId,things,7468696e-6773-42e6-9b69-6361645f7063,rev?*
G04 #@! TF.SameCoordinates,Original*
G04 #@! TF.FileFunction,Soldermask,Top*
G04 #@! TF.FilePolarity,Negative*
%FSLAX46Y46*%
G04 Gerber Fmt 4.6, Leading zero omitted, Abs format (unit mm)*
G04 Created by KiCad (PCBNEW 7.0.5-unknown-202306101748~6fbdf8f0e2~ubuntu22.04.1) date 2024-03-26 20:54:11*
%MOMM*%
%LPD*%
G01*
G04 APERTURE LIST*
%ADD10C,6.400000*%
%ADD11C,1.397000*%
%ADD12R,1.700000X1.700000*%
%ADD13O,1.700000X1.700000*%
%ADD14C,2.000000*%
%ADD15O,1.800000X1.800000*%
%ADD16O,1.500000X1.500000*%
%ADD17R,1.700000X3.500000*%
%ADD18R,3.500000X1.700000*%
%ADD19O,3.500000X2.200000*%
%ADD20R,2.500000X1.500000*%
%ADD21O,2.500000X1.500000*%
G04 APERTURE END LIST*
G36*
G01*
X140354000Y-114750000D02*
X140354000Y-113850000D01*
G75*
G02*
X140604000Y-113600000I250000J0D01*
G01*
X141129000Y-113600000D01*
G75*
G02*
X141379000Y-113850000I0J-250000D01*
G01*
X141379000Y-114750000D01*
G75*
G02*
X141129000Y-115000000I-250000J0D01*
G01*
X140604000Y-115000000D01*
G75*
G02*
X140354000Y-114750000I0J250000D01*
G01*
G37*
G36*
G01*
X138529000Y-114750000D02*
X138529000Y-113850000D01*
G75*
G02*
X138779000Y-113600000I250000J0D01*
G01*
X139304000Y-113600000D01*
G75*
G02*
X139554000Y-113850000I0J-250000D01*
G01*
X139554000Y-114750000D01*
G75*
G02*
X139304000Y-115000000I-250000J0D01*
G01*
X138779000Y-115000000D01*
G75*
G02*
X138529000Y-114750000I0J250000D01*
G01*
G37*
G36*
G01*
X136553000Y-113342000D02*
X136553000Y-114242000D01*
G75*
G02*
X136303000Y-114492000I-250000J0D01*
G01*
X135778000Y-114492000D01*
G75*
G02*
X135528000Y-114242000I0J250000D01*
G01*
X135528000Y-113342000D01*
G75*
G02*
X135778000Y-113092000I250000J0D01*
G01*
X136303000Y-113092000D01*
G75*
G02*
X136553000Y-113342000I0J-250000D01*
G01*
G37*
G36*
G01*
X134728000Y-113342000D02*
X134728000Y-114242000D01*
G75*
G02*
X134478000Y-114492000I-250000J0D01*
G01*
X133953000Y-114492000D01*
G75*
G02*
X133703000Y-114242000I0J250000D01*
G01*
X133703000Y-113342000D01*
G75*
G02*
X133953000Y-113092000I250000J0D01*
G01*
X134478000Y-113092000D01*
G75*
G02*
X134728000Y-113342000I0J-250000D01*
G01*
G37*
G36*
G01*
X136280000Y-183675000D02*
X136280000Y-184625000D01*
G75*
G02*
X136030000Y-184875000I-250000J0D01*
G01*
X135530000Y-184875000D01*
G75*
G02*
X135280000Y-184625000I0J250000D01*
G01*
X135280000Y-183675000D01*
G75*
G02*
X135530000Y-183425000I250000J0D01*
G01*
X136030000Y-183425000D01*
G75*
G02*
X136280000Y-183675000I0J-250000D01*
G01*
G37*
G36*
G01*
X134380000Y-183675000D02*
X134380000Y-184625000D01*
G75*
G02*
X134130000Y-184875000I-250000J0D01*
G01*
X133630000Y-184875000D01*
G75*
G02*
X133380000Y-184625000I0J250000D01*
G01*
X133380000Y-183675000D01*
G75*
G02*
X133630000Y-183425000I250000J0D01*
G01*
X134130000Y-183425000D01*
G75*
G02*
X134380000Y-183675000I0J-250000D01*
G01*
G37*
D10*
X105410000Y-105410000D03*
D11*
X105410000Y-145415000D03*
X113030000Y-145415000D03*
X105410000Y-150495000D03*
X113030000Y-150495000D03*
D12*
X103505000Y-121285000D03*
D13*
X106045000Y-121285000D03*
X108585000Y-121285000D03*
X111125000Y-121285000D03*
X113665000Y-121285000D03*
X116205000Y-121285000D03*
X118745000Y-121285000D03*
G36*
G01*
X145865000Y-142672500D02*
X144965000Y-142672500D01*
G75*
G02*
X144715000Y-142422500I0J250000D01*
G01*
X144715000Y-141897500D01*
G75*
G02*
X144965000Y-141647500I250000J0D01*
G01*
X145865000Y-141647500D01*
G75*
G02*
X146115000Y-141897500I0J-250000D01*
G01*
X146115000Y-142422500D01*
G75*
G02*
X145865000Y-142672500I-250000J0D01*
G01*
G37*
G36*
G01*
X145865000Y-140847500D02*
X144965000Y-140847500D01*
G75*
G02*
X144715000Y-140597500I0J250000D01*
G01*
X144715000Y-140072500D01*
G75*
G02*
X144965000Y-139822500I250000J0D01*
G01*
X145865000Y-139822500D01*
G75*
G02*
X146115000Y-140072500I0J-250000D01*
G01*
X146115000Y-140597500D01*
G75*
G02*
X145865000Y-140847500I-250000J0D01*
G01*
G37*
G36*
G01*
X136280000Y-186215000D02*
X136280000Y-187165000D01*
G75*
G02*
X136030000Y-187415000I-250000J0D01*
G01*
X135530000Y-187415000D01*
G75*
G02*
X135280000Y-187165000I0J250000D01*
G01*
X135280000Y-186215000D01*
G75*
G02*
X135530000Y-185965000I250000J0D01*
G01*
X136030000Y-185965000D01*
G75*
G02*
X136280000Y-186215000I0J-250000D01*
G01*
G37*
G36*
G01*
X134380000Y-186215000D02*
X134380000Y-187165000D01*
G75*
G02*
X134130000Y-187415000I-250000J0D01*
G01*
X133630000Y-187415000D01*
G75*
G02*
X133380000Y-187165000I0J250000D01*
G01*
X133380000Y-186215000D01*
G75*
G02*
X133630000Y-185965000I250000J0D01*
G01*
X134130000Y-185965000D01*
G75*
G02*
X134380000Y-186215000I0J-250000D01*
G01*
G37*
G36*
G01*
X145280000Y-121445000D02*
X145280000Y-122395000D01*
G75*
G02*
X145030000Y-122645000I-250000J0D01*
G01*
X144530000Y-122645000D01*
G75*
G02*
X144280000Y-122395000I0J250000D01*
G01*
X144280000Y-121445000D01*
G75*
G02*
X144530000Y-121195000I250000J0D01*
G01*
X145030000Y-121195000D01*
G75*
G02*
X145280000Y-121445000I0J-250000D01*
G01*
G37*
G36*
G01*
X143380000Y-121445000D02*
X143380000Y-122395000D01*
G75*
G02*
X143130000Y-122645000I-250000J0D01*
G01*
X142630000Y-122645000D01*
G75*
G02*
X142380000Y-122395000I0J250000D01*
G01*
X142380000Y-121445000D01*
G75*
G02*
X142630000Y-121195000I250000J0D01*
G01*
X143130000Y-121195000D01*
G75*
G02*
X143380000Y-121445000I0J-250000D01*
G01*
G37*
D10*
X149860000Y-184785000D03*
G36*
G01*
X123960000Y-108425000D02*
X123960000Y-107475000D01*
G75*
G02*
X124210000Y-107225000I250000J0D01*
G01*
X124710000Y-107225000D01*
G75*
G02*
X124960000Y-107475000I0J-250000D01*
G01*
X124960000Y-108425000D01*
G75*
G02*
X124710000Y-108675000I-250000J0D01*
G01*
X124210000Y-108675000D01*
G75*
G02*
X123960000Y-108425000I0J250000D01*
G01*
G37*
G36*
G01*
X125860000Y-108425000D02*
X125860000Y-107475000D01*
G75*
G02*
X126110000Y-107225000I250000J0D01*
G01*
X126610000Y-107225000D01*
G75*
G02*
X126860000Y-107475000I0J-250000D01*
G01*
X126860000Y-108425000D01*
G75*
G02*
X126610000Y-108675000I-250000J0D01*
G01*
X126110000Y-108675000D01*
G75*
G02*
X125860000Y-108425000I0J250000D01*
G01*
G37*
X105410000Y-184785000D03*
G36*
G01*
X142442500Y-119830000D02*
X142442500Y-118930000D01*
G75*
G02*
X142692500Y-118680000I250000J0D01*
G01*
X143217500Y-118680000D01*
G75*
G02*
X143467500Y-118930000I0J-250000D01*
G01*
X143467500Y-119830000D01*
G75*
G02*
X143217500Y-120080000I-250000J0D01*
G01*
X142692500Y-120080000D01*
G75*
G02*
X142442500Y-119830000I0J250000D01*
G01*
G37*
G36*
G01*
X144267500Y-119830000D02*
X144267500Y-118930000D01*
G75*
G02*
X144517500Y-118680000I250000J0D01*
G01*
X145042500Y-118680000D01*
G75*
G02*
X145292500Y-118930000I0J-250000D01*
G01*
X145292500Y-119830000D01*
G75*
G02*
X145042500Y-120080000I-250000J0D01*
G01*
X144517500Y-120080000D01*
G75*
G02*
X144267500Y-119830000I0J250000D01*
G01*
G37*
G36*
G01*
X129557500Y-184600000D02*
X129557500Y-183700000D01*
G75*
G02*
X129807500Y-183450000I250000J0D01*
G01*
X130332500Y-183450000D01*
G75*
G02*
X130582500Y-183700000I0J-250000D01*
G01*
X130582500Y-184600000D01*
G75*
G02*
X130332500Y-184850000I-250000J0D01*
G01*
X129807500Y-184850000D01*
G75*
G02*
X129557500Y-184600000I0J250000D01*
G01*
G37*
G36*
G01*
X131382500Y-184600000D02*
X131382500Y-183700000D01*
G75*
G02*
X131632500Y-183450000I250000J0D01*
G01*
X132157500Y-183450000D01*
G75*
G02*
X132407500Y-183700000I0J-250000D01*
G01*
X132407500Y-184600000D01*
G75*
G02*
X132157500Y-184850000I-250000J0D01*
G01*
X131632500Y-184850000D01*
G75*
G02*
X131382500Y-184600000I0J250000D01*
G01*
G37*
D11*
X116205000Y-145415000D03*
X123825000Y-145415000D03*
X116205000Y-150495000D03*
X123825000Y-150495000D03*
G36*
G01*
X144153000Y-135032200D02*
X144153000Y-134207800D01*
G75*
G02*
X144262800Y-134098000I109800J0D01*
G01*
X144507200Y-134098000D01*
G75*
G02*
X144617000Y-134207800I0J-109800D01*
G01*
X144617000Y-135032200D01*
G75*
G02*
X144507200Y-135142000I-109800J0D01*
G01*
X144262800Y-135142000D01*
G75*
G02*
X144153000Y-135032200I0J109800D01*
G01*
G37*
G36*
G01*
X144653000Y-135032200D02*
X144653000Y-134207800D01*
G75*
G02*
X144762800Y-134098000I109800J0D01*
G01*
X145007200Y-134098000D01*
G75*
G02*
X145117000Y-134207800I0J-109800D01*
G01*
X145117000Y-135032200D01*
G75*
G02*
X145007200Y-135142000I-109800J0D01*
G01*
X144762800Y-135142000D01*
G75*
G02*
X144653000Y-135032200I0J109800D01*
G01*
G37*
G36*
G01*
X145153000Y-135032200D02*
X145153000Y-134207800D01*
G75*
G02*
X145262800Y-134098000I109800J0D01*
G01*
X145507200Y-134098000D01*
G75*
G02*
X145617000Y-134207800I0J-109800D01*
G01*
X145617000Y-135032200D01*
G75*
G02*
X145507200Y-135142000I-109800J0D01*
G01*
X145262800Y-135142000D01*
G75*
G02*
X145153000Y-135032200I0J109800D01*
G01*
G37*
G36*
G01*
X145653000Y-135032200D02*
X145653000Y-134207800D01*
G75*
G02*
X145762800Y-134098000I109800J0D01*
G01*
X146007200Y-134098000D01*
G75*
G02*
X146117000Y-134207800I0J-109800D01*
G01*
X146117000Y-135032200D01*
G75*
G02*
X146007200Y-135142000I-109800J0D01*
G01*
X145762800Y-135142000D01*
G75*
G02*
X145653000Y-135032200I0J109800D01*
G01*
G37*
G36*
G01*
X146153000Y-135032200D02*
X146153000Y-134207800D01*
G75*
G02*
X146262800Y-134098000I109800J0D01*
G01*
X146507200Y-134098000D01*
G75*
G02*
X146617000Y-134207800I0J-109800D01*
G01*
X146617000Y-135032200D01*
G75*
G02*
X146507200Y-135142000I-109800J0D01*
G01*
X146262800Y-135142000D01*
G75*
G02*
X146153000Y-135032200I0J109800D01*
G01*
G37*
G36*
G01*
X146942800Y-133418000D02*
X147767200Y-133418000D01*
G75*
G02*
X147877000Y-133527800I0J-109800D01*
G01*
X147877000Y-133772200D01*
G75*
G02*
X147767200Y-133882000I-109800J0D01*
G01*
X146942800Y-133882000D01*
G75*
G02*
X146833000Y-133772200I0J109800D01*
G01*
X146833000Y-133527800D01*
G75*
G02*
X146942800Y-133418000I109800J0D01*
G01*
G37*
G36*
G01*
X146942800Y-132918000D02*
X147767200Y-132918000D01*
G75*
G02*
X147877000Y-133027800I0J-109800D01*
G01*
X147877000Y-133272200D01*
G75*
G02*
X147767200Y-133382000I-109800J0D01*
G01*
X146942800Y-133382000D01*
G75*
G02*
X146833000Y-133272200I0J109800D01*
G01*
X146833000Y-133027800D01*
G75*
G02*
X146942800Y-132918000I109800J0D01*
G01*
G37*
G36*
G01*
X146942800Y-132418000D02*
X147767200Y-132418000D01*
G75*
G02*
X147877000Y-132527800I0J-109800D01*
G01*
X147877000Y-132772200D01*
G75*
G02*
X147767200Y-132882000I-109800J0D01*
G01*
X146942800Y-132882000D01*
G75*
G02*
X146833000Y-132772200I0J109800D01*
G01*
X146833000Y-132527800D01*
G75*
G02*
X146942800Y-132418000I109800J0D01*
G01*
G37*
G36*
G01*
X146942800Y-131918000D02*
X147767200Y-131918000D01*
G75*
G02*
X147877000Y-132027800I0J-109800D01*
G01*
X147877000Y-132272200D01*
G75*
G02*
X147767200Y-132382000I-109800J0D01*
G01*
X146942800Y-132382000D01*
G75*
G02*
X146833000Y-132272200I0J109800D01*
G01*
X146833000Y-132027800D01*
G75*
G02*
X146942800Y-131918000I109800J0D01*
G01*
G37*
G36*
G01*
X146942800Y-131418000D02*
X147767200Y-131418000D01*
G75*
G02*
X147877000Y-131527800I0J-109800D01*
G01*
X147877000Y-131772200D01*
G75*
G02*
X147767200Y-131882000I-109800J0D01*
G01*
X146942800Y-131882000D01*
G75*
G02*
X146833000Y-131772200I0J109800D01*
G01*
X146833000Y-131527800D01*
G75*
G02*
X146942800Y-131418000I109800J0D01*
G01*
G37*
G36*
G01*
X146153000Y-131092200D02*
X146153000Y-130267800D01*
G75*
G02*
X146262800Y-130158000I109800J0D01*
G01*
X146507200Y-130158000D01*
G75*
G02*
X146617000Y-130267800I0J-109800D01*
G01*
X146617000Y-131092200D01*
G75*
G02*
X146507200Y-131202000I-109800J0D01*
G01*
X146262800Y-131202000D01*
G75*
G02*
X146153000Y-131092200I0J109800D01*
G01*
G37*
G36*
G01*
X145653000Y-131092200D02*
X145653000Y-130267800D01*
G75*
G02*
X145762800Y-130158000I109800J0D01*
G01*
X146007200Y-130158000D01*
G75*
G02*
X146117000Y-130267800I0J-109800D01*
G01*
X146117000Y-131092200D01*
G75*
G02*
X146007200Y-131202000I-109800J0D01*
G01*
X145762800Y-131202000D01*
G75*
G02*
X145653000Y-131092200I0J109800D01*
G01*
G37*
G36*
G01*
X145153000Y-131092200D02*
X145153000Y-130267800D01*
G75*
G02*
X145262800Y-130158000I109800J0D01*
G01*
X145507200Y-130158000D01*
G75*
G02*
X145617000Y-130267800I0J-109800D01*
G01*
X145617000Y-131092200D01*
G75*
G02*
X145507200Y-131202000I-109800J0D01*
G01*
X145262800Y-131202000D01*
G75*
G02*
X145153000Y-131092200I0J109800D01*
G01*
G37*
G36*
G01*
X144653000Y-131092200D02*
X144653000Y-130267800D01*
G75*
G02*
X144762800Y-130158000I109800J0D01*
G01*
X145007200Y-130158000D01*
G75*
G02*
X145117000Y-130267800I0J-109800D01*
G01*
X145117000Y-131092200D01*
G75*
G02*
X145007200Y-131202000I-109800J0D01*
G01*
X144762800Y-131202000D01*
G75*
G02*
X144653000Y-131092200I0J109800D01*
G01*
G37*
G36*
G01*
X144153000Y-131092200D02*
X144153000Y-130267800D01*
G75*
G02*
X144262800Y-130158000I109800J0D01*
G01*
X144507200Y-130158000D01*
G75*
G02*
X144617000Y-130267800I0J-109800D01*
G01*
X144617000Y-131092200D01*
G75*
G02*
X144507200Y-131202000I-109800J0D01*
G01*
X144262800Y-131202000D01*
G75*
G02*
X144153000Y-131092200I0J109800D01*
G01*
G37*
G36*
G01*
X143002800Y-131418000D02*
X143827200Y-131418000D01*
G75*
G02*
X143937000Y-131527800I0J-109800D01*
G01*
X143937000Y-131772200D01*
G75*
G02*
X143827200Y-131882000I-109800J0D01*
G01*
X143002800Y-131882000D01*
G75*
G02*
X142893000Y-131772200I0J109800D01*
G01*
X142893000Y-131527800D01*
G75*
G02*
X143002800Y-131418000I109800J0D01*
G01*
G37*
G36*
G01*
X143002800Y-131918000D02*
X143827200Y-131918000D01*
G75*
G02*
X143937000Y-132027800I0J-109800D01*
G01*
X143937000Y-132272200D01*
G75*
G02*
X143827200Y-132382000I-109800J0D01*
G01*
X143002800Y-132382000D01*
G75*
G02*
X142893000Y-132272200I0J109800D01*
G01*
X142893000Y-132027800D01*
G75*
G02*
X143002800Y-131918000I109800J0D01*
G01*
G37*
G36*
G01*
X143002800Y-132418000D02*
X143827200Y-132418000D01*
G75*
G02*
X143937000Y-132527800I0J-109800D01*
G01*
X143937000Y-132772200D01*
G75*
G02*
X143827200Y-132882000I-109800J0D01*
G01*
X143002800Y-132882000D01*
G75*
G02*
X142893000Y-132772200I0J109800D01*
G01*
X142893000Y-132527800D01*
G75*
G02*
X143002800Y-132418000I109800J0D01*
G01*
G37*
G36*
G01*
X143002800Y-132918000D02*
X143827200Y-132918000D01*
G75*
G02*
X143937000Y-133027800I0J-109800D01*
G01*
X143937000Y-133272200D01*
G75*
G02*
X143827200Y-133382000I-109800J0D01*
G01*
X143002800Y-133382000D01*
G75*
G02*
X142893000Y-133272200I0J109800D01*
G01*
X142893000Y-133027800D01*
G75*
G02*
X143002800Y-132918000I109800J0D01*
G01*
G37*
G36*
G01*
X143002800Y-133418000D02*
X143827200Y-133418000D01*
G75*
G02*
X143937000Y-133527800I0J-109800D01*
G01*
X143937000Y-133772200D01*
G75*
G02*
X143827200Y-133882000I-109800J0D01*
G01*
X143002800Y-133882000D01*
G75*
G02*
X142893000Y-133772200I0J109800D01*
G01*
X142893000Y-133527800D01*
G75*
G02*
X143002800Y-133418000I109800J0D01*
G01*
G37*
G36*
G01*
X146685000Y-134052000D02*
X144085000Y-134052000D01*
G75*
G02*
X143983000Y-133950000I0J102000D01*
G01*
X143983000Y-131350000D01*
G75*
G02*
X144085000Y-131248000I102000J0D01*
G01*
X146685000Y-131248000D01*
G75*
G02*
X146787000Y-131350000I0J-102000D01*
G01*
X146787000Y-133950000D01*
G75*
G02*
X146685000Y-134052000I-102000J0D01*
G01*
G37*
D12*
X123825000Y-114935000D03*
D13*
X126365000Y-114935000D03*
X128905000Y-114935000D03*
X131445000Y-114935000D03*
D14*
X116031000Y-104780000D03*
X121031000Y-109780000D03*
X118031000Y-109780000D03*
X111031000Y-109780000D03*
X114031000Y-109780000D03*
G36*
G01*
X145292500Y-113850000D02*
X145292500Y-114750000D01*
G75*
G02*
X145042500Y-115000000I-250000J0D01*
G01*
X144517500Y-115000000D01*
G75*
G02*
X144267500Y-114750000I0J250000D01*
G01*
X144267500Y-113850000D01*
G75*
G02*
X144517500Y-113600000I250000J0D01*
G01*
X145042500Y-113600000D01*
G75*
G02*
X145292500Y-113850000I0J-250000D01*
G01*
G37*
G36*
G01*
X143467500Y-113850000D02*
X143467500Y-114750000D01*
G75*
G02*
X143217500Y-115000000I-250000J0D01*
G01*
X142692500Y-115000000D01*
G75*
G02*
X142442500Y-114750000I0J250000D01*
G01*
X142442500Y-113850000D01*
G75*
G02*
X142692500Y-113600000I250000J0D01*
G01*
X143217500Y-113600000D01*
G75*
G02*
X143467500Y-113850000I0J-250000D01*
G01*
G37*
G36*
G01*
X144305000Y-123330000D02*
X145255000Y-123330000D01*
G75*
G02*
X145505000Y-123580000I0J-250000D01*
G01*
X145505000Y-124080000D01*
G75*
G02*
X145255000Y-124330000I-250000J0D01*
G01*
X144305000Y-124330000D01*
G75*
G02*
X144055000Y-124080000I0J250000D01*
G01*
X144055000Y-123580000D01*
G75*
G02*
X144305000Y-123330000I250000J0D01*
G01*
G37*
G36*
G01*
X144305000Y-125230000D02*
X145255000Y-125230000D01*
G75*
G02*
X145505000Y-125480000I0J-250000D01*
G01*
X145505000Y-125980000D01*
G75*
G02*
X145255000Y-126230000I-250000J0D01*
G01*
X144305000Y-126230000D01*
G75*
G02*
X144055000Y-125980000I0J250000D01*
G01*
X144055000Y-125480000D01*
G75*
G02*
X144305000Y-125230000I250000J0D01*
G01*
G37*
X139145000Y-104780000D03*
X144145000Y-109780000D03*
X141145000Y-109780000D03*
X134145000Y-109780000D03*
X137145000Y-109780000D03*
D12*
X151765000Y-134620000D03*
D13*
X151765000Y-137160000D03*
G36*
G01*
X113007500Y-155321250D02*
X113007500Y-154558750D01*
G75*
G02*
X113226250Y-154340000I218750J0D01*
G01*
X113663750Y-154340000D01*
G75*
G02*
X113882500Y-154558750I0J-218750D01*
G01*
X113882500Y-155321250D01*
G75*
G02*
X113663750Y-155540000I-218750J0D01*
G01*
X113226250Y-155540000D01*
G75*
G02*
X113007500Y-155321250I0J218750D01*
G01*
G37*
G36*
G01*
X115132500Y-155321250D02*
X115132500Y-154558750D01*
G75*
G02*
X115351250Y-154340000I218750J0D01*
G01*
X115788750Y-154340000D01*
G75*
G02*
X116007500Y-154558750I0J-218750D01*
G01*
X116007500Y-155321250D01*
G75*
G02*
X115788750Y-155540000I-218750J0D01*
G01*
X115351250Y-155540000D01*
G75*
G02*
X115132500Y-155321250I0J218750D01*
G01*
G37*
G36*
G01*
X146853000Y-115085000D02*
X146853000Y-114785000D01*
G75*
G02*
X147003000Y-114635000I150000J0D01*
G01*
X148653000Y-114635000D01*
G75*
G02*
X148803000Y-114785000I0J-150000D01*
G01*
X148803000Y-115085000D01*
G75*
G02*
X148653000Y-115235000I-150000J0D01*
G01*
X147003000Y-115235000D01*
G75*
G02*
X146853000Y-115085000I0J150000D01*
G01*
G37*
G36*
G01*
X146853000Y-116355000D02*
X146853000Y-116055000D01*
G75*
G02*
X147003000Y-115905000I150000J0D01*
G01*
X148653000Y-115905000D01*
G75*
G02*
X148803000Y-116055000I0J-150000D01*
G01*
X148803000Y-116355000D01*
G75*
G02*
X148653000Y-116505000I-150000J0D01*
G01*
X147003000Y-116505000D01*
G75*
G02*
X146853000Y-116355000I0J150000D01*
G01*
G37*
G36*
G01*
X146853000Y-117625000D02*
X146853000Y-117325000D01*
G75*
G02*
X147003000Y-117175000I150000J0D01*
G01*
X148653000Y-117175000D01*
G75*
G02*
X148803000Y-117325000I0J-150000D01*
G01*
X148803000Y-117625000D01*
G75*
G02*
X148653000Y-117775000I-150000J0D01*
G01*
X147003000Y-117775000D01*
G75*
G02*
X146853000Y-117625000I0J150000D01*
G01*
G37*
G36*
G01*
X146853000Y-118895000D02*
X146853000Y-118595000D01*
G75*
G02*
X147003000Y-118445000I150000J0D01*
G01*
X148653000Y-118445000D01*
G75*
G02*
X148803000Y-118595000I0J-150000D01*
G01*
X148803000Y-118895000D01*
G75*
G02*
X148653000Y-119045000I-150000J0D01*
G01*
X147003000Y-119045000D01*
G75*
G02*
X146853000Y-118895000I0J150000D01*
G01*
G37*
G36*
G01*
X151803000Y-118895000D02*
X151803000Y-118595000D01*
G75*
G02*
X151953000Y-118445000I150000J0D01*
G01*
X153603000Y-118445000D01*
G75*
G02*
X153753000Y-118595000I0J-150000D01*
G01*
X153753000Y-118895000D01*
G75*
G02*
X153603000Y-119045000I-150000J0D01*
G01*
X151953000Y-119045000D01*
G75*
G02*
X151803000Y-118895000I0J150000D01*
G01*
G37*
G36*
G01*
X151803000Y-117625000D02*
X151803000Y-117325000D01*
G75*
G02*
X151953000Y-117175000I150000J0D01*
G01*
X153603000Y-117175000D01*
G75*
G02*
X153753000Y-117325000I0J-150000D01*
G01*
X153753000Y-117625000D01*
G75*
G02*
X153603000Y-117775000I-150000J0D01*
G01*
X151953000Y-117775000D01*
G75*
G02*
X151803000Y-117625000I0J150000D01*
G01*
G37*
G36*
G01*
X151803000Y-116355000D02*
X151803000Y-116055000D01*
G75*
G02*
X151953000Y-115905000I150000J0D01*
G01*
X153603000Y-115905000D01*
G75*
G02*
X153753000Y-116055000I0J-150000D01*
G01*
X153753000Y-116355000D01*
G75*
G02*
X153603000Y-116505000I-150000J0D01*
G01*
X151953000Y-116505000D01*
G75*
G02*
X151803000Y-116355000I0J150000D01*
G01*
G37*
G36*
G01*
X151803000Y-115085000D02*
X151803000Y-114785000D01*
G75*
G02*
X151953000Y-114635000I150000J0D01*
G01*
X153603000Y-114635000D01*
G75*
G02*
X153753000Y-114785000I0J-150000D01*
G01*
X153753000Y-115085000D01*
G75*
G02*
X153603000Y-115235000I-150000J0D01*
G01*
X151953000Y-115235000D01*
G75*
G02*
X151803000Y-115085000I0J150000D01*
G01*
G37*
G36*
G01*
X127757500Y-108400000D02*
X127757500Y-107500000D01*
G75*
G02*
X128007500Y-107250000I250000J0D01*
G01*
X128532500Y-107250000D01*
G75*
G02*
X128782500Y-107500000I0J-250000D01*
G01*
X128782500Y-108400000D01*
G75*
G02*
X128532500Y-108650000I-250000J0D01*
G01*
X128007500Y-108650000D01*
G75*
G02*
X127757500Y-108400000I0J250000D01*
G01*
G37*
G36*
G01*
X129582500Y-108400000D02*
X129582500Y-107500000D01*
G75*
G02*
X129832500Y-107250000I250000J0D01*
G01*
X130357500Y-107250000D01*
G75*
G02*
X130607500Y-107500000I0J-250000D01*
G01*
X130607500Y-108400000D01*
G75*
G02*
X130357500Y-108650000I-250000J0D01*
G01*
X129832500Y-108650000D01*
G75*
G02*
X129582500Y-108400000I0J250000D01*
G01*
G37*
G36*
G01*
X127757500Y-110940000D02*
X127757500Y-110040000D01*
G75*
G02*
X128007500Y-109790000I250000J0D01*
G01*
X128532500Y-109790000D01*
G75*
G02*
X128782500Y-110040000I0J-250000D01*
G01*
X128782500Y-110940000D01*
G75*
G02*
X128532500Y-111190000I-250000J0D01*
G01*
X128007500Y-111190000D01*
G75*
G02*
X127757500Y-110940000I0J250000D01*
G01*
G37*
G36*
G01*
X129582500Y-110940000D02*
X129582500Y-110040000D01*
G75*
G02*
X129832500Y-109790000I250000J0D01*
G01*
X130357500Y-109790000D01*
G75*
G02*
X130607500Y-110040000I0J-250000D01*
G01*
X130607500Y-110940000D01*
G75*
G02*
X130357500Y-111190000I-250000J0D01*
G01*
X129832500Y-111190000D01*
G75*
G02*
X129582500Y-110940000I0J250000D01*
G01*
G37*
G36*
G01*
X153342000Y-112301000D02*
X153342000Y-113251000D01*
G75*
G02*
X153092000Y-113501000I-250000J0D01*
G01*
X152592000Y-113501000D01*
G75*
G02*
X152342000Y-113251000I0J250000D01*
G01*
X152342000Y-112301000D01*
G75*
G02*
X152592000Y-112051000I250000J0D01*
G01*
X153092000Y-112051000D01*
G75*
G02*
X153342000Y-112301000I0J-250000D01*
G01*
G37*
G36*
G01*
X151442000Y-112301000D02*
X151442000Y-113251000D01*
G75*
G02*
X151192000Y-113501000I-250000J0D01*
G01*
X150692000Y-113501000D01*
G75*
G02*
X150442000Y-113251000I0J250000D01*
G01*
X150442000Y-112301000D01*
G75*
G02*
X150692000Y-112051000I250000J0D01*
G01*
X151192000Y-112051000D01*
G75*
G02*
X151442000Y-112301000I0J-250000D01*
G01*
G37*
D11*
X142240000Y-145415000D03*
X149860000Y-145415000D03*
X142240000Y-150495000D03*
X149860000Y-150495000D03*
G36*
G01*
X126877500Y-110040000D02*
X126877500Y-110940000D01*
G75*
G02*
X126627500Y-111190000I-250000J0D01*
G01*
X126102500Y-111190000D01*
G75*
G02*
X125852500Y-110940000I0J250000D01*
G01*
X125852500Y-110040000D01*
G75*
G02*
X126102500Y-109790000I250000J0D01*
G01*
X126627500Y-109790000D01*
G75*
G02*
X126877500Y-110040000I0J-250000D01*
G01*
G37*
G36*
G01*
X125052500Y-110040000D02*
X125052500Y-110940000D01*
G75*
G02*
X124802500Y-111190000I-250000J0D01*
G01*
X124277500Y-111190000D01*
G75*
G02*
X124027500Y-110940000I0J250000D01*
G01*
X124027500Y-110040000D01*
G75*
G02*
X124277500Y-109790000I250000J0D01*
G01*
X124802500Y-109790000D01*
G75*
G02*
X125052500Y-110040000I0J-250000D01*
G01*
G37*
G36*
G01*
X137295000Y-184720000D02*
X137295000Y-183770000D01*
G75*
G02*
X137545000Y-183520000I250000J0D01*
G01*
X138045000Y-183520000D01*
G75*
G02*
X138295000Y-183770000I0J-250000D01*
G01*
X138295000Y-184720000D01*
G75*
G02*
X138045000Y-184970000I-250000J0D01*
G01*
X137545000Y-184970000D01*
G75*
G02*
X137295000Y-184720000I0J250000D01*
G01*
G37*
G36*
G01*
X139195000Y-184720000D02*
X139195000Y-183770000D01*
G75*
G02*
X139445000Y-183520000I250000J0D01*
G01*
X139945000Y-183520000D01*
G75*
G02*
X140195000Y-183770000I0J-250000D01*
G01*
X140195000Y-184720000D01*
G75*
G02*
X139945000Y-184970000I-250000J0D01*
G01*
X139445000Y-184970000D01*
G75*
G02*
X139195000Y-184720000I0J250000D01*
G01*
G37*
D12*
X139700000Y-126370000D03*
D13*
X139700000Y-123830000D03*
D15*
X103635000Y-171635000D03*
D16*
X106665000Y-171335000D03*
X106665000Y-166485000D03*
D15*
X103635000Y-166185000D03*
D13*
X103505000Y-177800000D03*
D17*
X103505000Y-178700000D03*
D13*
X106045000Y-177800000D03*
D17*
X106045000Y-178700000D03*
D12*
X108585000Y-177800000D03*
D17*
X108585000Y-178700000D03*
D13*
X111125000Y-177800000D03*
D17*
X111125000Y-178700000D03*
D13*
X113665000Y-177800000D03*
D17*
X113665000Y-178700000D03*
D13*
X116205000Y-177800000D03*
D17*
X116205000Y-178700000D03*
D13*
X118745000Y-177800000D03*
D17*
X118745000Y-178700000D03*
D12*
X121285000Y-177800000D03*
D17*
X121285000Y-178700000D03*
D13*
X123825000Y-177800000D03*
D17*
X123825000Y-178700000D03*
D13*
X126365000Y-177800000D03*
D17*
X126365000Y-178700000D03*
D13*
X128905000Y-177800000D03*
D17*
X128905000Y-178700000D03*
D13*
X131445000Y-177800000D03*
D17*
X131445000Y-178700000D03*
D12*
X133985000Y-177800000D03*
D17*
X133985000Y-178700000D03*
D13*
X136525000Y-177800000D03*
D17*
X136525000Y-178700000D03*
D13*
X139065000Y-177800000D03*
D17*
X139065000Y-178700000D03*
D13*
X141605000Y-177800000D03*
D17*
X141605000Y-178700000D03*
D13*
X144145000Y-177800000D03*
D17*
X144145000Y-178700000D03*
D12*
X146685000Y-177800000D03*
D17*
X146685000Y-178700000D03*
D13*
X149225000Y-177800000D03*
D17*
X149225000Y-178700000D03*
D13*
X151765000Y-177800000D03*
D17*
X151765000Y-178700000D03*
D13*
X151765000Y-160020000D03*
D17*
X151765000Y-159120000D03*
D13*
X149225000Y-160020000D03*
D17*
X149225000Y-159120000D03*
D12*
X146685000Y-160020000D03*
D17*
X146685000Y-159120000D03*
D13*
X144145000Y-160020000D03*
D17*
X144145000Y-159120000D03*
D13*
X141605000Y-160020000D03*
D17*
X141605000Y-159120000D03*
D13*
X139065000Y-160020000D03*
D17*
X139065000Y-159120000D03*
D13*
X136525000Y-160020000D03*
D17*
X136525000Y-159120000D03*
D12*
X133985000Y-160020000D03*
D17*
X133985000Y-159120000D03*
D13*
X131445000Y-160020000D03*
D17*
X131445000Y-159120000D03*
D13*
X128905000Y-160020000D03*
D17*
X128905000Y-159120000D03*
D13*
X126365000Y-160020000D03*
D17*
X126365000Y-159120000D03*
D13*
X123825000Y-160020000D03*
D17*
X123825000Y-159120000D03*
D12*
X121285000Y-160020000D03*
D17*
X121285000Y-159120000D03*
D13*
X118745000Y-160020000D03*
D17*
X118745000Y-159120000D03*
D13*
X116205000Y-160020000D03*
D17*
X116205000Y-159120000D03*
D13*
X113665000Y-160020000D03*
D17*
X113665000Y-159120000D03*
D13*
X111125000Y-160020000D03*
D17*
X111125000Y-159120000D03*
D12*
X108585000Y-160020000D03*
D17*
X108585000Y-159120000D03*
D13*
X106045000Y-160020000D03*
D17*
X106045000Y-159120000D03*
D13*
X103505000Y-160020000D03*
D17*
X103505000Y-159120000D03*
D13*
X151535000Y-171450000D03*
D18*
X152435000Y-171450000D03*
D12*
X151535000Y-168910000D03*
D18*
X152435000Y-168910000D03*
D13*
X151535000Y-166370000D03*
D18*
X152435000Y-166370000D03*
D10*
X149860000Y-105410000D03*
D11*
X131445000Y-145415000D03*
X139065000Y-145415000D03*
X131445000Y-150495000D03*
X139065000Y-150495000D03*
G36*
G01*
X106450000Y-155321250D02*
X106450000Y-154558750D01*
G75*
G02*
X106668750Y-154340000I218750J0D01*
G01*
X107106250Y-154340000D01*
G75*
G02*
X107325000Y-154558750I0J-218750D01*
G01*
X107325000Y-155321250D01*
G75*
G02*
X107106250Y-155540000I-218750J0D01*
G01*
X106668750Y-155540000D01*
G75*
G02*
X106450000Y-155321250I0J218750D01*
G01*
G37*
G36*
G01*
X108575000Y-155321250D02*
X108575000Y-154558750D01*
G75*
G02*
X108793750Y-154340000I218750J0D01*
G01*
X109231250Y-154340000D01*
G75*
G02*
X109450000Y-154558750I0J-218750D01*
G01*
X109450000Y-155321250D01*
G75*
G02*
X109231250Y-155540000I-218750J0D01*
G01*
X108793750Y-155540000D01*
G75*
G02*
X108575000Y-155321250I0J218750D01*
G01*
G37*
G36*
G01*
X148405000Y-142672500D02*
X147505000Y-142672500D01*
G75*
G02*
X147255000Y-142422500I0J250000D01*
G01*
X147255000Y-141897500D01*
G75*
G02*
X147505000Y-141647500I250000J0D01*
G01*
X148405000Y-141647500D01*
G75*
G02*
X148655000Y-141897500I0J-250000D01*
G01*
X148655000Y-142422500D01*
G75*
G02*
X148405000Y-142672500I-250000J0D01*
G01*
G37*
G36*
G01*
X148405000Y-140847500D02*
X147505000Y-140847500D01*
G75*
G02*
X147255000Y-140597500I0J250000D01*
G01*
X147255000Y-140072500D01*
G75*
G02*
X147505000Y-139822500I250000J0D01*
G01*
X148405000Y-139822500D01*
G75*
G02*
X148655000Y-140072500I0J-250000D01*
G01*
X148655000Y-140597500D01*
G75*
G02*
X148405000Y-140847500I-250000J0D01*
G01*
G37*
G36*
G01*
X145280000Y-116365000D02*
X145280000Y-117315000D01*
G75*
G02*
X145030000Y-117565000I-250000J0D01*
G01*
X144530000Y-117565000D01*
G75*
G02*
X144280000Y-117315000I0J250000D01*
G01*
X144280000Y-116365000D01*
G75*
G02*
X144530000Y-116115000I250000J0D01*
G01*
X145030000Y-116115000D01*
G75*
G02*
X145280000Y-116365000I0J-250000D01*
G01*
G37*
G36*
G01*
X143380000Y-116365000D02*
X143380000Y-117315000D01*
G75*
G02*
X143130000Y-117565000I-250000J0D01*
G01*
X142630000Y-117565000D01*
G75*
G02*
X142380000Y-117315000I0J250000D01*
G01*
X142380000Y-116365000D01*
G75*
G02*
X142630000Y-116115000I250000J0D01*
G01*
X143130000Y-116115000D01*
G75*
G02*
X143380000Y-116365000I0J-250000D01*
G01*
G37*
D19*
X151765000Y-122805000D03*
X151765000Y-131005000D03*
D20*
X151765000Y-124905000D03*
D21*
X151765000Y-126905000D03*
X151765000Y-128905000D03*
G36*
G01*
X142080000Y-136385000D02*
X141130000Y-136385000D01*
G75*
G02*
X140880000Y-136135000I0J250000D01*
G01*
X140880000Y-135635000D01*
G75*
G02*
X141130000Y-135385000I250000J0D01*
G01*
X142080000Y-135385000D01*
G75*
G02*
X142330000Y-135635000I0J-250000D01*
G01*
X142330000Y-136135000D01*
G75*
G02*
X142080000Y-136385000I-250000J0D01*
G01*
G37*
G36*
G01*
X142080000Y-134485000D02*
X141130000Y-134485000D01*
G75*
G02*
X140880000Y-134235000I0J250000D01*
G01*
X140880000Y-133735000D01*
G75*
G02*
X141130000Y-133485000I250000J0D01*
G01*
X142080000Y-133485000D01*
G75*
G02*
X142330000Y-133735000I0J-250000D01*
G01*
X142330000Y-134235000D01*
G75*
G02*
X142080000Y-134485000I-250000J0D01*
G01*
G37*
D12*
X139700000Y-139065000D03*
D13*
X139700000Y-141605000D03*
G36*
G01*
X129557500Y-187140000D02*
X129557500Y-186240000D01*
G75*
G02*
X129807500Y-185990000I250000J0D01*
G01*
X130332500Y-185990000D01*
G75*
G02*
X130582500Y-186240000I0J-250000D01*
G01*
X130582500Y-187140000D01*
G75*
G02*
X130332500Y-187390000I-250000J0D01*
G01*
X129807500Y-187390000D01*
G75*
G02*
X129557500Y-187140000I0J250000D01*
G01*
G37*
G36*
G01*
X131382500Y-187140000D02*
X131382500Y-186240000D01*
G75*
G02*
X131632500Y-185990000I250000J0D01*
G01*
X132157500Y-185990000D01*
G75*
G02*
X132407500Y-186240000I0J-250000D01*
G01*
X132407500Y-187140000D01*
G75*
G02*
X132157500Y-187390000I-250000J0D01*
G01*
X131632500Y-187390000D01*
G75*
G02*
X131382500Y-187140000I0J250000D01*
G01*
G37*
G36*
G01*
X146845000Y-123330000D02*
X147795000Y-123330000D01*
G75*
G02*
X148045000Y-123580000I0J-250000D01*
G01*
X148045000Y-124080000D01*
G75*
G02*
X147795000Y-124330000I-250000J0D01*
G01*
X146845000Y-124330000D01*
G75*
G02*
X146595000Y-124080000I0J250000D01*
G01*
X146595000Y-123580000D01*
G75*
G02*
X146845000Y-123330000I250000J0D01*
G01*
G37*
G36*
G01*
X146845000Y-125230000D02*
X147795000Y-125230000D01*
G75*
G02*
X148045000Y-125480000I0J-250000D01*
G01*
X148045000Y-125980000D01*
G75*
G02*
X147795000Y-126230000I-250000J0D01*
G01*
X146845000Y-126230000D01*
G75*
G02*
X146595000Y-125980000I0J250000D01*
G01*
X146595000Y-125480000D01*
G75*
G02*
X146845000Y-125230000I250000J0D01*
G01*
G37*
D12*
X126365000Y-104140000D03*
D13*
X128905000Y-104140000D03*
G36*
G01*
X137295000Y-187165000D02*
X137295000Y-186215000D01*
G75*
G02*
X137545000Y-185965000I250000J0D01*
G01*
X138045000Y-185965000D01*
G75*
G02*
X138295000Y-186215000I0J-250000D01*
G01*
X138295000Y-187165000D01*
G75*
G02*
X138045000Y-187415000I-250000J0D01*
G01*
X137545000Y-187415000D01*
G75*
G02*
X137295000Y-187165000I0J250000D01*
G01*
G37*
G36*
G01*
X139195000Y-187165000D02*
X139195000Y-186215000D01*
G75*
G02*
X139445000Y-185965000I250000J0D01*
G01*
X139945000Y-185965000D01*
G75*
G02*
X140195000Y-186215000I0J-250000D01*
G01*
X140195000Y-187165000D01*
G75*
G02*
X139945000Y-187415000I-250000J0D01*
G01*
X139445000Y-187415000D01*
G75*
G02*
X139195000Y-187165000I0J250000D01*
G01*
G37*
G36*
G01*
X149532000Y-112301000D02*
X149532000Y-113251000D01*
G75*
G02*
X149282000Y-113501000I-250000J0D01*
G01*
X148782000Y-113501000D01*
G75*
G02*
X148532000Y-113251000I0J250000D01*
G01*
X148532000Y-112301000D01*
G75*
G02*
X148782000Y-112051000I250000J0D01*
G01*
X149282000Y-112051000D01*
G75*
G02*
X149532000Y-112301000I0J-250000D01*
G01*
G37*
G36*
G01*
X147632000Y-112301000D02*
X147632000Y-113251000D01*
G75*
G02*
X147382000Y-113501000I-250000J0D01*
G01*
X146882000Y-113501000D01*
G75*
G02*
X146632000Y-113251000I0J250000D01*
G01*
X146632000Y-112301000D01*
G75*
G02*
X146882000Y-112051000I250000J0D01*
G01*
X147382000Y-112051000D01*
G75*
G02*
X147632000Y-112301000I0J-250000D01*
G01*
G37*
G36*
G01*
X141130000Y-129045000D02*
X142080000Y-129045000D01*
G75*
G02*
X142330000Y-129295000I0J-250000D01*
G01*
X142330000Y-129795000D01*
G75*
G02*
X142080000Y-130045000I-250000J0D01*
G01*
X141130000Y-130045000D01*
G75*
G02*
X140880000Y-129795000I0J250000D01*
G01*
X140880000Y-129295000D01*
G75*
G02*
X141130000Y-129045000I250000J0D01*
G01*
G37*
G36*
G01*
X141130000Y-130945000D02*
X142080000Y-130945000D01*
G75*
G02*
X142330000Y-131195000I0J-250000D01*
G01*
X142330000Y-131695000D01*
G75*
G02*
X142080000Y-131945000I-250000J0D01*
G01*
X141130000Y-131945000D01*
G75*
G02*
X140880000Y-131695000I0J250000D01*
G01*
X140880000Y-131195000D01*
G75*
G02*
X141130000Y-130945000I250000J0D01*
G01*
G37*
M02*
