G04 #@! TF.GenerationSoftware,KiCad,Pcbnew,7.0.5-unknown-202306101748~6fbdf8f0e2~ubuntu22.04.1*
G04 #@! TF.CreationDate,2024-03-26T20:54:11+00:00*
G04 #@! TF.ProjectId,things,7468696e-6773-42e6-9b69-6361645f7063,rev?*
G04 #@! TF.SameCoordinates,Original*
G04 #@! TF.FileFunction,Soldermask,Bot*
G04 #@! TF.FilePolarity,Negative*
%FSLAX46Y46*%
G04 Gerber Fmt 4.6, Leading zero omitted, Abs format (unit mm)*
G04 Created by KiCad (PCBNEW 7.0.5-unknown-202306101748~6fbdf8f0e2~ubuntu22.04.1) date 2024-03-26 20:54:11*
%MOMM*%
%LPD*%
G01*
G04 APERTURE LIST*
%ADD10C,6.400000*%
%ADD11C,1.397000*%
%ADD12R,1.700000X1.700000*%
%ADD13O,1.700000X1.700000*%
%ADD14C,2.000000*%
%ADD15O,1.800000X1.800000*%
%ADD16O,1.500000X1.500000*%
%ADD17O,3.500000X2.200000*%
%ADD18R,2.500000X1.500000*%
%ADD19O,2.500000X1.500000*%
G04 APERTURE END LIST*
D10*
X105410000Y-105410000D03*
D11*
X105410000Y-145415000D03*
X113030000Y-145415000D03*
X105410000Y-150495000D03*
X113030000Y-150495000D03*
D12*
X103505000Y-121285000D03*
D13*
X106045000Y-121285000D03*
X108585000Y-121285000D03*
X111125000Y-121285000D03*
X113665000Y-121285000D03*
X116205000Y-121285000D03*
X118745000Y-121285000D03*
D10*
X149860000Y-184785000D03*
X105410000Y-184785000D03*
D11*
X116205000Y-145415000D03*
X123825000Y-145415000D03*
X116205000Y-150495000D03*
X123825000Y-150495000D03*
D12*
X123825000Y-114935000D03*
D13*
X126365000Y-114935000D03*
X128905000Y-114935000D03*
X131445000Y-114935000D03*
D14*
X116031000Y-104780000D03*
X121031000Y-109780000D03*
X118031000Y-109780000D03*
X111031000Y-109780000D03*
X114031000Y-109780000D03*
X139145000Y-104780000D03*
X144145000Y-109780000D03*
X141145000Y-109780000D03*
X134145000Y-109780000D03*
X137145000Y-109780000D03*
D12*
X151765000Y-134620000D03*
D13*
X151765000Y-137160000D03*
D11*
X142240000Y-145415000D03*
X149860000Y-145415000D03*
X142240000Y-150495000D03*
X149860000Y-150495000D03*
D12*
X139700000Y-126370000D03*
D13*
X139700000Y-123830000D03*
D15*
X103635000Y-171635000D03*
D16*
X106665000Y-171335000D03*
X106665000Y-166485000D03*
D15*
X103635000Y-166185000D03*
D13*
X103505000Y-177800000D03*
X106045000Y-177800000D03*
D12*
X108585000Y-177800000D03*
D13*
X111125000Y-177800000D03*
X113665000Y-177800000D03*
X116205000Y-177800000D03*
X118745000Y-177800000D03*
D12*
X121285000Y-177800000D03*
D13*
X123825000Y-177800000D03*
X126365000Y-177800000D03*
X128905000Y-177800000D03*
X131445000Y-177800000D03*
D12*
X133985000Y-177800000D03*
D13*
X136525000Y-177800000D03*
X139065000Y-177800000D03*
X141605000Y-177800000D03*
X144145000Y-177800000D03*
D12*
X146685000Y-177800000D03*
D13*
X149225000Y-177800000D03*
X151765000Y-177800000D03*
X151765000Y-160020000D03*
X149225000Y-160020000D03*
D12*
X146685000Y-160020000D03*
D13*
X144145000Y-160020000D03*
X141605000Y-160020000D03*
X139065000Y-160020000D03*
X136525000Y-160020000D03*
D12*
X133985000Y-160020000D03*
D13*
X131445000Y-160020000D03*
X128905000Y-160020000D03*
X126365000Y-160020000D03*
X123825000Y-160020000D03*
D12*
X121285000Y-160020000D03*
D13*
X118745000Y-160020000D03*
X116205000Y-160020000D03*
X113665000Y-160020000D03*
X111125000Y-160020000D03*
D12*
X108585000Y-160020000D03*
D13*
X106045000Y-160020000D03*
X103505000Y-160020000D03*
X151535000Y-171450000D03*
D12*
X151535000Y-168910000D03*
D13*
X151535000Y-166370000D03*
D10*
X149860000Y-105410000D03*
D11*
X131445000Y-145415000D03*
X139065000Y-145415000D03*
X131445000Y-150495000D03*
X139065000Y-150495000D03*
D17*
X151765000Y-122805000D03*
X151765000Y-131005000D03*
D18*
X151765000Y-124905000D03*
D19*
X151765000Y-126905000D03*
X151765000Y-128905000D03*
D12*
X139700000Y-139065000D03*
D13*
X139700000Y-141605000D03*
D12*
X126365000Y-104140000D03*
D13*
X128905000Y-104140000D03*
M02*
