G04 #@! TF.GenerationSoftware,KiCad,Pcbnew,7.0.5-unknown-202306101748~6fbdf8f0e2~ubuntu22.04.1*
G04 #@! TF.CreationDate,2024-03-26T20:54:11+00:00*
G04 #@! TF.ProjectId,things,7468696e-6773-42e6-9b69-6361645f7063,rev?*
G04 #@! TF.SameCoordinates,Original*
G04 #@! TF.FileFunction,Legend,Bot*
G04 #@! TF.FilePolarity,Positive*
%FSLAX46Y46*%
G04 Gerber Fmt 4.6, Leading zero omitted, Abs format (unit mm)*
G04 Created by KiCad (PCBNEW 7.0.5-unknown-202306101748~6fbdf8f0e2~ubuntu22.04.1) date 2024-03-26 20:54:11*
%MOMM*%
%LPD*%
G01*
G04 APERTURE LIST*
%ADD10C,0.150000*%
G04 APERTURE END LIST*
D10*
X140003220Y-143568866D02*
X139241316Y-143568866D01*
X140053220Y-121568866D02*
X139291316Y-121568866D01*
X143808220Y-102739819D02*
X143808220Y-101739819D01*
X143808220Y-102216009D02*
X143236792Y-102216009D01*
X143236792Y-102739819D02*
X143236792Y-101739819D01*
X142379649Y-102692200D02*
X142474887Y-102739819D01*
X142474887Y-102739819D02*
X142665363Y-102739819D01*
X142665363Y-102739819D02*
X142760601Y-102692200D01*
X142760601Y-102692200D02*
X142808220Y-102596961D01*
X142808220Y-102596961D02*
X142808220Y-102216009D01*
X142808220Y-102216009D02*
X142760601Y-102120771D01*
X142760601Y-102120771D02*
X142665363Y-102073152D01*
X142665363Y-102073152D02*
X142474887Y-102073152D01*
X142474887Y-102073152D02*
X142379649Y-102120771D01*
X142379649Y-102120771D02*
X142332030Y-102216009D01*
X142332030Y-102216009D02*
X142332030Y-102311247D01*
X142332030Y-102311247D02*
X142808220Y-102406485D01*
X141474887Y-102739819D02*
X141474887Y-102216009D01*
X141474887Y-102216009D02*
X141522506Y-102120771D01*
X141522506Y-102120771D02*
X141617744Y-102073152D01*
X141617744Y-102073152D02*
X141808220Y-102073152D01*
X141808220Y-102073152D02*
X141903458Y-102120771D01*
X141474887Y-102692200D02*
X141570125Y-102739819D01*
X141570125Y-102739819D02*
X141808220Y-102739819D01*
X141808220Y-102739819D02*
X141903458Y-102692200D01*
X141903458Y-102692200D02*
X141951077Y-102596961D01*
X141951077Y-102596961D02*
X141951077Y-102501723D01*
X141951077Y-102501723D02*
X141903458Y-102406485D01*
X141903458Y-102406485D02*
X141808220Y-102358866D01*
X141808220Y-102358866D02*
X141570125Y-102358866D01*
X141570125Y-102358866D02*
X141474887Y-102311247D01*
X140570125Y-102739819D02*
X140570125Y-101739819D01*
X140570125Y-102692200D02*
X140665363Y-102739819D01*
X140665363Y-102739819D02*
X140855839Y-102739819D01*
X140855839Y-102739819D02*
X140951077Y-102692200D01*
X140951077Y-102692200D02*
X140998696Y-102644580D01*
X140998696Y-102644580D02*
X141046315Y-102549342D01*
X141046315Y-102549342D02*
X141046315Y-102263628D01*
X141046315Y-102263628D02*
X140998696Y-102168390D01*
X140998696Y-102168390D02*
X140951077Y-102120771D01*
X140951077Y-102120771D02*
X140855839Y-102073152D01*
X140855839Y-102073152D02*
X140665363Y-102073152D01*
X140665363Y-102073152D02*
X140570125Y-102120771D01*
X140093934Y-102073152D02*
X140093934Y-103073152D01*
X140093934Y-102120771D02*
X139998696Y-102073152D01*
X139998696Y-102073152D02*
X139808220Y-102073152D01*
X139808220Y-102073152D02*
X139712982Y-102120771D01*
X139712982Y-102120771D02*
X139665363Y-102168390D01*
X139665363Y-102168390D02*
X139617744Y-102263628D01*
X139617744Y-102263628D02*
X139617744Y-102549342D01*
X139617744Y-102549342D02*
X139665363Y-102644580D01*
X139665363Y-102644580D02*
X139712982Y-102692200D01*
X139712982Y-102692200D02*
X139808220Y-102739819D01*
X139808220Y-102739819D02*
X139998696Y-102739819D01*
X139998696Y-102739819D02*
X140093934Y-102692200D01*
X139189172Y-102739819D02*
X139189172Y-101739819D01*
X138760601Y-102739819D02*
X138760601Y-102216009D01*
X138760601Y-102216009D02*
X138808220Y-102120771D01*
X138808220Y-102120771D02*
X138903458Y-102073152D01*
X138903458Y-102073152D02*
X139046315Y-102073152D01*
X139046315Y-102073152D02*
X139141553Y-102120771D01*
X139141553Y-102120771D02*
X139189172Y-102168390D01*
X138141553Y-102739819D02*
X138236791Y-102692200D01*
X138236791Y-102692200D02*
X138284410Y-102644580D01*
X138284410Y-102644580D02*
X138332029Y-102549342D01*
X138332029Y-102549342D02*
X138332029Y-102263628D01*
X138332029Y-102263628D02*
X138284410Y-102168390D01*
X138284410Y-102168390D02*
X138236791Y-102120771D01*
X138236791Y-102120771D02*
X138141553Y-102073152D01*
X138141553Y-102073152D02*
X137998696Y-102073152D01*
X137998696Y-102073152D02*
X137903458Y-102120771D01*
X137903458Y-102120771D02*
X137855839Y-102168390D01*
X137855839Y-102168390D02*
X137808220Y-102263628D01*
X137808220Y-102263628D02*
X137808220Y-102549342D01*
X137808220Y-102549342D02*
X137855839Y-102644580D01*
X137855839Y-102644580D02*
X137903458Y-102692200D01*
X137903458Y-102692200D02*
X137998696Y-102739819D01*
X137998696Y-102739819D02*
X138141553Y-102739819D01*
X137379648Y-102073152D02*
X137379648Y-102739819D01*
X137379648Y-102168390D02*
X137332029Y-102120771D01*
X137332029Y-102120771D02*
X137236791Y-102073152D01*
X137236791Y-102073152D02*
X137093934Y-102073152D01*
X137093934Y-102073152D02*
X136998696Y-102120771D01*
X136998696Y-102120771D02*
X136951077Y-102216009D01*
X136951077Y-102216009D02*
X136951077Y-102739819D01*
X136093934Y-102692200D02*
X136189172Y-102739819D01*
X136189172Y-102739819D02*
X136379648Y-102739819D01*
X136379648Y-102739819D02*
X136474886Y-102692200D01*
X136474886Y-102692200D02*
X136522505Y-102596961D01*
X136522505Y-102596961D02*
X136522505Y-102216009D01*
X136522505Y-102216009D02*
X136474886Y-102120771D01*
X136474886Y-102120771D02*
X136379648Y-102073152D01*
X136379648Y-102073152D02*
X136189172Y-102073152D01*
X136189172Y-102073152D02*
X136093934Y-102120771D01*
X136093934Y-102120771D02*
X136046315Y-102216009D01*
X136046315Y-102216009D02*
X136046315Y-102311247D01*
X136046315Y-102311247D02*
X136522505Y-102406485D01*
X135665362Y-102692200D02*
X135570124Y-102739819D01*
X135570124Y-102739819D02*
X135379648Y-102739819D01*
X135379648Y-102739819D02*
X135284410Y-102692200D01*
X135284410Y-102692200D02*
X135236791Y-102596961D01*
X135236791Y-102596961D02*
X135236791Y-102549342D01*
X135236791Y-102549342D02*
X135284410Y-102454104D01*
X135284410Y-102454104D02*
X135379648Y-102406485D01*
X135379648Y-102406485D02*
X135522505Y-102406485D01*
X135522505Y-102406485D02*
X135617743Y-102358866D01*
X135617743Y-102358866D02*
X135665362Y-102263628D01*
X135665362Y-102263628D02*
X135665362Y-102216009D01*
X135665362Y-102216009D02*
X135617743Y-102120771D01*
X135617743Y-102120771D02*
X135522505Y-102073152D01*
X135522505Y-102073152D02*
X135379648Y-102073152D01*
X135379648Y-102073152D02*
X135284410Y-102120771D01*
X153669887Y-141136009D02*
X153527030Y-141183628D01*
X153527030Y-141183628D02*
X153479411Y-141231247D01*
X153479411Y-141231247D02*
X153431792Y-141326485D01*
X153431792Y-141326485D02*
X153431792Y-141469342D01*
X153431792Y-141469342D02*
X153479411Y-141564580D01*
X153479411Y-141564580D02*
X153527030Y-141612200D01*
X153527030Y-141612200D02*
X153622268Y-141659819D01*
X153622268Y-141659819D02*
X154003220Y-141659819D01*
X154003220Y-141659819D02*
X154003220Y-140659819D01*
X154003220Y-140659819D02*
X153669887Y-140659819D01*
X153669887Y-140659819D02*
X153574649Y-140707438D01*
X153574649Y-140707438D02*
X153527030Y-140755057D01*
X153527030Y-140755057D02*
X153479411Y-140850295D01*
X153479411Y-140850295D02*
X153479411Y-140945533D01*
X153479411Y-140945533D02*
X153527030Y-141040771D01*
X153527030Y-141040771D02*
X153574649Y-141088390D01*
X153574649Y-141088390D02*
X153669887Y-141136009D01*
X153669887Y-141136009D02*
X154003220Y-141136009D01*
X152574649Y-141659819D02*
X152574649Y-141136009D01*
X152574649Y-141136009D02*
X152622268Y-141040771D01*
X152622268Y-141040771D02*
X152717506Y-140993152D01*
X152717506Y-140993152D02*
X152907982Y-140993152D01*
X152907982Y-140993152D02*
X153003220Y-141040771D01*
X152574649Y-141612200D02*
X152669887Y-141659819D01*
X152669887Y-141659819D02*
X152907982Y-141659819D01*
X152907982Y-141659819D02*
X153003220Y-141612200D01*
X153003220Y-141612200D02*
X153050839Y-141516961D01*
X153050839Y-141516961D02*
X153050839Y-141421723D01*
X153050839Y-141421723D02*
X153003220Y-141326485D01*
X153003220Y-141326485D02*
X152907982Y-141278866D01*
X152907982Y-141278866D02*
X152669887Y-141278866D01*
X152669887Y-141278866D02*
X152574649Y-141231247D01*
X152241315Y-140993152D02*
X151860363Y-140993152D01*
X152098458Y-140659819D02*
X152098458Y-141516961D01*
X152098458Y-141516961D02*
X152050839Y-141612200D01*
X152050839Y-141612200D02*
X151955601Y-141659819D01*
X151955601Y-141659819D02*
X151860363Y-141659819D01*
X151669886Y-140993152D02*
X151288934Y-140993152D01*
X151527029Y-140659819D02*
X151527029Y-141516961D01*
X151527029Y-141516961D02*
X151479410Y-141612200D01*
X151479410Y-141612200D02*
X151384172Y-141659819D01*
X151384172Y-141659819D02*
X151288934Y-141659819D01*
X150574648Y-141612200D02*
X150669886Y-141659819D01*
X150669886Y-141659819D02*
X150860362Y-141659819D01*
X150860362Y-141659819D02*
X150955600Y-141612200D01*
X150955600Y-141612200D02*
X151003219Y-141516961D01*
X151003219Y-141516961D02*
X151003219Y-141136009D01*
X151003219Y-141136009D02*
X150955600Y-141040771D01*
X150955600Y-141040771D02*
X150860362Y-140993152D01*
X150860362Y-140993152D02*
X150669886Y-140993152D01*
X150669886Y-140993152D02*
X150574648Y-141040771D01*
X150574648Y-141040771D02*
X150527029Y-141136009D01*
X150527029Y-141136009D02*
X150527029Y-141231247D01*
X150527029Y-141231247D02*
X151003219Y-141326485D01*
X150098457Y-141659819D02*
X150098457Y-140993152D01*
X150098457Y-141183628D02*
X150050838Y-141088390D01*
X150050838Y-141088390D02*
X150003219Y-141040771D01*
X150003219Y-141040771D02*
X149907981Y-140993152D01*
X149907981Y-140993152D02*
X149812743Y-140993152D01*
X149574647Y-140993152D02*
X149336552Y-141659819D01*
X149098457Y-140993152D02*
X149336552Y-141659819D01*
X149336552Y-141659819D02*
X149431790Y-141897914D01*
X149431790Y-141897914D02*
X149479409Y-141945533D01*
X149479409Y-141945533D02*
X149574647Y-141993152D01*
X124123220Y-102993866D02*
X123361316Y-102993866D01*
X123742268Y-103374819D02*
X123742268Y-102612914D01*
X139943220Y-128608866D02*
X139181316Y-128608866D01*
X139562268Y-128989819D02*
X139562268Y-128227914D01*
X131743220Y-102993866D02*
X130981316Y-102993866D01*
X137570839Y-140542200D02*
X137427982Y-140589819D01*
X137427982Y-140589819D02*
X137189887Y-140589819D01*
X137189887Y-140589819D02*
X137094649Y-140542200D01*
X137094649Y-140542200D02*
X137047030Y-140494580D01*
X137047030Y-140494580D02*
X136999411Y-140399342D01*
X136999411Y-140399342D02*
X136999411Y-140304104D01*
X136999411Y-140304104D02*
X137047030Y-140208866D01*
X137047030Y-140208866D02*
X137094649Y-140161247D01*
X137094649Y-140161247D02*
X137189887Y-140113628D01*
X137189887Y-140113628D02*
X137380363Y-140066009D01*
X137380363Y-140066009D02*
X137475601Y-140018390D01*
X137475601Y-140018390D02*
X137523220Y-139970771D01*
X137523220Y-139970771D02*
X137570839Y-139875533D01*
X137570839Y-139875533D02*
X137570839Y-139780295D01*
X137570839Y-139780295D02*
X137523220Y-139685057D01*
X137523220Y-139685057D02*
X137475601Y-139637438D01*
X137475601Y-139637438D02*
X137380363Y-139589819D01*
X137380363Y-139589819D02*
X137142268Y-139589819D01*
X137142268Y-139589819D02*
X136999411Y-139637438D01*
X136570839Y-139923152D02*
X136570839Y-140923152D01*
X136570839Y-139970771D02*
X136475601Y-139923152D01*
X136475601Y-139923152D02*
X136285125Y-139923152D01*
X136285125Y-139923152D02*
X136189887Y-139970771D01*
X136189887Y-139970771D02*
X136142268Y-140018390D01*
X136142268Y-140018390D02*
X136094649Y-140113628D01*
X136094649Y-140113628D02*
X136094649Y-140399342D01*
X136094649Y-140399342D02*
X136142268Y-140494580D01*
X136142268Y-140494580D02*
X136189887Y-140542200D01*
X136189887Y-140542200D02*
X136285125Y-140589819D01*
X136285125Y-140589819D02*
X136475601Y-140589819D01*
X136475601Y-140589819D02*
X136570839Y-140542200D01*
X135285125Y-140542200D02*
X135380363Y-140589819D01*
X135380363Y-140589819D02*
X135570839Y-140589819D01*
X135570839Y-140589819D02*
X135666077Y-140542200D01*
X135666077Y-140542200D02*
X135713696Y-140446961D01*
X135713696Y-140446961D02*
X135713696Y-140066009D01*
X135713696Y-140066009D02*
X135666077Y-139970771D01*
X135666077Y-139970771D02*
X135570839Y-139923152D01*
X135570839Y-139923152D02*
X135380363Y-139923152D01*
X135380363Y-139923152D02*
X135285125Y-139970771D01*
X135285125Y-139970771D02*
X135237506Y-140066009D01*
X135237506Y-140066009D02*
X135237506Y-140161247D01*
X135237506Y-140161247D02*
X135713696Y-140256485D01*
X134380363Y-140589819D02*
X134380363Y-140066009D01*
X134380363Y-140066009D02*
X134427982Y-139970771D01*
X134427982Y-139970771D02*
X134523220Y-139923152D01*
X134523220Y-139923152D02*
X134713696Y-139923152D01*
X134713696Y-139923152D02*
X134808934Y-139970771D01*
X134380363Y-140542200D02*
X134475601Y-140589819D01*
X134475601Y-140589819D02*
X134713696Y-140589819D01*
X134713696Y-140589819D02*
X134808934Y-140542200D01*
X134808934Y-140542200D02*
X134856553Y-140446961D01*
X134856553Y-140446961D02*
X134856553Y-140351723D01*
X134856553Y-140351723D02*
X134808934Y-140256485D01*
X134808934Y-140256485D02*
X134713696Y-140208866D01*
X134713696Y-140208866D02*
X134475601Y-140208866D01*
X134475601Y-140208866D02*
X134380363Y-140161247D01*
X133904172Y-140589819D02*
X133904172Y-139589819D01*
X133808934Y-140208866D02*
X133523220Y-140589819D01*
X133523220Y-139923152D02*
X133904172Y-140304104D01*
X132713696Y-140542200D02*
X132808934Y-140589819D01*
X132808934Y-140589819D02*
X132999410Y-140589819D01*
X132999410Y-140589819D02*
X133094648Y-140542200D01*
X133094648Y-140542200D02*
X133142267Y-140446961D01*
X133142267Y-140446961D02*
X133142267Y-140066009D01*
X133142267Y-140066009D02*
X133094648Y-139970771D01*
X133094648Y-139970771D02*
X132999410Y-139923152D01*
X132999410Y-139923152D02*
X132808934Y-139923152D01*
X132808934Y-139923152D02*
X132713696Y-139970771D01*
X132713696Y-139970771D02*
X132666077Y-140066009D01*
X132666077Y-140066009D02*
X132666077Y-140161247D01*
X132666077Y-140161247D02*
X133142267Y-140256485D01*
X132237505Y-140589819D02*
X132237505Y-139923152D01*
X132237505Y-140113628D02*
X132189886Y-140018390D01*
X132189886Y-140018390D02*
X132142267Y-139970771D01*
X132142267Y-139970771D02*
X132047029Y-139923152D01*
X132047029Y-139923152D02*
X131951791Y-139923152D01*
X130380362Y-140589819D02*
X130856552Y-140589819D01*
X130856552Y-140589819D02*
X130856552Y-139589819D01*
X129666076Y-140542200D02*
X129761314Y-140589819D01*
X129761314Y-140589819D02*
X129951790Y-140589819D01*
X129951790Y-140589819D02*
X130047028Y-140542200D01*
X130047028Y-140542200D02*
X130094647Y-140446961D01*
X130094647Y-140446961D02*
X130094647Y-140066009D01*
X130094647Y-140066009D02*
X130047028Y-139970771D01*
X130047028Y-139970771D02*
X129951790Y-139923152D01*
X129951790Y-139923152D02*
X129761314Y-139923152D01*
X129761314Y-139923152D02*
X129666076Y-139970771D01*
X129666076Y-139970771D02*
X129618457Y-140066009D01*
X129618457Y-140066009D02*
X129618457Y-140161247D01*
X129618457Y-140161247D02*
X130094647Y-140256485D01*
X129332742Y-139923152D02*
X128951790Y-139923152D01*
X129189885Y-140589819D02*
X129189885Y-139732676D01*
X129189885Y-139732676D02*
X129142266Y-139637438D01*
X129142266Y-139637438D02*
X129047028Y-139589819D01*
X129047028Y-139589819D02*
X128951790Y-139589819D01*
X128761313Y-139923152D02*
X128380361Y-139923152D01*
X128618456Y-139589819D02*
X128618456Y-140446961D01*
X128618456Y-140446961D02*
X128570837Y-140542200D01*
X128570837Y-140542200D02*
X128475599Y-140589819D01*
X128475599Y-140589819D02*
X128380361Y-140589819D01*
X132173220Y-102139819D02*
X132173220Y-101139819D01*
X131697030Y-101473152D02*
X131697030Y-102139819D01*
X131697030Y-101568390D02*
X131649411Y-101520771D01*
X131649411Y-101520771D02*
X131554173Y-101473152D01*
X131554173Y-101473152D02*
X131411316Y-101473152D01*
X131411316Y-101473152D02*
X131316078Y-101520771D01*
X131316078Y-101520771D02*
X131268459Y-101616009D01*
X131268459Y-101616009D02*
X131268459Y-102139819D01*
X130935125Y-101473152D02*
X130554173Y-101473152D01*
X130792268Y-101139819D02*
X130792268Y-101996961D01*
X130792268Y-101996961D02*
X130744649Y-102092200D01*
X130744649Y-102092200D02*
X130649411Y-102139819D01*
X130649411Y-102139819D02*
X130554173Y-102139819D01*
X129839887Y-102092200D02*
X129935125Y-102139819D01*
X129935125Y-102139819D02*
X130125601Y-102139819D01*
X130125601Y-102139819D02*
X130220839Y-102092200D01*
X130220839Y-102092200D02*
X130268458Y-101996961D01*
X130268458Y-101996961D02*
X130268458Y-101616009D01*
X130268458Y-101616009D02*
X130220839Y-101520771D01*
X130220839Y-101520771D02*
X130125601Y-101473152D01*
X130125601Y-101473152D02*
X129935125Y-101473152D01*
X129935125Y-101473152D02*
X129839887Y-101520771D01*
X129839887Y-101520771D02*
X129792268Y-101616009D01*
X129792268Y-101616009D02*
X129792268Y-101711247D01*
X129792268Y-101711247D02*
X130268458Y-101806485D01*
X129363696Y-102139819D02*
X129363696Y-101473152D01*
X129363696Y-101663628D02*
X129316077Y-101568390D01*
X129316077Y-101568390D02*
X129268458Y-101520771D01*
X129268458Y-101520771D02*
X129173220Y-101473152D01*
X129173220Y-101473152D02*
X129077982Y-101473152D01*
X128744648Y-101473152D02*
X128744648Y-102139819D01*
X128744648Y-101568390D02*
X128697029Y-101520771D01*
X128697029Y-101520771D02*
X128601791Y-101473152D01*
X128601791Y-101473152D02*
X128458934Y-101473152D01*
X128458934Y-101473152D02*
X128363696Y-101520771D01*
X128363696Y-101520771D02*
X128316077Y-101616009D01*
X128316077Y-101616009D02*
X128316077Y-102139819D01*
X127411315Y-102139819D02*
X127411315Y-101616009D01*
X127411315Y-101616009D02*
X127458934Y-101520771D01*
X127458934Y-101520771D02*
X127554172Y-101473152D01*
X127554172Y-101473152D02*
X127744648Y-101473152D01*
X127744648Y-101473152D02*
X127839886Y-101520771D01*
X127411315Y-102092200D02*
X127506553Y-102139819D01*
X127506553Y-102139819D02*
X127744648Y-102139819D01*
X127744648Y-102139819D02*
X127839886Y-102092200D01*
X127839886Y-102092200D02*
X127887505Y-101996961D01*
X127887505Y-101996961D02*
X127887505Y-101901723D01*
X127887505Y-101901723D02*
X127839886Y-101806485D01*
X127839886Y-101806485D02*
X127744648Y-101758866D01*
X127744648Y-101758866D02*
X127506553Y-101758866D01*
X127506553Y-101758866D02*
X127411315Y-101711247D01*
X126792267Y-102139819D02*
X126887505Y-102092200D01*
X126887505Y-102092200D02*
X126935124Y-101996961D01*
X126935124Y-101996961D02*
X126935124Y-101139819D01*
X125649409Y-102139819D02*
X125649409Y-101139819D01*
X125649409Y-101139819D02*
X125316076Y-101854104D01*
X125316076Y-101854104D02*
X124982743Y-101139819D01*
X124982743Y-101139819D02*
X124982743Y-102139819D01*
X124506552Y-102139819D02*
X124506552Y-101139819D01*
X123458934Y-102044580D02*
X123506553Y-102092200D01*
X123506553Y-102092200D02*
X123649410Y-102139819D01*
X123649410Y-102139819D02*
X123744648Y-102139819D01*
X123744648Y-102139819D02*
X123887505Y-102092200D01*
X123887505Y-102092200D02*
X123982743Y-101996961D01*
X123982743Y-101996961D02*
X124030362Y-101901723D01*
X124030362Y-101901723D02*
X124077981Y-101711247D01*
X124077981Y-101711247D02*
X124077981Y-101568390D01*
X124077981Y-101568390D02*
X124030362Y-101377914D01*
X124030362Y-101377914D02*
X123982743Y-101282676D01*
X123982743Y-101282676D02*
X123887505Y-101187438D01*
X123887505Y-101187438D02*
X123744648Y-101139819D01*
X123744648Y-101139819D02*
X123649410Y-101139819D01*
X123649410Y-101139819D02*
X123506553Y-101187438D01*
X123506553Y-101187438D02*
X123458934Y-101235057D01*
X120313220Y-102739819D02*
X120313220Y-101739819D01*
X120313220Y-101739819D02*
X119979887Y-102454104D01*
X119979887Y-102454104D02*
X119646554Y-101739819D01*
X119646554Y-101739819D02*
X119646554Y-102739819D01*
X119170363Y-102739819D02*
X119170363Y-102073152D01*
X119170363Y-101739819D02*
X119217982Y-101787438D01*
X119217982Y-101787438D02*
X119170363Y-101835057D01*
X119170363Y-101835057D02*
X119122744Y-101787438D01*
X119122744Y-101787438D02*
X119170363Y-101739819D01*
X119170363Y-101739819D02*
X119170363Y-101835057D01*
X118265602Y-102692200D02*
X118360840Y-102739819D01*
X118360840Y-102739819D02*
X118551316Y-102739819D01*
X118551316Y-102739819D02*
X118646554Y-102692200D01*
X118646554Y-102692200D02*
X118694173Y-102644580D01*
X118694173Y-102644580D02*
X118741792Y-102549342D01*
X118741792Y-102549342D02*
X118741792Y-102263628D01*
X118741792Y-102263628D02*
X118694173Y-102168390D01*
X118694173Y-102168390D02*
X118646554Y-102120771D01*
X118646554Y-102120771D02*
X118551316Y-102073152D01*
X118551316Y-102073152D02*
X118360840Y-102073152D01*
X118360840Y-102073152D02*
X118265602Y-102120771D01*
X117837030Y-102739819D02*
X117837030Y-102073152D01*
X117837030Y-102263628D02*
X117789411Y-102168390D01*
X117789411Y-102168390D02*
X117741792Y-102120771D01*
X117741792Y-102120771D02*
X117646554Y-102073152D01*
X117646554Y-102073152D02*
X117551316Y-102073152D01*
X117075125Y-102739819D02*
X117170363Y-102692200D01*
X117170363Y-102692200D02*
X117217982Y-102644580D01*
X117217982Y-102644580D02*
X117265601Y-102549342D01*
X117265601Y-102549342D02*
X117265601Y-102263628D01*
X117265601Y-102263628D02*
X117217982Y-102168390D01*
X117217982Y-102168390D02*
X117170363Y-102120771D01*
X117170363Y-102120771D02*
X117075125Y-102073152D01*
X117075125Y-102073152D02*
X116932268Y-102073152D01*
X116932268Y-102073152D02*
X116837030Y-102120771D01*
X116837030Y-102120771D02*
X116789411Y-102168390D01*
X116789411Y-102168390D02*
X116741792Y-102263628D01*
X116741792Y-102263628D02*
X116741792Y-102549342D01*
X116741792Y-102549342D02*
X116789411Y-102644580D01*
X116789411Y-102644580D02*
X116837030Y-102692200D01*
X116837030Y-102692200D02*
X116932268Y-102739819D01*
X116932268Y-102739819D02*
X117075125Y-102739819D01*
X116313220Y-102073152D02*
X116313220Y-103073152D01*
X116313220Y-102120771D02*
X116217982Y-102073152D01*
X116217982Y-102073152D02*
X116027506Y-102073152D01*
X116027506Y-102073152D02*
X115932268Y-102120771D01*
X115932268Y-102120771D02*
X115884649Y-102168390D01*
X115884649Y-102168390D02*
X115837030Y-102263628D01*
X115837030Y-102263628D02*
X115837030Y-102549342D01*
X115837030Y-102549342D02*
X115884649Y-102644580D01*
X115884649Y-102644580D02*
X115932268Y-102692200D01*
X115932268Y-102692200D02*
X116027506Y-102739819D01*
X116027506Y-102739819D02*
X116217982Y-102739819D01*
X116217982Y-102739819D02*
X116313220Y-102692200D01*
X115408458Y-102739819D02*
X115408458Y-101739819D01*
X114979887Y-102739819D02*
X114979887Y-102216009D01*
X114979887Y-102216009D02*
X115027506Y-102120771D01*
X115027506Y-102120771D02*
X115122744Y-102073152D01*
X115122744Y-102073152D02*
X115265601Y-102073152D01*
X115265601Y-102073152D02*
X115360839Y-102120771D01*
X115360839Y-102120771D02*
X115408458Y-102168390D01*
X114360839Y-102739819D02*
X114456077Y-102692200D01*
X114456077Y-102692200D02*
X114503696Y-102644580D01*
X114503696Y-102644580D02*
X114551315Y-102549342D01*
X114551315Y-102549342D02*
X114551315Y-102263628D01*
X114551315Y-102263628D02*
X114503696Y-102168390D01*
X114503696Y-102168390D02*
X114456077Y-102120771D01*
X114456077Y-102120771D02*
X114360839Y-102073152D01*
X114360839Y-102073152D02*
X114217982Y-102073152D01*
X114217982Y-102073152D02*
X114122744Y-102120771D01*
X114122744Y-102120771D02*
X114075125Y-102168390D01*
X114075125Y-102168390D02*
X114027506Y-102263628D01*
X114027506Y-102263628D02*
X114027506Y-102549342D01*
X114027506Y-102549342D02*
X114075125Y-102644580D01*
X114075125Y-102644580D02*
X114122744Y-102692200D01*
X114122744Y-102692200D02*
X114217982Y-102739819D01*
X114217982Y-102739819D02*
X114360839Y-102739819D01*
X113598934Y-102073152D02*
X113598934Y-102739819D01*
X113598934Y-102168390D02*
X113551315Y-102120771D01*
X113551315Y-102120771D02*
X113456077Y-102073152D01*
X113456077Y-102073152D02*
X113313220Y-102073152D01*
X113313220Y-102073152D02*
X113217982Y-102120771D01*
X113217982Y-102120771D02*
X113170363Y-102216009D01*
X113170363Y-102216009D02*
X113170363Y-102739819D01*
X112313220Y-102692200D02*
X112408458Y-102739819D01*
X112408458Y-102739819D02*
X112598934Y-102739819D01*
X112598934Y-102739819D02*
X112694172Y-102692200D01*
X112694172Y-102692200D02*
X112741791Y-102596961D01*
X112741791Y-102596961D02*
X112741791Y-102216009D01*
X112741791Y-102216009D02*
X112694172Y-102120771D01*
X112694172Y-102120771D02*
X112598934Y-102073152D01*
X112598934Y-102073152D02*
X112408458Y-102073152D01*
X112408458Y-102073152D02*
X112313220Y-102120771D01*
X112313220Y-102120771D02*
X112265601Y-102216009D01*
X112265601Y-102216009D02*
X112265601Y-102311247D01*
X112265601Y-102311247D02*
X112741791Y-102406485D01*
X139943220Y-136808866D02*
X139181316Y-136808866D01*
X139562268Y-137189819D02*
X139562268Y-136427914D01*
X137800839Y-125472200D02*
X137657982Y-125519819D01*
X137657982Y-125519819D02*
X137419887Y-125519819D01*
X137419887Y-125519819D02*
X137324649Y-125472200D01*
X137324649Y-125472200D02*
X137277030Y-125424580D01*
X137277030Y-125424580D02*
X137229411Y-125329342D01*
X137229411Y-125329342D02*
X137229411Y-125234104D01*
X137229411Y-125234104D02*
X137277030Y-125138866D01*
X137277030Y-125138866D02*
X137324649Y-125091247D01*
X137324649Y-125091247D02*
X137419887Y-125043628D01*
X137419887Y-125043628D02*
X137610363Y-124996009D01*
X137610363Y-124996009D02*
X137705601Y-124948390D01*
X137705601Y-124948390D02*
X137753220Y-124900771D01*
X137753220Y-124900771D02*
X137800839Y-124805533D01*
X137800839Y-124805533D02*
X137800839Y-124710295D01*
X137800839Y-124710295D02*
X137753220Y-124615057D01*
X137753220Y-124615057D02*
X137705601Y-124567438D01*
X137705601Y-124567438D02*
X137610363Y-124519819D01*
X137610363Y-124519819D02*
X137372268Y-124519819D01*
X137372268Y-124519819D02*
X137229411Y-124567438D01*
X136800839Y-124853152D02*
X136800839Y-125853152D01*
X136800839Y-124900771D02*
X136705601Y-124853152D01*
X136705601Y-124853152D02*
X136515125Y-124853152D01*
X136515125Y-124853152D02*
X136419887Y-124900771D01*
X136419887Y-124900771D02*
X136372268Y-124948390D01*
X136372268Y-124948390D02*
X136324649Y-125043628D01*
X136324649Y-125043628D02*
X136324649Y-125329342D01*
X136324649Y-125329342D02*
X136372268Y-125424580D01*
X136372268Y-125424580D02*
X136419887Y-125472200D01*
X136419887Y-125472200D02*
X136515125Y-125519819D01*
X136515125Y-125519819D02*
X136705601Y-125519819D01*
X136705601Y-125519819D02*
X136800839Y-125472200D01*
X135515125Y-125472200D02*
X135610363Y-125519819D01*
X135610363Y-125519819D02*
X135800839Y-125519819D01*
X135800839Y-125519819D02*
X135896077Y-125472200D01*
X135896077Y-125472200D02*
X135943696Y-125376961D01*
X135943696Y-125376961D02*
X135943696Y-124996009D01*
X135943696Y-124996009D02*
X135896077Y-124900771D01*
X135896077Y-124900771D02*
X135800839Y-124853152D01*
X135800839Y-124853152D02*
X135610363Y-124853152D01*
X135610363Y-124853152D02*
X135515125Y-124900771D01*
X135515125Y-124900771D02*
X135467506Y-124996009D01*
X135467506Y-124996009D02*
X135467506Y-125091247D01*
X135467506Y-125091247D02*
X135943696Y-125186485D01*
X134610363Y-125519819D02*
X134610363Y-124996009D01*
X134610363Y-124996009D02*
X134657982Y-124900771D01*
X134657982Y-124900771D02*
X134753220Y-124853152D01*
X134753220Y-124853152D02*
X134943696Y-124853152D01*
X134943696Y-124853152D02*
X135038934Y-124900771D01*
X134610363Y-125472200D02*
X134705601Y-125519819D01*
X134705601Y-125519819D02*
X134943696Y-125519819D01*
X134943696Y-125519819D02*
X135038934Y-125472200D01*
X135038934Y-125472200D02*
X135086553Y-125376961D01*
X135086553Y-125376961D02*
X135086553Y-125281723D01*
X135086553Y-125281723D02*
X135038934Y-125186485D01*
X135038934Y-125186485D02*
X134943696Y-125138866D01*
X134943696Y-125138866D02*
X134705601Y-125138866D01*
X134705601Y-125138866D02*
X134610363Y-125091247D01*
X134134172Y-125519819D02*
X134134172Y-124519819D01*
X134038934Y-125138866D02*
X133753220Y-125519819D01*
X133753220Y-124853152D02*
X134134172Y-125234104D01*
X132943696Y-125472200D02*
X133038934Y-125519819D01*
X133038934Y-125519819D02*
X133229410Y-125519819D01*
X133229410Y-125519819D02*
X133324648Y-125472200D01*
X133324648Y-125472200D02*
X133372267Y-125376961D01*
X133372267Y-125376961D02*
X133372267Y-124996009D01*
X133372267Y-124996009D02*
X133324648Y-124900771D01*
X133324648Y-124900771D02*
X133229410Y-124853152D01*
X133229410Y-124853152D02*
X133038934Y-124853152D01*
X133038934Y-124853152D02*
X132943696Y-124900771D01*
X132943696Y-124900771D02*
X132896077Y-124996009D01*
X132896077Y-124996009D02*
X132896077Y-125091247D01*
X132896077Y-125091247D02*
X133372267Y-125186485D01*
X132467505Y-125519819D02*
X132467505Y-124853152D01*
X132467505Y-125043628D02*
X132419886Y-124948390D01*
X132419886Y-124948390D02*
X132372267Y-124900771D01*
X132372267Y-124900771D02*
X132277029Y-124853152D01*
X132277029Y-124853152D02*
X132181791Y-124853152D01*
X130515124Y-125519819D02*
X130848457Y-125043628D01*
X131086552Y-125519819D02*
X131086552Y-124519819D01*
X131086552Y-124519819D02*
X130705600Y-124519819D01*
X130705600Y-124519819D02*
X130610362Y-124567438D01*
X130610362Y-124567438D02*
X130562743Y-124615057D01*
X130562743Y-124615057D02*
X130515124Y-124710295D01*
X130515124Y-124710295D02*
X130515124Y-124853152D01*
X130515124Y-124853152D02*
X130562743Y-124948390D01*
X130562743Y-124948390D02*
X130610362Y-124996009D01*
X130610362Y-124996009D02*
X130705600Y-125043628D01*
X130705600Y-125043628D02*
X131086552Y-125043628D01*
X130086552Y-125519819D02*
X130086552Y-124853152D01*
X130086552Y-124519819D02*
X130134171Y-124567438D01*
X130134171Y-124567438D02*
X130086552Y-124615057D01*
X130086552Y-124615057D02*
X130038933Y-124567438D01*
X130038933Y-124567438D02*
X130086552Y-124519819D01*
X130086552Y-124519819D02*
X130086552Y-124615057D01*
X129181791Y-124853152D02*
X129181791Y-125662676D01*
X129181791Y-125662676D02*
X129229410Y-125757914D01*
X129229410Y-125757914D02*
X129277029Y-125805533D01*
X129277029Y-125805533D02*
X129372267Y-125853152D01*
X129372267Y-125853152D02*
X129515124Y-125853152D01*
X129515124Y-125853152D02*
X129610362Y-125805533D01*
X129181791Y-125472200D02*
X129277029Y-125519819D01*
X129277029Y-125519819D02*
X129467505Y-125519819D01*
X129467505Y-125519819D02*
X129562743Y-125472200D01*
X129562743Y-125472200D02*
X129610362Y-125424580D01*
X129610362Y-125424580D02*
X129657981Y-125329342D01*
X129657981Y-125329342D02*
X129657981Y-125043628D01*
X129657981Y-125043628D02*
X129610362Y-124948390D01*
X129610362Y-124948390D02*
X129562743Y-124900771D01*
X129562743Y-124900771D02*
X129467505Y-124853152D01*
X129467505Y-124853152D02*
X129277029Y-124853152D01*
X129277029Y-124853152D02*
X129181791Y-124900771D01*
X128705600Y-125519819D02*
X128705600Y-124519819D01*
X128277029Y-125519819D02*
X128277029Y-124996009D01*
X128277029Y-124996009D02*
X128324648Y-124900771D01*
X128324648Y-124900771D02*
X128419886Y-124853152D01*
X128419886Y-124853152D02*
X128562743Y-124853152D01*
X128562743Y-124853152D02*
X128657981Y-124900771D01*
X128657981Y-124900771D02*
X128705600Y-124948390D01*
X127943695Y-124853152D02*
X127562743Y-124853152D01*
X127800838Y-124519819D02*
X127800838Y-125376961D01*
X127800838Y-125376961D02*
X127753219Y-125472200D01*
X127753219Y-125472200D02*
X127657981Y-125519819D01*
X127657981Y-125519819D02*
X127562743Y-125519819D01*
X118721494Y-174793372D02*
X118748431Y-174712560D01*
X118748431Y-174712560D02*
X118829243Y-174631748D01*
X118829243Y-174631748D02*
X118936993Y-174577873D01*
X118936993Y-174577873D02*
X119044742Y-174577873D01*
X119044742Y-174577873D02*
X119125555Y-174604810D01*
X119125555Y-174604810D02*
X119260242Y-174685623D01*
X119260242Y-174685623D02*
X119341054Y-174766435D01*
X119341054Y-174766435D02*
X119421866Y-174901122D01*
X119421866Y-174901122D02*
X119448803Y-174981934D01*
X119448803Y-174981934D02*
X119448803Y-175089684D01*
X119448803Y-175089684D02*
X119394929Y-175197433D01*
X119394929Y-175197433D02*
X119341054Y-175251308D01*
X119341054Y-175251308D02*
X119233304Y-175305183D01*
X119233304Y-175305183D02*
X119179429Y-175305183D01*
X119179429Y-175305183D02*
X118990868Y-175116621D01*
X118990868Y-175116621D02*
X119098617Y-175008871D01*
X118990868Y-175601494D02*
X118425182Y-175035809D01*
X118425182Y-175035809D02*
X118209683Y-175251308D01*
X118209683Y-175251308D02*
X118182746Y-175332120D01*
X118182746Y-175332120D02*
X118182746Y-175385995D01*
X118182746Y-175385995D02*
X118209683Y-175466807D01*
X118209683Y-175466807D02*
X118290495Y-175547619D01*
X118290495Y-175547619D02*
X118371307Y-175574557D01*
X118371307Y-175574557D02*
X118425182Y-175574557D01*
X118425182Y-175574557D02*
X118505994Y-175547619D01*
X118505994Y-175547619D02*
X118721494Y-175332120D01*
X117590123Y-175870868D02*
X117859497Y-175601494D01*
X117859497Y-175601494D02*
X118155808Y-175843931D01*
X118155808Y-175843931D02*
X118101933Y-175843931D01*
X118101933Y-175843931D02*
X118021121Y-175870868D01*
X118021121Y-175870868D02*
X117886434Y-176005555D01*
X117886434Y-176005555D02*
X117859497Y-176086367D01*
X117859497Y-176086367D02*
X117859497Y-176140242D01*
X117859497Y-176140242D02*
X117886434Y-176221054D01*
X117886434Y-176221054D02*
X118021121Y-176355741D01*
X118021121Y-176355741D02*
X118101933Y-176382679D01*
X118101933Y-176382679D02*
X118155808Y-176382679D01*
X118155808Y-176382679D02*
X118236620Y-176355741D01*
X118236620Y-176355741D02*
X118371307Y-176221054D01*
X118371307Y-176221054D02*
X118398245Y-176140242D01*
X118398245Y-176140242D02*
X118398245Y-176086367D01*
X108478431Y-174486435D02*
X108505368Y-174405623D01*
X108505368Y-174405623D02*
X108586180Y-174324811D01*
X108586180Y-174324811D02*
X108693930Y-174270936D01*
X108693930Y-174270936D02*
X108801680Y-174270936D01*
X108801680Y-174270936D02*
X108882492Y-174297873D01*
X108882492Y-174297873D02*
X109017179Y-174378685D01*
X109017179Y-174378685D02*
X109097991Y-174459498D01*
X109097991Y-174459498D02*
X109178803Y-174594185D01*
X109178803Y-174594185D02*
X109205741Y-174674997D01*
X109205741Y-174674997D02*
X109205741Y-174782746D01*
X109205741Y-174782746D02*
X109151866Y-174890496D01*
X109151866Y-174890496D02*
X109097991Y-174944371D01*
X109097991Y-174944371D02*
X108990241Y-174998246D01*
X108990241Y-174998246D02*
X108936367Y-174998246D01*
X108936367Y-174998246D02*
X108747805Y-174809684D01*
X108747805Y-174809684D02*
X108855554Y-174701934D01*
X108747805Y-175294557D02*
X108182119Y-174728872D01*
X108182119Y-174728872D02*
X108424556Y-175617806D01*
X108424556Y-175617806D02*
X107858871Y-175052120D01*
X108155182Y-175887180D02*
X107589497Y-175321494D01*
X107589497Y-175321494D02*
X107454810Y-175456181D01*
X107454810Y-175456181D02*
X107400935Y-175563931D01*
X107400935Y-175563931D02*
X107400935Y-175671680D01*
X107400935Y-175671680D02*
X107427872Y-175752493D01*
X107427872Y-175752493D02*
X107508685Y-175887180D01*
X107508685Y-175887180D02*
X107589497Y-175967992D01*
X107589497Y-175967992D02*
X107724184Y-176048804D01*
X107724184Y-176048804D02*
X107804996Y-176075741D01*
X107804996Y-176075741D02*
X107912746Y-176075741D01*
X107912746Y-176075741D02*
X108020495Y-176021867D01*
X108020495Y-176021867D02*
X108155182Y-175887180D01*
X116381494Y-174563372D02*
X116408431Y-174482560D01*
X116408431Y-174482560D02*
X116489243Y-174401748D01*
X116489243Y-174401748D02*
X116596993Y-174347873D01*
X116596993Y-174347873D02*
X116704742Y-174347873D01*
X116704742Y-174347873D02*
X116785555Y-174374810D01*
X116785555Y-174374810D02*
X116920242Y-174455623D01*
X116920242Y-174455623D02*
X117001054Y-174536435D01*
X117001054Y-174536435D02*
X117081866Y-174671122D01*
X117081866Y-174671122D02*
X117108803Y-174751934D01*
X117108803Y-174751934D02*
X117108803Y-174859684D01*
X117108803Y-174859684D02*
X117054929Y-174967433D01*
X117054929Y-174967433D02*
X117001054Y-175021308D01*
X117001054Y-175021308D02*
X116893304Y-175075183D01*
X116893304Y-175075183D02*
X116839429Y-175075183D01*
X116839429Y-175075183D02*
X116650868Y-174886621D01*
X116650868Y-174886621D02*
X116758617Y-174778871D01*
X116650868Y-175371494D02*
X116085182Y-174805809D01*
X116085182Y-174805809D02*
X115869683Y-175021308D01*
X115869683Y-175021308D02*
X115842746Y-175102120D01*
X115842746Y-175102120D02*
X115842746Y-175155995D01*
X115842746Y-175155995D02*
X115869683Y-175236807D01*
X115869683Y-175236807D02*
X115950495Y-175317619D01*
X115950495Y-175317619D02*
X116031307Y-175344557D01*
X116031307Y-175344557D02*
X116085182Y-175344557D01*
X116085182Y-175344557D02*
X116165994Y-175317619D01*
X116165994Y-175317619D02*
X116381494Y-175102120D01*
X115465622Y-175802493D02*
X115842746Y-176179616D01*
X115384810Y-175452306D02*
X115923558Y-175721680D01*
X115923558Y-175721680D02*
X115573372Y-176071867D01*
X123819494Y-174573372D02*
X123846431Y-174492560D01*
X123846431Y-174492560D02*
X123927243Y-174411748D01*
X123927243Y-174411748D02*
X124034993Y-174357873D01*
X124034993Y-174357873D02*
X124142742Y-174357873D01*
X124142742Y-174357873D02*
X124223555Y-174384810D01*
X124223555Y-174384810D02*
X124358242Y-174465623D01*
X124358242Y-174465623D02*
X124439054Y-174546435D01*
X124439054Y-174546435D02*
X124519866Y-174681122D01*
X124519866Y-174681122D02*
X124546803Y-174761934D01*
X124546803Y-174761934D02*
X124546803Y-174869684D01*
X124546803Y-174869684D02*
X124492929Y-174977433D01*
X124492929Y-174977433D02*
X124439054Y-175031308D01*
X124439054Y-175031308D02*
X124331304Y-175085183D01*
X124331304Y-175085183D02*
X124277429Y-175085183D01*
X124277429Y-175085183D02*
X124088868Y-174896621D01*
X124088868Y-174896621D02*
X124196617Y-174788871D01*
X124088868Y-175381494D02*
X123523182Y-174815809D01*
X123523182Y-174815809D02*
X123307683Y-175031308D01*
X123307683Y-175031308D02*
X123280746Y-175112120D01*
X123280746Y-175112120D02*
X123280746Y-175165995D01*
X123280746Y-175165995D02*
X123307683Y-175246807D01*
X123307683Y-175246807D02*
X123388495Y-175327619D01*
X123388495Y-175327619D02*
X123469307Y-175354557D01*
X123469307Y-175354557D02*
X123523182Y-175354557D01*
X123523182Y-175354557D02*
X123603994Y-175327619D01*
X123603994Y-175327619D02*
X123819494Y-175112120D01*
X122715060Y-175623931D02*
X122822810Y-175516181D01*
X122822810Y-175516181D02*
X122903622Y-175489244D01*
X122903622Y-175489244D02*
X122957497Y-175489244D01*
X122957497Y-175489244D02*
X123092184Y-175516181D01*
X123092184Y-175516181D02*
X123226871Y-175596993D01*
X123226871Y-175596993D02*
X123442370Y-175812493D01*
X123442370Y-175812493D02*
X123469307Y-175893305D01*
X123469307Y-175893305D02*
X123469307Y-175947180D01*
X123469307Y-175947180D02*
X123442370Y-176027992D01*
X123442370Y-176027992D02*
X123334620Y-176135741D01*
X123334620Y-176135741D02*
X123253808Y-176162679D01*
X123253808Y-176162679D02*
X123199933Y-176162679D01*
X123199933Y-176162679D02*
X123119121Y-176135741D01*
X123119121Y-176135741D02*
X122984434Y-176001054D01*
X122984434Y-176001054D02*
X122957497Y-175920242D01*
X122957497Y-175920242D02*
X122957497Y-175866367D01*
X122957497Y-175866367D02*
X122984434Y-175785555D01*
X122984434Y-175785555D02*
X123092184Y-175677806D01*
X123092184Y-175677806D02*
X123172996Y-175650868D01*
X123172996Y-175650868D02*
X123226871Y-175650868D01*
X123226871Y-175650868D02*
X123307683Y-175677806D01*
X133752431Y-162354435D02*
X133779368Y-162273623D01*
X133779368Y-162273623D02*
X133860180Y-162192811D01*
X133860180Y-162192811D02*
X133967930Y-162138936D01*
X133967930Y-162138936D02*
X134075680Y-162138936D01*
X134075680Y-162138936D02*
X134156492Y-162165873D01*
X134156492Y-162165873D02*
X134291179Y-162246685D01*
X134291179Y-162246685D02*
X134371991Y-162327498D01*
X134371991Y-162327498D02*
X134452803Y-162462185D01*
X134452803Y-162462185D02*
X134479741Y-162542997D01*
X134479741Y-162542997D02*
X134479741Y-162650746D01*
X134479741Y-162650746D02*
X134425866Y-162758496D01*
X134425866Y-162758496D02*
X134371991Y-162812371D01*
X134371991Y-162812371D02*
X134264241Y-162866246D01*
X134264241Y-162866246D02*
X134210367Y-162866246D01*
X134210367Y-162866246D02*
X134021805Y-162677684D01*
X134021805Y-162677684D02*
X134129554Y-162569934D01*
X134021805Y-163162557D02*
X133456119Y-162596872D01*
X133456119Y-162596872D02*
X133698556Y-163485806D01*
X133698556Y-163485806D02*
X133132871Y-162920120D01*
X133429182Y-163755180D02*
X132863497Y-163189494D01*
X132863497Y-163189494D02*
X132728810Y-163324181D01*
X132728810Y-163324181D02*
X132674935Y-163431931D01*
X132674935Y-163431931D02*
X132674935Y-163539680D01*
X132674935Y-163539680D02*
X132701872Y-163620493D01*
X132701872Y-163620493D02*
X132782685Y-163755180D01*
X132782685Y-163755180D02*
X132863497Y-163835992D01*
X132863497Y-163835992D02*
X132998184Y-163916804D01*
X132998184Y-163916804D02*
X133078996Y-163943741D01*
X133078996Y-163943741D02*
X133186746Y-163943741D01*
X133186746Y-163943741D02*
X133294495Y-163889867D01*
X133294495Y-163889867D02*
X133429182Y-163755180D01*
X133752431Y-174800435D02*
X133779368Y-174719623D01*
X133779368Y-174719623D02*
X133860180Y-174638811D01*
X133860180Y-174638811D02*
X133967930Y-174584936D01*
X133967930Y-174584936D02*
X134075680Y-174584936D01*
X134075680Y-174584936D02*
X134156492Y-174611873D01*
X134156492Y-174611873D02*
X134291179Y-174692685D01*
X134291179Y-174692685D02*
X134371991Y-174773498D01*
X134371991Y-174773498D02*
X134452803Y-174908185D01*
X134452803Y-174908185D02*
X134479741Y-174988997D01*
X134479741Y-174988997D02*
X134479741Y-175096746D01*
X134479741Y-175096746D02*
X134425866Y-175204496D01*
X134425866Y-175204496D02*
X134371991Y-175258371D01*
X134371991Y-175258371D02*
X134264241Y-175312246D01*
X134264241Y-175312246D02*
X134210367Y-175312246D01*
X134210367Y-175312246D02*
X134021805Y-175123684D01*
X134021805Y-175123684D02*
X134129554Y-175015934D01*
X134021805Y-175608557D02*
X133456119Y-175042872D01*
X133456119Y-175042872D02*
X133698556Y-175931806D01*
X133698556Y-175931806D02*
X133132871Y-175366120D01*
X133429182Y-176201180D02*
X132863497Y-175635494D01*
X132863497Y-175635494D02*
X132728810Y-175770181D01*
X132728810Y-175770181D02*
X132674935Y-175877931D01*
X132674935Y-175877931D02*
X132674935Y-175985680D01*
X132674935Y-175985680D02*
X132701872Y-176066493D01*
X132701872Y-176066493D02*
X132782685Y-176201180D01*
X132782685Y-176201180D02*
X132863497Y-176281992D01*
X132863497Y-176281992D02*
X132998184Y-176362804D01*
X132998184Y-176362804D02*
X133078996Y-176389741D01*
X133078996Y-176389741D02*
X133186746Y-176389741D01*
X133186746Y-176389741D02*
X133294495Y-176335867D01*
X133294495Y-176335867D02*
X133429182Y-176201180D01*
X113674868Y-161804123D02*
X113324682Y-162154309D01*
X113324682Y-162154309D02*
X113728743Y-162181247D01*
X113728743Y-162181247D02*
X113647931Y-162262059D01*
X113647931Y-162262059D02*
X113620993Y-162342871D01*
X113620993Y-162342871D02*
X113620993Y-162396746D01*
X113620993Y-162396746D02*
X113647931Y-162477558D01*
X113647931Y-162477558D02*
X113782618Y-162612245D01*
X113782618Y-162612245D02*
X113863430Y-162639182D01*
X113863430Y-162639182D02*
X113917305Y-162639182D01*
X113917305Y-162639182D02*
X113998117Y-162612245D01*
X113998117Y-162612245D02*
X114159741Y-162450621D01*
X114159741Y-162450621D02*
X114186679Y-162369808D01*
X114186679Y-162369808D02*
X114186679Y-162315934D01*
X113163057Y-162315934D02*
X113540181Y-163070181D01*
X113540181Y-163070181D02*
X112785934Y-162693057D01*
X112651247Y-162827744D02*
X112301061Y-163177930D01*
X112301061Y-163177930D02*
X112705122Y-163204868D01*
X112705122Y-163204868D02*
X112624309Y-163285680D01*
X112624309Y-163285680D02*
X112597372Y-163366492D01*
X112597372Y-163366492D02*
X112597372Y-163420367D01*
X112597372Y-163420367D02*
X112624309Y-163501179D01*
X112624309Y-163501179D02*
X112758996Y-163635866D01*
X112758996Y-163635866D02*
X112839809Y-163662804D01*
X112839809Y-163662804D02*
X112893683Y-163662804D01*
X112893683Y-163662804D02*
X112974496Y-163635866D01*
X112974496Y-163635866D02*
X113136120Y-163474242D01*
X113136120Y-163474242D02*
X113163057Y-163393430D01*
X113163057Y-163393430D02*
X113163057Y-163339555D01*
X136534868Y-174557998D02*
X136561805Y-174477185D01*
X136561805Y-174477185D02*
X136642618Y-174396373D01*
X136642618Y-174396373D02*
X136750367Y-174342498D01*
X136750367Y-174342498D02*
X136858117Y-174342498D01*
X136858117Y-174342498D02*
X136938929Y-174369436D01*
X136938929Y-174369436D02*
X137073616Y-174450248D01*
X137073616Y-174450248D02*
X137154428Y-174531060D01*
X137154428Y-174531060D02*
X137235241Y-174665747D01*
X137235241Y-174665747D02*
X137262178Y-174746560D01*
X137262178Y-174746560D02*
X137262178Y-174854309D01*
X137262178Y-174854309D02*
X137208303Y-174962059D01*
X137208303Y-174962059D02*
X137154428Y-175015934D01*
X137154428Y-175015934D02*
X137046679Y-175069808D01*
X137046679Y-175069808D02*
X136992804Y-175069808D01*
X136992804Y-175069808D02*
X136804242Y-174881247D01*
X136804242Y-174881247D02*
X136911992Y-174773497D01*
X136804242Y-175366120D02*
X136238557Y-174800434D01*
X136238557Y-174800434D02*
X136023057Y-175015934D01*
X136023057Y-175015934D02*
X135996120Y-175096746D01*
X135996120Y-175096746D02*
X135996120Y-175150621D01*
X135996120Y-175150621D02*
X136023057Y-175231433D01*
X136023057Y-175231433D02*
X136103870Y-175312245D01*
X136103870Y-175312245D02*
X136184682Y-175339182D01*
X136184682Y-175339182D02*
X136238557Y-175339182D01*
X136238557Y-175339182D02*
X136319369Y-175312245D01*
X136319369Y-175312245D02*
X136534868Y-175096746D01*
X135942245Y-176228117D02*
X136265494Y-175904868D01*
X136103870Y-176066492D02*
X135538184Y-175500807D01*
X135538184Y-175500807D02*
X135672871Y-175527744D01*
X135672871Y-175527744D02*
X135780621Y-175527744D01*
X135780621Y-175527744D02*
X135861433Y-175500807D01*
X135026373Y-176012618D02*
X134972499Y-176066492D01*
X134972499Y-176066492D02*
X134945561Y-176147305D01*
X134945561Y-176147305D02*
X134945561Y-176201179D01*
X134945561Y-176201179D02*
X134972499Y-176281992D01*
X134972499Y-176281992D02*
X135053311Y-176416679D01*
X135053311Y-176416679D02*
X135187998Y-176551366D01*
X135187998Y-176551366D02*
X135322685Y-176632178D01*
X135322685Y-176632178D02*
X135403497Y-176659115D01*
X135403497Y-176659115D02*
X135457372Y-176659115D01*
X135457372Y-176659115D02*
X135538184Y-176632178D01*
X135538184Y-176632178D02*
X135592059Y-176578303D01*
X135592059Y-176578303D02*
X135618996Y-176497491D01*
X135618996Y-176497491D02*
X135618996Y-176443616D01*
X135618996Y-176443616D02*
X135592059Y-176362804D01*
X135592059Y-176362804D02*
X135511247Y-176228117D01*
X135511247Y-176228117D02*
X135376560Y-176093430D01*
X135376560Y-176093430D02*
X135241873Y-176012618D01*
X135241873Y-176012618D02*
X135161060Y-175985680D01*
X135161060Y-175985680D02*
X135107186Y-175985680D01*
X135107186Y-175985680D02*
X135026373Y-176012618D01*
X131200868Y-162365998D02*
X131227805Y-162285185D01*
X131227805Y-162285185D02*
X131308618Y-162204373D01*
X131308618Y-162204373D02*
X131416367Y-162150498D01*
X131416367Y-162150498D02*
X131524117Y-162150498D01*
X131524117Y-162150498D02*
X131604929Y-162177436D01*
X131604929Y-162177436D02*
X131739616Y-162258248D01*
X131739616Y-162258248D02*
X131820428Y-162339060D01*
X131820428Y-162339060D02*
X131901241Y-162473747D01*
X131901241Y-162473747D02*
X131928178Y-162554560D01*
X131928178Y-162554560D02*
X131928178Y-162662309D01*
X131928178Y-162662309D02*
X131874303Y-162770059D01*
X131874303Y-162770059D02*
X131820428Y-162823934D01*
X131820428Y-162823934D02*
X131712679Y-162877808D01*
X131712679Y-162877808D02*
X131658804Y-162877808D01*
X131658804Y-162877808D02*
X131470242Y-162689247D01*
X131470242Y-162689247D02*
X131577992Y-162581497D01*
X131470242Y-163174120D02*
X130904557Y-162608434D01*
X130904557Y-162608434D02*
X130689057Y-162823934D01*
X130689057Y-162823934D02*
X130662120Y-162904746D01*
X130662120Y-162904746D02*
X130662120Y-162958621D01*
X130662120Y-162958621D02*
X130689057Y-163039433D01*
X130689057Y-163039433D02*
X130769870Y-163120245D01*
X130769870Y-163120245D02*
X130850682Y-163147182D01*
X130850682Y-163147182D02*
X130904557Y-163147182D01*
X130904557Y-163147182D02*
X130985369Y-163120245D01*
X130985369Y-163120245D02*
X131200868Y-162904746D01*
X130419683Y-163201057D02*
X130365809Y-163201057D01*
X130365809Y-163201057D02*
X130284996Y-163227995D01*
X130284996Y-163227995D02*
X130150309Y-163362682D01*
X130150309Y-163362682D02*
X130123372Y-163443494D01*
X130123372Y-163443494D02*
X130123372Y-163497369D01*
X130123372Y-163497369D02*
X130150309Y-163578181D01*
X130150309Y-163578181D02*
X130204184Y-163632056D01*
X130204184Y-163632056D02*
X130311934Y-163685930D01*
X130311934Y-163685930D02*
X130958431Y-163685930D01*
X130958431Y-163685930D02*
X130608245Y-164036117D01*
X129880935Y-163739805D02*
X129827060Y-163739805D01*
X129827060Y-163739805D02*
X129746248Y-163766743D01*
X129746248Y-163766743D02*
X129611561Y-163901430D01*
X129611561Y-163901430D02*
X129584624Y-163982242D01*
X129584624Y-163982242D02*
X129584624Y-164036117D01*
X129584624Y-164036117D02*
X129611561Y-164116929D01*
X129611561Y-164116929D02*
X129665436Y-164170804D01*
X129665436Y-164170804D02*
X129773186Y-164224679D01*
X129773186Y-164224679D02*
X130419683Y-164224679D01*
X130419683Y-164224679D02*
X130069497Y-164574865D01*
X143900868Y-162111998D02*
X143927805Y-162031185D01*
X143927805Y-162031185D02*
X144008618Y-161950373D01*
X144008618Y-161950373D02*
X144116367Y-161896498D01*
X144116367Y-161896498D02*
X144224117Y-161896498D01*
X144224117Y-161896498D02*
X144304929Y-161923436D01*
X144304929Y-161923436D02*
X144439616Y-162004248D01*
X144439616Y-162004248D02*
X144520428Y-162085060D01*
X144520428Y-162085060D02*
X144601241Y-162219747D01*
X144601241Y-162219747D02*
X144628178Y-162300560D01*
X144628178Y-162300560D02*
X144628178Y-162408309D01*
X144628178Y-162408309D02*
X144574303Y-162516059D01*
X144574303Y-162516059D02*
X144520428Y-162569934D01*
X144520428Y-162569934D02*
X144412679Y-162623808D01*
X144412679Y-162623808D02*
X144358804Y-162623808D01*
X144358804Y-162623808D02*
X144170242Y-162435247D01*
X144170242Y-162435247D02*
X144277992Y-162327497D01*
X144170242Y-162920120D02*
X143604557Y-162354434D01*
X143604557Y-162354434D02*
X143389057Y-162569934D01*
X143389057Y-162569934D02*
X143362120Y-162650746D01*
X143362120Y-162650746D02*
X143362120Y-162704621D01*
X143362120Y-162704621D02*
X143389057Y-162785433D01*
X143389057Y-162785433D02*
X143469870Y-162866245D01*
X143469870Y-162866245D02*
X143550682Y-162893182D01*
X143550682Y-162893182D02*
X143604557Y-162893182D01*
X143604557Y-162893182D02*
X143685369Y-162866245D01*
X143685369Y-162866245D02*
X143900868Y-162650746D01*
X143308245Y-163782117D02*
X143631494Y-163458868D01*
X143469870Y-163620492D02*
X142904184Y-163054807D01*
X142904184Y-163054807D02*
X143038871Y-163081744D01*
X143038871Y-163081744D02*
X143146621Y-163081744D01*
X143146621Y-163081744D02*
X143227433Y-163054807D01*
X142661747Y-163782117D02*
X142688685Y-163701305D01*
X142688685Y-163701305D02*
X142688685Y-163647430D01*
X142688685Y-163647430D02*
X142661747Y-163566618D01*
X142661747Y-163566618D02*
X142634810Y-163539680D01*
X142634810Y-163539680D02*
X142553998Y-163512743D01*
X142553998Y-163512743D02*
X142500123Y-163512743D01*
X142500123Y-163512743D02*
X142419311Y-163539680D01*
X142419311Y-163539680D02*
X142311561Y-163647430D01*
X142311561Y-163647430D02*
X142284624Y-163728242D01*
X142284624Y-163728242D02*
X142284624Y-163782117D01*
X142284624Y-163782117D02*
X142311561Y-163862929D01*
X142311561Y-163862929D02*
X142338499Y-163889866D01*
X142338499Y-163889866D02*
X142419311Y-163916804D01*
X142419311Y-163916804D02*
X142473186Y-163916804D01*
X142473186Y-163916804D02*
X142553998Y-163889866D01*
X142553998Y-163889866D02*
X142661747Y-163782117D01*
X142661747Y-163782117D02*
X142742560Y-163755179D01*
X142742560Y-163755179D02*
X142796434Y-163755179D01*
X142796434Y-163755179D02*
X142877247Y-163782117D01*
X142877247Y-163782117D02*
X142984996Y-163889866D01*
X142984996Y-163889866D02*
X143011934Y-163970679D01*
X143011934Y-163970679D02*
X143011934Y-164024553D01*
X143011934Y-164024553D02*
X142984996Y-164105366D01*
X142984996Y-164105366D02*
X142877247Y-164213115D01*
X142877247Y-164213115D02*
X142796434Y-164240053D01*
X142796434Y-164240053D02*
X142742560Y-164240053D01*
X142742560Y-164240053D02*
X142661747Y-164213115D01*
X142661747Y-164213115D02*
X142553998Y-164105366D01*
X142553998Y-164105366D02*
X142527060Y-164024553D01*
X142527060Y-164024553D02*
X142527060Y-163970679D01*
X142527060Y-163970679D02*
X142553998Y-163889866D01*
X106070242Y-161788749D02*
X106447366Y-162542996D01*
X106447366Y-162542996D02*
X105693118Y-162165873D01*
X106070242Y-162866245D02*
X106016367Y-162973995D01*
X106016367Y-162973995D02*
X105881680Y-163108682D01*
X105881680Y-163108682D02*
X105800868Y-163135619D01*
X105800868Y-163135619D02*
X105746993Y-163135619D01*
X105746993Y-163135619D02*
X105666181Y-163108682D01*
X105666181Y-163108682D02*
X105612306Y-163054807D01*
X105612306Y-163054807D02*
X105585369Y-162973995D01*
X105585369Y-162973995D02*
X105585369Y-162920120D01*
X105585369Y-162920120D02*
X105612306Y-162839308D01*
X105612306Y-162839308D02*
X105693118Y-162704621D01*
X105693118Y-162704621D02*
X105720056Y-162623808D01*
X105720056Y-162623808D02*
X105720056Y-162569934D01*
X105720056Y-162569934D02*
X105693118Y-162489121D01*
X105693118Y-162489121D02*
X105639244Y-162435247D01*
X105639244Y-162435247D02*
X105558431Y-162408309D01*
X105558431Y-162408309D02*
X105504557Y-162408309D01*
X105504557Y-162408309D02*
X105423744Y-162435247D01*
X105423744Y-162435247D02*
X105289057Y-162569934D01*
X105289057Y-162569934D02*
X105235183Y-162677683D01*
X105154370Y-163297244D02*
X105423744Y-163566618D01*
X105046621Y-162812370D02*
X105154370Y-163297244D01*
X105154370Y-163297244D02*
X104669497Y-163189494D01*
X105046621Y-163889866D02*
X104992746Y-163997616D01*
X104992746Y-163997616D02*
X104858059Y-164132303D01*
X104858059Y-164132303D02*
X104777247Y-164159240D01*
X104777247Y-164159240D02*
X104723372Y-164159240D01*
X104723372Y-164159240D02*
X104642560Y-164132303D01*
X104642560Y-164132303D02*
X104588685Y-164078428D01*
X104588685Y-164078428D02*
X104561748Y-163997616D01*
X104561748Y-163997616D02*
X104561748Y-163943741D01*
X104561748Y-163943741D02*
X104588685Y-163862929D01*
X104588685Y-163862929D02*
X104669497Y-163728242D01*
X104669497Y-163728242D02*
X104696435Y-163647430D01*
X104696435Y-163647430D02*
X104696435Y-163593555D01*
X104696435Y-163593555D02*
X104669497Y-163512743D01*
X104669497Y-163512743D02*
X104615622Y-163458868D01*
X104615622Y-163458868D02*
X104534810Y-163431930D01*
X104534810Y-163431930D02*
X104480935Y-163431930D01*
X104480935Y-163431930D02*
X104400123Y-163458868D01*
X104400123Y-163458868D02*
X104265436Y-163593555D01*
X104265436Y-163593555D02*
X104211561Y-163701304D01*
X121306431Y-174800435D02*
X121333368Y-174719623D01*
X121333368Y-174719623D02*
X121414180Y-174638811D01*
X121414180Y-174638811D02*
X121521930Y-174584936D01*
X121521930Y-174584936D02*
X121629680Y-174584936D01*
X121629680Y-174584936D02*
X121710492Y-174611873D01*
X121710492Y-174611873D02*
X121845179Y-174692685D01*
X121845179Y-174692685D02*
X121925991Y-174773498D01*
X121925991Y-174773498D02*
X122006803Y-174908185D01*
X122006803Y-174908185D02*
X122033741Y-174988997D01*
X122033741Y-174988997D02*
X122033741Y-175096746D01*
X122033741Y-175096746D02*
X121979866Y-175204496D01*
X121979866Y-175204496D02*
X121925991Y-175258371D01*
X121925991Y-175258371D02*
X121818241Y-175312246D01*
X121818241Y-175312246D02*
X121764367Y-175312246D01*
X121764367Y-175312246D02*
X121575805Y-175123684D01*
X121575805Y-175123684D02*
X121683554Y-175015934D01*
X121575805Y-175608557D02*
X121010119Y-175042872D01*
X121010119Y-175042872D02*
X121252556Y-175931806D01*
X121252556Y-175931806D02*
X120686871Y-175366120D01*
X120983182Y-176201180D02*
X120417497Y-175635494D01*
X120417497Y-175635494D02*
X120282810Y-175770181D01*
X120282810Y-175770181D02*
X120228935Y-175877931D01*
X120228935Y-175877931D02*
X120228935Y-175985680D01*
X120228935Y-175985680D02*
X120255872Y-176066493D01*
X120255872Y-176066493D02*
X120336685Y-176201180D01*
X120336685Y-176201180D02*
X120417497Y-176281992D01*
X120417497Y-176281992D02*
X120552184Y-176362804D01*
X120552184Y-176362804D02*
X120632996Y-176389741D01*
X120632996Y-176389741D02*
X120740746Y-176389741D01*
X120740746Y-176389741D02*
X120848495Y-176335867D01*
X120848495Y-176335867D02*
X120983182Y-176201180D01*
X146198431Y-162100435D02*
X146225368Y-162019623D01*
X146225368Y-162019623D02*
X146306180Y-161938811D01*
X146306180Y-161938811D02*
X146413930Y-161884936D01*
X146413930Y-161884936D02*
X146521680Y-161884936D01*
X146521680Y-161884936D02*
X146602492Y-161911873D01*
X146602492Y-161911873D02*
X146737179Y-161992685D01*
X146737179Y-161992685D02*
X146817991Y-162073498D01*
X146817991Y-162073498D02*
X146898803Y-162208185D01*
X146898803Y-162208185D02*
X146925741Y-162288997D01*
X146925741Y-162288997D02*
X146925741Y-162396746D01*
X146925741Y-162396746D02*
X146871866Y-162504496D01*
X146871866Y-162504496D02*
X146817991Y-162558371D01*
X146817991Y-162558371D02*
X146710241Y-162612246D01*
X146710241Y-162612246D02*
X146656367Y-162612246D01*
X146656367Y-162612246D02*
X146467805Y-162423684D01*
X146467805Y-162423684D02*
X146575554Y-162315934D01*
X146467805Y-162908557D02*
X145902119Y-162342872D01*
X145902119Y-162342872D02*
X146144556Y-163231806D01*
X146144556Y-163231806D02*
X145578871Y-162666120D01*
X145875182Y-163501180D02*
X145309497Y-162935494D01*
X145309497Y-162935494D02*
X145174810Y-163070181D01*
X145174810Y-163070181D02*
X145120935Y-163177931D01*
X145120935Y-163177931D02*
X145120935Y-163285680D01*
X145120935Y-163285680D02*
X145147872Y-163366493D01*
X145147872Y-163366493D02*
X145228685Y-163501180D01*
X145228685Y-163501180D02*
X145309497Y-163581992D01*
X145309497Y-163581992D02*
X145444184Y-163662804D01*
X145444184Y-163662804D02*
X145524996Y-163689741D01*
X145524996Y-163689741D02*
X145632746Y-163689741D01*
X145632746Y-163689741D02*
X145740495Y-163635867D01*
X145740495Y-163635867D02*
X145875182Y-163501180D01*
X146833431Y-174546435D02*
X146860368Y-174465623D01*
X146860368Y-174465623D02*
X146941180Y-174384811D01*
X146941180Y-174384811D02*
X147048930Y-174330936D01*
X147048930Y-174330936D02*
X147156680Y-174330936D01*
X147156680Y-174330936D02*
X147237492Y-174357873D01*
X147237492Y-174357873D02*
X147372179Y-174438685D01*
X147372179Y-174438685D02*
X147452991Y-174519498D01*
X147452991Y-174519498D02*
X147533803Y-174654185D01*
X147533803Y-174654185D02*
X147560741Y-174734997D01*
X147560741Y-174734997D02*
X147560741Y-174842746D01*
X147560741Y-174842746D02*
X147506866Y-174950496D01*
X147506866Y-174950496D02*
X147452991Y-175004371D01*
X147452991Y-175004371D02*
X147345241Y-175058246D01*
X147345241Y-175058246D02*
X147291367Y-175058246D01*
X147291367Y-175058246D02*
X147102805Y-174869684D01*
X147102805Y-174869684D02*
X147210554Y-174761934D01*
X147102805Y-175354557D02*
X146537119Y-174788872D01*
X146537119Y-174788872D02*
X146779556Y-175677806D01*
X146779556Y-175677806D02*
X146213871Y-175112120D01*
X146510182Y-175947180D02*
X145944497Y-175381494D01*
X145944497Y-175381494D02*
X145809810Y-175516181D01*
X145809810Y-175516181D02*
X145755935Y-175623931D01*
X145755935Y-175623931D02*
X145755935Y-175731680D01*
X145755935Y-175731680D02*
X145782872Y-175812493D01*
X145782872Y-175812493D02*
X145863685Y-175947180D01*
X145863685Y-175947180D02*
X145944497Y-176027992D01*
X145944497Y-176027992D02*
X146079184Y-176108804D01*
X146079184Y-176108804D02*
X146159996Y-176135741D01*
X146159996Y-176135741D02*
X146267746Y-176135741D01*
X146267746Y-176135741D02*
X146375495Y-176081867D01*
X146375495Y-176081867D02*
X146510182Y-175947180D01*
X116588049Y-161985064D02*
X116318675Y-162254438D01*
X116803549Y-162092813D02*
X116049301Y-161715690D01*
X116049301Y-161715690D02*
X116426425Y-162469937D01*
X116237863Y-162658499D02*
X115672178Y-162092813D01*
X115672178Y-162092813D02*
X115537491Y-162227500D01*
X115537491Y-162227500D02*
X115483616Y-162335250D01*
X115483616Y-162335250D02*
X115483616Y-162442999D01*
X115483616Y-162442999D02*
X115510553Y-162523812D01*
X115510553Y-162523812D02*
X115591366Y-162658499D01*
X115591366Y-162658499D02*
X115672178Y-162739311D01*
X115672178Y-162739311D02*
X115806865Y-162820123D01*
X115806865Y-162820123D02*
X115887677Y-162847060D01*
X115887677Y-162847060D02*
X115995427Y-162847060D01*
X115995427Y-162847060D02*
X116103176Y-162793186D01*
X116103176Y-162793186D02*
X116237863Y-162658499D01*
X115295054Y-163493558D02*
X115348929Y-163493558D01*
X115348929Y-163493558D02*
X115456679Y-163439683D01*
X115456679Y-163439683D02*
X115510553Y-163385808D01*
X115510553Y-163385808D02*
X115564428Y-163278059D01*
X115564428Y-163278059D02*
X115564428Y-163170309D01*
X115564428Y-163170309D02*
X115537491Y-163089497D01*
X115537491Y-163089497D02*
X115456679Y-162954810D01*
X115456679Y-162954810D02*
X115375866Y-162873998D01*
X115375866Y-162873998D02*
X115241179Y-162793186D01*
X115241179Y-162793186D02*
X115160367Y-162766248D01*
X115160367Y-162766248D02*
X115052618Y-162766248D01*
X115052618Y-162766248D02*
X114944868Y-162820123D01*
X114944868Y-162820123D02*
X114890993Y-162873998D01*
X114890993Y-162873998D02*
X114837118Y-162981747D01*
X114837118Y-162981747D02*
X114837118Y-163035622D01*
X115295054Y-163709057D02*
X114864056Y-164140056D01*
X114190621Y-163574370D02*
X114567744Y-164328618D01*
X114567744Y-164328618D02*
X113813497Y-163951494D01*
X113867372Y-165028990D02*
X113786560Y-164571054D01*
X114190621Y-164705741D02*
X113624935Y-164140056D01*
X113624935Y-164140056D02*
X113409436Y-164355555D01*
X113409436Y-164355555D02*
X113382499Y-164436367D01*
X113382499Y-164436367D02*
X113382499Y-164490242D01*
X113382499Y-164490242D02*
X113409436Y-164571054D01*
X113409436Y-164571054D02*
X113490248Y-164651866D01*
X113490248Y-164651866D02*
X113571061Y-164678804D01*
X113571061Y-164678804D02*
X113624935Y-164678804D01*
X113624935Y-164678804D02*
X113705748Y-164651866D01*
X113705748Y-164651866D02*
X113921247Y-164436367D01*
X113328624Y-164975115D02*
X113140062Y-165163677D01*
X113355561Y-165540800D02*
X113624935Y-165271426D01*
X113624935Y-165271426D02*
X113059250Y-164705741D01*
X113059250Y-164705741D02*
X112789876Y-164975115D01*
X112628251Y-165675488D02*
X112816813Y-165486926D01*
X113113125Y-165783237D02*
X112547439Y-165217552D01*
X112547439Y-165217552D02*
X112278065Y-165486926D01*
X144408868Y-174303998D02*
X144435805Y-174223185D01*
X144435805Y-174223185D02*
X144516618Y-174142373D01*
X144516618Y-174142373D02*
X144624367Y-174088498D01*
X144624367Y-174088498D02*
X144732117Y-174088498D01*
X144732117Y-174088498D02*
X144812929Y-174115436D01*
X144812929Y-174115436D02*
X144947616Y-174196248D01*
X144947616Y-174196248D02*
X145028428Y-174277060D01*
X145028428Y-174277060D02*
X145109241Y-174411747D01*
X145109241Y-174411747D02*
X145136178Y-174492560D01*
X145136178Y-174492560D02*
X145136178Y-174600309D01*
X145136178Y-174600309D02*
X145082303Y-174708059D01*
X145082303Y-174708059D02*
X145028428Y-174761934D01*
X145028428Y-174761934D02*
X144920679Y-174815808D01*
X144920679Y-174815808D02*
X144866804Y-174815808D01*
X144866804Y-174815808D02*
X144678242Y-174627247D01*
X144678242Y-174627247D02*
X144785992Y-174519497D01*
X144678242Y-175112120D02*
X144112557Y-174546434D01*
X144112557Y-174546434D02*
X143897057Y-174761934D01*
X143897057Y-174761934D02*
X143870120Y-174842746D01*
X143870120Y-174842746D02*
X143870120Y-174896621D01*
X143870120Y-174896621D02*
X143897057Y-174977433D01*
X143897057Y-174977433D02*
X143977870Y-175058245D01*
X143977870Y-175058245D02*
X144058682Y-175085182D01*
X144058682Y-175085182D02*
X144112557Y-175085182D01*
X144112557Y-175085182D02*
X144193369Y-175058245D01*
X144193369Y-175058245D02*
X144408868Y-174842746D01*
X143816245Y-175974117D02*
X144139494Y-175650868D01*
X143977870Y-175812492D02*
X143412184Y-175246807D01*
X143412184Y-175246807D02*
X143546871Y-175273744D01*
X143546871Y-175273744D02*
X143654621Y-175273744D01*
X143654621Y-175273744D02*
X143735433Y-175246807D01*
X143061998Y-175596993D02*
X142711812Y-175947179D01*
X142711812Y-175947179D02*
X143115873Y-175974117D01*
X143115873Y-175974117D02*
X143035060Y-176054929D01*
X143035060Y-176054929D02*
X143008123Y-176135741D01*
X143008123Y-176135741D02*
X143008123Y-176189616D01*
X143008123Y-176189616D02*
X143035060Y-176270428D01*
X143035060Y-176270428D02*
X143169747Y-176405115D01*
X143169747Y-176405115D02*
X143250560Y-176432053D01*
X143250560Y-176432053D02*
X143304434Y-176432053D01*
X143304434Y-176432053D02*
X143385247Y-176405115D01*
X143385247Y-176405115D02*
X143546871Y-176243491D01*
X143546871Y-176243491D02*
X143573808Y-176162679D01*
X143573808Y-176162679D02*
X143573808Y-176108804D01*
X126359494Y-174827372D02*
X126386431Y-174746560D01*
X126386431Y-174746560D02*
X126467243Y-174665748D01*
X126467243Y-174665748D02*
X126574993Y-174611873D01*
X126574993Y-174611873D02*
X126682742Y-174611873D01*
X126682742Y-174611873D02*
X126763555Y-174638810D01*
X126763555Y-174638810D02*
X126898242Y-174719623D01*
X126898242Y-174719623D02*
X126979054Y-174800435D01*
X126979054Y-174800435D02*
X127059866Y-174935122D01*
X127059866Y-174935122D02*
X127086803Y-175015934D01*
X127086803Y-175015934D02*
X127086803Y-175123684D01*
X127086803Y-175123684D02*
X127032929Y-175231433D01*
X127032929Y-175231433D02*
X126979054Y-175285308D01*
X126979054Y-175285308D02*
X126871304Y-175339183D01*
X126871304Y-175339183D02*
X126817429Y-175339183D01*
X126817429Y-175339183D02*
X126628868Y-175150621D01*
X126628868Y-175150621D02*
X126736617Y-175042871D01*
X126628868Y-175635494D02*
X126063182Y-175069809D01*
X126063182Y-175069809D02*
X125847683Y-175285308D01*
X125847683Y-175285308D02*
X125820746Y-175366120D01*
X125820746Y-175366120D02*
X125820746Y-175419995D01*
X125820746Y-175419995D02*
X125847683Y-175500807D01*
X125847683Y-175500807D02*
X125928495Y-175581619D01*
X125928495Y-175581619D02*
X126009307Y-175608557D01*
X126009307Y-175608557D02*
X126063182Y-175608557D01*
X126063182Y-175608557D02*
X126143994Y-175581619D01*
X126143994Y-175581619D02*
X126359494Y-175366120D01*
X125551372Y-175581619D02*
X125174248Y-175958743D01*
X125174248Y-175958743D02*
X125982370Y-176281992D01*
X152028868Y-174557998D02*
X152055805Y-174477185D01*
X152055805Y-174477185D02*
X152136618Y-174396373D01*
X152136618Y-174396373D02*
X152244367Y-174342498D01*
X152244367Y-174342498D02*
X152352117Y-174342498D01*
X152352117Y-174342498D02*
X152432929Y-174369436D01*
X152432929Y-174369436D02*
X152567616Y-174450248D01*
X152567616Y-174450248D02*
X152648428Y-174531060D01*
X152648428Y-174531060D02*
X152729241Y-174665747D01*
X152729241Y-174665747D02*
X152756178Y-174746560D01*
X152756178Y-174746560D02*
X152756178Y-174854309D01*
X152756178Y-174854309D02*
X152702303Y-174962059D01*
X152702303Y-174962059D02*
X152648428Y-175015934D01*
X152648428Y-175015934D02*
X152540679Y-175069808D01*
X152540679Y-175069808D02*
X152486804Y-175069808D01*
X152486804Y-175069808D02*
X152298242Y-174881247D01*
X152298242Y-174881247D02*
X152405992Y-174773497D01*
X152298242Y-175366120D02*
X151732557Y-174800434D01*
X151732557Y-174800434D02*
X151517057Y-175015934D01*
X151517057Y-175015934D02*
X151490120Y-175096746D01*
X151490120Y-175096746D02*
X151490120Y-175150621D01*
X151490120Y-175150621D02*
X151517057Y-175231433D01*
X151517057Y-175231433D02*
X151597870Y-175312245D01*
X151597870Y-175312245D02*
X151678682Y-175339182D01*
X151678682Y-175339182D02*
X151732557Y-175339182D01*
X151732557Y-175339182D02*
X151813369Y-175312245D01*
X151813369Y-175312245D02*
X152028868Y-175096746D01*
X151436245Y-176228117D02*
X151759494Y-175904868D01*
X151597870Y-176066492D02*
X151032184Y-175500807D01*
X151032184Y-175500807D02*
X151166871Y-175527744D01*
X151166871Y-175527744D02*
X151274621Y-175527744D01*
X151274621Y-175527744D02*
X151355433Y-175500807D01*
X150358749Y-176174242D02*
X150628123Y-175904868D01*
X150628123Y-175904868D02*
X150924434Y-176147305D01*
X150924434Y-176147305D02*
X150870560Y-176147305D01*
X150870560Y-176147305D02*
X150789747Y-176174242D01*
X150789747Y-176174242D02*
X150655060Y-176308929D01*
X150655060Y-176308929D02*
X150628123Y-176389741D01*
X150628123Y-176389741D02*
X150628123Y-176443616D01*
X150628123Y-176443616D02*
X150655060Y-176524428D01*
X150655060Y-176524428D02*
X150789747Y-176659115D01*
X150789747Y-176659115D02*
X150870560Y-176686053D01*
X150870560Y-176686053D02*
X150924434Y-176686053D01*
X150924434Y-176686053D02*
X151005247Y-176659115D01*
X151005247Y-176659115D02*
X151139934Y-176524428D01*
X151139934Y-176524428D02*
X151166871Y-176443616D01*
X151166871Y-176443616D02*
X151166871Y-176389741D01*
X123326868Y-162111998D02*
X123353805Y-162031185D01*
X123353805Y-162031185D02*
X123434618Y-161950373D01*
X123434618Y-161950373D02*
X123542367Y-161896498D01*
X123542367Y-161896498D02*
X123650117Y-161896498D01*
X123650117Y-161896498D02*
X123730929Y-161923436D01*
X123730929Y-161923436D02*
X123865616Y-162004248D01*
X123865616Y-162004248D02*
X123946428Y-162085060D01*
X123946428Y-162085060D02*
X124027241Y-162219747D01*
X124027241Y-162219747D02*
X124054178Y-162300560D01*
X124054178Y-162300560D02*
X124054178Y-162408309D01*
X124054178Y-162408309D02*
X124000303Y-162516059D01*
X124000303Y-162516059D02*
X123946428Y-162569934D01*
X123946428Y-162569934D02*
X123838679Y-162623808D01*
X123838679Y-162623808D02*
X123784804Y-162623808D01*
X123784804Y-162623808D02*
X123596242Y-162435247D01*
X123596242Y-162435247D02*
X123703992Y-162327497D01*
X123596242Y-162920120D02*
X123030557Y-162354434D01*
X123030557Y-162354434D02*
X122815057Y-162569934D01*
X122815057Y-162569934D02*
X122788120Y-162650746D01*
X122788120Y-162650746D02*
X122788120Y-162704621D01*
X122788120Y-162704621D02*
X122815057Y-162785433D01*
X122815057Y-162785433D02*
X122895870Y-162866245D01*
X122895870Y-162866245D02*
X122976682Y-162893182D01*
X122976682Y-162893182D02*
X123030557Y-162893182D01*
X123030557Y-162893182D02*
X123111369Y-162866245D01*
X123111369Y-162866245D02*
X123326868Y-162650746D01*
X122545683Y-162947057D02*
X122491809Y-162947057D01*
X122491809Y-162947057D02*
X122410996Y-162973995D01*
X122410996Y-162973995D02*
X122276309Y-163108682D01*
X122276309Y-163108682D02*
X122249372Y-163189494D01*
X122249372Y-163189494D02*
X122249372Y-163243369D01*
X122249372Y-163243369D02*
X122276309Y-163324181D01*
X122276309Y-163324181D02*
X122330184Y-163378056D01*
X122330184Y-163378056D02*
X122437934Y-163431930D01*
X122437934Y-163431930D02*
X123084431Y-163431930D01*
X123084431Y-163431930D02*
X122734245Y-163782117D01*
X121979998Y-163404993D02*
X121602874Y-163782117D01*
X121602874Y-163782117D02*
X122410996Y-164105366D01*
X131566494Y-174827372D02*
X131593431Y-174746560D01*
X131593431Y-174746560D02*
X131674243Y-174665748D01*
X131674243Y-174665748D02*
X131781993Y-174611873D01*
X131781993Y-174611873D02*
X131889742Y-174611873D01*
X131889742Y-174611873D02*
X131970555Y-174638810D01*
X131970555Y-174638810D02*
X132105242Y-174719623D01*
X132105242Y-174719623D02*
X132186054Y-174800435D01*
X132186054Y-174800435D02*
X132266866Y-174935122D01*
X132266866Y-174935122D02*
X132293803Y-175015934D01*
X132293803Y-175015934D02*
X132293803Y-175123684D01*
X132293803Y-175123684D02*
X132239929Y-175231433D01*
X132239929Y-175231433D02*
X132186054Y-175285308D01*
X132186054Y-175285308D02*
X132078304Y-175339183D01*
X132078304Y-175339183D02*
X132024429Y-175339183D01*
X132024429Y-175339183D02*
X131835868Y-175150621D01*
X131835868Y-175150621D02*
X131943617Y-175042871D01*
X131835868Y-175635494D02*
X131270182Y-175069809D01*
X131270182Y-175069809D02*
X131054683Y-175285308D01*
X131054683Y-175285308D02*
X131027746Y-175366120D01*
X131027746Y-175366120D02*
X131027746Y-175419995D01*
X131027746Y-175419995D02*
X131054683Y-175500807D01*
X131054683Y-175500807D02*
X131135495Y-175581619D01*
X131135495Y-175581619D02*
X131216307Y-175608557D01*
X131216307Y-175608557D02*
X131270182Y-175608557D01*
X131270182Y-175608557D02*
X131350994Y-175581619D01*
X131350994Y-175581619D02*
X131566494Y-175366120D01*
X131243245Y-176228117D02*
X131135495Y-176335867D01*
X131135495Y-176335867D02*
X131054683Y-176362804D01*
X131054683Y-176362804D02*
X131000808Y-176362804D01*
X131000808Y-176362804D02*
X130866121Y-176335867D01*
X130866121Y-176335867D02*
X130731434Y-176255054D01*
X130731434Y-176255054D02*
X130515935Y-176039555D01*
X130515935Y-176039555D02*
X130488998Y-175958743D01*
X130488998Y-175958743D02*
X130488998Y-175904868D01*
X130488998Y-175904868D02*
X130515935Y-175824056D01*
X130515935Y-175824056D02*
X130623685Y-175716306D01*
X130623685Y-175716306D02*
X130704497Y-175689369D01*
X130704497Y-175689369D02*
X130758372Y-175689369D01*
X130758372Y-175689369D02*
X130839184Y-175716306D01*
X130839184Y-175716306D02*
X130973871Y-175850993D01*
X130973871Y-175850993D02*
X131000808Y-175931806D01*
X131000808Y-175931806D02*
X131000808Y-175985680D01*
X131000808Y-175985680D02*
X130973871Y-176066493D01*
X130973871Y-176066493D02*
X130866121Y-176174242D01*
X130866121Y-176174242D02*
X130785309Y-176201180D01*
X130785309Y-176201180D02*
X130731434Y-176201180D01*
X130731434Y-176201180D02*
X130650622Y-176174242D01*
X111140584Y-161544407D02*
X110790398Y-161894593D01*
X110790398Y-161894593D02*
X111194459Y-161921531D01*
X111194459Y-161921531D02*
X111113646Y-162002343D01*
X111113646Y-162002343D02*
X111086709Y-162083155D01*
X111086709Y-162083155D02*
X111086709Y-162137030D01*
X111086709Y-162137030D02*
X111113646Y-162217842D01*
X111113646Y-162217842D02*
X111248333Y-162352529D01*
X111248333Y-162352529D02*
X111329146Y-162379467D01*
X111329146Y-162379467D02*
X111383020Y-162379467D01*
X111383020Y-162379467D02*
X111463833Y-162352529D01*
X111463833Y-162352529D02*
X111625457Y-162190905D01*
X111625457Y-162190905D02*
X111652394Y-162110093D01*
X111652394Y-162110093D02*
X111652394Y-162056218D01*
X110628773Y-162056218D02*
X111005897Y-162810465D01*
X111005897Y-162810465D02*
X110251649Y-162433342D01*
X110116963Y-162568028D02*
X109766776Y-162918215D01*
X109766776Y-162918215D02*
X110170837Y-162945152D01*
X110170837Y-162945152D02*
X110090025Y-163025964D01*
X110090025Y-163025964D02*
X110063088Y-163106776D01*
X110063088Y-163106776D02*
X110063088Y-163160651D01*
X110063088Y-163160651D02*
X110090025Y-163241464D01*
X110090025Y-163241464D02*
X110224712Y-163376151D01*
X110224712Y-163376151D02*
X110305524Y-163403088D01*
X110305524Y-163403088D02*
X110359399Y-163403088D01*
X110359399Y-163403088D02*
X110440211Y-163376151D01*
X110440211Y-163376151D02*
X110601836Y-163214526D01*
X110601836Y-163214526D02*
X110628773Y-163133714D01*
X110628773Y-163133714D02*
X110628773Y-163079839D01*
X110278587Y-163645525D02*
X109847588Y-164076523D01*
X109362715Y-163861024D02*
X109174153Y-164049586D01*
X109389652Y-164426709D02*
X109659026Y-164157335D01*
X109659026Y-164157335D02*
X109093341Y-163591650D01*
X109093341Y-163591650D02*
X108823967Y-163861024D01*
X109147215Y-164669146D02*
X108581530Y-164103461D01*
X108581530Y-164103461D02*
X108823967Y-164992395D01*
X108823967Y-164992395D02*
X108258281Y-164426710D01*
X113761494Y-174683372D02*
X113788431Y-174602560D01*
X113788431Y-174602560D02*
X113869243Y-174521748D01*
X113869243Y-174521748D02*
X113976993Y-174467873D01*
X113976993Y-174467873D02*
X114084742Y-174467873D01*
X114084742Y-174467873D02*
X114165555Y-174494810D01*
X114165555Y-174494810D02*
X114300242Y-174575623D01*
X114300242Y-174575623D02*
X114381054Y-174656435D01*
X114381054Y-174656435D02*
X114461866Y-174791122D01*
X114461866Y-174791122D02*
X114488803Y-174871934D01*
X114488803Y-174871934D02*
X114488803Y-174979684D01*
X114488803Y-174979684D02*
X114434929Y-175087433D01*
X114434929Y-175087433D02*
X114381054Y-175141308D01*
X114381054Y-175141308D02*
X114273304Y-175195183D01*
X114273304Y-175195183D02*
X114219429Y-175195183D01*
X114219429Y-175195183D02*
X114030868Y-175006621D01*
X114030868Y-175006621D02*
X114138617Y-174898871D01*
X114030868Y-175491494D02*
X113465182Y-174925809D01*
X113465182Y-174925809D02*
X113249683Y-175141308D01*
X113249683Y-175141308D02*
X113222746Y-175222120D01*
X113222746Y-175222120D02*
X113222746Y-175275995D01*
X113222746Y-175275995D02*
X113249683Y-175356807D01*
X113249683Y-175356807D02*
X113330495Y-175437619D01*
X113330495Y-175437619D02*
X113411307Y-175464557D01*
X113411307Y-175464557D02*
X113465182Y-175464557D01*
X113465182Y-175464557D02*
X113545994Y-175437619D01*
X113545994Y-175437619D02*
X113761494Y-175222120D01*
X112953372Y-175437619D02*
X112603185Y-175787806D01*
X112603185Y-175787806D02*
X113007246Y-175814743D01*
X113007246Y-175814743D02*
X112926434Y-175895555D01*
X112926434Y-175895555D02*
X112899497Y-175976367D01*
X112899497Y-175976367D02*
X112899497Y-176030242D01*
X112899497Y-176030242D02*
X112926434Y-176111054D01*
X112926434Y-176111054D02*
X113061121Y-176245741D01*
X113061121Y-176245741D02*
X113141933Y-176272679D01*
X113141933Y-176272679D02*
X113195808Y-176272679D01*
X113195808Y-176272679D02*
X113276620Y-176245741D01*
X113276620Y-176245741D02*
X113438245Y-176084117D01*
X113438245Y-176084117D02*
X113465182Y-176003305D01*
X113465182Y-176003305D02*
X113465182Y-175949430D01*
X139074868Y-174303998D02*
X139101805Y-174223185D01*
X139101805Y-174223185D02*
X139182618Y-174142373D01*
X139182618Y-174142373D02*
X139290367Y-174088498D01*
X139290367Y-174088498D02*
X139398117Y-174088498D01*
X139398117Y-174088498D02*
X139478929Y-174115436D01*
X139478929Y-174115436D02*
X139613616Y-174196248D01*
X139613616Y-174196248D02*
X139694428Y-174277060D01*
X139694428Y-174277060D02*
X139775241Y-174411747D01*
X139775241Y-174411747D02*
X139802178Y-174492560D01*
X139802178Y-174492560D02*
X139802178Y-174600309D01*
X139802178Y-174600309D02*
X139748303Y-174708059D01*
X139748303Y-174708059D02*
X139694428Y-174761934D01*
X139694428Y-174761934D02*
X139586679Y-174815808D01*
X139586679Y-174815808D02*
X139532804Y-174815808D01*
X139532804Y-174815808D02*
X139344242Y-174627247D01*
X139344242Y-174627247D02*
X139451992Y-174519497D01*
X139344242Y-175112120D02*
X138778557Y-174546434D01*
X138778557Y-174546434D02*
X138563057Y-174761934D01*
X138563057Y-174761934D02*
X138536120Y-174842746D01*
X138536120Y-174842746D02*
X138536120Y-174896621D01*
X138536120Y-174896621D02*
X138563057Y-174977433D01*
X138563057Y-174977433D02*
X138643870Y-175058245D01*
X138643870Y-175058245D02*
X138724682Y-175085182D01*
X138724682Y-175085182D02*
X138778557Y-175085182D01*
X138778557Y-175085182D02*
X138859369Y-175058245D01*
X138859369Y-175058245D02*
X139074868Y-174842746D01*
X138482245Y-175974117D02*
X138805494Y-175650868D01*
X138643870Y-175812492D02*
X138078184Y-175246807D01*
X138078184Y-175246807D02*
X138212871Y-175273744D01*
X138212871Y-175273744D02*
X138320621Y-175273744D01*
X138320621Y-175273744D02*
X138401433Y-175246807D01*
X137943497Y-176512865D02*
X138266746Y-176189616D01*
X138105121Y-176351240D02*
X137539436Y-175785555D01*
X137539436Y-175785555D02*
X137674123Y-175812492D01*
X137674123Y-175812492D02*
X137781873Y-175812492D01*
X137781873Y-175812492D02*
X137862685Y-175785555D01*
X106441494Y-174293372D02*
X106468431Y-174212560D01*
X106468431Y-174212560D02*
X106549243Y-174131748D01*
X106549243Y-174131748D02*
X106656993Y-174077873D01*
X106656993Y-174077873D02*
X106764742Y-174077873D01*
X106764742Y-174077873D02*
X106845555Y-174104810D01*
X106845555Y-174104810D02*
X106980242Y-174185623D01*
X106980242Y-174185623D02*
X107061054Y-174266435D01*
X107061054Y-174266435D02*
X107141866Y-174401122D01*
X107141866Y-174401122D02*
X107168803Y-174481934D01*
X107168803Y-174481934D02*
X107168803Y-174589684D01*
X107168803Y-174589684D02*
X107114929Y-174697433D01*
X107114929Y-174697433D02*
X107061054Y-174751308D01*
X107061054Y-174751308D02*
X106953304Y-174805183D01*
X106953304Y-174805183D02*
X106899429Y-174805183D01*
X106899429Y-174805183D02*
X106710868Y-174616621D01*
X106710868Y-174616621D02*
X106818617Y-174508871D01*
X106710868Y-175101494D02*
X106145182Y-174535809D01*
X106145182Y-174535809D02*
X105929683Y-174751308D01*
X105929683Y-174751308D02*
X105902746Y-174832120D01*
X105902746Y-174832120D02*
X105902746Y-174885995D01*
X105902746Y-174885995D02*
X105929683Y-174966807D01*
X105929683Y-174966807D02*
X106010495Y-175047619D01*
X106010495Y-175047619D02*
X106091307Y-175074557D01*
X106091307Y-175074557D02*
X106145182Y-175074557D01*
X106145182Y-175074557D02*
X106225994Y-175047619D01*
X106225994Y-175047619D02*
X106441494Y-174832120D01*
X105848871Y-175963491D02*
X106172120Y-175640242D01*
X106010495Y-175801867D02*
X105444810Y-175236181D01*
X105444810Y-175236181D02*
X105579497Y-175263119D01*
X105579497Y-175263119D02*
X105687246Y-175263119D01*
X105687246Y-175263119D02*
X105768059Y-175236181D01*
X129026494Y-174573372D02*
X129053431Y-174492560D01*
X129053431Y-174492560D02*
X129134243Y-174411748D01*
X129134243Y-174411748D02*
X129241993Y-174357873D01*
X129241993Y-174357873D02*
X129349742Y-174357873D01*
X129349742Y-174357873D02*
X129430555Y-174384810D01*
X129430555Y-174384810D02*
X129565242Y-174465623D01*
X129565242Y-174465623D02*
X129646054Y-174546435D01*
X129646054Y-174546435D02*
X129726866Y-174681122D01*
X129726866Y-174681122D02*
X129753803Y-174761934D01*
X129753803Y-174761934D02*
X129753803Y-174869684D01*
X129753803Y-174869684D02*
X129699929Y-174977433D01*
X129699929Y-174977433D02*
X129646054Y-175031308D01*
X129646054Y-175031308D02*
X129538304Y-175085183D01*
X129538304Y-175085183D02*
X129484429Y-175085183D01*
X129484429Y-175085183D02*
X129295868Y-174896621D01*
X129295868Y-174896621D02*
X129403617Y-174788871D01*
X129295868Y-175381494D02*
X128730182Y-174815809D01*
X128730182Y-174815809D02*
X128514683Y-175031308D01*
X128514683Y-175031308D02*
X128487746Y-175112120D01*
X128487746Y-175112120D02*
X128487746Y-175165995D01*
X128487746Y-175165995D02*
X128514683Y-175246807D01*
X128514683Y-175246807D02*
X128595495Y-175327619D01*
X128595495Y-175327619D02*
X128676307Y-175354557D01*
X128676307Y-175354557D02*
X128730182Y-175354557D01*
X128730182Y-175354557D02*
X128810994Y-175327619D01*
X128810994Y-175327619D02*
X129026494Y-175112120D01*
X128326121Y-175704743D02*
X128353059Y-175623931D01*
X128353059Y-175623931D02*
X128353059Y-175570056D01*
X128353059Y-175570056D02*
X128326121Y-175489244D01*
X128326121Y-175489244D02*
X128299184Y-175462306D01*
X128299184Y-175462306D02*
X128218372Y-175435369D01*
X128218372Y-175435369D02*
X128164497Y-175435369D01*
X128164497Y-175435369D02*
X128083685Y-175462306D01*
X128083685Y-175462306D02*
X127975935Y-175570056D01*
X127975935Y-175570056D02*
X127948998Y-175650868D01*
X127948998Y-175650868D02*
X127948998Y-175704743D01*
X127948998Y-175704743D02*
X127975935Y-175785555D01*
X127975935Y-175785555D02*
X128002872Y-175812493D01*
X128002872Y-175812493D02*
X128083685Y-175839430D01*
X128083685Y-175839430D02*
X128137559Y-175839430D01*
X128137559Y-175839430D02*
X128218372Y-175812493D01*
X128218372Y-175812493D02*
X128326121Y-175704743D01*
X128326121Y-175704743D02*
X128406933Y-175677806D01*
X128406933Y-175677806D02*
X128460808Y-175677806D01*
X128460808Y-175677806D02*
X128541620Y-175704743D01*
X128541620Y-175704743D02*
X128649370Y-175812493D01*
X128649370Y-175812493D02*
X128676307Y-175893305D01*
X128676307Y-175893305D02*
X128676307Y-175947180D01*
X128676307Y-175947180D02*
X128649370Y-176027992D01*
X128649370Y-176027992D02*
X128541620Y-176135741D01*
X128541620Y-176135741D02*
X128460808Y-176162679D01*
X128460808Y-176162679D02*
X128406933Y-176162679D01*
X128406933Y-176162679D02*
X128326121Y-176135741D01*
X128326121Y-176135741D02*
X128218372Y-176027992D01*
X128218372Y-176027992D02*
X128191434Y-175947180D01*
X128191434Y-175947180D02*
X128191434Y-175893305D01*
X128191434Y-175893305D02*
X128218372Y-175812493D01*
X141360868Y-162111998D02*
X141387805Y-162031185D01*
X141387805Y-162031185D02*
X141468618Y-161950373D01*
X141468618Y-161950373D02*
X141576367Y-161896498D01*
X141576367Y-161896498D02*
X141684117Y-161896498D01*
X141684117Y-161896498D02*
X141764929Y-161923436D01*
X141764929Y-161923436D02*
X141899616Y-162004248D01*
X141899616Y-162004248D02*
X141980428Y-162085060D01*
X141980428Y-162085060D02*
X142061241Y-162219747D01*
X142061241Y-162219747D02*
X142088178Y-162300560D01*
X142088178Y-162300560D02*
X142088178Y-162408309D01*
X142088178Y-162408309D02*
X142034303Y-162516059D01*
X142034303Y-162516059D02*
X141980428Y-162569934D01*
X141980428Y-162569934D02*
X141872679Y-162623808D01*
X141872679Y-162623808D02*
X141818804Y-162623808D01*
X141818804Y-162623808D02*
X141630242Y-162435247D01*
X141630242Y-162435247D02*
X141737992Y-162327497D01*
X141630242Y-162920120D02*
X141064557Y-162354434D01*
X141064557Y-162354434D02*
X140849057Y-162569934D01*
X140849057Y-162569934D02*
X140822120Y-162650746D01*
X140822120Y-162650746D02*
X140822120Y-162704621D01*
X140822120Y-162704621D02*
X140849057Y-162785433D01*
X140849057Y-162785433D02*
X140929870Y-162866245D01*
X140929870Y-162866245D02*
X141010682Y-162893182D01*
X141010682Y-162893182D02*
X141064557Y-162893182D01*
X141064557Y-162893182D02*
X141145369Y-162866245D01*
X141145369Y-162866245D02*
X141360868Y-162650746D01*
X140768245Y-163782117D02*
X141091494Y-163458868D01*
X140929870Y-163620492D02*
X140364184Y-163054807D01*
X140364184Y-163054807D02*
X140498871Y-163081744D01*
X140498871Y-163081744D02*
X140606621Y-163081744D01*
X140606621Y-163081744D02*
X140687433Y-163054807D01*
X140498871Y-164051491D02*
X140391121Y-164159240D01*
X140391121Y-164159240D02*
X140310309Y-164186178D01*
X140310309Y-164186178D02*
X140256434Y-164186178D01*
X140256434Y-164186178D02*
X140121747Y-164159240D01*
X140121747Y-164159240D02*
X139987060Y-164078428D01*
X139987060Y-164078428D02*
X139771561Y-163862929D01*
X139771561Y-163862929D02*
X139744624Y-163782117D01*
X139744624Y-163782117D02*
X139744624Y-163728242D01*
X139744624Y-163728242D02*
X139771561Y-163647430D01*
X139771561Y-163647430D02*
X139879311Y-163539680D01*
X139879311Y-163539680D02*
X139960123Y-163512743D01*
X139960123Y-163512743D02*
X140013998Y-163512743D01*
X140013998Y-163512743D02*
X140094810Y-163539680D01*
X140094810Y-163539680D02*
X140229497Y-163674367D01*
X140229497Y-163674367D02*
X140256434Y-163755179D01*
X140256434Y-163755179D02*
X140256434Y-163809054D01*
X140256434Y-163809054D02*
X140229497Y-163889866D01*
X140229497Y-163889866D02*
X140121747Y-163997616D01*
X140121747Y-163997616D02*
X140040935Y-164024553D01*
X140040935Y-164024553D02*
X139987060Y-164024553D01*
X139987060Y-164024553D02*
X139906248Y-163997616D01*
X121741240Y-161911873D02*
X121471866Y-162181247D01*
X121956739Y-162019623D02*
X121202492Y-161642499D01*
X121202492Y-161642499D02*
X121579615Y-162396746D01*
X120555994Y-162342871D02*
X120582932Y-162262059D01*
X120582932Y-162262059D02*
X120663744Y-162181247D01*
X120663744Y-162181247D02*
X120771494Y-162127372D01*
X120771494Y-162127372D02*
X120879243Y-162127372D01*
X120879243Y-162127372D02*
X120960055Y-162154310D01*
X120960055Y-162154310D02*
X121094742Y-162235122D01*
X121094742Y-162235122D02*
X121175555Y-162315934D01*
X121175555Y-162315934D02*
X121256367Y-162450621D01*
X121256367Y-162450621D02*
X121283304Y-162531433D01*
X121283304Y-162531433D02*
X121283304Y-162639183D01*
X121283304Y-162639183D02*
X121229429Y-162746932D01*
X121229429Y-162746932D02*
X121175555Y-162800807D01*
X121175555Y-162800807D02*
X121067805Y-162854682D01*
X121067805Y-162854682D02*
X121013930Y-162854682D01*
X121013930Y-162854682D02*
X120825368Y-162666120D01*
X120825368Y-162666120D02*
X120933118Y-162558371D01*
X120825368Y-163150993D02*
X120259683Y-162585308D01*
X120259683Y-162585308D02*
X120502120Y-163474242D01*
X120502120Y-163474242D02*
X119936434Y-162908557D01*
X120232746Y-163743616D02*
X119667060Y-163177931D01*
X119667060Y-163177931D02*
X119532373Y-163312618D01*
X119532373Y-163312618D02*
X119478498Y-163420367D01*
X119478498Y-163420367D02*
X119478498Y-163528117D01*
X119478498Y-163528117D02*
X119505436Y-163608929D01*
X119505436Y-163608929D02*
X119586248Y-163743616D01*
X119586248Y-163743616D02*
X119667060Y-163824428D01*
X119667060Y-163824428D02*
X119801747Y-163905241D01*
X119801747Y-163905241D02*
X119882560Y-163932178D01*
X119882560Y-163932178D02*
X119990309Y-163932178D01*
X119990309Y-163932178D02*
X120098059Y-163878303D01*
X120098059Y-163878303D02*
X120232746Y-163743616D01*
X136280868Y-162365998D02*
X136307805Y-162285185D01*
X136307805Y-162285185D02*
X136388618Y-162204373D01*
X136388618Y-162204373D02*
X136496367Y-162150498D01*
X136496367Y-162150498D02*
X136604117Y-162150498D01*
X136604117Y-162150498D02*
X136684929Y-162177436D01*
X136684929Y-162177436D02*
X136819616Y-162258248D01*
X136819616Y-162258248D02*
X136900428Y-162339060D01*
X136900428Y-162339060D02*
X136981241Y-162473747D01*
X136981241Y-162473747D02*
X137008178Y-162554560D01*
X137008178Y-162554560D02*
X137008178Y-162662309D01*
X137008178Y-162662309D02*
X136954303Y-162770059D01*
X136954303Y-162770059D02*
X136900428Y-162823934D01*
X136900428Y-162823934D02*
X136792679Y-162877808D01*
X136792679Y-162877808D02*
X136738804Y-162877808D01*
X136738804Y-162877808D02*
X136550242Y-162689247D01*
X136550242Y-162689247D02*
X136657992Y-162581497D01*
X136550242Y-163174120D02*
X135984557Y-162608434D01*
X135984557Y-162608434D02*
X135769057Y-162823934D01*
X135769057Y-162823934D02*
X135742120Y-162904746D01*
X135742120Y-162904746D02*
X135742120Y-162958621D01*
X135742120Y-162958621D02*
X135769057Y-163039433D01*
X135769057Y-163039433D02*
X135849870Y-163120245D01*
X135849870Y-163120245D02*
X135930682Y-163147182D01*
X135930682Y-163147182D02*
X135984557Y-163147182D01*
X135984557Y-163147182D02*
X136065369Y-163120245D01*
X136065369Y-163120245D02*
X136280868Y-162904746D01*
X135499683Y-163201057D02*
X135445809Y-163201057D01*
X135445809Y-163201057D02*
X135364996Y-163227995D01*
X135364996Y-163227995D02*
X135230309Y-163362682D01*
X135230309Y-163362682D02*
X135203372Y-163443494D01*
X135203372Y-163443494D02*
X135203372Y-163497369D01*
X135203372Y-163497369D02*
X135230309Y-163578181D01*
X135230309Y-163578181D02*
X135284184Y-163632056D01*
X135284184Y-163632056D02*
X135391934Y-163685930D01*
X135391934Y-163685930D02*
X136038431Y-163685930D01*
X136038431Y-163685930D02*
X135688245Y-164036117D01*
X135149497Y-164574865D02*
X135472746Y-164251616D01*
X135311121Y-164413240D02*
X134745436Y-163847555D01*
X134745436Y-163847555D02*
X134880123Y-163874492D01*
X134880123Y-163874492D02*
X134987873Y-163874492D01*
X134987873Y-163874492D02*
X135068685Y-163847555D01*
X108098431Y-162100435D02*
X108125368Y-162019623D01*
X108125368Y-162019623D02*
X108206180Y-161938811D01*
X108206180Y-161938811D02*
X108313930Y-161884936D01*
X108313930Y-161884936D02*
X108421680Y-161884936D01*
X108421680Y-161884936D02*
X108502492Y-161911873D01*
X108502492Y-161911873D02*
X108637179Y-161992685D01*
X108637179Y-161992685D02*
X108717991Y-162073498D01*
X108717991Y-162073498D02*
X108798803Y-162208185D01*
X108798803Y-162208185D02*
X108825741Y-162288997D01*
X108825741Y-162288997D02*
X108825741Y-162396746D01*
X108825741Y-162396746D02*
X108771866Y-162504496D01*
X108771866Y-162504496D02*
X108717991Y-162558371D01*
X108717991Y-162558371D02*
X108610241Y-162612246D01*
X108610241Y-162612246D02*
X108556367Y-162612246D01*
X108556367Y-162612246D02*
X108367805Y-162423684D01*
X108367805Y-162423684D02*
X108475554Y-162315934D01*
X108367805Y-162908557D02*
X107802119Y-162342872D01*
X107802119Y-162342872D02*
X108044556Y-163231806D01*
X108044556Y-163231806D02*
X107478871Y-162666120D01*
X107775182Y-163501180D02*
X107209497Y-162935494D01*
X107209497Y-162935494D02*
X107074810Y-163070181D01*
X107074810Y-163070181D02*
X107020935Y-163177931D01*
X107020935Y-163177931D02*
X107020935Y-163285680D01*
X107020935Y-163285680D02*
X107047872Y-163366493D01*
X107047872Y-163366493D02*
X107128685Y-163501180D01*
X107128685Y-163501180D02*
X107209497Y-163581992D01*
X107209497Y-163581992D02*
X107344184Y-163662804D01*
X107344184Y-163662804D02*
X107424996Y-163689741D01*
X107424996Y-163689741D02*
X107532746Y-163689741D01*
X107532746Y-163689741D02*
X107640495Y-163635867D01*
X107640495Y-163635867D02*
X107775182Y-163501180D01*
X118500868Y-161857998D02*
X118527805Y-161777185D01*
X118527805Y-161777185D02*
X118608618Y-161696373D01*
X118608618Y-161696373D02*
X118716367Y-161642498D01*
X118716367Y-161642498D02*
X118824117Y-161642498D01*
X118824117Y-161642498D02*
X118904929Y-161669436D01*
X118904929Y-161669436D02*
X119039616Y-161750248D01*
X119039616Y-161750248D02*
X119120428Y-161831060D01*
X119120428Y-161831060D02*
X119201241Y-161965747D01*
X119201241Y-161965747D02*
X119228178Y-162046560D01*
X119228178Y-162046560D02*
X119228178Y-162154309D01*
X119228178Y-162154309D02*
X119174303Y-162262059D01*
X119174303Y-162262059D02*
X119120428Y-162315934D01*
X119120428Y-162315934D02*
X119012679Y-162369808D01*
X119012679Y-162369808D02*
X118958804Y-162369808D01*
X118958804Y-162369808D02*
X118770242Y-162181247D01*
X118770242Y-162181247D02*
X118877992Y-162073497D01*
X118770242Y-162666120D02*
X118204557Y-162100434D01*
X118204557Y-162100434D02*
X117989057Y-162315934D01*
X117989057Y-162315934D02*
X117962120Y-162396746D01*
X117962120Y-162396746D02*
X117962120Y-162450621D01*
X117962120Y-162450621D02*
X117989057Y-162531433D01*
X117989057Y-162531433D02*
X118069870Y-162612245D01*
X118069870Y-162612245D02*
X118150682Y-162639182D01*
X118150682Y-162639182D02*
X118204557Y-162639182D01*
X118204557Y-162639182D02*
X118285369Y-162612245D01*
X118285369Y-162612245D02*
X118500868Y-162396746D01*
X117719683Y-162693057D02*
X117665809Y-162693057D01*
X117665809Y-162693057D02*
X117584996Y-162719995D01*
X117584996Y-162719995D02*
X117450309Y-162854682D01*
X117450309Y-162854682D02*
X117423372Y-162935494D01*
X117423372Y-162935494D02*
X117423372Y-162989369D01*
X117423372Y-162989369D02*
X117450309Y-163070181D01*
X117450309Y-163070181D02*
X117504184Y-163124056D01*
X117504184Y-163124056D02*
X117611934Y-163177930D01*
X117611934Y-163177930D02*
X118258431Y-163177930D01*
X118258431Y-163177930D02*
X117908245Y-163528117D01*
X117261747Y-163528117D02*
X117288685Y-163447305D01*
X117288685Y-163447305D02*
X117288685Y-163393430D01*
X117288685Y-163393430D02*
X117261747Y-163312618D01*
X117261747Y-163312618D02*
X117234810Y-163285680D01*
X117234810Y-163285680D02*
X117153998Y-163258743D01*
X117153998Y-163258743D02*
X117100123Y-163258743D01*
X117100123Y-163258743D02*
X117019311Y-163285680D01*
X117019311Y-163285680D02*
X116911561Y-163393430D01*
X116911561Y-163393430D02*
X116884624Y-163474242D01*
X116884624Y-163474242D02*
X116884624Y-163528117D01*
X116884624Y-163528117D02*
X116911561Y-163608929D01*
X116911561Y-163608929D02*
X116938499Y-163635866D01*
X116938499Y-163635866D02*
X117019311Y-163662804D01*
X117019311Y-163662804D02*
X117073186Y-163662804D01*
X117073186Y-163662804D02*
X117153998Y-163635866D01*
X117153998Y-163635866D02*
X117261747Y-163528117D01*
X117261747Y-163528117D02*
X117342560Y-163501179D01*
X117342560Y-163501179D02*
X117396434Y-163501179D01*
X117396434Y-163501179D02*
X117477247Y-163528117D01*
X117477247Y-163528117D02*
X117584996Y-163635866D01*
X117584996Y-163635866D02*
X117611934Y-163716679D01*
X117611934Y-163716679D02*
X117611934Y-163770553D01*
X117611934Y-163770553D02*
X117584996Y-163851366D01*
X117584996Y-163851366D02*
X117477247Y-163959115D01*
X117477247Y-163959115D02*
X117396434Y-163986053D01*
X117396434Y-163986053D02*
X117342560Y-163986053D01*
X117342560Y-163986053D02*
X117261747Y-163959115D01*
X117261747Y-163959115D02*
X117153998Y-163851366D01*
X117153998Y-163851366D02*
X117127060Y-163770553D01*
X117127060Y-163770553D02*
X117127060Y-163716679D01*
X117127060Y-163716679D02*
X117153998Y-163635866D01*
X148980868Y-162111998D02*
X149007805Y-162031185D01*
X149007805Y-162031185D02*
X149088618Y-161950373D01*
X149088618Y-161950373D02*
X149196367Y-161896498D01*
X149196367Y-161896498D02*
X149304117Y-161896498D01*
X149304117Y-161896498D02*
X149384929Y-161923436D01*
X149384929Y-161923436D02*
X149519616Y-162004248D01*
X149519616Y-162004248D02*
X149600428Y-162085060D01*
X149600428Y-162085060D02*
X149681241Y-162219747D01*
X149681241Y-162219747D02*
X149708178Y-162300560D01*
X149708178Y-162300560D02*
X149708178Y-162408309D01*
X149708178Y-162408309D02*
X149654303Y-162516059D01*
X149654303Y-162516059D02*
X149600428Y-162569934D01*
X149600428Y-162569934D02*
X149492679Y-162623808D01*
X149492679Y-162623808D02*
X149438804Y-162623808D01*
X149438804Y-162623808D02*
X149250242Y-162435247D01*
X149250242Y-162435247D02*
X149357992Y-162327497D01*
X149250242Y-162920120D02*
X148684557Y-162354434D01*
X148684557Y-162354434D02*
X148469057Y-162569934D01*
X148469057Y-162569934D02*
X148442120Y-162650746D01*
X148442120Y-162650746D02*
X148442120Y-162704621D01*
X148442120Y-162704621D02*
X148469057Y-162785433D01*
X148469057Y-162785433D02*
X148549870Y-162866245D01*
X148549870Y-162866245D02*
X148630682Y-162893182D01*
X148630682Y-162893182D02*
X148684557Y-162893182D01*
X148684557Y-162893182D02*
X148765369Y-162866245D01*
X148765369Y-162866245D02*
X148980868Y-162650746D01*
X148388245Y-163782117D02*
X148711494Y-163458868D01*
X148549870Y-163620492D02*
X147984184Y-163054807D01*
X147984184Y-163054807D02*
X148118871Y-163081744D01*
X148118871Y-163081744D02*
X148226621Y-163081744D01*
X148226621Y-163081744D02*
X148307433Y-163054807D01*
X147633998Y-163404993D02*
X147256874Y-163782117D01*
X147256874Y-163782117D02*
X148064996Y-164105366D01*
X111081494Y-174683372D02*
X111108431Y-174602560D01*
X111108431Y-174602560D02*
X111189243Y-174521748D01*
X111189243Y-174521748D02*
X111296993Y-174467873D01*
X111296993Y-174467873D02*
X111404742Y-174467873D01*
X111404742Y-174467873D02*
X111485555Y-174494810D01*
X111485555Y-174494810D02*
X111620242Y-174575623D01*
X111620242Y-174575623D02*
X111701054Y-174656435D01*
X111701054Y-174656435D02*
X111781866Y-174791122D01*
X111781866Y-174791122D02*
X111808803Y-174871934D01*
X111808803Y-174871934D02*
X111808803Y-174979684D01*
X111808803Y-174979684D02*
X111754929Y-175087433D01*
X111754929Y-175087433D02*
X111701054Y-175141308D01*
X111701054Y-175141308D02*
X111593304Y-175195183D01*
X111593304Y-175195183D02*
X111539429Y-175195183D01*
X111539429Y-175195183D02*
X111350868Y-175006621D01*
X111350868Y-175006621D02*
X111458617Y-174898871D01*
X111350868Y-175491494D02*
X110785182Y-174925809D01*
X110785182Y-174925809D02*
X110569683Y-175141308D01*
X110569683Y-175141308D02*
X110542746Y-175222120D01*
X110542746Y-175222120D02*
X110542746Y-175275995D01*
X110542746Y-175275995D02*
X110569683Y-175356807D01*
X110569683Y-175356807D02*
X110650495Y-175437619D01*
X110650495Y-175437619D02*
X110731307Y-175464557D01*
X110731307Y-175464557D02*
X110785182Y-175464557D01*
X110785182Y-175464557D02*
X110865994Y-175437619D01*
X110865994Y-175437619D02*
X111081494Y-175222120D01*
X110300309Y-175518432D02*
X110246434Y-175518432D01*
X110246434Y-175518432D02*
X110165622Y-175545369D01*
X110165622Y-175545369D02*
X110030935Y-175680056D01*
X110030935Y-175680056D02*
X110003998Y-175760868D01*
X110003998Y-175760868D02*
X110003998Y-175814743D01*
X110003998Y-175814743D02*
X110030935Y-175895555D01*
X110030935Y-175895555D02*
X110084810Y-175949430D01*
X110084810Y-175949430D02*
X110192559Y-176003305D01*
X110192559Y-176003305D02*
X110839057Y-176003305D01*
X110839057Y-176003305D02*
X110488871Y-176353491D01*
X151520868Y-161857998D02*
X151547805Y-161777185D01*
X151547805Y-161777185D02*
X151628618Y-161696373D01*
X151628618Y-161696373D02*
X151736367Y-161642498D01*
X151736367Y-161642498D02*
X151844117Y-161642498D01*
X151844117Y-161642498D02*
X151924929Y-161669436D01*
X151924929Y-161669436D02*
X152059616Y-161750248D01*
X152059616Y-161750248D02*
X152140428Y-161831060D01*
X152140428Y-161831060D02*
X152221241Y-161965747D01*
X152221241Y-161965747D02*
X152248178Y-162046560D01*
X152248178Y-162046560D02*
X152248178Y-162154309D01*
X152248178Y-162154309D02*
X152194303Y-162262059D01*
X152194303Y-162262059D02*
X152140428Y-162315934D01*
X152140428Y-162315934D02*
X152032679Y-162369808D01*
X152032679Y-162369808D02*
X151978804Y-162369808D01*
X151978804Y-162369808D02*
X151790242Y-162181247D01*
X151790242Y-162181247D02*
X151897992Y-162073497D01*
X151790242Y-162666120D02*
X151224557Y-162100434D01*
X151224557Y-162100434D02*
X151009057Y-162315934D01*
X151009057Y-162315934D02*
X150982120Y-162396746D01*
X150982120Y-162396746D02*
X150982120Y-162450621D01*
X150982120Y-162450621D02*
X151009057Y-162531433D01*
X151009057Y-162531433D02*
X151089870Y-162612245D01*
X151089870Y-162612245D02*
X151170682Y-162639182D01*
X151170682Y-162639182D02*
X151224557Y-162639182D01*
X151224557Y-162639182D02*
X151305369Y-162612245D01*
X151305369Y-162612245D02*
X151520868Y-162396746D01*
X150928245Y-163528117D02*
X151251494Y-163204868D01*
X151089870Y-163366492D02*
X150524184Y-162800807D01*
X150524184Y-162800807D02*
X150658871Y-162827744D01*
X150658871Y-162827744D02*
X150766621Y-162827744D01*
X150766621Y-162827744D02*
X150847433Y-162800807D01*
X149877686Y-163447305D02*
X149985436Y-163339555D01*
X149985436Y-163339555D02*
X150066248Y-163312618D01*
X150066248Y-163312618D02*
X150120123Y-163312618D01*
X150120123Y-163312618D02*
X150254810Y-163339555D01*
X150254810Y-163339555D02*
X150389497Y-163420367D01*
X150389497Y-163420367D02*
X150604996Y-163635866D01*
X150604996Y-163635866D02*
X150631934Y-163716679D01*
X150631934Y-163716679D02*
X150631934Y-163770553D01*
X150631934Y-163770553D02*
X150604996Y-163851366D01*
X150604996Y-163851366D02*
X150497247Y-163959115D01*
X150497247Y-163959115D02*
X150416434Y-163986053D01*
X150416434Y-163986053D02*
X150362560Y-163986053D01*
X150362560Y-163986053D02*
X150281747Y-163959115D01*
X150281747Y-163959115D02*
X150147060Y-163824428D01*
X150147060Y-163824428D02*
X150120123Y-163743616D01*
X150120123Y-163743616D02*
X150120123Y-163689741D01*
X150120123Y-163689741D02*
X150147060Y-163608929D01*
X150147060Y-163608929D02*
X150254810Y-163501179D01*
X150254810Y-163501179D02*
X150335622Y-163474242D01*
X150335622Y-163474242D02*
X150389497Y-163474242D01*
X150389497Y-163474242D02*
X150470309Y-163501179D01*
X129197710Y-163160651D02*
X129116898Y-162702716D01*
X129520959Y-162837403D02*
X128955274Y-162271717D01*
X128955274Y-162271717D02*
X128739775Y-162487216D01*
X128739775Y-162487216D02*
X128712837Y-162568029D01*
X128712837Y-162568029D02*
X128712837Y-162621903D01*
X128712837Y-162621903D02*
X128739775Y-162702716D01*
X128739775Y-162702716D02*
X128820587Y-162783528D01*
X128820587Y-162783528D02*
X128901399Y-162810465D01*
X128901399Y-162810465D02*
X128955274Y-162810465D01*
X128955274Y-162810465D02*
X129036086Y-162783528D01*
X129036086Y-162783528D02*
X129251585Y-162568029D01*
X128389588Y-162837403D02*
X128847524Y-163295338D01*
X128847524Y-163295338D02*
X128874462Y-163376151D01*
X128874462Y-163376151D02*
X128874462Y-163430025D01*
X128874462Y-163430025D02*
X128847524Y-163510838D01*
X128847524Y-163510838D02*
X128739775Y-163618587D01*
X128739775Y-163618587D02*
X128658962Y-163645525D01*
X128658962Y-163645525D02*
X128605088Y-163645525D01*
X128605088Y-163645525D02*
X128524275Y-163618587D01*
X128524275Y-163618587D02*
X128066340Y-163160651D01*
X128362651Y-163995711D02*
X127796966Y-163430025D01*
X127796966Y-163430025D02*
X128039402Y-164318959D01*
X128039402Y-164318959D02*
X127473717Y-163753274D01*
X125866868Y-162111998D02*
X125893805Y-162031185D01*
X125893805Y-162031185D02*
X125974618Y-161950373D01*
X125974618Y-161950373D02*
X126082367Y-161896498D01*
X126082367Y-161896498D02*
X126190117Y-161896498D01*
X126190117Y-161896498D02*
X126270929Y-161923436D01*
X126270929Y-161923436D02*
X126405616Y-162004248D01*
X126405616Y-162004248D02*
X126486428Y-162085060D01*
X126486428Y-162085060D02*
X126567241Y-162219747D01*
X126567241Y-162219747D02*
X126594178Y-162300560D01*
X126594178Y-162300560D02*
X126594178Y-162408309D01*
X126594178Y-162408309D02*
X126540303Y-162516059D01*
X126540303Y-162516059D02*
X126486428Y-162569934D01*
X126486428Y-162569934D02*
X126378679Y-162623808D01*
X126378679Y-162623808D02*
X126324804Y-162623808D01*
X126324804Y-162623808D02*
X126136242Y-162435247D01*
X126136242Y-162435247D02*
X126243992Y-162327497D01*
X126136242Y-162920120D02*
X125570557Y-162354434D01*
X125570557Y-162354434D02*
X125355057Y-162569934D01*
X125355057Y-162569934D02*
X125328120Y-162650746D01*
X125328120Y-162650746D02*
X125328120Y-162704621D01*
X125328120Y-162704621D02*
X125355057Y-162785433D01*
X125355057Y-162785433D02*
X125435870Y-162866245D01*
X125435870Y-162866245D02*
X125516682Y-162893182D01*
X125516682Y-162893182D02*
X125570557Y-162893182D01*
X125570557Y-162893182D02*
X125651369Y-162866245D01*
X125651369Y-162866245D02*
X125866868Y-162650746D01*
X125085683Y-162947057D02*
X125031809Y-162947057D01*
X125031809Y-162947057D02*
X124950996Y-162973995D01*
X124950996Y-162973995D02*
X124816309Y-163108682D01*
X124816309Y-163108682D02*
X124789372Y-163189494D01*
X124789372Y-163189494D02*
X124789372Y-163243369D01*
X124789372Y-163243369D02*
X124816309Y-163324181D01*
X124816309Y-163324181D02*
X124870184Y-163378056D01*
X124870184Y-163378056D02*
X124977934Y-163431930D01*
X124977934Y-163431930D02*
X125624431Y-163431930D01*
X125624431Y-163431930D02*
X125274245Y-163782117D01*
X124223686Y-163701305D02*
X124331436Y-163593555D01*
X124331436Y-163593555D02*
X124412248Y-163566618D01*
X124412248Y-163566618D02*
X124466123Y-163566618D01*
X124466123Y-163566618D02*
X124600810Y-163593555D01*
X124600810Y-163593555D02*
X124735497Y-163674367D01*
X124735497Y-163674367D02*
X124950996Y-163889866D01*
X124950996Y-163889866D02*
X124977934Y-163970679D01*
X124977934Y-163970679D02*
X124977934Y-164024553D01*
X124977934Y-164024553D02*
X124950996Y-164105366D01*
X124950996Y-164105366D02*
X124843247Y-164213115D01*
X124843247Y-164213115D02*
X124762434Y-164240053D01*
X124762434Y-164240053D02*
X124708560Y-164240053D01*
X124708560Y-164240053D02*
X124627747Y-164213115D01*
X124627747Y-164213115D02*
X124493060Y-164078428D01*
X124493060Y-164078428D02*
X124466123Y-163997616D01*
X124466123Y-163997616D02*
X124466123Y-163943741D01*
X124466123Y-163943741D02*
X124493060Y-163862929D01*
X124493060Y-163862929D02*
X124600810Y-163755179D01*
X124600810Y-163755179D02*
X124681622Y-163728242D01*
X124681622Y-163728242D02*
X124735497Y-163728242D01*
X124735497Y-163728242D02*
X124816309Y-163755179D01*
X103851585Y-161513406D02*
X104228709Y-162267653D01*
X104228709Y-162267653D02*
X103474462Y-161890529D01*
X103366712Y-162537027D02*
X103312838Y-162644776D01*
X103312838Y-162644776D02*
X103312838Y-162698651D01*
X103312838Y-162698651D02*
X103339775Y-162779463D01*
X103339775Y-162779463D02*
X103420587Y-162860276D01*
X103420587Y-162860276D02*
X103501399Y-162887213D01*
X103501399Y-162887213D02*
X103555274Y-162887213D01*
X103555274Y-162887213D02*
X103636086Y-162860276D01*
X103636086Y-162860276D02*
X103851586Y-162644776D01*
X103851586Y-162644776D02*
X103285900Y-162079091D01*
X103285900Y-162079091D02*
X103097338Y-162267653D01*
X103097338Y-162267653D02*
X103070401Y-162348465D01*
X103070401Y-162348465D02*
X103070401Y-162402340D01*
X103070401Y-162402340D02*
X103097338Y-162483152D01*
X103097338Y-162483152D02*
X103151213Y-162537027D01*
X103151213Y-162537027D02*
X103232025Y-162563964D01*
X103232025Y-162563964D02*
X103285900Y-162563964D01*
X103285900Y-162563964D02*
X103366712Y-162537027D01*
X103366712Y-162537027D02*
X103555274Y-162348465D01*
X102720215Y-162644776D02*
X103178151Y-163102712D01*
X103178151Y-163102712D02*
X103205088Y-163183524D01*
X103205088Y-163183524D02*
X103205088Y-163237399D01*
X103205088Y-163237399D02*
X103178151Y-163318211D01*
X103178151Y-163318211D02*
X103070401Y-163425961D01*
X103070401Y-163425961D02*
X102989589Y-163452898D01*
X102989589Y-163452898D02*
X102935714Y-163452898D01*
X102935714Y-163452898D02*
X102854902Y-163425961D01*
X102854902Y-163425961D02*
X102396966Y-162968025D01*
X102693277Y-163749210D02*
X102639403Y-163856959D01*
X102639403Y-163856959D02*
X102504716Y-163991646D01*
X102504716Y-163991646D02*
X102423903Y-164018584D01*
X102423903Y-164018584D02*
X102370029Y-164018584D01*
X102370029Y-164018584D02*
X102289216Y-163991646D01*
X102289216Y-163991646D02*
X102235342Y-163937771D01*
X102235342Y-163937771D02*
X102208404Y-163856959D01*
X102208404Y-163856959D02*
X102208404Y-163803084D01*
X102208404Y-163803084D02*
X102235342Y-163722272D01*
X102235342Y-163722272D02*
X102316154Y-163587585D01*
X102316154Y-163587585D02*
X102343091Y-163506773D01*
X102343091Y-163506773D02*
X102343091Y-163452898D01*
X102343091Y-163452898D02*
X102316154Y-163372086D01*
X102316154Y-163372086D02*
X102262279Y-163318211D01*
X102262279Y-163318211D02*
X102181467Y-163291274D01*
X102181467Y-163291274D02*
X102127592Y-163291274D01*
X102127592Y-163291274D02*
X102046780Y-163318211D01*
X102046780Y-163318211D02*
X101912093Y-163452898D01*
X101912093Y-163452898D02*
X101858218Y-163560648D01*
X149742868Y-174557998D02*
X149769805Y-174477185D01*
X149769805Y-174477185D02*
X149850618Y-174396373D01*
X149850618Y-174396373D02*
X149958367Y-174342498D01*
X149958367Y-174342498D02*
X150066117Y-174342498D01*
X150066117Y-174342498D02*
X150146929Y-174369436D01*
X150146929Y-174369436D02*
X150281616Y-174450248D01*
X150281616Y-174450248D02*
X150362428Y-174531060D01*
X150362428Y-174531060D02*
X150443241Y-174665747D01*
X150443241Y-174665747D02*
X150470178Y-174746560D01*
X150470178Y-174746560D02*
X150470178Y-174854309D01*
X150470178Y-174854309D02*
X150416303Y-174962059D01*
X150416303Y-174962059D02*
X150362428Y-175015934D01*
X150362428Y-175015934D02*
X150254679Y-175069808D01*
X150254679Y-175069808D02*
X150200804Y-175069808D01*
X150200804Y-175069808D02*
X150012242Y-174881247D01*
X150012242Y-174881247D02*
X150119992Y-174773497D01*
X150012242Y-175366120D02*
X149446557Y-174800434D01*
X149446557Y-174800434D02*
X149231057Y-175015934D01*
X149231057Y-175015934D02*
X149204120Y-175096746D01*
X149204120Y-175096746D02*
X149204120Y-175150621D01*
X149204120Y-175150621D02*
X149231057Y-175231433D01*
X149231057Y-175231433D02*
X149311870Y-175312245D01*
X149311870Y-175312245D02*
X149392682Y-175339182D01*
X149392682Y-175339182D02*
X149446557Y-175339182D01*
X149446557Y-175339182D02*
X149527369Y-175312245D01*
X149527369Y-175312245D02*
X149742868Y-175096746D01*
X149150245Y-176228117D02*
X149473494Y-175904868D01*
X149311870Y-176066492D02*
X148746184Y-175500807D01*
X148746184Y-175500807D02*
X148880871Y-175527744D01*
X148880871Y-175527744D02*
X148988621Y-175527744D01*
X148988621Y-175527744D02*
X149069433Y-175500807D01*
X148288248Y-176335866D02*
X148665372Y-176712990D01*
X148207436Y-175985680D02*
X148746184Y-176255054D01*
X148746184Y-176255054D02*
X148395998Y-176605240D01*
X141995868Y-174303998D02*
X142022805Y-174223185D01*
X142022805Y-174223185D02*
X142103618Y-174142373D01*
X142103618Y-174142373D02*
X142211367Y-174088498D01*
X142211367Y-174088498D02*
X142319117Y-174088498D01*
X142319117Y-174088498D02*
X142399929Y-174115436D01*
X142399929Y-174115436D02*
X142534616Y-174196248D01*
X142534616Y-174196248D02*
X142615428Y-174277060D01*
X142615428Y-174277060D02*
X142696241Y-174411747D01*
X142696241Y-174411747D02*
X142723178Y-174492560D01*
X142723178Y-174492560D02*
X142723178Y-174600309D01*
X142723178Y-174600309D02*
X142669303Y-174708059D01*
X142669303Y-174708059D02*
X142615428Y-174761934D01*
X142615428Y-174761934D02*
X142507679Y-174815808D01*
X142507679Y-174815808D02*
X142453804Y-174815808D01*
X142453804Y-174815808D02*
X142265242Y-174627247D01*
X142265242Y-174627247D02*
X142372992Y-174519497D01*
X142265242Y-175112120D02*
X141699557Y-174546434D01*
X141699557Y-174546434D02*
X141484057Y-174761934D01*
X141484057Y-174761934D02*
X141457120Y-174842746D01*
X141457120Y-174842746D02*
X141457120Y-174896621D01*
X141457120Y-174896621D02*
X141484057Y-174977433D01*
X141484057Y-174977433D02*
X141564870Y-175058245D01*
X141564870Y-175058245D02*
X141645682Y-175085182D01*
X141645682Y-175085182D02*
X141699557Y-175085182D01*
X141699557Y-175085182D02*
X141780369Y-175058245D01*
X141780369Y-175058245D02*
X141995868Y-174842746D01*
X141403245Y-175974117D02*
X141726494Y-175650868D01*
X141564870Y-175812492D02*
X140999184Y-175246807D01*
X140999184Y-175246807D02*
X141133871Y-175273744D01*
X141133871Y-175273744D02*
X141241621Y-175273744D01*
X141241621Y-175273744D02*
X141322433Y-175246807D01*
X140675935Y-175677805D02*
X140622060Y-175677805D01*
X140622060Y-175677805D02*
X140541248Y-175704743D01*
X140541248Y-175704743D02*
X140406561Y-175839430D01*
X140406561Y-175839430D02*
X140379624Y-175920242D01*
X140379624Y-175920242D02*
X140379624Y-175974117D01*
X140379624Y-175974117D02*
X140406561Y-176054929D01*
X140406561Y-176054929D02*
X140460436Y-176108804D01*
X140460436Y-176108804D02*
X140568186Y-176162679D01*
X140568186Y-176162679D02*
X141214683Y-176162679D01*
X141214683Y-176162679D02*
X140864497Y-176512865D01*
X103871494Y-174173372D02*
X103898431Y-174092560D01*
X103898431Y-174092560D02*
X103979243Y-174011748D01*
X103979243Y-174011748D02*
X104086993Y-173957873D01*
X104086993Y-173957873D02*
X104194742Y-173957873D01*
X104194742Y-173957873D02*
X104275555Y-173984810D01*
X104275555Y-173984810D02*
X104410242Y-174065623D01*
X104410242Y-174065623D02*
X104491054Y-174146435D01*
X104491054Y-174146435D02*
X104571866Y-174281122D01*
X104571866Y-174281122D02*
X104598803Y-174361934D01*
X104598803Y-174361934D02*
X104598803Y-174469684D01*
X104598803Y-174469684D02*
X104544929Y-174577433D01*
X104544929Y-174577433D02*
X104491054Y-174631308D01*
X104491054Y-174631308D02*
X104383304Y-174685183D01*
X104383304Y-174685183D02*
X104329429Y-174685183D01*
X104329429Y-174685183D02*
X104140868Y-174496621D01*
X104140868Y-174496621D02*
X104248617Y-174388871D01*
X104140868Y-174981494D02*
X103575182Y-174415809D01*
X103575182Y-174415809D02*
X103359683Y-174631308D01*
X103359683Y-174631308D02*
X103332746Y-174712120D01*
X103332746Y-174712120D02*
X103332746Y-174765995D01*
X103332746Y-174765995D02*
X103359683Y-174846807D01*
X103359683Y-174846807D02*
X103440495Y-174927619D01*
X103440495Y-174927619D02*
X103521307Y-174954557D01*
X103521307Y-174954557D02*
X103575182Y-174954557D01*
X103575182Y-174954557D02*
X103655994Y-174927619D01*
X103655994Y-174927619D02*
X103871494Y-174712120D01*
X102901747Y-175089244D02*
X102847872Y-175143119D01*
X102847872Y-175143119D02*
X102820935Y-175223931D01*
X102820935Y-175223931D02*
X102820935Y-175277806D01*
X102820935Y-175277806D02*
X102847872Y-175358618D01*
X102847872Y-175358618D02*
X102928685Y-175493305D01*
X102928685Y-175493305D02*
X103063372Y-175627992D01*
X103063372Y-175627992D02*
X103198059Y-175708804D01*
X103198059Y-175708804D02*
X103278871Y-175735741D01*
X103278871Y-175735741D02*
X103332746Y-175735741D01*
X103332746Y-175735741D02*
X103413558Y-175708804D01*
X103413558Y-175708804D02*
X103467433Y-175654929D01*
X103467433Y-175654929D02*
X103494370Y-175574117D01*
X103494370Y-175574117D02*
X103494370Y-175520242D01*
X103494370Y-175520242D02*
X103467433Y-175439430D01*
X103467433Y-175439430D02*
X103386620Y-175304743D01*
X103386620Y-175304743D02*
X103251933Y-175170056D01*
X103251933Y-175170056D02*
X103117246Y-175089244D01*
X103117246Y-175089244D02*
X103036434Y-175062306D01*
X103036434Y-175062306D02*
X102982559Y-175062306D01*
X102982559Y-175062306D02*
X102901747Y-175089244D01*
X138820868Y-162111998D02*
X138847805Y-162031185D01*
X138847805Y-162031185D02*
X138928618Y-161950373D01*
X138928618Y-161950373D02*
X139036367Y-161896498D01*
X139036367Y-161896498D02*
X139144117Y-161896498D01*
X139144117Y-161896498D02*
X139224929Y-161923436D01*
X139224929Y-161923436D02*
X139359616Y-162004248D01*
X139359616Y-162004248D02*
X139440428Y-162085060D01*
X139440428Y-162085060D02*
X139521241Y-162219747D01*
X139521241Y-162219747D02*
X139548178Y-162300560D01*
X139548178Y-162300560D02*
X139548178Y-162408309D01*
X139548178Y-162408309D02*
X139494303Y-162516059D01*
X139494303Y-162516059D02*
X139440428Y-162569934D01*
X139440428Y-162569934D02*
X139332679Y-162623808D01*
X139332679Y-162623808D02*
X139278804Y-162623808D01*
X139278804Y-162623808D02*
X139090242Y-162435247D01*
X139090242Y-162435247D02*
X139197992Y-162327497D01*
X139090242Y-162920120D02*
X138524557Y-162354434D01*
X138524557Y-162354434D02*
X138309057Y-162569934D01*
X138309057Y-162569934D02*
X138282120Y-162650746D01*
X138282120Y-162650746D02*
X138282120Y-162704621D01*
X138282120Y-162704621D02*
X138309057Y-162785433D01*
X138309057Y-162785433D02*
X138389870Y-162866245D01*
X138389870Y-162866245D02*
X138470682Y-162893182D01*
X138470682Y-162893182D02*
X138524557Y-162893182D01*
X138524557Y-162893182D02*
X138605369Y-162866245D01*
X138605369Y-162866245D02*
X138820868Y-162650746D01*
X138039683Y-162947057D02*
X137985809Y-162947057D01*
X137985809Y-162947057D02*
X137904996Y-162973995D01*
X137904996Y-162973995D02*
X137770309Y-163108682D01*
X137770309Y-163108682D02*
X137743372Y-163189494D01*
X137743372Y-163189494D02*
X137743372Y-163243369D01*
X137743372Y-163243369D02*
X137770309Y-163324181D01*
X137770309Y-163324181D02*
X137824184Y-163378056D01*
X137824184Y-163378056D02*
X137931934Y-163431930D01*
X137931934Y-163431930D02*
X138578431Y-163431930D01*
X138578431Y-163431930D02*
X138228245Y-163782117D01*
X137312373Y-163566618D02*
X137258499Y-163620492D01*
X137258499Y-163620492D02*
X137231561Y-163701305D01*
X137231561Y-163701305D02*
X137231561Y-163755179D01*
X137231561Y-163755179D02*
X137258499Y-163835992D01*
X137258499Y-163835992D02*
X137339311Y-163970679D01*
X137339311Y-163970679D02*
X137473998Y-164105366D01*
X137473998Y-164105366D02*
X137608685Y-164186178D01*
X137608685Y-164186178D02*
X137689497Y-164213115D01*
X137689497Y-164213115D02*
X137743372Y-164213115D01*
X137743372Y-164213115D02*
X137824184Y-164186178D01*
X137824184Y-164186178D02*
X137878059Y-164132303D01*
X137878059Y-164132303D02*
X137904996Y-164051491D01*
X137904996Y-164051491D02*
X137904996Y-163997616D01*
X137904996Y-163997616D02*
X137878059Y-163916804D01*
X137878059Y-163916804D02*
X137797247Y-163782117D01*
X137797247Y-163782117D02*
X137662560Y-163647430D01*
X137662560Y-163647430D02*
X137527873Y-163566618D01*
X137527873Y-163566618D02*
X137447060Y-163539680D01*
X137447060Y-163539680D02*
X137393186Y-163539680D01*
X137393186Y-163539680D02*
X137312373Y-163566618D01*
M02*
