M48
INCH,TZ
T1C0.0157
T2C0.0315
T3C0.0320
T4C0.0394
T5C0.0402
T6C0.0472
T7C0.0591
T8C0.1260
%
G90
G05
T1
X41250Y-66500
X43000Y-58250
X43000Y-60000
X43000Y-68750
X43500Y-61250
X44000Y-72250
X44750Y-65000
X45000Y-53000
X46000Y-61500
X47000Y-71750
X47250Y-58250
X47750Y-69000
X49500Y-46250
X50250Y-69000
X51780Y-42394
X52323Y-72992
X52500Y-61500
X53000Y-53000
X53250Y-58250
X54114Y-53858
X54250Y-71500
X54520Y-52157
X54941Y-50728
X55000Y-69000
X55118Y-52244
X57071Y-50350
X57250Y-54000
X57402Y-50748
X57409Y-53579
X57500Y-57750
X57500Y-60750
X57750Y-64500
X58250Y-50500
X58250Y-66750
X58536Y-53967
X59250Y-43750
X59957Y-68417
T2
X59750Y-49175
X59750Y-49963
X59750Y-50750
T3
X41500Y-57250
X41500Y-59250
X44500Y-57250
X44500Y-59250
X45750Y-57250
X45750Y-59250
X48750Y-57250
X48750Y-59250
X51750Y-57250
X51750Y-59250
X54750Y-57250
X54750Y-59250
X56000Y-57250
X56000Y-59250
X59000Y-57250
X59000Y-59250
T4
X40750Y-47750
X41750Y-47750
X42750Y-47750
X43750Y-47750
X44750Y-47750
X45750Y-47750
X46750Y-47750
X48750Y-45250
X49750Y-41000
X49750Y-45250
X50750Y-41000
X50750Y-45250
X51750Y-45250
X55000Y-48752
X55000Y-49752
X55000Y-54750
X55000Y-55750
X59750Y-53000
X59750Y-54000
T5
X40750Y-63000
X40750Y-70000
X41750Y-63000
X41750Y-70000
X42750Y-63000
X42750Y-70000
X43750Y-63000
X43750Y-70000
X44750Y-63000
X44750Y-70000
X45750Y-63000
X45750Y-70000
X46750Y-63000
X46750Y-70000
X47750Y-63000
X47750Y-70000
X48750Y-63000
X48750Y-70000
X49750Y-63000
X49750Y-70000
X50750Y-63000
X50750Y-70000
X51750Y-63000
X51750Y-70000
X52750Y-63000
X52750Y-70000
X53750Y-63000
X53750Y-70000
X54750Y-63000
X54750Y-70000
X55750Y-63000
X55750Y-70000
X56750Y-63000
X56750Y-70000
X57750Y-63000
X57750Y-70000
X58750Y-63000
X58750Y-70000
X59659Y-65500
X59659Y-66500
X59659Y-67500
X59750Y-63000
X59750Y-70000
T6
X43713Y-43220
X44894Y-43220
X45681Y-41252
X46469Y-43220
X47650Y-43220
X52813Y-43220
X53994Y-43220
X54781Y-41252
X55569Y-43220
X56750Y-43220
T7
X59750Y-48348
X59750Y-51577
T8
X41500Y-41500
X41500Y-72750
X59000Y-41500
X59000Y-72750
T0
M30
