<?xml version="1.0" encoding="utf-8" standalone="no"?>
<!DOCTYPE svg PUBLIC "-//W3C//DTD SVG 1.1//EN"
  "http://www.w3.org/Graphics/SVG/1.1/DTD/svg11.dtd">
<svg xmlns:xlink="http://www.w3.org/1999/xlink" width="460.8pt" height="345.6pt" viewBox="0 0 460.8 345.6" xmlns="http://www.w3.org/2000/svg" version="1.1">
 <metadata>
  <rdf:RDF xmlns:dc="http://purl.org/dc/elements/1.1/" xmlns:cc="http://creativecommons.org/ns#" xmlns:rdf="http://www.w3.org/1999/02/22-rdf-syntax-ns#">
   <cc:Work>
    <dc:type rdf:resource="http://purl.org/dc/dcmitype/StillImage"/>
    <dc:date>2023-12-03T13:23:04.006338</dc:date>
    <dc:format>image/svg+xml</dc:format>
    <dc:creator>
     <cc:Agent>
      <dc:title>Matplotlib v3.5.1, https://matplotlib.org/</dc:title>
     </cc:Agent>
    </dc:creator>
   </cc:Work>
  </rdf:RDF>
 </metadata>
 <defs>
  <style type="text/css">*{stroke-linejoin: round; stroke-linecap: butt}</style>
 </defs>
 <g id="figure_1">
  <g id="patch_1">
   <path d="M 0 345.6 
L 460.8 345.6 
L 460.8 0 
L 0 0 
z
" style="fill: #ffffff"/>
  </g>
  <g id="axes_1">
   <g id="patch_2">
    <path d="M 57.6 119.740235 
L 414.72 119.740235 
L 414.72 41.472 
L 57.6 41.472 
z
" style="fill: #ffffff"/>
   </g>
   <g id="matplotlib.axis_1">
    <g id="xtick_1">
     <g id="line2d_1">
      <path d="M 73.832727 119.740235 
L 73.832727 41.472 
" clip-path="url(#p854e110dcc)" style="fill: none; stroke: #b0b0b0; stroke-width: 0.8; stroke-linecap: square"/>
     </g>
     <g id="line2d_2">
      <defs>
       <path id="m0df98babea" d="M 0 0 
L 0 3.5 
" style="stroke: #000000; stroke-width: 0.8"/>
      </defs>
      <g>
       <use xlink:href="#m0df98babea" x="73.832727" y="119.740235" style="stroke: #000000; stroke-width: 0.8"/>
      </g>
     </g>
     <g id="text_1">
      <!-- 0 -->
      <g transform="translate(70.651477 134.338673)scale(0.1 -0.1)">
       <defs>
        <path id="DejaVuSans-30" d="M 2034 4250 
Q 1547 4250 1301 3770 
Q 1056 3291 1056 2328 
Q 1056 1369 1301 889 
Q 1547 409 2034 409 
Q 2525 409 2770 889 
Q 3016 1369 3016 2328 
Q 3016 3291 2770 3770 
Q 2525 4250 2034 4250 
z
M 2034 4750 
Q 2819 4750 3233 4129 
Q 3647 3509 3647 2328 
Q 3647 1150 3233 529 
Q 2819 -91 2034 -91 
Q 1250 -91 836 529 
Q 422 1150 422 2328 
Q 422 3509 836 4129 
Q 1250 4750 2034 4750 
z
" transform="scale(0.015625)"/>
       </defs>
       <use xlink:href="#DejaVuSans-30"/>
      </g>
     </g>
    </g>
    <g id="xtick_2">
     <g id="line2d_3">
      <path d="M 138.828632 119.740235 
L 138.828632 41.472 
" clip-path="url(#p854e110dcc)" style="fill: none; stroke: #b0b0b0; stroke-width: 0.8; stroke-linecap: square"/>
     </g>
     <g id="line2d_4">
      <g>
       <use xlink:href="#m0df98babea" x="138.828632" y="119.740235" style="stroke: #000000; stroke-width: 0.8"/>
      </g>
     </g>
     <g id="text_2">
      <!-- 200 -->
      <g transform="translate(129.284882 134.338673)scale(0.1 -0.1)">
       <defs>
        <path id="DejaVuSans-32" d="M 1228 531 
L 3431 531 
L 3431 0 
L 469 0 
L 469 531 
Q 828 903 1448 1529 
Q 2069 2156 2228 2338 
Q 2531 2678 2651 2914 
Q 2772 3150 2772 3378 
Q 2772 3750 2511 3984 
Q 2250 4219 1831 4219 
Q 1534 4219 1204 4116 
Q 875 4013 500 3803 
L 500 4441 
Q 881 4594 1212 4672 
Q 1544 4750 1819 4750 
Q 2544 4750 2975 4387 
Q 3406 4025 3406 3419 
Q 3406 3131 3298 2873 
Q 3191 2616 2906 2266 
Q 2828 2175 2409 1742 
Q 1991 1309 1228 531 
z
" transform="scale(0.015625)"/>
       </defs>
       <use xlink:href="#DejaVuSans-32"/>
       <use xlink:href="#DejaVuSans-30" x="63.623047"/>
       <use xlink:href="#DejaVuSans-30" x="127.246094"/>
      </g>
     </g>
    </g>
    <g id="xtick_3">
     <g id="line2d_5">
      <path d="M 203.824537 119.740235 
L 203.824537 41.472 
" clip-path="url(#p854e110dcc)" style="fill: none; stroke: #b0b0b0; stroke-width: 0.8; stroke-linecap: square"/>
     </g>
     <g id="line2d_6">
      <g>
       <use xlink:href="#m0df98babea" x="203.824537" y="119.740235" style="stroke: #000000; stroke-width: 0.8"/>
      </g>
     </g>
     <g id="text_3">
      <!-- 400 -->
      <g transform="translate(194.280787 134.338673)scale(0.1 -0.1)">
       <defs>
        <path id="DejaVuSans-34" d="M 2419 4116 
L 825 1625 
L 2419 1625 
L 2419 4116 
z
M 2253 4666 
L 3047 4666 
L 3047 1625 
L 3713 1625 
L 3713 1100 
L 3047 1100 
L 3047 0 
L 2419 0 
L 2419 1100 
L 313 1100 
L 313 1709 
L 2253 4666 
z
" transform="scale(0.015625)"/>
       </defs>
       <use xlink:href="#DejaVuSans-34"/>
       <use xlink:href="#DejaVuSans-30" x="63.623047"/>
       <use xlink:href="#DejaVuSans-30" x="127.246094"/>
      </g>
     </g>
    </g>
    <g id="xtick_4">
     <g id="line2d_7">
      <path d="M 268.820442 119.740235 
L 268.820442 41.472 
" clip-path="url(#p854e110dcc)" style="fill: none; stroke: #b0b0b0; stroke-width: 0.8; stroke-linecap: square"/>
     </g>
     <g id="line2d_8">
      <g>
       <use xlink:href="#m0df98babea" x="268.820442" y="119.740235" style="stroke: #000000; stroke-width: 0.8"/>
      </g>
     </g>
     <g id="text_4">
      <!-- 600 -->
      <g transform="translate(259.276692 134.338673)scale(0.1 -0.1)">
       <defs>
        <path id="DejaVuSans-36" d="M 2113 2584 
Q 1688 2584 1439 2293 
Q 1191 2003 1191 1497 
Q 1191 994 1439 701 
Q 1688 409 2113 409 
Q 2538 409 2786 701 
Q 3034 994 3034 1497 
Q 3034 2003 2786 2293 
Q 2538 2584 2113 2584 
z
M 3366 4563 
L 3366 3988 
Q 3128 4100 2886 4159 
Q 2644 4219 2406 4219 
Q 1781 4219 1451 3797 
Q 1122 3375 1075 2522 
Q 1259 2794 1537 2939 
Q 1816 3084 2150 3084 
Q 2853 3084 3261 2657 
Q 3669 2231 3669 1497 
Q 3669 778 3244 343 
Q 2819 -91 2113 -91 
Q 1303 -91 875 529 
Q 447 1150 447 2328 
Q 447 3434 972 4092 
Q 1497 4750 2381 4750 
Q 2619 4750 2861 4703 
Q 3103 4656 3366 4563 
z
" transform="scale(0.015625)"/>
       </defs>
       <use xlink:href="#DejaVuSans-36"/>
       <use xlink:href="#DejaVuSans-30" x="63.623047"/>
       <use xlink:href="#DejaVuSans-30" x="127.246094"/>
      </g>
     </g>
    </g>
    <g id="xtick_5">
     <g id="line2d_9">
      <path d="M 333.816347 119.740235 
L 333.816347 41.472 
" clip-path="url(#p854e110dcc)" style="fill: none; stroke: #b0b0b0; stroke-width: 0.8; stroke-linecap: square"/>
     </g>
     <g id="line2d_10">
      <g>
       <use xlink:href="#m0df98babea" x="333.816347" y="119.740235" style="stroke: #000000; stroke-width: 0.8"/>
      </g>
     </g>
     <g id="text_5">
      <!-- 800 -->
      <g transform="translate(324.272597 134.338673)scale(0.1 -0.1)">
       <defs>
        <path id="DejaVuSans-38" d="M 2034 2216 
Q 1584 2216 1326 1975 
Q 1069 1734 1069 1313 
Q 1069 891 1326 650 
Q 1584 409 2034 409 
Q 2484 409 2743 651 
Q 3003 894 3003 1313 
Q 3003 1734 2745 1975 
Q 2488 2216 2034 2216 
z
M 1403 2484 
Q 997 2584 770 2862 
Q 544 3141 544 3541 
Q 544 4100 942 4425 
Q 1341 4750 2034 4750 
Q 2731 4750 3128 4425 
Q 3525 4100 3525 3541 
Q 3525 3141 3298 2862 
Q 3072 2584 2669 2484 
Q 3125 2378 3379 2068 
Q 3634 1759 3634 1313 
Q 3634 634 3220 271 
Q 2806 -91 2034 -91 
Q 1263 -91 848 271 
Q 434 634 434 1313 
Q 434 1759 690 2068 
Q 947 2378 1403 2484 
z
M 1172 3481 
Q 1172 3119 1398 2916 
Q 1625 2713 2034 2713 
Q 2441 2713 2670 2916 
Q 2900 3119 2900 3481 
Q 2900 3844 2670 4047 
Q 2441 4250 2034 4250 
Q 1625 4250 1398 4047 
Q 1172 3844 1172 3481 
z
" transform="scale(0.015625)"/>
       </defs>
       <use xlink:href="#DejaVuSans-38"/>
       <use xlink:href="#DejaVuSans-30" x="63.623047"/>
       <use xlink:href="#DejaVuSans-30" x="127.246094"/>
      </g>
     </g>
    </g>
    <g id="xtick_6">
     <g id="line2d_11">
      <path d="M 398.812252 119.740235 
L 398.812252 41.472 
" clip-path="url(#p854e110dcc)" style="fill: none; stroke: #b0b0b0; stroke-width: 0.8; stroke-linecap: square"/>
     </g>
     <g id="line2d_12">
      <g>
       <use xlink:href="#m0df98babea" x="398.812252" y="119.740235" style="stroke: #000000; stroke-width: 0.8"/>
      </g>
     </g>
     <g id="text_6">
      <!-- 1000 -->
      <g transform="translate(386.087252 134.338673)scale(0.1 -0.1)">
       <defs>
        <path id="DejaVuSans-31" d="M 794 531 
L 1825 531 
L 1825 4091 
L 703 3866 
L 703 4441 
L 1819 4666 
L 2450 4666 
L 2450 531 
L 3481 531 
L 3481 0 
L 794 0 
L 794 531 
z
" transform="scale(0.015625)"/>
       </defs>
       <use xlink:href="#DejaVuSans-31"/>
       <use xlink:href="#DejaVuSans-30" x="63.623047"/>
       <use xlink:href="#DejaVuSans-30" x="127.246094"/>
       <use xlink:href="#DejaVuSans-30" x="190.869141"/>
      </g>
     </g>
    </g>
   </g>
   <g id="matplotlib.axis_2">
    <g id="ytick_1">
     <g id="line2d_13">
      <path d="M 57.6 116.182632 
L 414.72 116.182632 
" clip-path="url(#p854e110dcc)" style="fill: none; stroke: #b0b0b0; stroke-width: 0.8; stroke-linecap: square"/>
     </g>
     <g id="line2d_14">
      <defs>
       <path id="maa7426ba45" d="M 0 0 
L -3.5 0 
" style="stroke: #000000; stroke-width: 0.8"/>
      </defs>
      <g>
       <use xlink:href="#maa7426ba45" x="57.6" y="116.182632" style="stroke: #000000; stroke-width: 0.8"/>
      </g>
     </g>
     <g id="text_7">
      <!-- −1 -->
      <g transform="translate(35.857813 119.981851)scale(0.1 -0.1)">
       <defs>
        <path id="DejaVuSans-2212" d="M 678 2272 
L 4684 2272 
L 4684 1741 
L 678 1741 
L 678 2272 
z
" transform="scale(0.015625)"/>
       </defs>
       <use xlink:href="#DejaVuSans-2212"/>
       <use xlink:href="#DejaVuSans-31" x="83.789062"/>
      </g>
     </g>
    </g>
    <g id="ytick_2">
     <g id="line2d_15">
      <path d="M 57.6 80.606118 
L 414.72 80.606118 
" clip-path="url(#p854e110dcc)" style="fill: none; stroke: #b0b0b0; stroke-width: 0.8; stroke-linecap: square"/>
     </g>
     <g id="line2d_16">
      <g>
       <use xlink:href="#maa7426ba45" x="57.6" y="80.606118" style="stroke: #000000; stroke-width: 0.8"/>
      </g>
     </g>
     <g id="text_8">
      <!-- 0 -->
      <g transform="translate(44.2375 84.405336)scale(0.1 -0.1)">
       <use xlink:href="#DejaVuSans-30"/>
      </g>
     </g>
    </g>
    <g id="ytick_3">
     <g id="line2d_17">
      <path d="M 57.6 45.029603 
L 414.72 45.029603 
" clip-path="url(#p854e110dcc)" style="fill: none; stroke: #b0b0b0; stroke-width: 0.8; stroke-linecap: square"/>
     </g>
     <g id="line2d_18">
      <g>
       <use xlink:href="#maa7426ba45" x="57.6" y="45.029603" style="stroke: #000000; stroke-width: 0.8"/>
      </g>
     </g>
     <g id="text_9">
      <!-- 1 -->
      <g transform="translate(44.2375 48.828822)scale(0.1 -0.1)">
       <use xlink:href="#DejaVuSans-31"/>
      </g>
     </g>
    </g>
    <g id="text_10">
     <!-- Amplitude -->
     <g transform="translate(29.778125 106.228774)rotate(-90)scale(0.1 -0.1)">
      <defs>
       <path id="DejaVuSans-41" d="M 2188 4044 
L 1331 1722 
L 3047 1722 
L 2188 4044 
z
M 1831 4666 
L 2547 4666 
L 4325 0 
L 3669 0 
L 3244 1197 
L 1141 1197 
L 716 0 
L 50 0 
L 1831 4666 
z
" transform="scale(0.015625)"/>
       <path id="DejaVuSans-6d" d="M 3328 2828 
Q 3544 3216 3844 3400 
Q 4144 3584 4550 3584 
Q 5097 3584 5394 3201 
Q 5691 2819 5691 2113 
L 5691 0 
L 5113 0 
L 5113 2094 
Q 5113 2597 4934 2840 
Q 4756 3084 4391 3084 
Q 3944 3084 3684 2787 
Q 3425 2491 3425 1978 
L 3425 0 
L 2847 0 
L 2847 2094 
Q 2847 2600 2669 2842 
Q 2491 3084 2119 3084 
Q 1678 3084 1418 2786 
Q 1159 2488 1159 1978 
L 1159 0 
L 581 0 
L 581 3500 
L 1159 3500 
L 1159 2956 
Q 1356 3278 1631 3431 
Q 1906 3584 2284 3584 
Q 2666 3584 2933 3390 
Q 3200 3197 3328 2828 
z
" transform="scale(0.015625)"/>
       <path id="DejaVuSans-70" d="M 1159 525 
L 1159 -1331 
L 581 -1331 
L 581 3500 
L 1159 3500 
L 1159 2969 
Q 1341 3281 1617 3432 
Q 1894 3584 2278 3584 
Q 2916 3584 3314 3078 
Q 3713 2572 3713 1747 
Q 3713 922 3314 415 
Q 2916 -91 2278 -91 
Q 1894 -91 1617 61 
Q 1341 213 1159 525 
z
M 3116 1747 
Q 3116 2381 2855 2742 
Q 2594 3103 2138 3103 
Q 1681 3103 1420 2742 
Q 1159 2381 1159 1747 
Q 1159 1113 1420 752 
Q 1681 391 2138 391 
Q 2594 391 2855 752 
Q 3116 1113 3116 1747 
z
" transform="scale(0.015625)"/>
       <path id="DejaVuSans-6c" d="M 603 4863 
L 1178 4863 
L 1178 0 
L 603 0 
L 603 4863 
z
" transform="scale(0.015625)"/>
       <path id="DejaVuSans-69" d="M 603 3500 
L 1178 3500 
L 1178 0 
L 603 0 
L 603 3500 
z
M 603 4863 
L 1178 4863 
L 1178 4134 
L 603 4134 
L 603 4863 
z
" transform="scale(0.015625)"/>
       <path id="DejaVuSans-74" d="M 1172 4494 
L 1172 3500 
L 2356 3500 
L 2356 3053 
L 1172 3053 
L 1172 1153 
Q 1172 725 1289 603 
Q 1406 481 1766 481 
L 2356 481 
L 2356 0 
L 1766 0 
Q 1100 0 847 248 
Q 594 497 594 1153 
L 594 3053 
L 172 3053 
L 172 3500 
L 594 3500 
L 594 4494 
L 1172 4494 
z
" transform="scale(0.015625)"/>
       <path id="DejaVuSans-75" d="M 544 1381 
L 544 3500 
L 1119 3500 
L 1119 1403 
Q 1119 906 1312 657 
Q 1506 409 1894 409 
Q 2359 409 2629 706 
Q 2900 1003 2900 1516 
L 2900 3500 
L 3475 3500 
L 3475 0 
L 2900 0 
L 2900 538 
Q 2691 219 2414 64 
Q 2138 -91 1772 -91 
Q 1169 -91 856 284 
Q 544 659 544 1381 
z
M 1991 3584 
L 1991 3584 
z
" transform="scale(0.015625)"/>
       <path id="DejaVuSans-64" d="M 2906 2969 
L 2906 4863 
L 3481 4863 
L 3481 0 
L 2906 0 
L 2906 525 
Q 2725 213 2448 61 
Q 2172 -91 1784 -91 
Q 1150 -91 751 415 
Q 353 922 353 1747 
Q 353 2572 751 3078 
Q 1150 3584 1784 3584 
Q 2172 3584 2448 3432 
Q 2725 3281 2906 2969 
z
M 947 1747 
Q 947 1113 1208 752 
Q 1469 391 1925 391 
Q 2381 391 2643 752 
Q 2906 1113 2906 1747 
Q 2906 2381 2643 2742 
Q 2381 3103 1925 3103 
Q 1469 3103 1208 2742 
Q 947 2381 947 1747 
z
" transform="scale(0.015625)"/>
       <path id="DejaVuSans-65" d="M 3597 1894 
L 3597 1613 
L 953 1613 
Q 991 1019 1311 708 
Q 1631 397 2203 397 
Q 2534 397 2845 478 
Q 3156 559 3463 722 
L 3463 178 
Q 3153 47 2828 -22 
Q 2503 -91 2169 -91 
Q 1331 -91 842 396 
Q 353 884 353 1716 
Q 353 2575 817 3079 
Q 1281 3584 2069 3584 
Q 2775 3584 3186 3129 
Q 3597 2675 3597 1894 
z
M 3022 2063 
Q 3016 2534 2758 2815 
Q 2500 3097 2075 3097 
Q 1594 3097 1305 2825 
Q 1016 2553 972 2059 
L 3022 2063 
z
" transform="scale(0.015625)"/>
      </defs>
      <use xlink:href="#DejaVuSans-41"/>
      <use xlink:href="#DejaVuSans-6d" x="68.408203"/>
      <use xlink:href="#DejaVuSans-70" x="165.820312"/>
      <use xlink:href="#DejaVuSans-6c" x="229.296875"/>
      <use xlink:href="#DejaVuSans-69" x="257.080078"/>
      <use xlink:href="#DejaVuSans-74" x="284.863281"/>
      <use xlink:href="#DejaVuSans-75" x="324.072266"/>
      <use xlink:href="#DejaVuSans-64" x="387.451172"/>
      <use xlink:href="#DejaVuSans-65" x="450.927734"/>
     </g>
    </g>
   </g>
   <g id="line2d_19">
    <path d="M 73.832727 80.606118 
L 77.732482 67.497047 
L 80.007338 60.591573 
L 81.957215 55.429953 
L 83.582113 51.804397 
L 84.882031 49.411873 
L 86.181949 47.512284 
L 87.156888 46.429446 
L 88.131826 45.65057 
L 89.106765 45.182583 
L 90.081704 45.029647 
L 91.056642 45.193122 
L 92.031581 45.671555 
L 93.006519 46.46069 
L 93.981458 47.553509 
L 94.956396 48.940292 
L 96.256314 51.224934 
L 97.556233 53.973861 
L 99.18113 57.996101 
L 101.131007 63.549414 
L 103.405864 70.778394 
L 107.630598 85.18045 
L 110.880393 95.869167 
L 112.83027 101.625933 
L 114.455168 105.861206 
L 116.080066 109.473371 
L 117.379984 111.854001 
L 118.679902 113.740848 
L 119.65484 114.813695 
L 120.629779 115.582304 
L 121.604717 116.039841 
L 122.579656 116.182236 
L 123.554595 116.008224 
L 124.529533 115.51935 
L 125.504472 114.719964 
L 126.47941 113.617175 
L 127.454349 112.220791 
L 128.754267 109.924071 
L 130.054185 107.164064 
L 131.679083 103.129644 
L 133.62896 97.564554 
L 135.903817 90.326267 
L 140.45353 74.814314 
L 143.378346 65.242085 
L 145.328223 59.496143 
L 146.95312 55.272356 
L 148.578018 51.673617 
L 149.877936 49.304904 
L 151.177854 47.430817 
L 152.152793 46.367973 
L 153.127731 45.609638 
L 154.10267 45.162556 
L 155.077609 45.030703 
L 156.052547 45.215251 
L 157.027486 45.714561 
L 158.002424 46.52419 
L 158.977363 47.636938 
L 159.952301 49.042909 
L 161.252219 51.351686 
L 162.552138 54.122745 
L 164.177035 58.169305 
L 166.126912 63.746115 
L 168.401769 70.993638 
L 172.951482 86.508279 
L 175.876298 96.070982 
L 177.826175 101.806042 
L 179.451073 106.018302 
L 181.075971 109.603579 
L 182.375889 111.960351 
L 183.675807 113.82166 
L 184.650745 114.874491 
L 185.625684 115.622544 
L 186.600622 116.059168 
L 187.575561 116.180477 
L 188.5505 115.985394 
L 189.525438 115.475654 
L 190.500377 114.65579 
L 191.475315 113.533093 
L 192.450254 112.11755 
L 193.750172 109.796739 
L 195.05009 107.014655 
L 196.674988 102.955996 
L 198.624865 97.36752 
L 200.899722 90.110832 
L 205.774414 73.494117 
L 208.69923 64.042414 
L 210.649107 58.430772 
L 212.274005 54.348034 
L 213.898903 50.913149 
L 215.198821 48.689239 
L 216.498739 46.969684 
L 217.473677 46.027659 
L 218.448616 45.39317 
L 219.423554 45.071858 
L 220.398493 45.066583 
L 221.373432 45.37739 
L 222.34837 46.001516 
L 223.323309 46.933409 
L 224.298247 48.164783 
L 225.598165 50.25317 
L 226.898084 52.821199 
L 228.522981 56.643239 
L 230.147879 61.056503 
L 232.097756 66.978656 
L 235.022572 76.698261 
L 240.547224 95.260128 
L 242.82208 101.985313 
L 244.446978 106.174394 
L 246.071876 109.732641 
L 247.371794 112.065461 
L 248.671712 113.901157 
L 249.64665 114.933931 
L 250.621589 115.661399 
L 251.596527 116.077092 
L 252.571466 116.177311 
L 253.546405 115.961166 
L 254.521343 115.430579 
L 255.496282 114.590269 
L 256.47122 113.447709 
L 257.446159 112.013062 
L 258.746077 109.668254 
L 260.045995 106.864201 
L 261.670893 102.781463 
L 263.62077 97.169822 
L 265.895627 89.895021 
L 274.670074 60.963127 
L 276.619951 55.748129 
L 278.244848 52.06937 
L 279.544767 49.629508 
L 280.844685 47.679142 
L 281.819623 46.556445 
L 282.794562 45.736581 
L 283.7695 45.226841 
L 284.744439 45.031758 
L 285.719378 45.153068 
L 286.694316 45.589691 
L 287.669255 46.337745 
L 288.644193 47.390576 
L 289.619132 48.73882 
L 290.91905 50.974921 
L 292.218968 53.679259 
L 293.843866 57.652384 
L 295.793743 63.158046 
L 298.0686 70.349082 
L 301.968354 83.623217 
L 305.218149 94.44 
L 307.493006 101.263228 
L 309.117903 105.544021 
L 310.742801 109.209533 
L 312.042719 111.637597 
L 313.342637 113.575297 
L 314.317576 114.688045 
L 315.292514 115.497675 
L 316.267453 115.996984 
L 317.242391 116.181533 
L 318.21733 116.04968 
L 319.192269 115.602597 
L 320.167207 114.844262 
L 321.142146 113.781418 
L 322.117084 112.423519 
L 323.417002 110.175249 
L 324.716921 107.459724 
L 326.341818 103.47426 
L 328.291695 97.956604 
L 330.566552 90.755975 
L 334.466306 77.477558 
L 337.716102 66.66923 
L 339.990958 59.858023 
L 341.615856 55.588546 
L 343.240753 51.936317 
L 344.540672 49.520075 
L 345.84059 47.59506 
L 346.815528 46.492271 
L 347.790467 45.692885 
L 348.765405 45.204012 
L 349.740344 45.029999 
L 350.715283 45.172394 
L 351.690221 45.629931 
L 352.66516 46.398541 
L 353.640098 47.471387 
L 354.615037 48.838928 
L 355.914955 51.099344 
L 357.214873 53.82603 
L 358.839771 57.823792 
L 360.789648 63.353389 
L 363.064505 70.563539 
L 367.289238 84.95846 
L 370.539034 95.666747 
L 372.488911 101.444993 
L 374.113808 105.70311 
L 375.738706 109.34202 
L 377.038624 111.746415 
L 378.338542 113.658727 
L 379.313481 114.751545 
L 380.288419 115.54068 
L 381.263358 116.019113 
L 382.238296 116.182588 
L 383.213235 116.029652 
L 384.188174 115.561665 
L 385.163112 114.782789 
L 386.138051 113.699951 
L 387.112989 112.322782 
L 388.412907 110.050242 
L 389.712826 107.312422 
L 391.337723 103.302401 
L 393.2876 97.760919 
L 395.562457 90.541318 
L 398.487273 80.606118 
L 398.487273 80.606118 
" clip-path="url(#p854e110dcc)" style="fill: none; stroke: #0000ff; stroke-width: 1.5; stroke-linecap: square"/>
   </g>
   <g id="line2d_20">
    <path d="M 73.832727 80.606118 
L 77.732482 67.497047 
L 80.007338 60.591573 
L 81.957215 55.429953 
L 83.582113 51.804397 
L 84.882031 49.411873 
L 86.181949 47.512284 
L 87.156888 46.429446 
L 88.131826 45.65057 
L 89.106765 45.182583 
L 90.081704 45.029647 
L 91.056642 45.193122 
L 92.031581 45.671555 
L 93.006519 46.46069 
L 93.981458 47.553509 
L 94.956396 48.940292 
L 96.256314 51.224934 
L 97.556233 53.973861 
L 99.18113 57.996101 
L 101.131007 63.549414 
L 103.405864 70.778394 
L 106.33068 80.606118 
L 138.503653 80.606118 
L 138.828632 80.382362 
L 142.728387 67.289295 
L 145.003243 60.406979 
L 146.95312 55.272356 
L 148.578018 51.673617 
L 149.877936 49.304904 
L 151.177854 47.430817 
L 152.152793 46.367973 
L 153.127731 45.609638 
L 154.10267 45.162556 
L 155.077609 45.030703 
L 156.052547 45.215251 
L 157.027486 45.714561 
L 158.002424 46.52419 
L 158.977363 47.636938 
L 159.952301 49.042909 
L 161.252219 51.351686 
L 162.552138 54.122745 
L 164.177035 58.169305 
L 166.126912 63.746115 
L 168.401769 70.993638 
L 171.326585 80.606118 
L 203.499558 80.606118 
L 203.824537 80.158614 
L 207.724292 67.082069 
L 209.999148 60.223185 
L 211.624046 55.908695 
L 213.248943 52.203553 
L 214.548862 49.740165 
L 215.84878 47.764526 
L 216.823718 46.621967 
L 217.798657 45.781657 
L 218.773595 45.251069 
L 219.748534 45.034924 
L 220.723473 45.135144 
L 221.698411 45.550836 
L 222.67335 46.278304 
L 223.648288 47.311079 
L 224.623227 48.639973 
L 225.923145 50.851671 
L 227.223063 53.533553 
L 228.847961 57.481884 
L 230.797838 62.963393 
L 233.072695 70.13503 
L 236.32249 80.606118 
L 268.495463 80.606118 
L 268.820442 79.934885 
L 272.720197 66.875378 
L 274.995053 60.040197 
L 276.619951 55.748129 
L 278.244848 52.06937 
L 279.544767 49.629508 
L 280.844685 47.679142 
L 281.819623 46.556445 
L 282.794562 45.736581 
L 283.7695 45.226841 
L 284.744439 45.031758 
L 285.719378 45.153068 
L 286.694316 45.589691 
L 287.669255 46.337745 
L 288.644193 47.390576 
L 289.619132 48.73882 
L 290.91905 50.974921 
L 292.218968 53.679259 
L 293.843866 57.652384 
L 295.793743 63.158046 
L 298.0686 70.349082 
L 300.993415 80.270486 
L 301.318395 80.606118 
L 333.491368 80.606118 
L 334.141327 78.593375 
L 337.716102 66.66923 
L 339.990958 59.858023 
L 341.615856 55.588546 
L 343.240753 51.936317 
L 344.540672 49.520075 
L 345.84059 47.59506 
L 346.815528 46.492271 
L 347.790467 45.692885 
L 348.765405 45.204012 
L 349.740344 45.029999 
L 350.715283 45.172394 
L 351.690221 45.629931 
L 352.66516 46.398541 
L 353.640098 47.471387 
L 354.615037 48.838928 
L 355.914955 51.099344 
L 357.214873 53.82603 
L 358.839771 57.823792 
L 360.789648 63.353389 
L 363.064505 70.563539 
L 365.98932 80.494239 
L 366.639279 80.606118 
L 398.487273 80.606118 
L 398.487273 80.606118 
" clip-path="url(#p854e110dcc)" style="fill: none; stroke: #ff0000; stroke-width: 1.5; stroke-linecap: square"/>
   </g>
   <g id="patch_3">
    <path d="M 57.6 119.740235 
L 57.6 41.472 
" style="fill: none; stroke: #000000; stroke-width: 0.8; stroke-linejoin: miter; stroke-linecap: square"/>
   </g>
   <g id="patch_4">
    <path d="M 414.72 119.740235 
L 414.72 41.472 
" style="fill: none; stroke: #000000; stroke-width: 0.8; stroke-linejoin: miter; stroke-linecap: square"/>
   </g>
   <g id="patch_5">
    <path d="M 57.6 119.740235 
L 414.72 119.740235 
" style="fill: none; stroke: #000000; stroke-width: 0.8; stroke-linejoin: miter; stroke-linecap: square"/>
   </g>
   <g id="patch_6">
    <path d="M 57.6 41.472 
L 414.72 41.472 
" style="fill: none; stroke: #000000; stroke-width: 0.8; stroke-linejoin: miter; stroke-linecap: square"/>
   </g>
   <g id="legend_1">
    <g id="patch_7">
     <path d="M 64.6 114.740235 
L 146.742188 114.740235 
Q 148.742188 114.740235 148.742188 112.740235 
L 148.742188 84.10586 
Q 148.742188 82.10586 146.742188 82.10586 
L 64.6 82.10586 
Q 62.6 82.10586 62.6 84.10586 
L 62.6 112.740235 
Q 62.6 114.740235 64.6 114.740235 
z
" style="fill: #ffffff; opacity: 0.8; stroke: #cccccc; stroke-linejoin: miter"/>
    </g>
    <g id="line2d_21">
     <path d="M 66.6 90.204298 
L 76.6 90.204298 
L 86.6 90.204298 
" style="fill: none; stroke: #0000ff; stroke-width: 1.5; stroke-linecap: square"/>
    </g>
    <g id="text_11">
     <!-- clean -->
     <g transform="translate(94.6 93.704298)scale(0.1 -0.1)">
      <defs>
       <path id="DejaVuSans-63" d="M 3122 3366 
L 3122 2828 
Q 2878 2963 2633 3030 
Q 2388 3097 2138 3097 
Q 1578 3097 1268 2742 
Q 959 2388 959 1747 
Q 959 1106 1268 751 
Q 1578 397 2138 397 
Q 2388 397 2633 464 
Q 2878 531 3122 666 
L 3122 134 
Q 2881 22 2623 -34 
Q 2366 -91 2075 -91 
Q 1284 -91 818 406 
Q 353 903 353 1747 
Q 353 2603 823 3093 
Q 1294 3584 2113 3584 
Q 2378 3584 2631 3529 
Q 2884 3475 3122 3366 
z
" transform="scale(0.015625)"/>
       <path id="DejaVuSans-61" d="M 2194 1759 
Q 1497 1759 1228 1600 
Q 959 1441 959 1056 
Q 959 750 1161 570 
Q 1363 391 1709 391 
Q 2188 391 2477 730 
Q 2766 1069 2766 1631 
L 2766 1759 
L 2194 1759 
z
M 3341 1997 
L 3341 0 
L 2766 0 
L 2766 531 
Q 2569 213 2275 61 
Q 1981 -91 1556 -91 
Q 1019 -91 701 211 
Q 384 513 384 1019 
Q 384 1609 779 1909 
Q 1175 2209 1959 2209 
L 2766 2209 
L 2766 2266 
Q 2766 2663 2505 2880 
Q 2244 3097 1772 3097 
Q 1472 3097 1187 3025 
Q 903 2953 641 2809 
L 641 3341 
Q 956 3463 1253 3523 
Q 1550 3584 1831 3584 
Q 2591 3584 2966 3190 
Q 3341 2797 3341 1997 
z
" transform="scale(0.015625)"/>
       <path id="DejaVuSans-6e" d="M 3513 2113 
L 3513 0 
L 2938 0 
L 2938 2094 
Q 2938 2591 2744 2837 
Q 2550 3084 2163 3084 
Q 1697 3084 1428 2787 
Q 1159 2491 1159 1978 
L 1159 0 
L 581 0 
L 581 3500 
L 1159 3500 
L 1159 2956 
Q 1366 3272 1645 3428 
Q 1925 3584 2291 3584 
Q 2894 3584 3203 3211 
Q 3513 2838 3513 2113 
z
" transform="scale(0.015625)"/>
      </defs>
      <use xlink:href="#DejaVuSans-63"/>
      <use xlink:href="#DejaVuSans-6c" x="54.980469"/>
      <use xlink:href="#DejaVuSans-65" x="82.763672"/>
      <use xlink:href="#DejaVuSans-61" x="144.287109"/>
      <use xlink:href="#DejaVuSans-6e" x="205.566406"/>
     </g>
    </g>
    <g id="line2d_22">
     <path d="M 66.6 104.882423 
L 76.6 104.882423 
L 86.6 104.882423 
" style="fill: none; stroke: #ff0000; stroke-width: 1.5; stroke-linecap: square"/>
    </g>
    <g id="text_12">
     <!-- half_wave -->
     <g transform="translate(94.6 108.382423)scale(0.1 -0.1)">
      <defs>
       <path id="DejaVuSans-68" d="M 3513 2113 
L 3513 0 
L 2938 0 
L 2938 2094 
Q 2938 2591 2744 2837 
Q 2550 3084 2163 3084 
Q 1697 3084 1428 2787 
Q 1159 2491 1159 1978 
L 1159 0 
L 581 0 
L 581 4863 
L 1159 4863 
L 1159 2956 
Q 1366 3272 1645 3428 
Q 1925 3584 2291 3584 
Q 2894 3584 3203 3211 
Q 3513 2838 3513 2113 
z
" transform="scale(0.015625)"/>
       <path id="DejaVuSans-66" d="M 2375 4863 
L 2375 4384 
L 1825 4384 
Q 1516 4384 1395 4259 
Q 1275 4134 1275 3809 
L 1275 3500 
L 2222 3500 
L 2222 3053 
L 1275 3053 
L 1275 0 
L 697 0 
L 697 3053 
L 147 3053 
L 147 3500 
L 697 3500 
L 697 3744 
Q 697 4328 969 4595 
Q 1241 4863 1831 4863 
L 2375 4863 
z
" transform="scale(0.015625)"/>
       <path id="DejaVuSans-5f" d="M 3263 -1063 
L 3263 -1509 
L -63 -1509 
L -63 -1063 
L 3263 -1063 
z
" transform="scale(0.015625)"/>
       <path id="DejaVuSans-77" d="M 269 3500 
L 844 3500 
L 1563 769 
L 2278 3500 
L 2956 3500 
L 3675 769 
L 4391 3500 
L 4966 3500 
L 4050 0 
L 3372 0 
L 2619 2869 
L 1863 0 
L 1184 0 
L 269 3500 
z
" transform="scale(0.015625)"/>
       <path id="DejaVuSans-76" d="M 191 3500 
L 800 3500 
L 1894 563 
L 2988 3500 
L 3597 3500 
L 2284 0 
L 1503 0 
L 191 3500 
z
" transform="scale(0.015625)"/>
      </defs>
      <use xlink:href="#DejaVuSans-68"/>
      <use xlink:href="#DejaVuSans-61" x="63.378906"/>
      <use xlink:href="#DejaVuSans-6c" x="124.658203"/>
      <use xlink:href="#DejaVuSans-66" x="152.441406"/>
      <use xlink:href="#DejaVuSans-5f" x="187.646484"/>
      <use xlink:href="#DejaVuSans-77" x="237.646484"/>
      <use xlink:href="#DejaVuSans-61" x="319.433594"/>
      <use xlink:href="#DejaVuSans-76" x="380.712891"/>
      <use xlink:href="#DejaVuSans-65" x="439.892578"/>
     </g>
    </g>
   </g>
  </g>
  <g id="axes_2">
   <g id="patch_8">
    <path d="M 57.6 213.662118 
L 414.72 213.662118 
L 414.72 135.393882 
L 57.6 135.393882 
z
" style="fill: #ffffff"/>
   </g>
   <g id="matplotlib.axis_3">
    <g id="xtick_7">
     <g id="line2d_23">
      <path d="M 73.832727 213.662118 
L 73.832727 135.393882 
" clip-path="url(#p7936a09de4)" style="fill: none; stroke: #b0b0b0; stroke-width: 0.8; stroke-linecap: square"/>
     </g>
     <g id="line2d_24">
      <g>
       <use xlink:href="#m0df98babea" x="73.832727" y="213.662118" style="stroke: #000000; stroke-width: 0.8"/>
      </g>
     </g>
     <g id="text_13">
      <!-- 0 -->
      <g transform="translate(70.651477 228.260555)scale(0.1 -0.1)">
       <use xlink:href="#DejaVuSans-30"/>
      </g>
     </g>
    </g>
    <g id="xtick_8">
     <g id="line2d_25">
      <path d="M 138.828632 213.662118 
L 138.828632 135.393882 
" clip-path="url(#p7936a09de4)" style="fill: none; stroke: #b0b0b0; stroke-width: 0.8; stroke-linecap: square"/>
     </g>
     <g id="line2d_26">
      <g>
       <use xlink:href="#m0df98babea" x="138.828632" y="213.662118" style="stroke: #000000; stroke-width: 0.8"/>
      </g>
     </g>
     <g id="text_14">
      <!-- 200 -->
      <g transform="translate(129.284882 228.260555)scale(0.1 -0.1)">
       <use xlink:href="#DejaVuSans-32"/>
       <use xlink:href="#DejaVuSans-30" x="63.623047"/>
       <use xlink:href="#DejaVuSans-30" x="127.246094"/>
      </g>
     </g>
    </g>
    <g id="xtick_9">
     <g id="line2d_27">
      <path d="M 203.824537 213.662118 
L 203.824537 135.393882 
" clip-path="url(#p7936a09de4)" style="fill: none; stroke: #b0b0b0; stroke-width: 0.8; stroke-linecap: square"/>
     </g>
     <g id="line2d_28">
      <g>
       <use xlink:href="#m0df98babea" x="203.824537" y="213.662118" style="stroke: #000000; stroke-width: 0.8"/>
      </g>
     </g>
     <g id="text_15">
      <!-- 400 -->
      <g transform="translate(194.280787 228.260555)scale(0.1 -0.1)">
       <use xlink:href="#DejaVuSans-34"/>
       <use xlink:href="#DejaVuSans-30" x="63.623047"/>
       <use xlink:href="#DejaVuSans-30" x="127.246094"/>
      </g>
     </g>
    </g>
    <g id="xtick_10">
     <g id="line2d_29">
      <path d="M 268.820442 213.662118 
L 268.820442 135.393882 
" clip-path="url(#p7936a09de4)" style="fill: none; stroke: #b0b0b0; stroke-width: 0.8; stroke-linecap: square"/>
     </g>
     <g id="line2d_30">
      <g>
       <use xlink:href="#m0df98babea" x="268.820442" y="213.662118" style="stroke: #000000; stroke-width: 0.8"/>
      </g>
     </g>
     <g id="text_16">
      <!-- 600 -->
      <g transform="translate(259.276692 228.260555)scale(0.1 -0.1)">
       <use xlink:href="#DejaVuSans-36"/>
       <use xlink:href="#DejaVuSans-30" x="63.623047"/>
       <use xlink:href="#DejaVuSans-30" x="127.246094"/>
      </g>
     </g>
    </g>
    <g id="xtick_11">
     <g id="line2d_31">
      <path d="M 333.816347 213.662118 
L 333.816347 135.393882 
" clip-path="url(#p7936a09de4)" style="fill: none; stroke: #b0b0b0; stroke-width: 0.8; stroke-linecap: square"/>
     </g>
     <g id="line2d_32">
      <g>
       <use xlink:href="#m0df98babea" x="333.816347" y="213.662118" style="stroke: #000000; stroke-width: 0.8"/>
      </g>
     </g>
     <g id="text_17">
      <!-- 800 -->
      <g transform="translate(324.272597 228.260555)scale(0.1 -0.1)">
       <use xlink:href="#DejaVuSans-38"/>
       <use xlink:href="#DejaVuSans-30" x="63.623047"/>
       <use xlink:href="#DejaVuSans-30" x="127.246094"/>
      </g>
     </g>
    </g>
    <g id="xtick_12">
     <g id="line2d_33">
      <path d="M 398.812252 213.662118 
L 398.812252 135.393882 
" clip-path="url(#p7936a09de4)" style="fill: none; stroke: #b0b0b0; stroke-width: 0.8; stroke-linecap: square"/>
     </g>
     <g id="line2d_34">
      <g>
       <use xlink:href="#m0df98babea" x="398.812252" y="213.662118" style="stroke: #000000; stroke-width: 0.8"/>
      </g>
     </g>
     <g id="text_18">
      <!-- 1000 -->
      <g transform="translate(386.087252 228.260555)scale(0.1 -0.1)">
       <use xlink:href="#DejaVuSans-31"/>
       <use xlink:href="#DejaVuSans-30" x="63.623047"/>
       <use xlink:href="#DejaVuSans-30" x="127.246094"/>
       <use xlink:href="#DejaVuSans-30" x="190.869141"/>
      </g>
     </g>
    </g>
   </g>
   <g id="matplotlib.axis_4">
    <g id="ytick_4">
     <g id="line2d_35">
      <path d="M 57.6 210.104515 
L 414.72 210.104515 
" clip-path="url(#p7936a09de4)" style="fill: none; stroke: #b0b0b0; stroke-width: 0.8; stroke-linecap: square"/>
     </g>
     <g id="line2d_36">
      <g>
       <use xlink:href="#maa7426ba45" x="57.6" y="210.104515" style="stroke: #000000; stroke-width: 0.8"/>
      </g>
     </g>
     <g id="text_19">
      <!-- −1 -->
      <g transform="translate(35.857813 213.903733)scale(0.1 -0.1)">
       <use xlink:href="#DejaVuSans-2212"/>
       <use xlink:href="#DejaVuSans-31" x="83.789062"/>
      </g>
     </g>
    </g>
    <g id="ytick_5">
     <g id="line2d_37">
      <path d="M 57.6 174.528 
L 414.72 174.528 
" clip-path="url(#p7936a09de4)" style="fill: none; stroke: #b0b0b0; stroke-width: 0.8; stroke-linecap: square"/>
     </g>
     <g id="line2d_38">
      <g>
       <use xlink:href="#maa7426ba45" x="57.6" y="174.528" style="stroke: #000000; stroke-width: 0.8"/>
      </g>
     </g>
     <g id="text_20">
      <!-- 0 -->
      <g transform="translate(44.2375 178.327219)scale(0.1 -0.1)">
       <use xlink:href="#DejaVuSans-30"/>
      </g>
     </g>
    </g>
    <g id="ytick_6">
     <g id="line2d_39">
      <path d="M 57.6 138.951485 
L 414.72 138.951485 
" clip-path="url(#p7936a09de4)" style="fill: none; stroke: #b0b0b0; stroke-width: 0.8; stroke-linecap: square"/>
     </g>
     <g id="line2d_40">
      <g>
       <use xlink:href="#maa7426ba45" x="57.6" y="138.951485" style="stroke: #000000; stroke-width: 0.8"/>
      </g>
     </g>
     <g id="text_21">
      <!-- 1 -->
      <g transform="translate(44.2375 142.750704)scale(0.1 -0.1)">
       <use xlink:href="#DejaVuSans-31"/>
      </g>
     </g>
    </g>
    <g id="text_22">
     <!-- Amplitude -->
     <g transform="translate(29.778125 200.150656)rotate(-90)scale(0.1 -0.1)">
      <use xlink:href="#DejaVuSans-41"/>
      <use xlink:href="#DejaVuSans-6d" x="68.408203"/>
      <use xlink:href="#DejaVuSans-70" x="165.820312"/>
      <use xlink:href="#DejaVuSans-6c" x="229.296875"/>
      <use xlink:href="#DejaVuSans-69" x="257.080078"/>
      <use xlink:href="#DejaVuSans-74" x="284.863281"/>
      <use xlink:href="#DejaVuSans-75" x="324.072266"/>
      <use xlink:href="#DejaVuSans-64" x="387.451172"/>
      <use xlink:href="#DejaVuSans-65" x="450.927734"/>
     </g>
    </g>
   </g>
   <g id="line2d_41">
    <path d="M 73.832727 174.528 
L 77.732482 161.41893 
L 80.007338 154.513455 
L 81.957215 149.351836 
L 83.582113 145.72628 
L 84.882031 143.333755 
L 86.181949 141.434167 
L 87.156888 140.351329 
L 88.131826 139.572453 
L 89.106765 139.104465 
L 90.081704 138.951529 
L 91.056642 139.115005 
L 92.031581 139.593437 
L 93.006519 140.382572 
L 93.981458 141.475391 
L 94.956396 142.862174 
L 96.256314 145.146816 
L 97.556233 147.895743 
L 99.18113 151.917983 
L 101.131007 157.471297 
L 103.405864 164.700277 
L 107.630598 179.102332 
L 110.880393 189.791049 
L 112.83027 195.547816 
L 114.455168 199.783088 
L 116.080066 203.395253 
L 117.379984 205.775884 
L 118.679902 207.662731 
L 119.65484 208.735577 
L 120.629779 209.504186 
L 121.604717 209.961723 
L 122.579656 210.104119 
L 123.554595 209.930106 
L 124.529533 209.441232 
L 125.504472 208.641846 
L 126.47941 207.539057 
L 127.454349 206.142674 
L 128.754267 203.845953 
L 130.054185 201.085946 
L 131.679083 197.051526 
L 133.62896 191.486437 
L 135.903817 184.24815 
L 140.45353 168.736196 
L 143.378346 159.163967 
L 145.328223 153.418025 
L 146.95312 149.194238 
L 148.578018 145.5955 
L 149.877936 143.226786 
L 151.177854 141.3527 
L 152.152793 140.289856 
L 153.127731 139.53152 
L 154.10267 139.084438 
L 155.077609 138.952585 
L 156.052547 139.137134 
L 157.027486 139.636443 
L 158.002424 140.446072 
L 158.977363 141.55882 
L 159.952301 142.964791 
L 161.252219 145.273568 
L 162.552138 148.044627 
L 164.177035 152.091187 
L 166.126912 157.667997 
L 168.401769 164.91552 
L 172.951482 180.430161 
L 175.876298 189.992865 
L 177.826175 195.727925 
L 179.451073 199.940185 
L 181.075971 203.525461 
L 182.375889 205.882234 
L 183.675807 207.743542 
L 184.650745 208.796373 
L 185.625684 209.544427 
L 186.600622 209.98105 
L 187.575561 210.10236 
L 188.5505 209.907277 
L 189.525438 209.397536 
L 190.500377 208.577672 
L 191.475315 207.454976 
L 192.450254 206.039432 
L 193.750172 203.718622 
L 195.05009 200.936537 
L 196.674988 196.877878 
L 198.624865 191.289402 
L 200.899722 184.032715 
L 205.774414 167.415999 
L 208.69923 157.964296 
L 210.649107 152.352654 
L 212.274005 148.269916 
L 213.898903 144.835032 
L 215.198821 142.611121 
L 216.498739 140.891566 
L 217.473677 139.949542 
L 218.448616 139.315052 
L 219.423554 138.993741 
L 220.398493 138.988465 
L 221.373432 139.299272 
L 222.34837 139.923398 
L 223.323309 140.855292 
L 224.298247 142.086665 
L 225.598165 144.175052 
L 226.898084 146.743081 
L 228.522981 150.565121 
L 230.147879 154.978386 
L 232.097756 160.900538 
L 235.022572 170.620144 
L 240.547224 189.182011 
L 242.82208 195.907195 
L 244.446978 200.096276 
L 246.071876 203.654523 
L 247.371794 205.987344 
L 248.671712 207.823039 
L 249.64665 208.855813 
L 250.621589 209.583282 
L 251.596527 209.998974 
L 252.571466 210.099193 
L 253.546405 209.883048 
L 254.521343 209.352461 
L 255.496282 208.512151 
L 256.47122 207.369591 
L 257.446159 205.934944 
L 258.746077 203.590136 
L 260.045995 200.786084 
L 261.670893 196.703346 
L 263.62077 191.091704 
L 265.895627 183.816904 
L 274.670074 154.885009 
L 276.619951 149.670011 
L 278.244848 145.991253 
L 279.544767 143.55139 
L 280.844685 141.601024 
L 281.819623 140.478328 
L 282.794562 139.658464 
L 283.7695 139.148723 
L 284.744439 138.95364 
L 285.719378 139.07495 
L 286.694316 139.511573 
L 287.669255 140.259627 
L 288.644193 141.312458 
L 289.619132 142.660703 
L 290.91905 144.896804 
L 292.218968 147.601141 
L 293.843866 151.574266 
L 295.793743 157.079928 
L 298.0686 164.270964 
L 301.968354 177.545099 
L 305.218149 188.361882 
L 307.493006 195.18511 
L 309.117903 199.465904 
L 310.742801 203.131416 
L 312.042719 205.55948 
L 313.342637 207.49718 
L 314.317576 208.609928 
L 315.292514 209.419557 
L 316.267453 209.918866 
L 317.242391 210.103415 
L 318.21733 209.971562 
L 319.192269 209.52448 
L 320.167207 208.766144 
L 321.142146 207.7033 
L 322.117084 206.345401 
L 323.417002 204.097131 
L 324.716921 201.381606 
L 326.341818 197.396143 
L 328.291695 191.878486 
L 330.566552 184.677857 
L 334.466306 171.39944 
L 337.716102 160.591112 
L 339.990958 153.779905 
L 341.615856 149.510428 
L 343.240753 145.858199 
L 344.540672 143.441958 
L 345.84059 141.516943 
L 346.815528 140.414154 
L 347.790467 139.614768 
L 348.765405 139.125894 
L 349.740344 138.951881 
L 350.715283 139.094277 
L 351.690221 139.551814 
L 352.66516 140.320423 
L 353.640098 141.393269 
L 354.615037 142.76081 
L 355.914955 145.021226 
L 357.214873 147.747912 
L 358.839771 151.745674 
L 360.789648 157.275271 
L 363.064505 164.485422 
L 367.289238 178.880343 
L 370.539034 189.588629 
L 372.488911 195.366875 
L 374.113808 199.624992 
L 375.738706 203.263903 
L 377.038624 205.668298 
L 378.338542 207.580609 
L 379.313481 208.673428 
L 380.288419 209.462563 
L 381.263358 209.940995 
L 382.238296 210.104471 
L 383.213235 209.951535 
L 384.188174 209.483547 
L 385.163112 208.704671 
L 386.138051 207.621833 
L 387.112989 206.244665 
L 388.412907 203.972125 
L 389.712826 201.234304 
L 391.337723 197.224283 
L 393.2876 191.682801 
L 395.562457 184.4632 
L 398.487273 174.528 
L 398.487273 174.528 
" clip-path="url(#p7936a09de4)" style="fill: none; stroke: #0000ff; stroke-width: 1.5; stroke-linecap: square"/>
   </g>
   <g id="line2d_42">
    <path d="M 73.832727 174.528 
L 77.732482 161.41893 
L 80.007338 154.513455 
L 81.957215 149.351836 
L 83.582113 145.72628 
L 84.882031 143.333755 
L 86.181949 141.434167 
L 87.156888 140.351329 
L 88.131826 139.572453 
L 89.106765 139.104465 
L 90.081704 138.951529 
L 91.056642 139.115005 
L 92.031581 139.593437 
L 93.006519 140.382572 
L 93.981458 141.475391 
L 94.956396 142.862174 
L 96.256314 145.146816 
L 97.556233 147.895743 
L 99.18113 151.917983 
L 101.131007 157.471297 
L 103.405864 164.700277 
L 106.33068 174.416121 
L 110.230434 161.314988 
L 112.505291 154.421059 
L 114.455168 149.272912 
L 116.080066 145.660747 
L 117.379984 143.280116 
L 118.679902 141.393269 
L 119.65484 140.320423 
L 120.629779 139.551814 
L 121.604717 139.094277 
L 122.579656 138.951881 
L 123.554595 139.125894 
L 124.529533 139.614768 
L 125.504472 140.414154 
L 126.47941 141.516943 
L 127.454349 142.913326 
L 128.754267 145.210047 
L 130.054185 147.970054 
L 131.679083 152.004474 
L 133.62896 157.569563 
L 135.903817 164.80785 
L 138.828632 174.304244 
L 142.728387 161.211177 
L 145.003243 154.328862 
L 146.95312 149.194238 
L 148.578018 145.5955 
L 149.877936 143.226786 
L 151.177854 141.3527 
L 152.152793 140.289856 
L 153.127731 139.53152 
L 154.10267 139.084438 
L 155.077609 138.952585 
L 156.052547 139.137134 
L 157.027486 139.636443 
L 158.002424 140.446072 
L 158.977363 141.55882 
L 159.952301 142.964791 
L 161.252219 145.273568 
L 162.552138 148.044627 
L 164.177035 152.091187 
L 166.126912 157.667997 
L 168.401769 164.91552 
L 171.001605 173.744912 
L 171.326585 174.192369 
L 175.226339 161.107498 
L 177.501196 154.236864 
L 179.126093 149.911227 
L 180.750991 146.192948 
L 182.050909 143.717835 
L 183.350827 141.729588 
L 184.325766 140.577114 
L 185.300704 139.726593 
L 186.275643 139.185591 
L 187.250581 138.958918 
L 188.22552 139.04859 
L 189.200459 139.453811 
L 190.175397 140.170975 
L 191.150336 141.193706 
L 192.125274 142.512906 
L 193.425192 144.712369 
L 194.725111 147.382983 
L 196.350008 151.318859 
L 198.299885 156.78821 
L 200.574742 163.950041 
L 203.499558 173.856767 
L 203.824537 174.080497 
L 207.724292 161.003951 
L 209.999148 154.145067 
L 211.624046 149.830577 
L 213.248943 146.125435 
L 214.548862 143.662048 
L 215.84878 141.686409 
L 216.823718 140.543849 
L 217.798657 139.703539 
L 218.773595 139.172952 
L 219.748534 138.956807 
L 220.723473 139.057026 
L 221.698411 139.472718 
L 222.67335 140.200187 
L 223.648288 141.232961 
L 224.623227 142.561856 
L 225.923145 144.773553 
L 227.223063 147.455435 
L 228.847961 151.403766 
L 230.797838 156.885275 
L 233.072695 164.056912 
L 235.99751 173.968629 
L 236.32249 173.968629 
L 240.222244 160.900538 
L 242.497101 154.053472 
L 244.121998 149.750172 
L 245.746896 146.058203 
L 247.046814 143.606566 
L 248.346732 141.643554 
L 249.321671 140.51092 
L 250.296609 139.680829 
L 251.271548 139.160663 
L 252.246486 138.955048 
L 253.221425 139.065813 
L 254.196364 139.491973 
L 255.171302 140.229737 
L 256.146241 141.272545 
L 257.121179 142.611121 
L 258.421097 144.835032 
L 259.721016 147.528154 
L 261.345913 151.488902 
L 263.29579 156.982515 
L 265.570647 164.163887 
L 268.495463 174.080497 
L 268.820442 173.856767 
L 272.720197 160.79726 
L 274.995053 153.962079 
L 276.619951 149.670011 
L 278.244848 145.991253 
L 279.544767 143.55139 
L 280.844685 141.601024 
L 281.819623 140.478328 
L 282.794562 139.658464 
L 283.7695 139.148723 
L 284.744439 138.95364 
L 285.719378 139.07495 
L 286.694316 139.511573 
L 287.669255 140.259627 
L 288.644193 141.312458 
L 289.619132 142.660703 
L 290.91905 144.896804 
L 292.218968 147.601141 
L 293.843866 151.574266 
L 295.793743 157.079928 
L 298.0686 164.270964 
L 300.993415 174.192369 
L 301.318395 173.744912 
L 305.218149 160.694118 
L 307.493006 153.87089 
L 309.117903 149.590096 
L 310.742801 145.924584 
L 312.042719 143.49652 
L 313.342637 141.55882 
L 314.317576 140.446072 
L 315.292514 139.636443 
L 316.267453 139.137134 
L 317.242391 138.952585 
L 318.21733 139.084438 
L 319.192269 139.53152 
L 320.167207 140.289856 
L 321.142146 141.3527 
L 322.117084 142.710599 
L 323.417002 144.958869 
L 324.716921 147.674394 
L 326.341818 151.659857 
L 328.291695 157.177514 
L 330.566552 164.378143 
L 333.491368 174.304244 
L 333.816347 173.633064 
L 337.716102 160.591112 
L 339.990958 153.779905 
L 341.615856 149.510428 
L 343.240753 145.858199 
L 344.540672 143.441958 
L 345.84059 141.516943 
L 346.815528 140.414154 
L 347.790467 139.614768 
L 348.765405 139.125894 
L 349.740344 138.951881 
L 350.715283 139.094277 
L 351.690221 139.551814 
L 352.66516 140.320423 
L 353.640098 141.393269 
L 354.615037 142.76081 
L 355.914955 145.021226 
L 357.214873 147.747912 
L 358.839771 151.745674 
L 360.789648 157.275271 
L 363.064505 164.485422 
L 365.98932 174.416121 
L 366.639279 172.403567 
L 370.214054 160.488244 
L 372.488911 153.689125 
L 374.113808 149.431008 
L 375.738706 145.792097 
L 377.038624 143.387702 
L 378.338542 141.475391 
L 379.313481 140.382572 
L 380.288419 139.593437 
L 381.263358 139.115005 
L 382.238296 138.951529 
L 383.213235 139.104465 
L 384.188174 139.572453 
L 385.163112 140.351329 
L 386.138051 141.434167 
L 387.112989 142.811335 
L 388.412907 145.083875 
L 389.712826 147.821696 
L 391.337723 151.831717 
L 393.2876 157.373199 
L 395.562457 164.5928 
L 398.487273 174.528 
L 398.487273 174.528 
" clip-path="url(#p7936a09de4)" style="fill: none; stroke: #008000; stroke-width: 1.5; stroke-linecap: square"/>
   </g>
   <g id="patch_9">
    <path d="M 57.6 213.662118 
L 57.6 135.393882 
" style="fill: none; stroke: #000000; stroke-width: 0.8; stroke-linejoin: miter; stroke-linecap: square"/>
   </g>
   <g id="patch_10">
    <path d="M 414.72 213.662118 
L 414.72 135.393882 
" style="fill: none; stroke: #000000; stroke-width: 0.8; stroke-linejoin: miter; stroke-linecap: square"/>
   </g>
   <g id="patch_11">
    <path d="M 57.6 213.662118 
L 414.72 213.662118 
" style="fill: none; stroke: #000000; stroke-width: 0.8; stroke-linejoin: miter; stroke-linecap: square"/>
   </g>
   <g id="patch_12">
    <path d="M 57.6 135.393882 
L 414.72 135.393882 
" style="fill: none; stroke: #000000; stroke-width: 0.8; stroke-linejoin: miter; stroke-linecap: square"/>
   </g>
   <g id="legend_2">
    <g id="patch_13">
     <path d="M 64.6 208.662118 
L 143.392188 208.662118 
Q 145.392188 208.662118 145.392188 206.662118 
L 145.392188 178.027743 
Q 145.392188 176.027743 143.392188 176.027743 
L 64.6 176.027743 
Q 62.6 176.027743 62.6 178.027743 
L 62.6 206.662118 
Q 62.6 208.662118 64.6 208.662118 
z
" style="fill: #ffffff; opacity: 0.8; stroke: #cccccc; stroke-linejoin: miter"/>
    </g>
    <g id="line2d_43">
     <path d="M 66.6 184.12618 
L 76.6 184.12618 
L 86.6 184.12618 
" style="fill: none; stroke: #0000ff; stroke-width: 1.5; stroke-linecap: square"/>
    </g>
    <g id="text_23">
     <!-- clean -->
     <g transform="translate(94.6 187.62618)scale(0.1 -0.1)">
      <use xlink:href="#DejaVuSans-63"/>
      <use xlink:href="#DejaVuSans-6c" x="54.980469"/>
      <use xlink:href="#DejaVuSans-65" x="82.763672"/>
      <use xlink:href="#DejaVuSans-61" x="144.287109"/>
      <use xlink:href="#DejaVuSans-6e" x="205.566406"/>
     </g>
    </g>
    <g id="line2d_44">
     <path d="M 66.6 198.804305 
L 76.6 198.804305 
L 86.6 198.804305 
" style="fill: none; stroke: #008000; stroke-width: 1.5; stroke-linecap: square"/>
    </g>
    <g id="text_24">
     <!-- full_wave -->
     <g transform="translate(94.6 202.304305)scale(0.1 -0.1)">
      <use xlink:href="#DejaVuSans-66"/>
      <use xlink:href="#DejaVuSans-75" x="35.205078"/>
      <use xlink:href="#DejaVuSans-6c" x="98.583984"/>
      <use xlink:href="#DejaVuSans-6c" x="126.367188"/>
      <use xlink:href="#DejaVuSans-5f" x="154.150391"/>
      <use xlink:href="#DejaVuSans-77" x="204.150391"/>
      <use xlink:href="#DejaVuSans-61" x="285.9375"/>
      <use xlink:href="#DejaVuSans-76" x="347.216797"/>
      <use xlink:href="#DejaVuSans-65" x="406.396484"/>
     </g>
    </g>
   </g>
  </g>
  <g id="axes_3">
   <g id="patch_14">
    <path d="M 57.6 307.584 
L 414.72 307.584 
L 414.72 229.315765 
L 57.6 229.315765 
z
" style="fill: #ffffff"/>
   </g>
   <g id="matplotlib.axis_5">
    <g id="xtick_13">
     <g id="line2d_45">
      <path d="M 73.832727 307.584 
L 73.832727 229.315765 
" clip-path="url(#p23362bb6ba)" style="fill: none; stroke: #b0b0b0; stroke-width: 0.8; stroke-linecap: square"/>
     </g>
     <g id="line2d_46">
      <g>
       <use xlink:href="#m0df98babea" x="73.832727" y="307.584" style="stroke: #000000; stroke-width: 0.8"/>
      </g>
     </g>
     <g id="text_25">
      <!-- 0 -->
      <g transform="translate(70.651477 322.182437)scale(0.1 -0.1)">
       <use xlink:href="#DejaVuSans-30"/>
      </g>
     </g>
    </g>
    <g id="xtick_14">
     <g id="line2d_47">
      <path d="M 138.828632 307.584 
L 138.828632 229.315765 
" clip-path="url(#p23362bb6ba)" style="fill: none; stroke: #b0b0b0; stroke-width: 0.8; stroke-linecap: square"/>
     </g>
     <g id="line2d_48">
      <g>
       <use xlink:href="#m0df98babea" x="138.828632" y="307.584" style="stroke: #000000; stroke-width: 0.8"/>
      </g>
     </g>
     <g id="text_26">
      <!-- 200 -->
      <g transform="translate(129.284882 322.182437)scale(0.1 -0.1)">
       <use xlink:href="#DejaVuSans-32"/>
       <use xlink:href="#DejaVuSans-30" x="63.623047"/>
       <use xlink:href="#DejaVuSans-30" x="127.246094"/>
      </g>
     </g>
    </g>
    <g id="xtick_15">
     <g id="line2d_49">
      <path d="M 203.824537 307.584 
L 203.824537 229.315765 
" clip-path="url(#p23362bb6ba)" style="fill: none; stroke: #b0b0b0; stroke-width: 0.8; stroke-linecap: square"/>
     </g>
     <g id="line2d_50">
      <g>
       <use xlink:href="#m0df98babea" x="203.824537" y="307.584" style="stroke: #000000; stroke-width: 0.8"/>
      </g>
     </g>
     <g id="text_27">
      <!-- 400 -->
      <g transform="translate(194.280787 322.182437)scale(0.1 -0.1)">
       <use xlink:href="#DejaVuSans-34"/>
       <use xlink:href="#DejaVuSans-30" x="63.623047"/>
       <use xlink:href="#DejaVuSans-30" x="127.246094"/>
      </g>
     </g>
    </g>
    <g id="xtick_16">
     <g id="line2d_51">
      <path d="M 268.820442 307.584 
L 268.820442 229.315765 
" clip-path="url(#p23362bb6ba)" style="fill: none; stroke: #b0b0b0; stroke-width: 0.8; stroke-linecap: square"/>
     </g>
     <g id="line2d_52">
      <g>
       <use xlink:href="#m0df98babea" x="268.820442" y="307.584" style="stroke: #000000; stroke-width: 0.8"/>
      </g>
     </g>
     <g id="text_28">
      <!-- 600 -->
      <g transform="translate(259.276692 322.182437)scale(0.1 -0.1)">
       <use xlink:href="#DejaVuSans-36"/>
       <use xlink:href="#DejaVuSans-30" x="63.623047"/>
       <use xlink:href="#DejaVuSans-30" x="127.246094"/>
      </g>
     </g>
    </g>
    <g id="xtick_17">
     <g id="line2d_53">
      <path d="M 333.816347 307.584 
L 333.816347 229.315765 
" clip-path="url(#p23362bb6ba)" style="fill: none; stroke: #b0b0b0; stroke-width: 0.8; stroke-linecap: square"/>
     </g>
     <g id="line2d_54">
      <g>
       <use xlink:href="#m0df98babea" x="333.816347" y="307.584" style="stroke: #000000; stroke-width: 0.8"/>
      </g>
     </g>
     <g id="text_29">
      <!-- 800 -->
      <g transform="translate(324.272597 322.182437)scale(0.1 -0.1)">
       <use xlink:href="#DejaVuSans-38"/>
       <use xlink:href="#DejaVuSans-30" x="63.623047"/>
       <use xlink:href="#DejaVuSans-30" x="127.246094"/>
      </g>
     </g>
    </g>
    <g id="xtick_18">
     <g id="line2d_55">
      <path d="M 398.812252 307.584 
L 398.812252 229.315765 
" clip-path="url(#p23362bb6ba)" style="fill: none; stroke: #b0b0b0; stroke-width: 0.8; stroke-linecap: square"/>
     </g>
     <g id="line2d_56">
      <g>
       <use xlink:href="#m0df98babea" x="398.812252" y="307.584" style="stroke: #000000; stroke-width: 0.8"/>
      </g>
     </g>
     <g id="text_30">
      <!-- 1000 -->
      <g transform="translate(386.087252 322.182437)scale(0.1 -0.1)">
       <use xlink:href="#DejaVuSans-31"/>
       <use xlink:href="#DejaVuSans-30" x="63.623047"/>
       <use xlink:href="#DejaVuSans-30" x="127.246094"/>
       <use xlink:href="#DejaVuSans-30" x="190.869141"/>
      </g>
     </g>
    </g>
    <g id="text_31">
     <!-- Time (samples) -->
     <g transform="translate(197.652187 335.860562)scale(0.1 -0.1)">
      <defs>
       <path id="DejaVuSans-54" d="M -19 4666 
L 3928 4666 
L 3928 4134 
L 2272 4134 
L 2272 0 
L 1638 0 
L 1638 4134 
L -19 4134 
L -19 4666 
z
" transform="scale(0.015625)"/>
       <path id="DejaVuSans-20" transform="scale(0.015625)"/>
       <path id="DejaVuSans-28" d="M 1984 4856 
Q 1566 4138 1362 3434 
Q 1159 2731 1159 2009 
Q 1159 1288 1364 580 
Q 1569 -128 1984 -844 
L 1484 -844 
Q 1016 -109 783 600 
Q 550 1309 550 2009 
Q 550 2706 781 3412 
Q 1013 4119 1484 4856 
L 1984 4856 
z
" transform="scale(0.015625)"/>
       <path id="DejaVuSans-73" d="M 2834 3397 
L 2834 2853 
Q 2591 2978 2328 3040 
Q 2066 3103 1784 3103 
Q 1356 3103 1142 2972 
Q 928 2841 928 2578 
Q 928 2378 1081 2264 
Q 1234 2150 1697 2047 
L 1894 2003 
Q 2506 1872 2764 1633 
Q 3022 1394 3022 966 
Q 3022 478 2636 193 
Q 2250 -91 1575 -91 
Q 1294 -91 989 -36 
Q 684 19 347 128 
L 347 722 
Q 666 556 975 473 
Q 1284 391 1588 391 
Q 1994 391 2212 530 
Q 2431 669 2431 922 
Q 2431 1156 2273 1281 
Q 2116 1406 1581 1522 
L 1381 1569 
Q 847 1681 609 1914 
Q 372 2147 372 2553 
Q 372 3047 722 3315 
Q 1072 3584 1716 3584 
Q 2034 3584 2315 3537 
Q 2597 3491 2834 3397 
z
" transform="scale(0.015625)"/>
       <path id="DejaVuSans-29" d="M 513 4856 
L 1013 4856 
Q 1481 4119 1714 3412 
Q 1947 2706 1947 2009 
Q 1947 1309 1714 600 
Q 1481 -109 1013 -844 
L 513 -844 
Q 928 -128 1133 580 
Q 1338 1288 1338 2009 
Q 1338 2731 1133 3434 
Q 928 4138 513 4856 
z
" transform="scale(0.015625)"/>
      </defs>
      <use xlink:href="#DejaVuSans-54"/>
      <use xlink:href="#DejaVuSans-69" x="57.958984"/>
      <use xlink:href="#DejaVuSans-6d" x="85.742188"/>
      <use xlink:href="#DejaVuSans-65" x="183.154297"/>
      <use xlink:href="#DejaVuSans-20" x="244.677734"/>
      <use xlink:href="#DejaVuSans-28" x="276.464844"/>
      <use xlink:href="#DejaVuSans-73" x="315.478516"/>
      <use xlink:href="#DejaVuSans-61" x="367.578125"/>
      <use xlink:href="#DejaVuSans-6d" x="428.857422"/>
      <use xlink:href="#DejaVuSans-70" x="526.269531"/>
      <use xlink:href="#DejaVuSans-6c" x="589.746094"/>
      <use xlink:href="#DejaVuSans-65" x="617.529297"/>
      <use xlink:href="#DejaVuSans-73" x="679.052734"/>
      <use xlink:href="#DejaVuSans-29" x="731.152344"/>
     </g>
    </g>
   </g>
   <g id="matplotlib.axis_6">
    <g id="ytick_7">
     <g id="line2d_57">
      <path d="M 57.6 304.026397 
L 414.72 304.026397 
" clip-path="url(#p23362bb6ba)" style="fill: none; stroke: #b0b0b0; stroke-width: 0.8; stroke-linecap: square"/>
     </g>
     <g id="line2d_58">
      <g>
       <use xlink:href="#maa7426ba45" x="57.6" y="304.026397" style="stroke: #000000; stroke-width: 0.8"/>
      </g>
     </g>
     <g id="text_32">
      <!-- −1 -->
      <g transform="translate(35.857813 307.825616)scale(0.1 -0.1)">
       <use xlink:href="#DejaVuSans-2212"/>
       <use xlink:href="#DejaVuSans-31" x="83.789062"/>
      </g>
     </g>
    </g>
    <g id="ytick_8">
     <g id="line2d_59">
      <path d="M 57.6 268.449882 
L 414.72 268.449882 
" clip-path="url(#p23362bb6ba)" style="fill: none; stroke: #b0b0b0; stroke-width: 0.8; stroke-linecap: square"/>
     </g>
     <g id="line2d_60">
      <g>
       <use xlink:href="#maa7426ba45" x="57.6" y="268.449882" style="stroke: #000000; stroke-width: 0.8"/>
      </g>
     </g>
     <g id="text_33">
      <!-- 0 -->
      <g transform="translate(44.2375 272.249101)scale(0.1 -0.1)">
       <use xlink:href="#DejaVuSans-30"/>
      </g>
     </g>
    </g>
    <g id="ytick_9">
     <g id="line2d_61">
      <path d="M 57.6 232.873368 
L 414.72 232.873368 
" clip-path="url(#p23362bb6ba)" style="fill: none; stroke: #b0b0b0; stroke-width: 0.8; stroke-linecap: square"/>
     </g>
     <g id="line2d_62">
      <g>
       <use xlink:href="#maa7426ba45" x="57.6" y="232.873368" style="stroke: #000000; stroke-width: 0.8"/>
      </g>
     </g>
     <g id="text_34">
      <!-- 1 -->
      <g transform="translate(44.2375 236.672587)scale(0.1 -0.1)">
       <use xlink:href="#DejaVuSans-31"/>
      </g>
     </g>
    </g>
    <g id="text_35">
     <!-- Amplitude -->
     <g transform="translate(29.778125 294.072539)rotate(-90)scale(0.1 -0.1)">
      <use xlink:href="#DejaVuSans-41"/>
      <use xlink:href="#DejaVuSans-6d" x="68.408203"/>
      <use xlink:href="#DejaVuSans-70" x="165.820312"/>
      <use xlink:href="#DejaVuSans-6c" x="229.296875"/>
      <use xlink:href="#DejaVuSans-69" x="257.080078"/>
      <use xlink:href="#DejaVuSans-74" x="284.863281"/>
      <use xlink:href="#DejaVuSans-75" x="324.072266"/>
      <use xlink:href="#DejaVuSans-64" x="387.451172"/>
      <use xlink:href="#DejaVuSans-65" x="450.927734"/>
     </g>
    </g>
   </g>
   <g id="line2d_63">
    <path d="M 73.832727 268.449882 
L 77.732482 255.340812 
L 80.007338 248.435337 
L 81.957215 243.273718 
L 83.582113 239.648162 
L 84.882031 237.255637 
L 86.181949 235.356049 
L 87.156888 234.273211 
L 88.131826 233.494335 
L 89.106765 233.026348 
L 90.081704 232.873412 
L 91.056642 233.036887 
L 92.031581 233.51532 
L 93.006519 234.304455 
L 93.981458 235.397273 
L 94.956396 236.784057 
L 96.256314 239.068698 
L 97.556233 241.817626 
L 99.18113 245.839866 
L 101.131007 251.393179 
L 103.405864 258.622159 
L 107.630598 273.024214 
L 110.880393 283.712931 
L 112.83027 289.469698 
L 114.455168 293.70497 
L 116.080066 297.317135 
L 117.379984 299.697766 
L 118.679902 301.584613 
L 119.65484 302.657459 
L 120.629779 303.426069 
L 121.604717 303.883606 
L 122.579656 304.026001 
L 123.554595 303.851988 
L 124.529533 303.363115 
L 125.504472 302.563729 
L 126.47941 301.46094 
L 127.454349 300.064556 
L 128.754267 297.767835 
L 130.054185 295.007828 
L 131.679083 290.973408 
L 133.62896 285.408319 
L 135.903817 278.170032 
L 140.45353 262.658079 
L 143.378346 253.08585 
L 145.328223 247.339908 
L 146.95312 243.116121 
L 148.578018 239.517382 
L 149.877936 237.148669 
L 151.177854 235.274582 
L 152.152793 234.211738 
L 153.127731 233.453403 
L 154.10267 233.00632 
L 155.077609 232.874467 
L 156.052547 233.059016 
L 157.027486 233.558325 
L 158.002424 234.367955 
L 158.977363 235.480703 
L 159.952301 236.886673 
L 161.252219 239.19545 
L 162.552138 241.96651 
L 164.177035 246.013069 
L 166.126912 251.58988 
L 168.401769 258.837403 
L 172.951482 274.352043 
L 175.876298 283.914747 
L 177.826175 289.649807 
L 179.451073 293.862067 
L 181.075971 297.447344 
L 182.375889 299.804116 
L 183.675807 301.665424 
L 184.650745 302.718255 
L 185.625684 303.466309 
L 186.600622 303.902932 
L 187.575561 304.024242 
L 188.5505 303.829159 
L 189.525438 303.319419 
L 190.500377 302.499555 
L 191.475315 301.376858 
L 192.450254 299.961314 
L 193.750172 297.640504 
L 195.05009 294.85842 
L 196.674988 290.79976 
L 198.624865 285.211284 
L 200.899722 277.954597 
L 205.774414 261.337881 
L 208.69923 251.886178 
L 210.649107 246.274537 
L 212.274005 242.191799 
L 213.898903 238.756914 
L 215.198821 236.533004 
L 216.498739 234.813449 
L 217.473677 233.871424 
L 218.448616 233.236934 
L 219.423554 232.915623 
L 220.398493 232.910347 
L 221.373432 233.221155 
L 222.34837 233.845281 
L 223.323309 234.777174 
L 224.298247 236.008547 
L 225.598165 238.096935 
L 226.898084 240.664964 
L 228.522981 244.487003 
L 230.147879 248.900268 
L 232.097756 254.82242 
L 235.022572 264.542026 
L 240.547224 283.103893 
L 242.82208 289.829078 
L 244.446978 294.018159 
L 246.071876 297.576405 
L 247.371794 299.909226 
L 248.671712 301.744921 
L 249.64665 302.777696 
L 250.621589 303.505164 
L 251.596527 303.920856 
L 252.571466 304.021076 
L 253.546405 303.804931 
L 254.521343 303.274343 
L 255.496282 302.434033 
L 256.47122 301.291474 
L 257.446159 299.856826 
L 258.746077 297.512018 
L 260.045995 294.707966 
L 261.670893 290.625228 
L 263.62077 285.013586 
L 265.895627 277.738786 
L 274.670074 248.806892 
L 276.619951 243.591893 
L 278.244848 239.913135 
L 279.544767 237.473272 
L 280.844685 235.522907 
L 281.819623 234.40021 
L 282.794562 233.580346 
L 283.7695 233.070606 
L 284.744439 232.875523 
L 285.719378 232.996832 
L 286.694316 233.433456 
L 287.669255 234.181509 
L 288.644193 235.23434 
L 289.619132 236.582585 
L 290.91905 238.818686 
L 292.218968 241.523023 
L 293.843866 245.496149 
L 295.793743 251.00181 
L 298.0686 258.192846 
L 301.968354 271.466982 
L 305.218149 282.283765 
L 307.493006 289.106992 
L 309.117903 293.387786 
L 310.742801 297.053298 
L 312.042719 299.481362 
L 313.342637 301.419062 
L 314.317576 302.53181 
L 315.292514 303.341439 
L 316.267453 303.840749 
L 317.242391 304.025297 
L 318.21733 303.893444 
L 319.192269 303.446362 
L 320.167207 302.688027 
L 321.142146 301.625183 
L 322.117084 300.267283 
L 323.417002 298.019014 
L 324.716921 295.303488 
L 326.341818 291.318025 
L 328.291695 285.800369 
L 330.566552 278.59974 
L 334.466306 265.321322 
L 337.716102 254.512994 
L 339.990958 247.701787 
L 341.615856 243.432311 
L 343.240753 239.780081 
L 344.540672 237.36384 
L 345.84059 235.438825 
L 346.815528 234.336036 
L 347.790467 233.53665 
L 348.765405 233.047776 
L 349.740344 232.873764 
L 350.715283 233.016159 
L 351.690221 233.473696 
L 352.66516 234.242305 
L 353.640098 235.315152 
L 354.615037 236.682693 
L 355.914955 238.943109 
L 357.214873 241.669795 
L 358.839771 245.667557 
L 360.789648 251.197153 
L 363.064505 258.407304 
L 367.289238 272.802225 
L 370.539034 283.510512 
L 372.488911 289.288757 
L 374.113808 293.546874 
L 375.738706 297.185785 
L 377.038624 299.59018 
L 378.338542 301.502491 
L 379.313481 302.59531 
L 380.288419 303.384445 
L 381.263358 303.862878 
L 382.238296 304.026353 
L 383.213235 303.873417 
L 384.188174 303.40543 
L 385.163112 302.626554 
L 386.138051 301.543716 
L 387.112989 300.166547 
L 388.412907 297.894007 
L 389.712826 295.156187 
L 391.337723 291.146166 
L 393.2876 285.604683 
L 395.562457 278.385082 
L 398.487273 268.449882 
L 398.487273 268.449882 
" clip-path="url(#p23362bb6ba)" style="fill: none; stroke: #0000ff; stroke-width: 1.5; stroke-linecap: square"/>
   </g>
   <g id="line2d_64">
    <path d="M 73.832727 268.449882 
L 74.807666 256.307166 
L 75.782604 246.764516 
L 76.757543 239.807213 
L 77.407502 236.55918 
L 78.057461 234.367798 
L 78.70742 233.169134 
L 79.0324 232.918484 
L 79.357379 232.886215 
L 79.682359 233.060931 
L 80.007338 233.43063 
L 80.657297 234.704289 
L 81.307256 236.60133 
L 82.282195 240.370498 
L 83.582113 246.51117 
L 86.181949 259.212166 
L 87.156888 263.07083 
L 88.131826 266.009368 
L 88.781785 267.361858 
L 89.431744 268.182903 
L 89.756724 268.38641 
L 90.081704 268.449706 
L 90.406683 268.372353 
L 90.731663 268.154886 
L 91.381622 267.306601 
L 92.031581 265.928409 
L 92.68154 264.058855 
L 93.656478 260.452536 
L 94.956396 254.52663 
L 98.206192 238.879308 
L 99.18113 235.48738 
L 99.831089 233.919706 
L 100.481048 233.034483 
L 100.806028 232.879935 
L 101.131007 232.933539 
L 101.455987 233.206629 
L 101.780966 233.70987 
L 102.430925 235.445802 
L 103.080885 238.211323 
L 103.730844 242.062586 
L 104.380803 247.040631 
L 105.355741 256.670201 
L 106.33068 268.895989 
L 107.305618 280.952736 
L 108.280557 290.408483 
L 109.255495 297.280875 
L 109.905455 300.474774 
L 110.555414 302.614887 
L 111.205373 303.765834 
L 111.530352 303.994152 
L 111.855332 304.005199 
L 112.180311 303.810435 
L 112.505291 303.42192 
L 113.15525 302.114521 
L 113.805209 300.189201 
L 114.780147 296.388339 
L 116.080066 290.225815 
L 118.679902 277.546653 
L 119.65484 273.714933 
L 120.629779 270.810675 
L 121.279738 269.483982 
L 121.929697 268.690234 
L 122.254676 268.500701 
L 122.579656 268.451466 
L 122.904636 268.54287 
L 123.229615 268.774282 
L 123.879574 269.649749 
L 124.529533 271.053546 
L 125.179492 272.946396 
L 126.154431 276.581826 
L 127.454349 282.532466 
L 130.704144 298.150275 
L 131.679083 301.505321 
L 132.329042 303.041406 
L 132.979001 303.889768 
L 133.30398 304.024029 
L 133.62896 303.948975 
L 133.953939 303.653338 
L 134.278919 303.126523 
L 134.928878 301.340665 
L 135.578837 298.522069 
L 136.228796 294.615311 
L 136.878755 289.580136 
L 137.853694 279.863633 
L 139.153612 263.283532 
L 140.12855 252.176951 
L 141.103489 243.675107 
L 141.753448 239.43333 
L 142.403407 236.293438 
L 143.053366 234.204433 
L 143.703325 233.101008 
L 144.028305 232.894915 
L 144.353284 232.904975 
L 144.678264 233.119666 
L 145.003243 233.526872 
L 145.653202 234.867744 
L 146.303161 236.821062 
L 147.2781 240.653184 
L 148.578018 246.836979 
L 151.177854 259.493299 
L 152.152793 263.297796 
L 153.127731 266.16757 
L 153.77769 267.468373 
L 154.427649 268.234767 
L 154.752629 268.410314 
L 155.077609 268.445485 
L 155.402588 268.340035 
L 156.052547 267.711164 
L 156.702506 266.541137 
L 157.352465 264.862568 
L 158.327404 261.498313 
L 159.627322 255.786127 
L 163.527076 237.392044 
L 164.177035 235.302956 
L 164.826994 233.798733 
L 165.476953 232.987486 
L 165.801933 232.873631 
L 166.126912 232.970247 
L 166.451892 233.288536 
L 166.776871 233.839024 
L 167.42683 235.674983 
L 168.07679 238.546791 
L 168.726749 242.509145 
L 169.376708 247.601511 
L 170.351646 257.404957 
L 171.651564 274.028255 
L 172.626503 285.048135 
L 173.601441 293.46353 
L 174.2514 297.649236 
L 174.90136 300.735248 
L 175.551319 302.773311 
L 176.201278 303.829408 
L 176.526257 304.013385 
L 176.851237 303.982333 
L 177.176216 303.747836 
L 177.826175 302.717727 
L 178.476134 301.026424 
L 179.451073 297.491269 
L 180.750991 291.519845 
L 183.675807 277.267046 
L 184.650745 273.490048 
L 185.625684 270.654964 
L 186.275643 269.380141 
L 186.925602 268.641153 
L 187.250581 268.479605 
L 187.575561 268.458502 
L 187.900541 268.577989 
L 188.5505 269.234459 
L 189.200459 270.430813 
L 189.850418 272.133687 
L 190.825356 275.52907 
L 192.125274 281.269488 
L 195.700049 298.406835 
L 196.674988 301.686833 
L 197.324947 303.158924 
L 197.974906 303.932803 
L 198.299885 304.026133 
L 198.624865 303.907843 
L 198.949844 303.566796 
L 199.274824 302.992537 
L 199.924783 301.106306 
L 200.574742 298.181148 
L 201.224701 294.163099 
L 201.87466 289.013485 
L 202.849599 279.123089 
L 205.449435 248.464485 
L 206.424373 240.995469 
L 207.074333 237.420099 
L 207.724292 234.917803 
L 208.374251 233.428842 
L 208.69923 233.041966 
L 209.02421 232.879994 
L 209.349189 232.931922 
L 209.674169 233.186104 
L 210.324128 234.251789 
L 210.974087 235.973314 
L 211.949025 239.543199 
L 213.248943 245.540548 
L 216.173759 259.77136 
L 217.148698 263.520584 
L 218.123636 266.320778 
L 218.773595 267.569531 
L 219.423554 268.281063 
L 219.748534 268.4286 
L 220.073514 268.435635 
L 220.398493 268.302117 
L 221.048452 267.618093 
L 221.698411 266.395497 
L 222.34837 264.668437 
L 223.323309 261.24217 
L 224.623227 255.473949 
L 228.198002 238.366217 
L 229.17294 235.124385 
L 229.822899 233.684695 
L 230.472858 232.948437 
L 230.797838 232.875749 
L 231.122817 233.015824 
L 231.447797 233.379734 
L 231.772776 233.977861 
L 232.422735 235.914534 
L 233.072695 238.893178 
L 233.722654 242.967018 
L 234.372613 248.173937 
L 235.347551 258.151287 
L 237.947387 288.725828 
L 238.922326 296.109307 
L 239.572285 299.629828 
L 240.222244 302.07992 
L 240.872203 303.520031 
L 241.197183 303.883941 
L 241.522162 304.024016 
L 241.847142 303.951328 
L 242.172121 303.677585 
L 242.82208 302.576582 
L 243.472039 300.825112 
L 244.446978 297.22093 
L 245.746896 291.198238 
L 248.671712 276.990552 
L 249.64665 273.269374 
L 250.621589 270.504268 
L 251.271548 269.281672 
L 251.921507 268.597647 
L 252.246486 268.46413 
L 252.571466 268.471164 
L 252.896446 268.618702 
L 253.546405 269.330233 
L 254.196364 270.578986 
L 254.846323 272.33011 
L 255.821261 275.787015 
L 257.121179 281.582609 
L 260.695954 298.659197 
L 261.670893 301.862436 
L 262.320852 303.269455 
L 262.645831 303.713661 
L 262.970811 303.967842 
L 263.29579 304.01977 
L 263.62077 303.857799 
L 263.945749 303.470923 
L 264.270729 302.848832 
L 264.920688 300.861547 
L 265.570647 297.829285 
L 266.220606 293.699558 
L 266.870565 288.43528 
L 267.845504 278.370976 
L 270.44534 247.88628 
L 271.420278 240.588241 
L 272.070238 237.122454 
L 272.720197 234.724414 
L 273.370156 233.332969 
L 273.695135 232.991921 
L 274.020115 232.873632 
L 274.345094 232.966962 
L 274.670074 233.260144 
L 275.320033 234.396203 
L 275.969992 236.177343 
L 276.94493 239.815389 
L 278.244848 245.86284 
L 281.169664 260.046267 
L 282.144603 263.739129 
L 283.119541 266.468952 
L 283.7695 267.665305 
L 284.419459 268.321775 
L 284.744439 268.441263 
L 285.069419 268.42016 
L 285.394398 268.258612 
L 286.044357 267.519624 
L 286.694316 266.244801 
L 287.344275 264.469737 
L 288.319214 260.982443 
L 289.619132 255.159909 
L 293.193907 238.115998 
L 294.168845 234.951777 
L 294.818804 233.577698 
L 295.143784 233.151928 
L 295.468763 232.917431 
L 295.793743 232.886379 
L 296.118722 233.070357 
L 296.443702 233.480302 
L 297.093661 235.018298 
L 297.74362 237.572946 
L 298.393579 241.203277 
L 299.043538 245.953446 
L 300.018477 255.23545 
L 300.993415 267.120022 
L 301.968354 279.494808 
L 302.943292 289.298254 
L 303.918231 296.510951 
L 304.56819 299.92212 
L 305.218149 302.268262 
L 305.868108 303.611228 
L 306.193088 303.929518 
L 306.518067 304.026133 
L 306.843047 303.912279 
L 307.168026 303.599781 
L 307.817985 302.428928 
L 308.467944 300.618395 
L 309.442883 296.946918 
L 310.742801 290.875289 
L 313.667617 276.717253 
L 314.642555 273.052974 
L 315.617494 270.358628 
L 316.267453 269.1886 
L 316.917412 268.55973 
L 317.242391 268.45428 
L 317.567371 268.48945 
L 317.892351 268.664997 
L 318.54231 269.431392 
L 319.192269 270.732195 
L 319.842228 272.531074 
L 320.817166 276.048507 
L 322.117084 281.897543 
L 325.36688 297.625024 
L 326.341818 301.125018 
L 326.991777 302.785825 
L 327.641736 303.780098 
L 327.966716 303.99479 
L 328.291695 304.00485 
L 328.616675 303.798757 
L 328.941654 303.365639 
L 329.591613 301.778428 
L 330.241572 299.171279 
L 330.891532 295.485876 
L 331.541491 290.678839 
L 332.516429 281.309975 
L 333.491368 269.339278 
L 334.466306 257.036131 
L 335.441245 247.319629 
L 336.416183 240.192169 
L 337.066143 236.8355 
L 337.716102 234.541102 
L 338.366061 233.246427 
L 338.69104 232.95079 
L 339.01602 232.875736 
L 339.340999 233.009997 
L 339.665979 233.341686 
L 340.315938 234.547072 
L 340.965897 236.38672 
L 341.940835 240.091194 
L 343.240753 246.186419 
L 346.165569 260.317938 
L 347.140508 263.953369 
L 348.115446 266.612047 
L 348.765405 267.755668 
L 349.415364 268.356894 
L 349.740344 268.448299 
L 350.065324 268.399064 
L 350.390303 268.20953 
L 351.040262 267.415783 
L 351.690221 266.08909 
L 352.34018 264.266524 
L 353.315119 260.719205 
L 354.615037 254.844104 
L 357.864832 239.141948 
L 358.839771 235.677546 
L 359.48973 234.04751 
L 360.139689 233.08933 
L 360.464668 232.894566 
L 360.789648 232.905613 
L 361.114627 233.13393 
L 361.439607 233.590321 
L 362.089566 235.226928 
L 362.739525 237.886724 
L 363.389484 241.627308 
L 364.039443 246.491282 
L 365.014382 255.947029 
L 365.98932 268.003775 
L 366.964259 280.229564 
L 367.939197 289.859134 
L 368.914136 296.901461 
L 369.564095 300.203751 
L 370.214054 302.446561 
L 370.864013 303.693136 
L 371.188993 303.966226 
L 371.513972 304.01983 
L 371.838952 303.865282 
L 372.163931 303.514526 
L 372.81389 302.274871 
L 373.463849 300.406387 
L 374.438788 296.669348 
L 375.738706 290.551109 
L 378.338542 277.829291 
L 379.313481 273.943964 
L 380.288419 270.971356 
L 380.938378 269.593164 
L 381.588337 268.744879 
L 381.913317 268.527411 
L 382.238296 268.450058 
L 382.563276 268.513355 
L 382.888256 268.716862 
L 383.538215 269.537907 
L 384.188174 270.890397 
L 384.838133 272.736522 
L 385.813071 276.31347 
L 387.112989 282.214195 
L 390.362785 297.889632 
L 391.337723 301.318012 
L 391.987682 302.917004 
L 392.637641 303.838834 
L 392.962621 304.01355 
L 393.2876 303.981281 
L 393.61258 303.730631 
L 393.937559 303.250865 
L 394.587518 301.564684 
L 395.237477 298.852097 
L 395.887437 295.056226 
L 396.537396 290.135249 
L 397.512334 280.592599 
L 398.487273 268.449882 
L 398.487273 268.449882 
" clip-path="url(#p23362bb6ba)" style="fill: none; stroke: #ffa500; stroke-width: 1.5; stroke-linecap: square"/>
   </g>
   <g id="patch_15">
    <path d="M 57.6 307.584 
L 57.6 229.315765 
" style="fill: none; stroke: #000000; stroke-width: 0.8; stroke-linejoin: miter; stroke-linecap: square"/>
   </g>
   <g id="patch_16">
    <path d="M 414.72 307.584 
L 414.72 229.315765 
" style="fill: none; stroke: #000000; stroke-width: 0.8; stroke-linejoin: miter; stroke-linecap: square"/>
   </g>
   <g id="patch_17">
    <path d="M 57.6 307.584 
L 414.72 307.584 
" style="fill: none; stroke: #000000; stroke-width: 0.8; stroke-linejoin: miter; stroke-linecap: square"/>
   </g>
   <g id="patch_18">
    <path d="M 57.6 229.315765 
L 414.72 229.315765 
" style="fill: none; stroke: #000000; stroke-width: 0.8; stroke-linejoin: miter; stroke-linecap: square"/>
   </g>
   <g id="legend_3">
    <g id="patch_19">
     <path d="M 333.18875 266.672015 
L 407.72 266.672015 
Q 409.72 266.672015 409.72 264.672015 
L 409.72 236.315765 
Q 409.72 234.315765 407.72 234.315765 
L 333.18875 234.315765 
Q 331.18875 234.315765 331.18875 236.315765 
L 331.18875 264.672015 
Q 331.18875 266.672015 333.18875 266.672015 
z
" style="fill: #ffffff; opacity: 0.8; stroke: #cccccc; stroke-linejoin: miter"/>
    </g>
    <g id="line2d_65">
     <path d="M 335.18875 242.414202 
L 345.18875 242.414202 
L 355.18875 242.414202 
" style="fill: none; stroke: #0000ff; stroke-width: 1.5; stroke-linecap: square"/>
    </g>
    <g id="text_36">
     <!-- clean -->
     <g transform="translate(363.18875 245.914202)scale(0.1 -0.1)">
      <use xlink:href="#DejaVuSans-63"/>
      <use xlink:href="#DejaVuSans-6c" x="54.980469"/>
      <use xlink:href="#DejaVuSans-65" x="82.763672"/>
      <use xlink:href="#DejaVuSans-61" x="144.287109"/>
      <use xlink:href="#DejaVuSans-6e" x="205.566406"/>
     </g>
    </g>
    <g id="line2d_66">
     <path d="M 335.18875 257.092327 
L 345.18875 257.092327 
L 355.18875 257.092327 
" style="fill: none; stroke: #ffa500; stroke-width: 1.5; stroke-linecap: square"/>
    </g>
    <g id="text_37">
     <!-- foldback -->
     <g transform="translate(363.18875 260.592327)scale(0.1 -0.1)">
      <defs>
       <path id="DejaVuSans-6f" d="M 1959 3097 
Q 1497 3097 1228 2736 
Q 959 2375 959 1747 
Q 959 1119 1226 758 
Q 1494 397 1959 397 
Q 2419 397 2687 759 
Q 2956 1122 2956 1747 
Q 2956 2369 2687 2733 
Q 2419 3097 1959 3097 
z
M 1959 3584 
Q 2709 3584 3137 3096 
Q 3566 2609 3566 1747 
Q 3566 888 3137 398 
Q 2709 -91 1959 -91 
Q 1206 -91 779 398 
Q 353 888 353 1747 
Q 353 2609 779 3096 
Q 1206 3584 1959 3584 
z
" transform="scale(0.015625)"/>
       <path id="DejaVuSans-62" d="M 3116 1747 
Q 3116 2381 2855 2742 
Q 2594 3103 2138 3103 
Q 1681 3103 1420 2742 
Q 1159 2381 1159 1747 
Q 1159 1113 1420 752 
Q 1681 391 2138 391 
Q 2594 391 2855 752 
Q 3116 1113 3116 1747 
z
M 1159 2969 
Q 1341 3281 1617 3432 
Q 1894 3584 2278 3584 
Q 2916 3584 3314 3078 
Q 3713 2572 3713 1747 
Q 3713 922 3314 415 
Q 2916 -91 2278 -91 
Q 1894 -91 1617 61 
Q 1341 213 1159 525 
L 1159 0 
L 581 0 
L 581 4863 
L 1159 4863 
L 1159 2969 
z
" transform="scale(0.015625)"/>
       <path id="DejaVuSans-6b" d="M 581 4863 
L 1159 4863 
L 1159 1991 
L 2875 3500 
L 3609 3500 
L 1753 1863 
L 3688 0 
L 2938 0 
L 1159 1709 
L 1159 0 
L 581 0 
L 581 4863 
z
" transform="scale(0.015625)"/>
      </defs>
      <use xlink:href="#DejaVuSans-66"/>
      <use xlink:href="#DejaVuSans-6f" x="35.205078"/>
      <use xlink:href="#DejaVuSans-6c" x="96.386719"/>
      <use xlink:href="#DejaVuSans-64" x="124.169922"/>
      <use xlink:href="#DejaVuSans-62" x="187.646484"/>
      <use xlink:href="#DejaVuSans-61" x="251.123047"/>
      <use xlink:href="#DejaVuSans-63" x="312.402344"/>
      <use xlink:href="#DejaVuSans-6b" x="367.382812"/>
     </g>
    </g>
   </g>
  </g>
  <g id="text_38">
   <!-- Crazy Distortion -->
   <g transform="translate(182.064375 16.030125)scale(0.12 -0.12)">
    <defs>
     <path id="DejaVuSans-43" d="M 4122 4306 
L 4122 3641 
Q 3803 3938 3442 4084 
Q 3081 4231 2675 4231 
Q 1875 4231 1450 3742 
Q 1025 3253 1025 2328 
Q 1025 1406 1450 917 
Q 1875 428 2675 428 
Q 3081 428 3442 575 
Q 3803 722 4122 1019 
L 4122 359 
Q 3791 134 3420 21 
Q 3050 -91 2638 -91 
Q 1578 -91 968 557 
Q 359 1206 359 2328 
Q 359 3453 968 4101 
Q 1578 4750 2638 4750 
Q 3056 4750 3426 4639 
Q 3797 4528 4122 4306 
z
" transform="scale(0.015625)"/>
     <path id="DejaVuSans-72" d="M 2631 2963 
Q 2534 3019 2420 3045 
Q 2306 3072 2169 3072 
Q 1681 3072 1420 2755 
Q 1159 2438 1159 1844 
L 1159 0 
L 581 0 
L 581 3500 
L 1159 3500 
L 1159 2956 
Q 1341 3275 1631 3429 
Q 1922 3584 2338 3584 
Q 2397 3584 2469 3576 
Q 2541 3569 2628 3553 
L 2631 2963 
z
" transform="scale(0.015625)"/>
     <path id="DejaVuSans-7a" d="M 353 3500 
L 3084 3500 
L 3084 2975 
L 922 459 
L 3084 459 
L 3084 0 
L 275 0 
L 275 525 
L 2438 3041 
L 353 3041 
L 353 3500 
z
" transform="scale(0.015625)"/>
     <path id="DejaVuSans-79" d="M 2059 -325 
Q 1816 -950 1584 -1140 
Q 1353 -1331 966 -1331 
L 506 -1331 
L 506 -850 
L 844 -850 
Q 1081 -850 1212 -737 
Q 1344 -625 1503 -206 
L 1606 56 
L 191 3500 
L 800 3500 
L 1894 763 
L 2988 3500 
L 3597 3500 
L 2059 -325 
z
" transform="scale(0.015625)"/>
     <path id="DejaVuSans-44" d="M 1259 4147 
L 1259 519 
L 2022 519 
Q 2988 519 3436 956 
Q 3884 1394 3884 2338 
Q 3884 3275 3436 3711 
Q 2988 4147 2022 4147 
L 1259 4147 
z
M 628 4666 
L 1925 4666 
Q 3281 4666 3915 4102 
Q 4550 3538 4550 2338 
Q 4550 1131 3912 565 
Q 3275 0 1925 0 
L 628 0 
L 628 4666 
z
" transform="scale(0.015625)"/>
    </defs>
    <use xlink:href="#DejaVuSans-43"/>
    <use xlink:href="#DejaVuSans-72" x="69.824219"/>
    <use xlink:href="#DejaVuSans-61" x="110.9375"/>
    <use xlink:href="#DejaVuSans-7a" x="172.216797"/>
    <use xlink:href="#DejaVuSans-79" x="224.707031"/>
    <use xlink:href="#DejaVuSans-20" x="283.886719"/>
    <use xlink:href="#DejaVuSans-44" x="315.673828"/>
    <use xlink:href="#DejaVuSans-69" x="392.675781"/>
    <use xlink:href="#DejaVuSans-73" x="420.458984"/>
    <use xlink:href="#DejaVuSans-74" x="472.558594"/>
    <use xlink:href="#DejaVuSans-6f" x="511.767578"/>
    <use xlink:href="#DejaVuSans-72" x="572.949219"/>
    <use xlink:href="#DejaVuSans-74" x="614.0625"/>
    <use xlink:href="#DejaVuSans-69" x="653.271484"/>
    <use xlink:href="#DejaVuSans-6f" x="681.054688"/>
    <use xlink:href="#DejaVuSans-6e" x="742.236328"/>
   </g>
  </g>
 </g>
 <defs>
  <clipPath id="p854e110dcc">
   <rect x="57.6" y="41.472" width="357.12" height="78.268235"/>
  </clipPath>
  <clipPath id="p7936a09de4">
   <rect x="57.6" y="135.393882" width="357.12" height="78.268235"/>
  </clipPath>
  <clipPath id="p23362bb6ba">
   <rect x="57.6" y="229.315765" width="357.12" height="78.268235"/>
  </clipPath>
 </defs>
</svg>
