<?xml version="1.0" encoding="utf-8" standalone="no"?>
<!DOCTYPE svg PUBLIC "-//W3C//DTD SVG 1.1//EN"
  "http://www.w3.org/Graphics/SVG/1.1/DTD/svg11.dtd">
<svg xmlns:xlink="http://www.w3.org/1999/xlink" width="460.8pt" height="345.6pt" viewBox="0 0 460.8 345.6" xmlns="http://www.w3.org/2000/svg" version="1.1">
 <metadata>
  <rdf:RDF xmlns:dc="http://purl.org/dc/elements/1.1/" xmlns:cc="http://creativecommons.org/ns#" xmlns:rdf="http://www.w3.org/1999/02/22-rdf-syntax-ns#">
   <cc:Work>
    <dc:type rdf:resource="http://purl.org/dc/dcmitype/StillImage"/>
    <dc:date>2023-12-03T15:51:09.384777</dc:date>
    <dc:format>image/svg+xml</dc:format>
    <dc:creator>
     <cc:Agent>
      <dc:title>Matplotlib v3.5.1, https://matplotlib.org/</dc:title>
     </cc:Agent>
    </dc:creator>
   </cc:Work>
  </rdf:RDF>
 </metadata>
 <defs>
  <style type="text/css">*{stroke-linejoin: round; stroke-linecap: butt}</style>
 </defs>
 <g id="figure_1">
  <g id="patch_1">
   <path d="M 0 345.6 
L 460.8 345.6 
L 460.8 0 
L 0 0 
z
" style="fill: #ffffff"/>
  </g>
  <g id="axes_1">
   <g id="patch_2">
    <path d="M 57.6 307.584 
L 414.72 307.584 
L 414.72 41.472 
L 57.6 41.472 
z
" style="fill: #ffffff"/>
   </g>
   <g id="matplotlib.axis_1">
    <g id="xtick_1">
     <g id="line2d_1">
      <path d="M 73.832727 307.584 
L 73.832727 41.472 
" clip-path="url(#p4fa84598de)" style="fill: none; stroke: #b0b0b0; stroke-width: 0.8; stroke-linecap: square"/>
     </g>
     <g id="line2d_2">
      <defs>
       <path id="m0558f96b73" d="M 0 0 
L 0 3.5 
" style="stroke: #000000; stroke-width: 0.8"/>
      </defs>
      <g>
       <use xlink:href="#m0558f96b73" x="73.832727" y="307.584" style="stroke: #000000; stroke-width: 0.8"/>
      </g>
     </g>
     <g id="text_1">
      <!-- 0 -->
      <g transform="translate(70.651477 322.182437)scale(0.1 -0.1)">
       <defs>
        <path id="DejaVuSans-30" d="M 2034 4250 
Q 1547 4250 1301 3770 
Q 1056 3291 1056 2328 
Q 1056 1369 1301 889 
Q 1547 409 2034 409 
Q 2525 409 2770 889 
Q 3016 1369 3016 2328 
Q 3016 3291 2770 3770 
Q 2525 4250 2034 4250 
z
M 2034 4750 
Q 2819 4750 3233 4129 
Q 3647 3509 3647 2328 
Q 3647 1150 3233 529 
Q 2819 -91 2034 -91 
Q 1250 -91 836 529 
Q 422 1150 422 2328 
Q 422 3509 836 4129 
Q 1250 4750 2034 4750 
z
" transform="scale(0.015625)"/>
       </defs>
       <use xlink:href="#DejaVuSans-30"/>
      </g>
     </g>
    </g>
    <g id="xtick_2">
     <g id="line2d_3">
      <path d="M 138.828632 307.584 
L 138.828632 41.472 
" clip-path="url(#p4fa84598de)" style="fill: none; stroke: #b0b0b0; stroke-width: 0.8; stroke-linecap: square"/>
     </g>
     <g id="line2d_4">
      <g>
       <use xlink:href="#m0558f96b73" x="138.828632" y="307.584" style="stroke: #000000; stroke-width: 0.8"/>
      </g>
     </g>
     <g id="text_2">
      <!-- 200 -->
      <g transform="translate(129.284882 322.182437)scale(0.1 -0.1)">
       <defs>
        <path id="DejaVuSans-32" d="M 1228 531 
L 3431 531 
L 3431 0 
L 469 0 
L 469 531 
Q 828 903 1448 1529 
Q 2069 2156 2228 2338 
Q 2531 2678 2651 2914 
Q 2772 3150 2772 3378 
Q 2772 3750 2511 3984 
Q 2250 4219 1831 4219 
Q 1534 4219 1204 4116 
Q 875 4013 500 3803 
L 500 4441 
Q 881 4594 1212 4672 
Q 1544 4750 1819 4750 
Q 2544 4750 2975 4387 
Q 3406 4025 3406 3419 
Q 3406 3131 3298 2873 
Q 3191 2616 2906 2266 
Q 2828 2175 2409 1742 
Q 1991 1309 1228 531 
z
" transform="scale(0.015625)"/>
       </defs>
       <use xlink:href="#DejaVuSans-32"/>
       <use xlink:href="#DejaVuSans-30" x="63.623047"/>
       <use xlink:href="#DejaVuSans-30" x="127.246094"/>
      </g>
     </g>
    </g>
    <g id="xtick_3">
     <g id="line2d_5">
      <path d="M 203.824537 307.584 
L 203.824537 41.472 
" clip-path="url(#p4fa84598de)" style="fill: none; stroke: #b0b0b0; stroke-width: 0.8; stroke-linecap: square"/>
     </g>
     <g id="line2d_6">
      <g>
       <use xlink:href="#m0558f96b73" x="203.824537" y="307.584" style="stroke: #000000; stroke-width: 0.8"/>
      </g>
     </g>
     <g id="text_3">
      <!-- 400 -->
      <g transform="translate(194.280787 322.182437)scale(0.1 -0.1)">
       <defs>
        <path id="DejaVuSans-34" d="M 2419 4116 
L 825 1625 
L 2419 1625 
L 2419 4116 
z
M 2253 4666 
L 3047 4666 
L 3047 1625 
L 3713 1625 
L 3713 1100 
L 3047 1100 
L 3047 0 
L 2419 0 
L 2419 1100 
L 313 1100 
L 313 1709 
L 2253 4666 
z
" transform="scale(0.015625)"/>
       </defs>
       <use xlink:href="#DejaVuSans-34"/>
       <use xlink:href="#DejaVuSans-30" x="63.623047"/>
       <use xlink:href="#DejaVuSans-30" x="127.246094"/>
      </g>
     </g>
    </g>
    <g id="xtick_4">
     <g id="line2d_7">
      <path d="M 268.820442 307.584 
L 268.820442 41.472 
" clip-path="url(#p4fa84598de)" style="fill: none; stroke: #b0b0b0; stroke-width: 0.8; stroke-linecap: square"/>
     </g>
     <g id="line2d_8">
      <g>
       <use xlink:href="#m0558f96b73" x="268.820442" y="307.584" style="stroke: #000000; stroke-width: 0.8"/>
      </g>
     </g>
     <g id="text_4">
      <!-- 600 -->
      <g transform="translate(259.276692 322.182437)scale(0.1 -0.1)">
       <defs>
        <path id="DejaVuSans-36" d="M 2113 2584 
Q 1688 2584 1439 2293 
Q 1191 2003 1191 1497 
Q 1191 994 1439 701 
Q 1688 409 2113 409 
Q 2538 409 2786 701 
Q 3034 994 3034 1497 
Q 3034 2003 2786 2293 
Q 2538 2584 2113 2584 
z
M 3366 4563 
L 3366 3988 
Q 3128 4100 2886 4159 
Q 2644 4219 2406 4219 
Q 1781 4219 1451 3797 
Q 1122 3375 1075 2522 
Q 1259 2794 1537 2939 
Q 1816 3084 2150 3084 
Q 2853 3084 3261 2657 
Q 3669 2231 3669 1497 
Q 3669 778 3244 343 
Q 2819 -91 2113 -91 
Q 1303 -91 875 529 
Q 447 1150 447 2328 
Q 447 3434 972 4092 
Q 1497 4750 2381 4750 
Q 2619 4750 2861 4703 
Q 3103 4656 3366 4563 
z
" transform="scale(0.015625)"/>
       </defs>
       <use xlink:href="#DejaVuSans-36"/>
       <use xlink:href="#DejaVuSans-30" x="63.623047"/>
       <use xlink:href="#DejaVuSans-30" x="127.246094"/>
      </g>
     </g>
    </g>
    <g id="xtick_5">
     <g id="line2d_9">
      <path d="M 333.816347 307.584 
L 333.816347 41.472 
" clip-path="url(#p4fa84598de)" style="fill: none; stroke: #b0b0b0; stroke-width: 0.8; stroke-linecap: square"/>
     </g>
     <g id="line2d_10">
      <g>
       <use xlink:href="#m0558f96b73" x="333.816347" y="307.584" style="stroke: #000000; stroke-width: 0.8"/>
      </g>
     </g>
     <g id="text_5">
      <!-- 800 -->
      <g transform="translate(324.272597 322.182437)scale(0.1 -0.1)">
       <defs>
        <path id="DejaVuSans-38" d="M 2034 2216 
Q 1584 2216 1326 1975 
Q 1069 1734 1069 1313 
Q 1069 891 1326 650 
Q 1584 409 2034 409 
Q 2484 409 2743 651 
Q 3003 894 3003 1313 
Q 3003 1734 2745 1975 
Q 2488 2216 2034 2216 
z
M 1403 2484 
Q 997 2584 770 2862 
Q 544 3141 544 3541 
Q 544 4100 942 4425 
Q 1341 4750 2034 4750 
Q 2731 4750 3128 4425 
Q 3525 4100 3525 3541 
Q 3525 3141 3298 2862 
Q 3072 2584 2669 2484 
Q 3125 2378 3379 2068 
Q 3634 1759 3634 1313 
Q 3634 634 3220 271 
Q 2806 -91 2034 -91 
Q 1263 -91 848 271 
Q 434 634 434 1313 
Q 434 1759 690 2068 
Q 947 2378 1403 2484 
z
M 1172 3481 
Q 1172 3119 1398 2916 
Q 1625 2713 2034 2713 
Q 2441 2713 2670 2916 
Q 2900 3119 2900 3481 
Q 2900 3844 2670 4047 
Q 2441 4250 2034 4250 
Q 1625 4250 1398 4047 
Q 1172 3844 1172 3481 
z
" transform="scale(0.015625)"/>
       </defs>
       <use xlink:href="#DejaVuSans-38"/>
       <use xlink:href="#DejaVuSans-30" x="63.623047"/>
       <use xlink:href="#DejaVuSans-30" x="127.246094"/>
      </g>
     </g>
    </g>
    <g id="xtick_6">
     <g id="line2d_11">
      <path d="M 398.812252 307.584 
L 398.812252 41.472 
" clip-path="url(#p4fa84598de)" style="fill: none; stroke: #b0b0b0; stroke-width: 0.8; stroke-linecap: square"/>
     </g>
     <g id="line2d_12">
      <g>
       <use xlink:href="#m0558f96b73" x="398.812252" y="307.584" style="stroke: #000000; stroke-width: 0.8"/>
      </g>
     </g>
     <g id="text_6">
      <!-- 1000 -->
      <g transform="translate(386.087252 322.182437)scale(0.1 -0.1)">
       <defs>
        <path id="DejaVuSans-31" d="M 794 531 
L 1825 531 
L 1825 4091 
L 703 3866 
L 703 4441 
L 1819 4666 
L 2450 4666 
L 2450 531 
L 3481 531 
L 3481 0 
L 794 0 
L 794 531 
z
" transform="scale(0.015625)"/>
       </defs>
       <use xlink:href="#DejaVuSans-31"/>
       <use xlink:href="#DejaVuSans-30" x="63.623047"/>
       <use xlink:href="#DejaVuSans-30" x="127.246094"/>
       <use xlink:href="#DejaVuSans-30" x="190.869141"/>
      </g>
     </g>
    </g>
    <g id="text_7">
     <!-- Time (samples) -->
     <g transform="translate(197.652187 335.860562)scale(0.1 -0.1)">
      <defs>
       <path id="DejaVuSans-54" d="M -19 4666 
L 3928 4666 
L 3928 4134 
L 2272 4134 
L 2272 0 
L 1638 0 
L 1638 4134 
L -19 4134 
L -19 4666 
z
" transform="scale(0.015625)"/>
       <path id="DejaVuSans-69" d="M 603 3500 
L 1178 3500 
L 1178 0 
L 603 0 
L 603 3500 
z
M 603 4863 
L 1178 4863 
L 1178 4134 
L 603 4134 
L 603 4863 
z
" transform="scale(0.015625)"/>
       <path id="DejaVuSans-6d" d="M 3328 2828 
Q 3544 3216 3844 3400 
Q 4144 3584 4550 3584 
Q 5097 3584 5394 3201 
Q 5691 2819 5691 2113 
L 5691 0 
L 5113 0 
L 5113 2094 
Q 5113 2597 4934 2840 
Q 4756 3084 4391 3084 
Q 3944 3084 3684 2787 
Q 3425 2491 3425 1978 
L 3425 0 
L 2847 0 
L 2847 2094 
Q 2847 2600 2669 2842 
Q 2491 3084 2119 3084 
Q 1678 3084 1418 2786 
Q 1159 2488 1159 1978 
L 1159 0 
L 581 0 
L 581 3500 
L 1159 3500 
L 1159 2956 
Q 1356 3278 1631 3431 
Q 1906 3584 2284 3584 
Q 2666 3584 2933 3390 
Q 3200 3197 3328 2828 
z
" transform="scale(0.015625)"/>
       <path id="DejaVuSans-65" d="M 3597 1894 
L 3597 1613 
L 953 1613 
Q 991 1019 1311 708 
Q 1631 397 2203 397 
Q 2534 397 2845 478 
Q 3156 559 3463 722 
L 3463 178 
Q 3153 47 2828 -22 
Q 2503 -91 2169 -91 
Q 1331 -91 842 396 
Q 353 884 353 1716 
Q 353 2575 817 3079 
Q 1281 3584 2069 3584 
Q 2775 3584 3186 3129 
Q 3597 2675 3597 1894 
z
M 3022 2063 
Q 3016 2534 2758 2815 
Q 2500 3097 2075 3097 
Q 1594 3097 1305 2825 
Q 1016 2553 972 2059 
L 3022 2063 
z
" transform="scale(0.015625)"/>
       <path id="DejaVuSans-20" transform="scale(0.015625)"/>
       <path id="DejaVuSans-28" d="M 1984 4856 
Q 1566 4138 1362 3434 
Q 1159 2731 1159 2009 
Q 1159 1288 1364 580 
Q 1569 -128 1984 -844 
L 1484 -844 
Q 1016 -109 783 600 
Q 550 1309 550 2009 
Q 550 2706 781 3412 
Q 1013 4119 1484 4856 
L 1984 4856 
z
" transform="scale(0.015625)"/>
       <path id="DejaVuSans-73" d="M 2834 3397 
L 2834 2853 
Q 2591 2978 2328 3040 
Q 2066 3103 1784 3103 
Q 1356 3103 1142 2972 
Q 928 2841 928 2578 
Q 928 2378 1081 2264 
Q 1234 2150 1697 2047 
L 1894 2003 
Q 2506 1872 2764 1633 
Q 3022 1394 3022 966 
Q 3022 478 2636 193 
Q 2250 -91 1575 -91 
Q 1294 -91 989 -36 
Q 684 19 347 128 
L 347 722 
Q 666 556 975 473 
Q 1284 391 1588 391 
Q 1994 391 2212 530 
Q 2431 669 2431 922 
Q 2431 1156 2273 1281 
Q 2116 1406 1581 1522 
L 1381 1569 
Q 847 1681 609 1914 
Q 372 2147 372 2553 
Q 372 3047 722 3315 
Q 1072 3584 1716 3584 
Q 2034 3584 2315 3537 
Q 2597 3491 2834 3397 
z
" transform="scale(0.015625)"/>
       <path id="DejaVuSans-61" d="M 2194 1759 
Q 1497 1759 1228 1600 
Q 959 1441 959 1056 
Q 959 750 1161 570 
Q 1363 391 1709 391 
Q 2188 391 2477 730 
Q 2766 1069 2766 1631 
L 2766 1759 
L 2194 1759 
z
M 3341 1997 
L 3341 0 
L 2766 0 
L 2766 531 
Q 2569 213 2275 61 
Q 1981 -91 1556 -91 
Q 1019 -91 701 211 
Q 384 513 384 1019 
Q 384 1609 779 1909 
Q 1175 2209 1959 2209 
L 2766 2209 
L 2766 2266 
Q 2766 2663 2505 2880 
Q 2244 3097 1772 3097 
Q 1472 3097 1187 3025 
Q 903 2953 641 2809 
L 641 3341 
Q 956 3463 1253 3523 
Q 1550 3584 1831 3584 
Q 2591 3584 2966 3190 
Q 3341 2797 3341 1997 
z
" transform="scale(0.015625)"/>
       <path id="DejaVuSans-70" d="M 1159 525 
L 1159 -1331 
L 581 -1331 
L 581 3500 
L 1159 3500 
L 1159 2969 
Q 1341 3281 1617 3432 
Q 1894 3584 2278 3584 
Q 2916 3584 3314 3078 
Q 3713 2572 3713 1747 
Q 3713 922 3314 415 
Q 2916 -91 2278 -91 
Q 1894 -91 1617 61 
Q 1341 213 1159 525 
z
M 3116 1747 
Q 3116 2381 2855 2742 
Q 2594 3103 2138 3103 
Q 1681 3103 1420 2742 
Q 1159 2381 1159 1747 
Q 1159 1113 1420 752 
Q 1681 391 2138 391 
Q 2594 391 2855 752 
Q 3116 1113 3116 1747 
z
" transform="scale(0.015625)"/>
       <path id="DejaVuSans-6c" d="M 603 4863 
L 1178 4863 
L 1178 0 
L 603 0 
L 603 4863 
z
" transform="scale(0.015625)"/>
       <path id="DejaVuSans-29" d="M 513 4856 
L 1013 4856 
Q 1481 4119 1714 3412 
Q 1947 2706 1947 2009 
Q 1947 1309 1714 600 
Q 1481 -109 1013 -844 
L 513 -844 
Q 928 -128 1133 580 
Q 1338 1288 1338 2009 
Q 1338 2731 1133 3434 
Q 928 4138 513 4856 
z
" transform="scale(0.015625)"/>
      </defs>
      <use xlink:href="#DejaVuSans-54"/>
      <use xlink:href="#DejaVuSans-69" x="57.958984"/>
      <use xlink:href="#DejaVuSans-6d" x="85.742188"/>
      <use xlink:href="#DejaVuSans-65" x="183.154297"/>
      <use xlink:href="#DejaVuSans-20" x="244.677734"/>
      <use xlink:href="#DejaVuSans-28" x="276.464844"/>
      <use xlink:href="#DejaVuSans-73" x="315.478516"/>
      <use xlink:href="#DejaVuSans-61" x="367.578125"/>
      <use xlink:href="#DejaVuSans-6d" x="428.857422"/>
      <use xlink:href="#DejaVuSans-70" x="526.269531"/>
      <use xlink:href="#DejaVuSans-6c" x="589.746094"/>
      <use xlink:href="#DejaVuSans-65" x="617.529297"/>
      <use xlink:href="#DejaVuSans-73" x="679.052734"/>
      <use xlink:href="#DejaVuSans-29" x="731.152344"/>
     </g>
    </g>
   </g>
   <g id="matplotlib.axis_2">
    <g id="ytick_1">
     <g id="line2d_13">
      <path d="M 57.6 295.488 
L 414.72 295.488 
" clip-path="url(#p4fa84598de)" style="fill: none; stroke: #b0b0b0; stroke-width: 0.8; stroke-linecap: square"/>
     </g>
     <g id="line2d_14">
      <defs>
       <path id="m4a1739c1e1" d="M 0 0 
L -3.5 0 
" style="stroke: #000000; stroke-width: 0.8"/>
      </defs>
      <g>
       <use xlink:href="#m4a1739c1e1" x="57.6" y="295.488" style="stroke: #000000; stroke-width: 0.8"/>
      </g>
     </g>
     <g id="text_8">
      <!-- −1.00 -->
      <g transform="translate(19.954687 299.287219)scale(0.1 -0.1)">
       <defs>
        <path id="DejaVuSans-2212" d="M 678 2272 
L 4684 2272 
L 4684 1741 
L 678 1741 
L 678 2272 
z
" transform="scale(0.015625)"/>
        <path id="DejaVuSans-2e" d="M 684 794 
L 1344 794 
L 1344 0 
L 684 0 
L 684 794 
z
" transform="scale(0.015625)"/>
       </defs>
       <use xlink:href="#DejaVuSans-2212"/>
       <use xlink:href="#DejaVuSans-31" x="83.789062"/>
       <use xlink:href="#DejaVuSans-2e" x="147.412109"/>
       <use xlink:href="#DejaVuSans-30" x="179.199219"/>
       <use xlink:href="#DejaVuSans-30" x="242.822266"/>
      </g>
     </g>
    </g>
    <g id="ytick_2">
     <g id="line2d_15">
      <path d="M 57.6 265.248 
L 414.72 265.248 
" clip-path="url(#p4fa84598de)" style="fill: none; stroke: #b0b0b0; stroke-width: 0.8; stroke-linecap: square"/>
     </g>
     <g id="line2d_16">
      <g>
       <use xlink:href="#m4a1739c1e1" x="57.6" y="265.248" style="stroke: #000000; stroke-width: 0.8"/>
      </g>
     </g>
     <g id="text_9">
      <!-- −0.75 -->
      <g transform="translate(19.954687 269.047219)scale(0.1 -0.1)">
       <defs>
        <path id="DejaVuSans-37" d="M 525 4666 
L 3525 4666 
L 3525 4397 
L 1831 0 
L 1172 0 
L 2766 4134 
L 525 4134 
L 525 4666 
z
" transform="scale(0.015625)"/>
        <path id="DejaVuSans-35" d="M 691 4666 
L 3169 4666 
L 3169 4134 
L 1269 4134 
L 1269 2991 
Q 1406 3038 1543 3061 
Q 1681 3084 1819 3084 
Q 2600 3084 3056 2656 
Q 3513 2228 3513 1497 
Q 3513 744 3044 326 
Q 2575 -91 1722 -91 
Q 1428 -91 1123 -41 
Q 819 9 494 109 
L 494 744 
Q 775 591 1075 516 
Q 1375 441 1709 441 
Q 2250 441 2565 725 
Q 2881 1009 2881 1497 
Q 2881 1984 2565 2268 
Q 2250 2553 1709 2553 
Q 1456 2553 1204 2497 
Q 953 2441 691 2322 
L 691 4666 
z
" transform="scale(0.015625)"/>
       </defs>
       <use xlink:href="#DejaVuSans-2212"/>
       <use xlink:href="#DejaVuSans-30" x="83.789062"/>
       <use xlink:href="#DejaVuSans-2e" x="147.412109"/>
       <use xlink:href="#DejaVuSans-37" x="179.199219"/>
       <use xlink:href="#DejaVuSans-35" x="242.822266"/>
      </g>
     </g>
    </g>
    <g id="ytick_3">
     <g id="line2d_17">
      <path d="M 57.6 235.008 
L 414.72 235.008 
" clip-path="url(#p4fa84598de)" style="fill: none; stroke: #b0b0b0; stroke-width: 0.8; stroke-linecap: square"/>
     </g>
     <g id="line2d_18">
      <g>
       <use xlink:href="#m4a1739c1e1" x="57.6" y="235.008" style="stroke: #000000; stroke-width: 0.8"/>
      </g>
     </g>
     <g id="text_10">
      <!-- −0.50 -->
      <g transform="translate(19.954687 238.807219)scale(0.1 -0.1)">
       <use xlink:href="#DejaVuSans-2212"/>
       <use xlink:href="#DejaVuSans-30" x="83.789062"/>
       <use xlink:href="#DejaVuSans-2e" x="147.412109"/>
       <use xlink:href="#DejaVuSans-35" x="179.199219"/>
       <use xlink:href="#DejaVuSans-30" x="242.822266"/>
      </g>
     </g>
    </g>
    <g id="ytick_4">
     <g id="line2d_19">
      <path d="M 57.6 204.768 
L 414.72 204.768 
" clip-path="url(#p4fa84598de)" style="fill: none; stroke: #b0b0b0; stroke-width: 0.8; stroke-linecap: square"/>
     </g>
     <g id="line2d_20">
      <g>
       <use xlink:href="#m4a1739c1e1" x="57.6" y="204.768" style="stroke: #000000; stroke-width: 0.8"/>
      </g>
     </g>
     <g id="text_11">
      <!-- −0.25 -->
      <g transform="translate(19.954687 208.567219)scale(0.1 -0.1)">
       <use xlink:href="#DejaVuSans-2212"/>
       <use xlink:href="#DejaVuSans-30" x="83.789062"/>
       <use xlink:href="#DejaVuSans-2e" x="147.412109"/>
       <use xlink:href="#DejaVuSans-32" x="179.199219"/>
       <use xlink:href="#DejaVuSans-35" x="242.822266"/>
      </g>
     </g>
    </g>
    <g id="ytick_5">
     <g id="line2d_21">
      <path d="M 57.6 174.528 
L 414.72 174.528 
" clip-path="url(#p4fa84598de)" style="fill: none; stroke: #b0b0b0; stroke-width: 0.8; stroke-linecap: square"/>
     </g>
     <g id="line2d_22">
      <g>
       <use xlink:href="#m4a1739c1e1" x="57.6" y="174.528" style="stroke: #000000; stroke-width: 0.8"/>
      </g>
     </g>
     <g id="text_12">
      <!-- 0.00 -->
      <g transform="translate(28.334375 178.327219)scale(0.1 -0.1)">
       <use xlink:href="#DejaVuSans-30"/>
       <use xlink:href="#DejaVuSans-2e" x="63.623047"/>
       <use xlink:href="#DejaVuSans-30" x="95.410156"/>
       <use xlink:href="#DejaVuSans-30" x="159.033203"/>
      </g>
     </g>
    </g>
    <g id="ytick_6">
     <g id="line2d_23">
      <path d="M 57.6 144.288 
L 414.72 144.288 
" clip-path="url(#p4fa84598de)" style="fill: none; stroke: #b0b0b0; stroke-width: 0.8; stroke-linecap: square"/>
     </g>
     <g id="line2d_24">
      <g>
       <use xlink:href="#m4a1739c1e1" x="57.6" y="144.288" style="stroke: #000000; stroke-width: 0.8"/>
      </g>
     </g>
     <g id="text_13">
      <!-- 0.25 -->
      <g transform="translate(28.334375 148.087219)scale(0.1 -0.1)">
       <use xlink:href="#DejaVuSans-30"/>
       <use xlink:href="#DejaVuSans-2e" x="63.623047"/>
       <use xlink:href="#DejaVuSans-32" x="95.410156"/>
       <use xlink:href="#DejaVuSans-35" x="159.033203"/>
      </g>
     </g>
    </g>
    <g id="ytick_7">
     <g id="line2d_25">
      <path d="M 57.6 114.048 
L 414.72 114.048 
" clip-path="url(#p4fa84598de)" style="fill: none; stroke: #b0b0b0; stroke-width: 0.8; stroke-linecap: square"/>
     </g>
     <g id="line2d_26">
      <g>
       <use xlink:href="#m4a1739c1e1" x="57.6" y="114.048" style="stroke: #000000; stroke-width: 0.8"/>
      </g>
     </g>
     <g id="text_14">
      <!-- 0.50 -->
      <g transform="translate(28.334375 117.847219)scale(0.1 -0.1)">
       <use xlink:href="#DejaVuSans-30"/>
       <use xlink:href="#DejaVuSans-2e" x="63.623047"/>
       <use xlink:href="#DejaVuSans-35" x="95.410156"/>
       <use xlink:href="#DejaVuSans-30" x="159.033203"/>
      </g>
     </g>
    </g>
    <g id="ytick_8">
     <g id="line2d_27">
      <path d="M 57.6 83.808 
L 414.72 83.808 
" clip-path="url(#p4fa84598de)" style="fill: none; stroke: #b0b0b0; stroke-width: 0.8; stroke-linecap: square"/>
     </g>
     <g id="line2d_28">
      <g>
       <use xlink:href="#m4a1739c1e1" x="57.6" y="83.808" style="stroke: #000000; stroke-width: 0.8"/>
      </g>
     </g>
     <g id="text_15">
      <!-- 0.75 -->
      <g transform="translate(28.334375 87.607219)scale(0.1 -0.1)">
       <use xlink:href="#DejaVuSans-30"/>
       <use xlink:href="#DejaVuSans-2e" x="63.623047"/>
       <use xlink:href="#DejaVuSans-37" x="95.410156"/>
       <use xlink:href="#DejaVuSans-35" x="159.033203"/>
      </g>
     </g>
    </g>
    <g id="ytick_9">
     <g id="line2d_29">
      <path d="M 57.6 53.568 
L 414.72 53.568 
" clip-path="url(#p4fa84598de)" style="fill: none; stroke: #b0b0b0; stroke-width: 0.8; stroke-linecap: square"/>
     </g>
     <g id="line2d_30">
      <g>
       <use xlink:href="#m4a1739c1e1" x="57.6" y="53.568" style="stroke: #000000; stroke-width: 0.8"/>
      </g>
     </g>
     <g id="text_16">
      <!-- 1.00 -->
      <g transform="translate(28.334375 57.367219)scale(0.1 -0.1)">
       <use xlink:href="#DejaVuSans-31"/>
       <use xlink:href="#DejaVuSans-2e" x="63.623047"/>
       <use xlink:href="#DejaVuSans-30" x="95.410156"/>
       <use xlink:href="#DejaVuSans-30" x="159.033203"/>
      </g>
     </g>
    </g>
    <g id="text_17">
     <!-- Amplitude -->
     <g transform="translate(13.875 200.150656)rotate(-90)scale(0.1 -0.1)">
      <defs>
       <path id="DejaVuSans-41" d="M 2188 4044 
L 1331 1722 
L 3047 1722 
L 2188 4044 
z
M 1831 4666 
L 2547 4666 
L 4325 0 
L 3669 0 
L 3244 1197 
L 1141 1197 
L 716 0 
L 50 0 
L 1831 4666 
z
" transform="scale(0.015625)"/>
       <path id="DejaVuSans-74" d="M 1172 4494 
L 1172 3500 
L 2356 3500 
L 2356 3053 
L 1172 3053 
L 1172 1153 
Q 1172 725 1289 603 
Q 1406 481 1766 481 
L 2356 481 
L 2356 0 
L 1766 0 
Q 1100 0 847 248 
Q 594 497 594 1153 
L 594 3053 
L 172 3053 
L 172 3500 
L 594 3500 
L 594 4494 
L 1172 4494 
z
" transform="scale(0.015625)"/>
       <path id="DejaVuSans-75" d="M 544 1381 
L 544 3500 
L 1119 3500 
L 1119 1403 
Q 1119 906 1312 657 
Q 1506 409 1894 409 
Q 2359 409 2629 706 
Q 2900 1003 2900 1516 
L 2900 3500 
L 3475 3500 
L 3475 0 
L 2900 0 
L 2900 538 
Q 2691 219 2414 64 
Q 2138 -91 1772 -91 
Q 1169 -91 856 284 
Q 544 659 544 1381 
z
M 1991 3584 
L 1991 3584 
z
" transform="scale(0.015625)"/>
       <path id="DejaVuSans-64" d="M 2906 2969 
L 2906 4863 
L 3481 4863 
L 3481 0 
L 2906 0 
L 2906 525 
Q 2725 213 2448 61 
Q 2172 -91 1784 -91 
Q 1150 -91 751 415 
Q 353 922 353 1747 
Q 353 2572 751 3078 
Q 1150 3584 1784 3584 
Q 2172 3584 2448 3432 
Q 2725 3281 2906 2969 
z
M 947 1747 
Q 947 1113 1208 752 
Q 1469 391 1925 391 
Q 2381 391 2643 752 
Q 2906 1113 2906 1747 
Q 2906 2381 2643 2742 
Q 2381 3103 1925 3103 
Q 1469 3103 1208 2742 
Q 947 2381 947 1747 
z
" transform="scale(0.015625)"/>
      </defs>
      <use xlink:href="#DejaVuSans-41"/>
      <use xlink:href="#DejaVuSans-6d" x="68.408203"/>
      <use xlink:href="#DejaVuSans-70" x="165.820312"/>
      <use xlink:href="#DejaVuSans-6c" x="229.296875"/>
      <use xlink:href="#DejaVuSans-69" x="257.080078"/>
      <use xlink:href="#DejaVuSans-74" x="284.863281"/>
      <use xlink:href="#DejaVuSans-75" x="324.072266"/>
      <use xlink:href="#DejaVuSans-64" x="387.451172"/>
      <use xlink:href="#DejaVuSans-65" x="450.927734"/>
     </g>
    </g>
   </g>
   <g id="line2d_31">
    <path d="M 73.832727 174.528 
L 77.732482 129.957216 
L 80.007338 106.478631 
L 81.632236 91.658656 
L 83.257133 78.883278 
L 84.557052 70.348802 
L 85.85697 63.46058 
L 86.831908 59.441276 
L 87.806847 56.445535 
L 88.456806 55.03056 
L 89.106765 54.088131 
L 89.756724 53.621975 
L 90.081704 53.56815 
L 90.406683 53.633936 
L 91.056642 54.123965 
L 91.706601 55.090125 
L 92.35656 56.528596 
L 93.006519 58.433689 
L 93.981458 62.149269 
L 94.956396 66.864326 
L 96.256314 74.632098 
L 97.556233 83.978439 
L 99.18113 97.654039 
L 100.806028 113.226315 
L 103.080885 137.475047 
L 106.655659 178.711427 
L 110.230434 219.452185 
L 112.505291 242.891516 
L 114.130188 257.674028 
L 115.755086 270.405116 
L 117.055004 278.899976 
L 118.354922 285.745535 
L 119.329861 289.731245 
L 120.304799 292.692357 
L 120.954758 294.083823 
L 121.604717 295.002511 
L 122.254676 295.444789 
L 122.579656 295.486654 
L 122.904636 295.408909 
L 123.554595 294.895011 
L 124.204554 293.905129 
L 124.854513 292.443176 
L 125.504472 290.514935 
L 126.47941 286.765457 
L 127.454349 282.017757 
L 128.754267 274.208917 
L 130.054185 264.824905 
L 131.679083 251.107894 
L 133.30398 235.501463 
L 135.578837 211.21867 
L 139.153612 169.964434 
L 142.728387 129.250858 
L 145.003243 105.851014 
L 146.628141 91.106111 
L 148.253038 78.419437 
L 149.552957 69.964279 
L 150.852875 63.161451 
L 151.827813 59.209372 
L 152.802752 56.282918 
L 153.452711 54.914977 
L 154.10267 54.020038 
L 154.752629 53.601642 
L 155.077609 53.571738 
L 155.402588 53.661443 
L 156.052547 54.199203 
L 156.702506 55.212798 
L 157.352465 56.698217 
L 158.002424 58.649589 
L 158.977363 62.432928 
L 159.952301 67.213222 
L 161.252219 75.063054 
L 162.552138 84.484645 
L 164.177035 98.24293 
L 166.126912 117.204061 
L 168.401769 141.845609 
L 172.951482 194.595323 
L 175.876298 227.108475 
L 177.826175 246.607655 
L 179.451073 260.929321 
L 180.750991 270.867059 
L 182.050909 279.282433 
L 183.350827 286.042462 
L 184.325766 289.96087 
L 185.300704 292.852637 
L 185.950663 294.197041 
L 186.600622 295.068221 
L 187.250581 295.462731 
L 187.575561 295.480673 
L 187.900541 295.379011 
L 188.5505 294.817392 
L 189.200459 293.780096 
L 189.850418 292.271224 
L 190.500377 290.296742 
L 191.475315 286.479579 
L 192.450254 281.666736 
L 193.750172 273.775991 
L 195.05009 264.316915 
L 196.674988 250.517491 
L 198.624865 231.516696 
L 200.899722 206.84399 
L 205.449435 154.085661 
L 208.374251 121.605217 
L 210.324128 102.143227 
L 211.949025 87.860895 
L 213.248943 77.959398 
L 214.548862 69.583892 
L 215.5238 64.384279 
L 216.498739 60.164267 
L 217.473677 56.961387 
L 218.123636 55.405654 
L 218.773595 54.320985 
L 219.423554 53.711667 
L 219.748534 53.586092 
L 220.073514 53.580112 
L 220.398493 53.693731 
L 221.048452 54.279202 
L 221.698411 55.34019 
L 222.34837 56.8725 
L 222.998329 58.870072 
L 223.973268 62.721021 
L 224.948206 67.566364 
L 226.248124 75.497945 
L 227.548043 84.994412 
L 229.17294 98.834839 
L 231.122817 117.87511 
L 233.397674 142.57873 
L 238.272367 199.081362 
L 240.872203 227.792568 
L 242.82208 247.217174 
L 244.446978 261.460032 
L 245.746896 271.32519 
L 247.046814 279.660746 
L 248.021753 284.828403 
L 248.996691 289.015066 
L 249.97163 292.1835 
L 250.621589 293.71581 
L 251.271548 294.776798 
L 251.921507 295.362269 
L 252.246486 295.475888 
L 252.571466 295.469908 
L 252.896446 295.344333 
L 253.546405 294.735015 
L 254.196364 293.650346 
L 254.846323 292.094613 
L 255.496282 290.07397 
L 256.47122 286.189272 
L 257.446159 281.311477 
L 258.746077 273.33914 
L 260.045995 263.805374 
L 261.670893 249.924082 
L 263.62077 230.844524 
L 265.895627 206.110234 
L 274.670074 107.741914 
L 276.294971 92.773558 
L 277.919869 79.822292 
L 279.219787 71.130196 
L 280.519705 64.072006 
L 281.494644 59.918733 
L 282.469582 56.784776 
L 283.119541 55.275904 
L 283.7695 54.238608 
L 284.419459 53.676989 
L 284.744439 53.575327 
L 285.069419 53.593269 
L 285.719378 53.987779 
L 286.369337 54.858959 
L 287.019296 56.203363 
L 287.669255 58.015676 
L 288.644193 61.595297 
L 289.619132 66.179323 
L 290.59407 71.726984 
L 291.893989 80.536395 
L 293.193907 90.831074 
L 294.818804 105.538223 
L 296.768681 125.398646 
L 299.368518 154.460677 
L 305.868108 228.474554 
L 307.817985 247.823818 
L 309.442883 261.987304 
L 310.742801 271.779493 
L 312.042719 280.0349 
L 313.017658 285.138493 
L 313.992596 289.258334 
L 314.967535 292.357783 
L 315.617494 293.843202 
L 316.267453 294.856797 
L 316.917412 295.394557 
L 317.242391 295.484262 
L 317.567371 295.454358 
L 318.21733 295.035962 
L 318.867289 294.141023 
L 319.517248 292.773082 
L 320.167207 290.937546 
L 321.142146 287.323882 
L 322.117084 282.707029 
L 323.092023 277.12805 
L 324.391941 268.279709 
L 325.691859 257.949889 
L 327.316757 243.204986 
L 329.266634 223.309514 
L 331.86647 194.220108 
L 338.366061 120.241251 
L 340.315938 100.929946 
L 341.940835 86.806357 
L 343.240753 77.050797 
L 344.540672 68.835587 
L 345.51561 63.764102 
L 346.490549 59.677733 
L 347.465487 56.612824 
L 348.115446 55.150871 
L 348.765405 54.160989 
L 349.415364 53.647091 
L 349.740344 53.569346 
L 350.065324 53.611211 
L 350.715283 54.053489 
L 351.365242 54.972177 
L 352.015201 56.363643 
L 352.66516 58.222382 
L 353.640098 61.870055 
L 354.615037 66.519688 
L 355.589975 72.12993 
L 356.889894 81.017115 
L 358.189812 91.381972 
L 359.814709 106.164484 
L 361.764586 126.09481 
L 364.364423 155.211302 
L 370.539034 225.734076 
L 372.488911 245.380087 
L 374.113808 259.857668 
L 375.738706 272.229948 
L 377.038624 280.404881 
L 378.013563 285.444208 
L 378.988501 289.497064 
L 379.96344 292.527404 
L 380.613399 293.965875 
L 381.263358 294.932035 
L 381.913317 295.422064 
L 382.238296 295.48785 
L 382.563276 295.434025 
L 383.213235 294.967869 
L 383.863194 294.02544 
L 384.513153 292.610465 
L 385.163112 290.728539 
L 386.138051 287.046895 
L 387.112989 282.364526 
L 388.087928 276.723077 
L 389.387846 267.797137 
L 390.687764 257.397344 
L 392.312662 242.577369 
L 394.262539 222.612388 
L 396.862375 193.469098 
L 398.487273 174.528 
L 398.487273 174.528 
" clip-path="url(#p4fa84598de)" style="fill: none; stroke: #1f77b4; stroke-width: 1.5; stroke-linecap: square"/>
   </g>
   <g id="line2d_32">
    <path d="M 73.832727 174.528 
L 76.432563 130.294454 
L 78.057461 106.200675 
L 79.357379 90.083278 
L 80.332318 80.101824 
L 81.307256 71.975887 
L 82.282195 65.644572 
L 83.257133 60.960799 
L 83.907093 58.649206 
L 84.557052 56.898523 
L 85.207011 55.626495 
L 85.85697 54.748497 
L 86.506929 54.181046 
L 87.156888 53.845224 
L 88.131826 53.622955 
L 89.756724 53.568036 
L 92.35656 53.675808 
L 93.331499 54.005733 
L 93.981458 54.459577 
L 94.631417 55.187694 
L 95.281376 56.271924 
L 95.931335 57.796809 
L 96.581294 59.846109 
L 97.231253 62.499278 
L 98.206192 67.765289 
L 99.18113 74.741794 
L 100.156069 83.545996 
L 101.131007 94.204024 
L 102.430925 111.156874 
L 104.055823 136.069613 
L 106.655659 180.800639 
L 109.255495 224.384716 
L 110.880393 247.59366 
L 112.180311 262.847912 
L 113.15525 272.14793 
L 114.130188 279.603899 
L 115.105127 285.309969 
L 116.080066 289.440734 
L 116.730025 291.433918 
L 117.379984 292.910928 
L 118.029943 293.95576 
L 118.679902 294.652841 
L 119.329861 295.083555 
L 120.304799 295.391827 
L 121.604717 295.485081 
L 124.529533 295.425325 
L 125.504472 295.185514 
L 126.154431 294.829884 
L 126.80439 294.235031 
L 127.454349 293.321432 
L 128.104308 292.005336 
L 128.754267 290.202193 
L 129.404226 287.830181 
L 130.054185 284.813681 
L 131.029124 278.939287 
L 132.004062 271.301683 
L 132.979001 261.81562 
L 134.278919 246.323596 
L 135.578837 227.876079 
L 137.203735 201.606354 
L 142.403407 114.418959 
L 143.703325 96.951861 
L 145.003243 82.581821 
L 145.978182 73.963158 
L 146.95312 67.164366 
L 147.928059 62.059878 
L 148.902998 58.45022 
L 149.552957 56.75117 
L 150.202916 55.522362 
L 150.852875 54.679126 
L 151.502834 54.138286 
L 152.152793 53.821559 
L 153.127731 53.615968 
L 155.077609 53.568 
L 157.027486 53.634825 
L 158.002424 53.883736 
L 158.652383 54.249542 
L 159.302342 54.858394 
L 159.952301 55.790108 
L 160.60226 57.128557 
L 161.252219 58.958237 
L 161.902179 61.360744 
L 162.552138 64.411296 
L 163.527076 70.342178 
L 164.502015 78.040523 
L 165.476953 87.588584 
L 166.776871 103.159495 
L 168.07679 121.674335 
L 169.701687 148.001377 
L 174.90136 235.108042 
L 176.201278 252.502586 
L 177.501196 266.79143 
L 178.476134 275.348323 
L 179.451073 282.088154 
L 180.426011 287.139246 
L 181.40095 290.703194 
L 182.050909 292.376737 
L 182.700868 293.584254 
L 183.350827 294.410422 
L 184.000786 294.938252 
L 184.650745 295.245696 
L 185.625684 295.443266 
L 187.575561 295.487999 
L 189.525438 295.416824 
L 190.500377 295.15859 
L 191.150336 294.782427 
L 191.800295 294.159374 
L 192.450254 293.209335 
L 193.100213 291.848321 
L 193.750172 289.991899 
L 194.400131 287.558709 
L 195.05009 284.47394 
L 196.025029 278.486386 
L 196.999967 270.727207 
L 197.974906 261.117161 
L 199.274824 245.467558 
L 200.574742 226.885781 
L 202.524619 194.937878 
L 206.749353 123.166352 
L 208.374251 100.209234 
L 209.674169 85.194322 
L 210.649107 76.080341 
L 211.624046 68.805054 
L 212.598984 63.265547 
L 213.573923 59.280169 
L 214.223882 57.369649 
L 214.873841 55.962871 
L 215.5238 54.975549 
L 216.173759 54.323492 
L 216.823718 53.926065 
L 217.798657 53.648507 
L 219.098575 53.569872 
L 222.023391 53.643734 
L 222.998329 53.911517 
L 223.648288 54.29822 
L 224.298247 54.935674 
L 224.948206 55.904249 
L 225.598165 57.288039 
L 226.248124 59.171409 
L 226.898084 61.635469 
L 227.548043 64.754617 
L 228.522981 70.799026 
L 229.49792 78.619128 
L 230.472858 88.291142 
L 231.772776 104.019237 
L 233.072695 122.667562 
L 235.022572 154.678113 
L 239.247305 226.388438 
L 240.872203 249.260669 
L 242.172121 264.195475 
L 243.14706 273.247462 
L 244.121998 280.462748 
L 245.096937 285.947139 
L 246.071876 289.884591 
L 246.721835 291.767961 
L 247.371794 293.151751 
L 248.021753 294.120326 
L 248.671712 294.75778 
L 249.321671 295.144483 
L 250.296609 295.412266 
L 251.921507 295.487804 
L 254.521343 295.407493 
L 255.496282 295.129935 
L 256.146241 294.732508 
L 256.7962 294.080451 
L 257.446159 293.093129 
L 258.096118 291.686351 
L 258.746077 289.775831 
L 259.396036 287.280713 
L 260.045995 284.127023 
L 261.020934 278.025581 
L 261.995872 270.14447 
L 262.970811 260.41051 
L 264.270729 244.604126 
L 265.570647 225.889648 
L 267.520524 193.817312 
L 271.745258 122.170219 
L 273.370156 99.38334 
L 274.670074 84.528793 
L 275.645012 75.538784 
L 276.619951 68.383379 
L 277.594889 62.9539 
L 278.569828 59.064101 
L 279.219787 57.207679 
L 279.869746 55.846665 
L 280.519705 54.896626 
L 281.169664 54.273573 
L 281.819623 53.89741 
L 282.794562 53.639176 
L 284.419459 53.568147 
L 287.019296 53.6535 
L 287.994234 53.941064 
L 288.644193 54.3494 
L 289.294152 55.016261 
L 289.944111 56.022542 
L 290.59407 57.45252 
L 291.244029 59.390392 
L 291.893989 61.916754 
L 292.543948 65.105145 
L 293.518886 71.263797 
L 294.493825 79.206 
L 295.468763 89.00188 
L 296.768681 104.886343 
L 298.0686 123.666577 
L 300.018477 155.799831 
L 304.24321 227.381665 
L 305.543129 245.896505 
L 306.843047 261.467416 
L 307.817985 271.015477 
L 308.792924 278.713822 
L 309.767862 284.644704 
L 310.742801 288.973003 
L 311.39276 291.079216 
L 312.042719 292.652817 
L 312.692678 293.777293 
L 313.342637 294.537267 
L 313.992596 295.015003 
L 314.967535 295.367542 
L 316.267453 295.483068 
L 319.192269 295.440032 
L 320.167207 295.234441 
L 320.817166 294.917714 
L 321.467125 294.376874 
L 322.117084 293.533638 
L 322.767043 292.30483 
L 323.417002 290.60578 
L 324.066962 288.35384 
L 324.716921 285.471876 
L 325.691859 279.821526 
L 326.666798 272.425895 
L 327.641736 263.187894 
L 328.616675 252.104139 
L 329.916593 234.637041 
L 331.541491 209.240502 
L 334.466306 158.613494 
L 336.741163 121.179921 
L 338.041081 102.732404 
L 339.340999 87.24038 
L 340.315938 77.754317 
L 341.290876 70.116713 
L 342.265815 64.242319 
L 343.240753 59.963793 
L 343.890713 57.886136 
L 344.540672 56.336997 
L 345.190631 55.232751 
L 345.84059 54.488808 
L 346.490549 54.023113 
L 347.465487 53.682002 
L 348.765405 53.572353 
L 351.690221 53.619373 
L 352.66516 53.833196 
L 353.315119 54.159382 
L 353.965078 54.713429 
L 354.615037 55.573942 
L 355.264996 56.824253 
L 355.914955 58.549016 
L 356.564914 60.830687 
L 357.214873 63.746031 
L 358.189812 69.452101 
L 359.16475 76.90807 
L 360.139689 86.208088 
L 361.439607 101.46234 
L 362.739525 119.705624 
L 364.364423 145.799264 
L 369.889075 237.899126 
L 371.188993 254.851976 
L 372.488911 268.651427 
L 373.463849 276.838751 
L 374.438788 283.227954 
L 375.413726 287.963493 
L 376.063686 290.3052 
L 376.713645 292.08201 
L 377.363604 293.375966 
L 378.013563 294.27166 
L 378.663522 294.852712 
L 379.313481 295.198349 
L 380.288419 295.429279 
L 381.913317 295.487946 
L 384.513153 295.386133 
L 385.488092 295.067154 
L 386.138051 294.624969 
L 386.78801 293.912472 
L 387.437969 292.848048 
L 388.087928 291.347205 
L 388.737887 289.326063 
L 389.387846 286.704869 
L 390.362785 281.492919 
L 391.337723 274.575787 
L 392.312662 265.833466 
L 393.2876 255.236612 
L 394.587518 238.358396 
L 396.212416 213.517208 
L 398.487273 174.528 
L 398.487273 174.528 
" clip-path="url(#p4fa84598de)" style="fill: none; stroke: #ff7f0e; stroke-width: 1.5; stroke-linecap: square"/>
   </g>
   <g id="line2d_33">
    <path d="M 73.832727 174.528 
L 77.732482 85.834576 
L 78.70742 69.916679 
L 79.357379 62.531459 
L 80.007338 57.499646 
L 80.657297 54.596503 
L 80.982277 53.867104 
L 81.307256 53.576404 
L 85.85697 53.568 
L 98.856151 53.586671 
L 99.18113 53.919762 
L 99.50611 54.694823 
L 99.831089 55.944072 
L 100.481048 59.988809 
L 101.131007 66.288718 
L 101.780966 75.055001 
L 102.430925 86.470758 
L 104.055823 122.445493 
L 110.555414 269.761845 
L 111.205373 279.567664 
L 111.855332 286.830253 
L 112.505291 291.750101 
L 113.15525 294.553107 
L 113.480229 295.237167 
L 113.805209 295.485807 
L 130.379165 295.488 
L 131.354103 295.454972 
L 131.679083 295.079159 
L 132.004062 294.258114 
L 132.329042 292.959711 
L 132.979001 288.807614 
L 133.62896 282.389188 
L 134.278919 273.494527 
L 134.928878 261.942053 
L 136.553776 225.867316 
L 143.053366 78.740697 
L 143.703325 69.066357 
L 144.353284 61.925897 
L 145.003243 57.117447 
L 145.653202 54.413963 
L 145.978182 53.774918 
L 146.303161 53.568004 
L 163.852056 53.619508 
L 164.177035 54.038372 
L 164.502015 54.905723 
L 164.826994 56.253591 
L 165.476953 60.513633 
L 166.126912 67.051103 
L 166.776871 76.074596 
L 167.42683 87.764161 
L 169.376708 131.395679 
L 175.226339 265.088087 
L 175.876298 275.960794 
L 176.526257 284.218192 
L 177.176216 290.049349 
L 177.826175 293.670552 
L 178.151155 294.726321 
L 178.476134 295.320676 
L 178.801114 295.488 
L 196.350008 295.413856 
L 196.674988 294.95161 
L 196.999967 294.037633 
L 197.324947 292.639991 
L 197.974906 288.271422 
L 198.624865 281.614385 
L 199.274824 272.461609 
L 199.924783 260.634583 
L 201.87466 216.911524 
L 207.724292 83.359594 
L 208.374251 72.621673 
L 209.02421 64.490321 
L 209.674169 58.775007 
L 210.324128 55.258198 
L 210.649107 54.250011 
L 210.974087 53.700019 
L 211.299066 53.568 
L 228.847961 53.66897 
L 229.17294 54.174925 
L 229.49792 55.135848 
L 229.822899 56.583573 
L 230.472858 61.06125 
L 231.122817 67.838373 
L 231.772776 77.120878 
L 232.422735 89.08573 
L 234.697592 140.407281 
L 240.222244 266.297803 
L 240.872203 276.901337 
L 241.522162 284.907119 
L 242.172121 290.507137 
L 242.82208 293.920152 
L 243.14706 294.881075 
L 243.472039 295.38703 
L 244.121998 295.488 
L 261.020934 295.488 
L 261.345913 295.355981 
L 261.670893 294.805989 
L 261.995872 293.797802 
L 262.645831 290.280993 
L 263.29579 284.565679 
L 263.945749 276.434327 
L 264.595708 265.696406 
L 265.570647 245.003884 
L 269.470401 154.769885 
L 272.395217 88.421417 
L 273.370156 71.694154 
L 274.020115 63.813461 
L 274.670074 58.328192 
L 275.320033 55.018367 
L 275.645012 54.10439 
L 275.969992 53.642144 
L 276.619951 53.568 
L 293.518886 53.568 
L 293.843866 53.735324 
L 294.168845 54.329679 
L 294.493825 55.385448 
L 295.143784 59.006651 
L 295.793743 64.837808 
L 296.443702 73.095206 
L 297.093661 83.967913 
L 298.0686 104.780241 
L 301.968354 195.044249 
L 304.89317 261.291839 
L 305.868108 277.815876 
L 306.518067 285.571965 
L 307.168026 290.943036 
L 307.817985 294.150277 
L 308.142965 295.017628 
L 308.467944 295.436492 
L 309.442883 295.488 
L 326.016839 295.487996 
L 326.341818 295.281082 
L 326.666798 294.642037 
L 326.991777 293.538371 
L 327.641736 289.812175 
L 328.291695 283.864635 
L 328.941654 275.480717 
L 329.591613 264.472829 
L 330.891532 236.222457 
L 338.041081 75.561473 
L 338.69104 66.666812 
L 339.340999 60.248386 
L 339.990958 56.096289 
L 340.315938 54.797886 
L 340.640917 53.976841 
L 340.965897 53.601028 
L 342.265815 53.568 
L 358.514791 53.570193 
L 358.839771 53.818833 
L 359.16475 54.502893 
L 359.48973 55.654773 
L 360.139689 59.486557 
L 360.789648 65.551019 
L 361.439607 74.061927 
L 362.089566 85.205387 
L 363.389484 113.569467 
L 370.539034 274.000999 
L 371.188993 282.767282 
L 371.838952 289.067191 
L 372.488911 293.111928 
L 372.81389 294.361177 
L 373.13887 295.136238 
L 373.463849 295.469329 
L 375.413726 295.488 
L 391.012744 295.479596 
L 391.337723 295.188896 
L 391.662703 294.459497 
L 391.987682 293.259089 
L 392.637641 289.321124 
L 393.2876 283.139205 
L 393.937559 274.500841 
L 394.587518 263.221424 
L 395.887437 234.750005 
L 398.487273 174.528 
L 398.487273 174.528 
" clip-path="url(#p4fa84598de)" style="fill: none; stroke: #2ca02c; stroke-width: 1.5; stroke-linecap: square"/>
   </g>
   <g id="line2d_34">
    <path d="M 73.832727 174.528 
L 77.082523 62.283388 
L 77.407502 53.568 
L 102.755905 53.568 
L 103.730844 85.300676 
L 109.905455 295.488 
L 135.253857 295.417769 
L 138.503653 183.656335 
L 142.078428 60.115224 
L 142.403407 53.568 
L 167.42683 53.568 
L 167.75181 54.714803 
L 171.001605 166.540509 
L 174.57638 290.023166 
L 174.90136 295.488 
L 199.924783 295.488 
L 200.249762 293.263439 
L 203.499558 181.374568 
L 207.074333 57.951587 
L 207.399312 53.568 
L 232.422735 53.568 
L 232.747715 56.871492 
L 235.99751 168.822424 
L 239.572285 292.184508 
L 239.897265 295.488 
L 264.920688 295.488 
L 265.245667 291.104413 
L 268.495463 179.092529 
L 272.070238 55.792561 
L 272.395217 53.568 
L 297.41864 53.568 
L 297.74362 59.032834 
L 300.993415 171.104564 
L 304.56819 294.341197 
L 304.89317 295.488 
L 329.916593 295.488 
L 330.241572 288.940776 
L 333.491368 176.81031 
L 337.066143 53.638231 
L 337.716102 53.568 
L 362.414545 53.568 
L 362.739525 61.198746 
L 365.98932 173.38684 
L 369.564095 295.488 
L 394.912498 295.488 
L 395.562457 275.866915 
L 398.487273 174.528 
L 398.487273 174.528 
" clip-path="url(#p4fa84598de)" style="fill: none; stroke: #d62728; stroke-width: 1.5; stroke-linecap: square"/>
   </g>
   <g id="patch_3">
    <path d="M 57.6 307.584 
L 57.6 41.472 
" style="fill: none; stroke: #000000; stroke-width: 0.8; stroke-linejoin: miter; stroke-linecap: square"/>
   </g>
   <g id="patch_4">
    <path d="M 414.72 307.584 
L 414.72 41.472 
" style="fill: none; stroke: #000000; stroke-width: 0.8; stroke-linejoin: miter; stroke-linecap: square"/>
   </g>
   <g id="patch_5">
    <path d="M 57.6 307.584 
L 414.72 307.584 
" style="fill: none; stroke: #000000; stroke-width: 0.8; stroke-linejoin: miter; stroke-linecap: square"/>
   </g>
   <g id="patch_6">
    <path d="M 57.6 41.472 
L 414.72 41.472 
" style="fill: none; stroke: #000000; stroke-width: 0.8; stroke-linejoin: miter; stroke-linecap: square"/>
   </g>
   <g id="text_18">
    <!-- Distortion -->
    <g transform="translate(206.764688 35.472)scale(0.12 -0.12)">
     <defs>
      <path id="DejaVuSans-44" d="M 1259 4147 
L 1259 519 
L 2022 519 
Q 2988 519 3436 956 
Q 3884 1394 3884 2338 
Q 3884 3275 3436 3711 
Q 2988 4147 2022 4147 
L 1259 4147 
z
M 628 4666 
L 1925 4666 
Q 3281 4666 3915 4102 
Q 4550 3538 4550 2338 
Q 4550 1131 3912 565 
Q 3275 0 1925 0 
L 628 0 
L 628 4666 
z
" transform="scale(0.015625)"/>
      <path id="DejaVuSans-6f" d="M 1959 3097 
Q 1497 3097 1228 2736 
Q 959 2375 959 1747 
Q 959 1119 1226 758 
Q 1494 397 1959 397 
Q 2419 397 2687 759 
Q 2956 1122 2956 1747 
Q 2956 2369 2687 2733 
Q 2419 3097 1959 3097 
z
M 1959 3584 
Q 2709 3584 3137 3096 
Q 3566 2609 3566 1747 
Q 3566 888 3137 398 
Q 2709 -91 1959 -91 
Q 1206 -91 779 398 
Q 353 888 353 1747 
Q 353 2609 779 3096 
Q 1206 3584 1959 3584 
z
" transform="scale(0.015625)"/>
      <path id="DejaVuSans-72" d="M 2631 2963 
Q 2534 3019 2420 3045 
Q 2306 3072 2169 3072 
Q 1681 3072 1420 2755 
Q 1159 2438 1159 1844 
L 1159 0 
L 581 0 
L 581 3500 
L 1159 3500 
L 1159 2956 
Q 1341 3275 1631 3429 
Q 1922 3584 2338 3584 
Q 2397 3584 2469 3576 
Q 2541 3569 2628 3553 
L 2631 2963 
z
" transform="scale(0.015625)"/>
      <path id="DejaVuSans-6e" d="M 3513 2113 
L 3513 0 
L 2938 0 
L 2938 2094 
Q 2938 2591 2744 2837 
Q 2550 3084 2163 3084 
Q 1697 3084 1428 2787 
Q 1159 2491 1159 1978 
L 1159 0 
L 581 0 
L 581 3500 
L 1159 3500 
L 1159 2956 
Q 1366 3272 1645 3428 
Q 1925 3584 2291 3584 
Q 2894 3584 3203 3211 
Q 3513 2838 3513 2113 
z
" transform="scale(0.015625)"/>
     </defs>
     <use xlink:href="#DejaVuSans-44"/>
     <use xlink:href="#DejaVuSans-69" x="77.001953"/>
     <use xlink:href="#DejaVuSans-73" x="104.785156"/>
     <use xlink:href="#DejaVuSans-74" x="156.884766"/>
     <use xlink:href="#DejaVuSans-6f" x="196.09375"/>
     <use xlink:href="#DejaVuSans-72" x="257.275391"/>
     <use xlink:href="#DejaVuSans-74" x="298.388672"/>
     <use xlink:href="#DejaVuSans-69" x="337.597656"/>
     <use xlink:href="#DejaVuSans-6f" x="365.380859"/>
     <use xlink:href="#DejaVuSans-6e" x="426.5625"/>
    </g>
   </g>
   <g id="legend_1">
    <g id="patch_7">
     <path d="M 328.121563 205.38425 
L 407.72 205.38425 
Q 409.72 205.38425 409.72 203.38425 
L 409.72 145.67175 
Q 409.72 143.67175 407.72 143.67175 
L 328.121563 143.67175 
Q 326.121563 143.67175 326.121563 145.67175 
L 326.121563 203.38425 
Q 326.121563 205.38425 328.121563 205.38425 
z
" style="fill: #ffffff; opacity: 0.8; stroke: #cccccc; stroke-linejoin: miter"/>
    </g>
    <g id="line2d_35">
     <path d="M 330.121563 151.770188 
L 340.121563 151.770188 
L 350.121563 151.770188 
" style="fill: none; stroke: #1f77b4; stroke-width: 1.5; stroke-linecap: square"/>
    </g>
    <g id="text_19">
     <!-- clean -->
     <g transform="translate(358.121563 155.270188)scale(0.1 -0.1)">
      <defs>
       <path id="DejaVuSans-63" d="M 3122 3366 
L 3122 2828 
Q 2878 2963 2633 3030 
Q 2388 3097 2138 3097 
Q 1578 3097 1268 2742 
Q 959 2388 959 1747 
Q 959 1106 1268 751 
Q 1578 397 2138 397 
Q 2388 397 2633 464 
Q 2878 531 3122 666 
L 3122 134 
Q 2881 22 2623 -34 
Q 2366 -91 2075 -91 
Q 1284 -91 818 406 
Q 353 903 353 1747 
Q 353 2603 823 3093 
Q 1294 3584 2113 3584 
Q 2378 3584 2631 3529 
Q 2884 3475 3122 3366 
z
" transform="scale(0.015625)"/>
      </defs>
      <use xlink:href="#DejaVuSans-63"/>
      <use xlink:href="#DejaVuSans-6c" x="54.980469"/>
      <use xlink:href="#DejaVuSans-65" x="82.763672"/>
      <use xlink:href="#DejaVuSans-61" x="144.287109"/>
      <use xlink:href="#DejaVuSans-6e" x="205.566406"/>
     </g>
    </g>
    <g id="line2d_36">
     <path d="M 330.121563 166.448313 
L 340.121563 166.448313 
L 350.121563 166.448313 
" style="fill: none; stroke: #ff7f0e; stroke-width: 1.5; stroke-linecap: square"/>
    </g>
    <g id="text_20">
     <!-- cubic -->
     <g transform="translate(358.121563 169.948313)scale(0.1 -0.1)">
      <defs>
       <path id="DejaVuSans-62" d="M 3116 1747 
Q 3116 2381 2855 2742 
Q 2594 3103 2138 3103 
Q 1681 3103 1420 2742 
Q 1159 2381 1159 1747 
Q 1159 1113 1420 752 
Q 1681 391 2138 391 
Q 2594 391 2855 752 
Q 3116 1113 3116 1747 
z
M 1159 2969 
Q 1341 3281 1617 3432 
Q 1894 3584 2278 3584 
Q 2916 3584 3314 3078 
Q 3713 2572 3713 1747 
Q 3713 922 3314 415 
Q 2916 -91 2278 -91 
Q 1894 -91 1617 61 
Q 1341 213 1159 525 
L 1159 0 
L 581 0 
L 581 4863 
L 1159 4863 
L 1159 2969 
z
" transform="scale(0.015625)"/>
      </defs>
      <use xlink:href="#DejaVuSans-63"/>
      <use xlink:href="#DejaVuSans-75" x="54.980469"/>
      <use xlink:href="#DejaVuSans-62" x="118.359375"/>
      <use xlink:href="#DejaVuSans-69" x="181.835938"/>
      <use xlink:href="#DejaVuSans-63" x="209.619141"/>
     </g>
    </g>
    <g id="line2d_37">
     <path d="M 330.121563 181.126438 
L 340.121563 181.126438 
L 350.121563 181.126438 
" style="fill: none; stroke: #2ca02c; stroke-width: 1.5; stroke-linecap: square"/>
    </g>
    <g id="text_21">
     <!-- quadratic -->
     <g transform="translate(358.121563 184.626438)scale(0.1 -0.1)">
      <defs>
       <path id="DejaVuSans-71" d="M 947 1747 
Q 947 1113 1208 752 
Q 1469 391 1925 391 
Q 2381 391 2643 752 
Q 2906 1113 2906 1747 
Q 2906 2381 2643 2742 
Q 2381 3103 1925 3103 
Q 1469 3103 1208 2742 
Q 947 2381 947 1747 
z
M 2906 525 
Q 2725 213 2448 61 
Q 2172 -91 1784 -91 
Q 1150 -91 751 415 
Q 353 922 353 1747 
Q 353 2572 751 3078 
Q 1150 3584 1784 3584 
Q 2172 3584 2448 3432 
Q 2725 3281 2906 2969 
L 2906 3500 
L 3481 3500 
L 3481 -1331 
L 2906 -1331 
L 2906 525 
z
" transform="scale(0.015625)"/>
      </defs>
      <use xlink:href="#DejaVuSans-71"/>
      <use xlink:href="#DejaVuSans-75" x="63.476562"/>
      <use xlink:href="#DejaVuSans-61" x="126.855469"/>
      <use xlink:href="#DejaVuSans-64" x="188.134766"/>
      <use xlink:href="#DejaVuSans-72" x="251.611328"/>
      <use xlink:href="#DejaVuSans-61" x="292.724609"/>
      <use xlink:href="#DejaVuSans-74" x="354.003906"/>
      <use xlink:href="#DejaVuSans-69" x="393.212891"/>
      <use xlink:href="#DejaVuSans-63" x="420.996094"/>
     </g>
    </g>
    <g id="line2d_38">
     <path d="M 330.121563 195.804563 
L 340.121563 195.804563 
L 350.121563 195.804563 
" style="fill: none; stroke: #d62728; stroke-width: 1.5; stroke-linecap: square"/>
    </g>
    <g id="text_22">
     <!-- fuzz -->
     <g transform="translate(358.121563 199.304563)scale(0.1 -0.1)">
      <defs>
       <path id="DejaVuSans-66" d="M 2375 4863 
L 2375 4384 
L 1825 4384 
Q 1516 4384 1395 4259 
Q 1275 4134 1275 3809 
L 1275 3500 
L 2222 3500 
L 2222 3053 
L 1275 3053 
L 1275 0 
L 697 0 
L 697 3053 
L 147 3053 
L 147 3500 
L 697 3500 
L 697 3744 
Q 697 4328 969 4595 
Q 1241 4863 1831 4863 
L 2375 4863 
z
" transform="scale(0.015625)"/>
       <path id="DejaVuSans-7a" d="M 353 3500 
L 3084 3500 
L 3084 2975 
L 922 459 
L 3084 459 
L 3084 0 
L 275 0 
L 275 525 
L 2438 3041 
L 353 3041 
L 353 3500 
z
" transform="scale(0.015625)"/>
      </defs>
      <use xlink:href="#DejaVuSans-66"/>
      <use xlink:href="#DejaVuSans-75" x="35.205078"/>
      <use xlink:href="#DejaVuSans-7a" x="98.583984"/>
      <use xlink:href="#DejaVuSans-7a" x="151.074219"/>
     </g>
    </g>
   </g>
  </g>
 </g>
 <defs>
  <clipPath id="p4fa84598de">
   <rect x="57.6" y="41.472" width="357.12" height="266.112"/>
  </clipPath>
 </defs>
</svg>
