<?xml version="1.0" encoding="UTF-8" standalone="no"?>
<svg
   id="svg2"
   sodipodi:docname="logo.svg"
   viewBox="0 0 160 156"
   version="1.1"
   inkscape:version="1.1.2 (0a00cf5339, 2022-02-04)"
   xmlns:inkscape="http://www.inkscape.org/namespaces/inkscape"
   xmlns:sodipodi="http://sodipodi.sourceforge.net/DTD/sodipodi-0.dtd"
   xmlns="http://www.w3.org/2000/svg"
   xmlns:svg="http://www.w3.org/2000/svg"
   xmlns:rdf="http://www.w3.org/1999/02/22-rdf-syntax-ns#"
   xmlns:cc="http://creativecommons.org/ns#"
   xmlns:dc="http://purl.org/dc/elements/1.1/">
  <defs
     id="defs6" />
  <sodipodi:namedview
     id="namedview8"
     bordercolor="#666666"
     inkscape:pageshadow="2"
     guidetolerance="10"
     pagecolor="#ffffff"
     gridtolerance="10"
     inkscape:window-maximized="1"
     inkscape:zoom="1.2685914"
     objecttolerance="10"
     borderopacity="1"
     inkscape:current-layer="svg2"
     inkscape:cx="61.091381"
     inkscape:cy="84.345519"
     inkscape:window-y="0"
     inkscape:window-x="0"
     inkscape:window-width="1920"
     showgrid="false"
     inkscape:pageopacity="0"
     inkscape:window-height="1022"
     inkscape:pagecheckerboard="0" />
  <metadata
     id="metadata6">
    <rdf:RDF>
      <cc:Work>
        <dc:format>image/svg+xml</dc:format>
        <dc:type
           rdf:resource="http://purl.org/dc/dcmitype/StillImage" />
        <cc:license
           rdf:resource="http://creativecommons.org/publicdomain/zero/1.0/" />
        <dc:publisher>
          <cc:Agent
             rdf:about="http://openclipart.org/">
            <dc:title>Openclipart</dc:title>
          </cc:Agent>
        </dc:publisher>
      </cc:Work>
      <cc:License
         rdf:about="http://creativecommons.org/licenses/publicdomain/">
        <cc:permits
           rdf:resource="http://creativecommons.org/ns#Reproduction" />
        <cc:permits
           rdf:resource="http://creativecommons.org/ns#Distribution" />
        <cc:permits
           rdf:resource="http://creativecommons.org/ns#DerivativeWorks" />
      </cc:License>
    </rdf:RDF>
  </metadata>
  <path
     id="path4"
     inkscape:connector-curvature="0"
     d="m 33.374005,23.011014 -1.576691,2.842918 16.555312,8.528753 c 0,7.107291 -3.153379,12.793126 -10.248529,16.346772 l -16.555335,-8.528751 -0.788346,1.421459 c 3.941748,10.66094 11.825244,17.768247 27.59221,17.768247 3.941746,0 15.766989,10.660921 22.07377,16.346744 L 83.039983,66.36551 c -6.306805,-5.685828 -20.49708,-18.47897 -20.49708,-22.032617 0,-12.793126 -3.941749,-21.321879 -29.168898,-21.321879 z m 98.543585,3.553649 -15.76695,9.950208 -1.5767,5.685835 -45.724233,41.222289 -6.306804,-3.553653 -3.15338,2.842925 c 0,8.528751 -11.036897,12.793132 -15.76699,12.793132 L 17.607015,118.95948 c 0,7.10728 8.67184,14.92532 16.555334,14.92532 l 26.015519,-23.45408 c 0,-4.26438 4.730093,-14.214592 14.190276,-14.214592 l 3.153403,-2.842925 -3.941747,-5.685827 45.72422,-41.222293 6.3068,-1.421461 11.03689,-14.214584 z M 92.500168,74.894254 79.886581,86.26592 c 9.460184,8.528751 22.073769,19.90042 22.073769,23.45407 0,12.79314 3.94175,21.32188 29.16889,21.32188 l 1.57669,-2.84291 -16.55529,-8.52874 c 0,-7.10732 3.15338,-12.79316 10.24852,-16.34679 l 16.55532,8.52874 0.78835,-1.42145 c -3.94175,-10.660939 -11.82524,-17.768246 -27.59219,-17.768246 -3.94177,0 -14.19029,-9.239479 -23.650472,-17.76822 z"
     style="fill:#7ce0fc;stroke-width:0.748533" />
  <text
     xml:space="preserve"
     style="font-style:normal;font-variant:normal;font-weight:normal;font-stretch:normal;font-size:45.7098px;line-height:1.25;font-family:'DejaVu Sans';-inkscape-font-specification:'DejaVu Sans, Normal';font-variant-ligatures:normal;font-variant-caps:normal;font-variant-numeric:normal;font-variant-east-asian:normal;fill:#002280;fill-opacity:1;stroke:#000080;stroke-width:1.14275"
     x="31.535456"
     y="100.39716"
     id="text3257"
     transform="scale(1.0676913,0.9366003)"><tspan
       sodipodi:role="line"
       id="tspan3255"
       x="31.535456"
       y="100.39716"
       style="fill:#002280;fill-opacity:1;stroke:#000080;stroke-width:1.14275">101</tspan></text>
  <path
     id="path46109"
     style="fill:none;stroke:#000080;stroke-width:5.11445;stroke-linecap:butt;stroke-linejoin:miter;stroke-miterlimit:4;stroke-dasharray:none;stroke-opacity:1"
     d="m 29.092228,147.1644 h 58.55619 m 44.609212,0 -7.74621,0.0789 M 132.25763,9.7314107 H 69.434801 m 62.822829,0 c 14.53167,0 26.23045,10.1759943 26.23045,22.8161303 v 91.800729 c 0,12.64013 -11.69878,22.81613 -26.23045,22.81613 m -103.165402,0 c -14.531667,0 -26.2304458,-10.176 -26.2304458,-22.81613 V 32.547541 c 0,-12.640136 11.6987788,-22.8161303 26.2304458,-22.8161303 l 3.817113,-0.079611 m 15.37162,0.054175 c 0,3.6817313 -3.431269,6.6663643 -7.663952,6.6663643 -4.232683,0 -7.663952,-2.984633 -7.663952,-6.6663643 0,-3.6817322 3.431267,-6.6663652 7.663952,-6.6663652 4.232684,0 7.663952,2.984633 7.663952,6.6663652 z m 21.742715,-2.3e-6 c 0,3.6817306 -3.43127,6.6663636 -7.663953,6.6663636 -4.232683,0 -7.663952,-2.984633 -7.663952,-6.6663636 0,-3.6817323 3.431268,-6.6663653 7.663952,-6.6663653 4.232685,0 7.663953,2.984633 7.663953,6.6663653 z M 124.86449,146.97229 a 7.6639518,6.6663649 0 0 1 -7.66394,6.66637 7.6639518,6.6663649 0 0 1 -7.66396,-6.66637 7.6639518,6.6663649 0 0 1 7.66396,-6.66637 7.6639518,6.6663649 0 0 1 7.66394,6.66637 z m -21.74271,0 a 7.6639518,6.6663649 0 0 1 -7.66395,6.66637 7.6639518,6.6663649 0 0 1 -7.663951,-6.66637 7.6639518,6.6663649 0 0 1 7.663951,-6.66637 7.6639518,6.6663649 0 0 1 7.66395,6.66637 z" />
</svg>
