<?xml version="1.0" encoding="UTF-8" standalone="no"?>
<!-- Created with Inkscape (http://www.inkscape.org/) -->

<svg
   width="293mm"
   height="297mm"
   viewBox="0 0 293 297"
   version="1.1"
   id="svg912"
   inkscape:version="1.1.2 (0a00cf5339, 2022-02-04)"
   sodipodi:docname="telescope_mirror_cell_2.svg"
   xmlns:inkscape="http://www.inkscape.org/namespaces/inkscape"
   xmlns:sodipodi="http://sodipodi.sourceforge.net/DTD/sodipodi-0.dtd"
   xmlns="http://www.w3.org/2000/svg"
   xmlns:svg="http://www.w3.org/2000/svg">
  <sodipodi:namedview
     id="namedview914"
     pagecolor="#ffffff"
     bordercolor="#cccccc"
     borderopacity="1"
     inkscape:pageshadow="0"
     inkscape:pageopacity="1"
     inkscape:pagecheckerboard="0"
     inkscape:document-units="mm"
     showgrid="false"
     inkscape:zoom="0.51150168"
     inkscape:cx="266.86129"
     inkscape:cy="703.81001"
     inkscape:window-width="1920"
     inkscape:window-height="1022"
     inkscape:window-x="0"
     inkscape:window-y="0"
     inkscape:window-maximized="1"
     inkscape:current-layer="layer1" />
  <defs
     id="defs909" />
  <g
     inkscape:label="Layer 1"
     inkscape:groupmode="layer"
     id="layer1">
    <path
       id="rect1847"
       style="fill:#7ce0fc;fill-opacity:0.548195;stroke:#474747;stroke-width:3.99999;stroke-opacity:0.718039"
       d="m 77.591797,13.228516 v 75.214843 c 0,0.207799 -11.172704,0.375 -25.050781,0.375 H 2 V 1033.6992 h 50.541016 c 13.878077,0 25.050781,0.1675 25.050781,0.375 v 75.2168 H 1022.4746 v -75.2168 c 0,-0.2079 11.1727,-0.375 25.0508,-0.375 h 50.5391 V 88.818359 h -50.5391 c -13.8781,0 -25.0508,-0.167201 -25.0508,-0.375 V 13.228516 Z M 151.77734,146.86133 h 247.07422 v 71.75976 A 374.64855,374.64858 0 0 0 207.50391,410.07812 H 135.63477 V 147.12695 c 0,-0.14702 7.19964,-0.26562 16.14257,-0.26562 z m 549.43555,0 h 247.07422 c 8.94293,0 16.14258,0.1186 16.14258,0.26562 v 262.95117 h -71.8711 A 374.64855,374.64858 0 0 0 701.21289,218.62305 Z m 14.5332,112.88281 a 15.11811,15.11811 0 0 1 7.19922,2.02148 15.11811,15.11811 0 0 1 5.53321,20.6504 15.11811,15.11811 0 0 1 -20.6504,5.53515 15.11811,15.11811 0 0 1 -5.53515,-20.65234 15.11811,15.11811 0 0 1 9.17969,-7.04492 15.11811,15.11811 0 0 1 4.27343,-0.50977 z m -35.32031,53.32031 a 22.677165,22.677165 0 0 1 11.33789,3.03711 22.677165,22.677165 0 0 1 8.30078,30.97852 22.677165,22.677165 0 0 1 -30.97656,8.30078 22.677165,22.677165 0 0 1 -8.30078,-30.97852 22.677165,22.677165 0 0 1 19.63867,-11.33789 z M 550.03125,373.60742 A 187.6524,187.6524 0 0 1 737.68555,561.25977 187.6524,187.6524 0 0 1 550.03125,748.91211 187.6524,187.6524 0 0 1 362.37891,561.25977 187.6524,187.6524 0 0 1 550.03125,373.60742 Z M 289.24414,538.91211 a 22.677165,22.677165 0 0 1 22.67774,22.67773 22.677165,22.677165 0 0 1 -22.67774,22.67774 22.677165,22.677165 0 0 1 -22.67578,-22.67774 22.677165,22.677165 0 0 1 22.67578,-22.67773 z m -69.91992,7.23047 a 15.11811,15.11811 0 0 1 15.11719,15.11719 15.11811,15.11811 0 0 1 -15.11719,15.11914 15.11811,15.11811 0 0 1 -15.11914,-15.11914 15.11811,15.11811 0 0 1 15.11914,-15.11719 z m -83.68945,166.29883 h 71.86914 A 374.64855,374.64858 0 0 0 398.85156,903.89844 V 975.6582 H 151.77734 c -8.94293,0 -16.14257,-0.1186 -16.14257,-0.26562 z m 756.92382,0 h 71.8711 v 262.95117 c 0,0.14702 -7.19965,0.26562 -16.14258,0.26562 H 701.21289 v -71.76172 a 374.64855,374.64858 0 0 0 191.3457,-191.45507 z m -212.13281,52.32031 a 22.677165,22.677165 0 0 1 19.63867,11.33789 22.677165,22.677165 0 0 1 -8.30078,30.97656 22.677165,22.677165 0 0 1 -30.97656,-8.29883 22.677165,22.677165 0 0 1 8.30078,-30.97851 22.677165,22.677165 0 0 1 11.33789,-3.03711 z m 34.60156,67.78516 a 15.11811,15.11811 0 0 1 4.27149,0.51171 15.11811,15.11811 0 0 1 9.17969,7.04493 15.11811,15.11811 0 0 1 -5.53321,20.65039 15.11811,15.11811 0 0 1 -20.65234,-5.53321 15.11811,15.11811 0 0 1 5.53515,-20.65234 15.11811,15.11811 0 0 1 7.19922,-2.02148 z"
       transform="scale(0.26458333)" />
  </g>
</svg>
